<svg version="1.1" id="Layer_1" xmlns="http://www.w3.org/2000/svg" x="0" y="0" viewBox="0 0 1920 1080" xml:space="preserve"><style>.st2{fill:#bae2c5}.st3{fill:#1a1a1a}.st4{fill:none;stroke:#999;stroke-width:.5}.st5{stroke-width:3.61;stroke-linecap:round;stroke-linejoin:round;stroke-miterlimit:10}.st5,.st6{fill:#999;stroke:#b3b3b3}.st10,.st9{stroke:#000;stroke-width:7.620000e-02}.st9{fill:#1f1a17}.st10{fill:#edeef0}.st15{fill:none;stroke:#999;stroke-width:4}.st17{fill:#4d4d4d;stroke:#000;stroke-linejoin:bevel}.st17,.st18{stroke-width:.1}.st18,.st19,.st20{stroke:#000;stroke-linejoin:bevel}.st18{fill:#666}.st19,.st20{fill:#333;stroke-width:.2056}.st20{stroke-width:.2385}.st21{fill:#666;stroke:#999}.st25{fill:#333;stroke:#000;stroke-width:.7679}.st31{fill:#ccc;stroke:#4d4d4d;stroke-width:.5}.st32{stroke-width:1.0384}.st32,.st33,.st34{fill:#ac9d93;stroke:#000}.st33{stroke-width:.5379}.st34{stroke-width:.5519}.st35{fill:#ac9d93;stroke-width:.54}.st35,.st45{stroke:#000}.st45,.st49{fill:#4d4d4d}.st51{stroke:#333;stroke-width:.8469}.st51,.st53{fill:#333}.st56{fill:#ccc;stroke:#999;stroke-width:.8}.st57{fill:gray;stroke:#e6e6e6;stroke-width:.4359}.st65{fill:#666}.st69{fill:none}.st72{font-family:&apos;MicrosoftSansSerif&apos;}.st73{font-size:74.3861px}.st76{font-size:35px}.st77{fill:#86a1b0}</style><path fill="#a7c9db" stroke="#000" stroke-miterlimit="10" d="M0 0h1920v1080H0z"/><path fill="#130924" stroke="#000" stroke-miterlimit="10" d="M93.3 122.2h700v893h-700z"/><path class="st2" d="M596.9 647.1H280.1c-4.5 0-8.2-3.7-8.2-8.2v-186c0-4.5 3.7-8.2 8.2-8.2h316.8c4.5 0 8.2 3.7 8.2 8.2v186c0 4.5-3.7 8.2-8.2 8.2z"/><ellipse class="st3" cx="500.1" cy="583.6" rx="41.5" ry="3.2"/><ellipse class="st4" cx="500.1" cy="583.6" rx="41.5" ry="3.2"/><ellipse class="st3" cx="376.5" cy="583.6" rx="41.5" ry="3.2"/><ellipse class="st4" cx="376.5" cy="583.6" rx="41.5" ry="3.2"/><path class="st5" d="M7776.8 5236.2l-164.9-391.1m239 357.7l-228.5-350.7m302.2 297.9L7661 4807.1m-55.8 27.9l-315-280.5m132.1-113.3l234.6 360m4.1 5.9l-156.8-401.3m80.4-17.1l24.7 414.9m61.3-416.1l-62.4 417.8m146.8-402.4l-89.7 418.1m170.8-386.1l-171.3 394.9m239.8-350.8l-270.9 312.4m333.3-252.3l-345.8 255.2m397.5-180l-361.8 230m393.1-157.7L7652.8 4848m415.9-76.9l-417.8 25.3m419.8 59.2l-412.9-53.4m397.5 139.6l-414-88.3m382.3 168.8l-382.1-168.7m336.8 239.2l-314.2-278.7m-418.9-189.3l389.1 166.7m-421-83.7l412 85.1m-426.8 5.8l419.5 51.1m-416.4 30.2l433.2-25.9m-413.7 109.5l392.3-164.3m-356.6 243l346.4-224.2m-294.7 295.6l330.7-259.9M7366.8 5168l282.5-317.6m-46.4-23l-159.7 388.2m163.2-378l-84.8 407.4m141.7-410.6l-54.3 424.8m75.5-2.1l-19.2-430.6m-62.4-.8L7350 4491.5" transform="translate(-339.247 4.321) scale(.11002)"/><path class="st6" d="M381.4 43.9c0-.4.4-.8.8-.8s.8.4.8.8-.4.8-.8.8c-.5 0-.8-.4-.8-.8m.6 0c0 .1.1.2.2.2s.2-.1.2-.2-.1-.2-.2-.2-.2.1-.2.2z" transform="translate(-1163.147 343.777) scale(4.3537)"/><g stroke="#c5a372"><path d="M548.943 534.58c0-26.622-21.815-48.437-48.437-48.437-26.621 0-48.436 21.815-48.436 48.436 0 26.622 21.815 48.437 48.436 48.437 26.622 0 48.437-21.445 48.437-48.437zm-1.48 0c0-25.883-21.075-46.958-46.957-46.958s-46.957 21.075-46.957 46.957 21.075 46.958 46.957 46.958 46.958-21.076 46.958-46.958z" fill="#666" stroke-width=".081"/><path d="M549.312 534.58c0 26.99-21.815 48.806-48.806 48.806-26.991 0-48.806-21.815-48.806-48.807 0-26.99 21.815-48.806 48.806-48.806 26.991 0 48.806 22.185 48.806 48.806z" fill="none" stroke-width="10.811"/></g><path class="st9" d="M213.5 125.8c0-.5-.4-.8-.8-.8-.5 0-.8.4-.8.8s.4.8.8.8.8-.4.8-.8" transform="translate(-285.894 69.871) scale(3.6974)"/><path class="st10" d="M212.9 125.8c0-.1-.1-.2-.2-.2s-.2.1-.2.2.1.2.2.2c.1-.1.2-.1.2-.2m-.7-.5l.1-.2.2-.1h.2l-.5.3z" transform="translate(-285.894 69.871) scale(3.6974)"/><path class="st10" d="M212.9 125.8c0-.1-.1-.2-.2-.2s-.2.1-.2.2.1.2.2.2c.1-.1.2-.1.2-.2" transform="translate(-285.894 69.871) scale(3.6974)"/><path class="st5" d="M11185.3 4959.3l-164.9-391.1m238.9 357.7l-228.5-350.7m302.3 297.9l-263.6-342.9m-55.8 27.8l-315-280.5m132.1-113.2l234.6 360m4 5.8l-156.8-401.3m80.5-17.1l24.7 414.9m61.2-416l-62.4 417.8m146.9-402.4l-89.7 418.1m170.7-386.2l-171.3 394.9m239.8-350.7l-270.9 312.4m333.4-252.4l-345.8 255.2m397.5-180l-361.8 230m393.1-157.6l-397.2 161.4m415.8-77l-417.8 25.3m419.8 59.2l-412.9-53.4m397.5 139.7l-414-88.3m382.4 168.7l-382.1-168.7m336.8 239.3l-314.2-278.7m-418.9-189.4l389.1 166.7m-421.1-83.6l412 85.1m-426.8 5.7l419.5 51.1m-416.3 30.2l433.2-25.9m-413.7 109.5l392.3-164.3m-356.6 243l346.4-224.2m-294.8 295.7l330.7-259.9m-272.3 314.2l282.5-317.6m-46.4-23l-159.7 388.2m163.2-378l-84.8 407.4m141.7-410.7l-54.3 424.8m75.5-2l-19.2-430.6m-62.4-.9l-252.9-334.2" transform="matrix(.0868 0 0 .0887 -581.104 139.88)"/><path class="st6" d="M467.5 36.9c0-.4.4-.8.8-.8s.8.4.8.8-.4.8-.8.8c-.5 0-.8-.4-.8-.8m.6 0c0 .1.1.2.2.2s.2-.1.2-.2-.1-.2-.2-.2c-.1.1-.2.1-.2.2z" transform="matrix(3.43496 0 0 3.50981 -1231.135 413.536)"/><g fill="none" stroke-width="5.271"><path d="M327.6 117.5c0 7.4-6 13.4-13.4 13.4s-13.4-6-13.4-13.4 6-13.4 13.4-13.4 13.4 6 13.4 13.4z" stroke="#c5a372" transform="matrix(2.91716 0 0 2.98073 -539.01 192.724)"/><path d="M327 117.5c0 7.1-5.8 12.9-12.9 12.9s-12.9-5.8-12.9-12.9 5.8-12.9 12.9-12.9c7.2 0 12.9 5.7 12.9 12.9z" stroke="#4d4d4d" transform="matrix(2.91716 0 0 2.98073 -539.01 192.724)"/></g><path class="st9" d="M315 117.5c0-.5-.4-.8-.8-.8-.5 0-.8.4-.8.8s.4.8.8.8c.4.1.8-.3.8-.8" transform="matrix(2.91716 0 0 2.98073 -539.01 192.724)"/><path class="st10" d="M314.3 117.5c0-.1-.1-.2-.2-.2s-.2.1-.2.2.1.2.2.2.2 0 .2-.2m-.7-.4l.1-.2.2-.1h.2l-.5.3z" transform="matrix(2.91716 0 0 2.98073 -539.01 192.724)"/><path class="st10" d="M314.3 117.5c0-.1-.1-.2-.2-.2s-.2.1-.2.2.1.2.2.2.2 0 .2-.2" transform="matrix(2.91716 0 0 2.98073 -539.01 192.724)"/><path d="M447.8 530.2l50.3 2.8" fill="none" stroke="#b3b3b3"/><path d="M377.34 548.24a.775.775 0 00-.028-.183c-.116-.461-.615-.682-1.066-.48a.878.878 0 00-.355.345c-.03.058-.068.106-.077.096-.01 0-.067-.028-.125-.048-.077-.028-.096-.048-.096-.067a.791.791 0 00.038-.173c.096-.47-.268-.893-.758-.893a.756.756 0 00-.528.221l-.058.058-.105-.096c-.058-.048-.106-.096-.106-.096s.029-.048.067-.096a.648.648 0 00.144-.461c0-.182-.01-.211-.057-.307a.822.822 0 00-.586-.432.756.756 0 00-.442.057l-.057.03-.067-.145c-.039-.077-.068-.144-.068-.144a.43.43 0 00.096-.067c.27-.182.394-.451.346-.74a.782.782 0 00-.768-.662h-.115l-.01-.096c-.02-.153-.02-.153.096-.182a.735.735 0 00.595-.605.88.88 0 00-.076-.49c-.087-.182-.289-.355-.461-.393l-.058-.01.038-.154c.02-.086.039-.163.048-.163s.048 0 .096.01c.461.105.884-.211.922-.692.02-.24-.057-.432-.23-.614l-.087-.096.096-.144c.048-.077.096-.144.096-.144l.096.058c.384.259.884.115 1.104-.308a.79.79 0 00.039-.576c-.02-.077-.048-.144-.067-.153-.039-.02-.02-.048.115-.135l.134-.096.039.058c.153.22.345.336.566.355.24.02.461-.067.624-.25.154-.163.202-.288.211-.518v-.182l.135-.039c.077-.019.144-.038.153-.038s.03.038.049.096c.124.49.633.71 1.094.49a.814.814 0 00.403-.51l.01-.067.163.02.163.019v.201c0 .279.077.452.27.596.335.269.873.21 1.103-.125l.058-.087.144.077c.077.048.144.087.144.087s-.02.067-.058.144c-.067.134-.067.153-.067.326 0 .163.01.202.048.298a.783.783 0 001.066.365l.134-.068.106.125.105.125-.115.106a.965.965 0 00-.173.23c-.057.106-.057.134-.057.317 0 .182.01.211.067.326a.795.795 0 00.902.423c.039-.01.048 0 .096.163.03.096.048.173.039.182a.67.67 0 01-.125.048c-.47.154-.643.71-.355 1.153.105.153.355.316.5.316.057 0 .066.03.047.192l-.01.144-.096-.01a.744.744 0 00-.739.414.787.787 0 00.307 1.027c.03.02.03.029-.019.115-.029.058-.057.096-.057.106 0 0-.058-.01-.116-.039a.604.604 0 00-.278-.048.644.644 0 00-.442.144c-.163.116-.307.404-.307.624a.9.9 0 00.144.452.986.986 0 01.067.096c0 .01-.048.048-.096.096l-.096.086-.096-.096a1.028 1.028 0 00-.21-.144c-.097-.048-.135-.058-.299-.058-.172 0-.201.01-.316.068a.762.762 0 00-.442.653c0 .096 0 .192.02.25l.028.095-.144.058-.144.057-.058-.115a.772.772 0 00-.355-.365c-.106-.048-.144-.057-.307-.057-.173 0-.202.01-.317.067a.766.766 0 00-.451.586l-.029.134h-.288l-.058-.029h0z" fill="#333" stroke="#999" stroke-width=".272"/><path class="st15" d="M3547 896l-1.8-4.6c-8.5 3.6-15.6-8-6.5-13.4m-.5.1l-3.3-3.7c-6.7 6.4-17.4-2-10.7-10.3m-.4.4l-4.4-2.3c-3.9 8.3-16.9 4.5-13.7-5.6m-.3.5l-4.9-.5c-.5 9.2-14.1 10.4-14.8-.2" transform="rotate(2.458 -10288.367 1295.507) scale(.09601)"/><path class="st15" d="M3485.8 857l-4.8 1.4c2.9 8.7-9.3 14.8-13.9 5.2" transform="rotate(2.458 -10288.367 1295.507) scale(.09601)"/><path class="st15" d="M3467.4 864.1l-3.9 3c5.8 7.1-3.4 17.2-11.1 9.9m.3.4l-2.6 4.2c8 4.6 3 17.2-6.8 13.2m.4.2l-.8 4.9c9.1 1.1 9.5 14.7-1.1 14.8" transform="rotate(2.458 -10288.367 1295.507) scale(.09601)"/><path class="st15" d="M3442.4 914.3l.8 4.5c8.9-2.3 14.2 10.3 4.3 14.2m.6-.1l2.2 3.9c7.6-5.1 16.8 4.9 8.8 11.9m.6-.3l3.5 2.8c5.1-7.6 17.4-1.8 12.7 7.7" transform="rotate(2.458 -10288.367 1295.507) scale(.09601)"/><path class="st15" d="M3475.8 958.4l4.3 1.4c2.1-8.9 15.6-7.9 14.6 2.7" transform="rotate(2.458 -10288.367 1295.507) scale(.09601)"/><path class="st15" d="M3494.7 961.9l4.5-.2c-1-9.1 12.1-12.6 14.6-2.4m.1-.7l4.1-1.8c-4.3-8.1 6.6-16.2 12.7-7.6" transform="rotate(2.458 -10288.367 1295.507) scale(.09601)"/><path class="st15" d="M3530.4 949l3.2-3.2c-7-5.9.1-17.5 9-11.8" transform="rotate(2.458 -10288.367 1295.507) scale(.09601)"/><path class="st15" d="M3541.8 934.2l1.9-4.1c-8.6-3.3-5.6-16.5 4.7-14.1m-.5-.3l.3-4.5c-9.2.1-11.3-13.3-.8-14.8" transform="rotate(2.458 -10288.367 1295.507) scale(.09601)"/><path d="M336.3 524.5c19.2-41.2 89.5-32.9 85.9 27.5 0 .5-1.1.8-1 .3 1.4-58-61.8-67.3-83.4-27.5-.3.4-1.7.2-1.5-.3h0z" stroke="#666"/><path class="st17" d="M-2080.7-1124.5c-2.8-.1-5.3 2.3-5.4 5-.3 2.7 1.8 5.3 4.5 5.8 1.5.3 3-.2 4.3-.9 3.7-1.6 8.2-1.4 11.8.5 2.5 1.2 5.7.2 7-2.2 1.4-2.3.7-5.5-1.5-7-1.7-1.3-4.2-1.4-6-.4-3.9 1.9-8.7 1.8-12.5-.2-.7-.4-1.4-.6-2.2-.6zm0 2.8c1.5 0 2.7 1.2 2.7 2.7s-1.2 2.7-2.7 2.7-2.7-1.2-2.7-2.7 1.2-2.7 2.7-2.7zm17.4 0c1.5 0 2.7 1.2 2.7 2.7s-1.2 2.7-2.7 2.7-2.7-1.2-2.7-2.7 1.2-2.7 2.7-2.7z" transform="matrix(-.09847 -.02679 -.02679 .09847 142.52 602.89)"/><path class="st18" d="M-1547.9-1839.3c-2.8-.1-5.3 2.3-5.4 5-.3 2.7 1.8 5.3 4.5 5.8 1.5.3 3-.2 4.3-.9 3.7-1.6 8.2-1.4 11.8.5 2.5 1.2 5.7.2 7-2.2 1.4-2.3.7-5.5-1.5-7.1-1.7-1.3-4.2-1.4-6-.4-3.9 1.9-8.7 1.8-12.5-.2-.6-.3-1.4-.5-2.2-.5z" transform="matrix(-.08362 -.05851 -.05851 .08362 138.78 610.75)"/><path class="st19" d="M-3775.9-3841.9c0 3.1-2.5 5.6-5.6 5.6-3.1 0-5.6-2.5-5.6-5.6s2.5-5.6 5.6-5.6c3.1 0 5.6 2.5 5.6 5.6z" transform="matrix(-.04066 -.02845 -.02845 .04066 110.968 595.585)"/><path class="st20" d="M-1545.1-1833.9c0 1.5-1.2 2.7-2.7 2.7s-2.7-1.2-2.7-2.7c0-1.5 1.2-2.7 2.7-2.7 1.4 0 2.7 1.3 2.7 2.7z" transform="matrix(-.08362 -.05851 -.05851 .08362 138.78 610.75)"/><path class="st17" d="M-1887.2-1311.8c-2.8-.1-5.3 2.3-5.4 5-.3 2.7 1.8 5.3 4.5 5.8 1.5.3 3-.2 4.3-.9 3.7-1.6 8.2-1.4 11.8.5 2.5 1.2 5.7.2 7-2.2 1.4-2.3.7-5.5-1.5-7-1.7-1.3-4.2-1.4-6-.4-3.9 1.9-8.7 1.8-12.5-.2-.7-.4-1.5-.6-2.2-.6zm0 2.8c1.5 0 2.7 1.2 2.7 2.7s-1.2 2.7-2.7 2.7c-1.5 0-2.7-1.2-2.7-2.7s1.2-2.7 2.7-2.7zm17.4 0c1.5 0 2.7 1.2 2.7 2.7s-1.2 2.7-2.7 2.7-2.7-1.2-2.7-2.7 1.2-2.7 2.7-2.7z" transform="matrix(-.09611 -.03432 -.03432 .09611 154.68 610.51)"/><path class="st18" d="M-1877.3-1319.5c-2.8-.1-5.3 2.3-5.4 5-.3 2.7 1.8 5.3 4.5 5.8 1.5.3 3-.2 4.3-.9 3.7-1.6 8.2-1.4 11.8.5 2.5 1.2 5.7.2 7-2.2 1.4-2.3.7-5.5-1.5-7.1-1.7-1.3-4.2-1.4-6-.4-3.9 1.9-8.7 1.8-12.5-.2-.6-.3-1.4-.5-2.2-.5z" transform="matrix(-.09503 -.0372 -.0372 .09503 151.94 604.13)"/><path class="st19" d="M-4453.2-2773c0 3.1-2.5 5.6-5.6 5.6-3.1 0-5.6-2.5-5.6-5.6s2.5-5.6 5.6-5.6c3.1 0 5.6 2.5 5.6 5.6z" transform="matrix(-.04621 -.01809 -.01809 .04621 121.343 595.932)"/><path class="st20" d="M-1874.6-1314c0 1.5-1.2 2.7-2.7 2.7-1.5 0-2.7-1.2-2.7-2.7 0-1.5 1.2-2.7 2.7-2.7 1.5 0 2.7 1.2 2.7 2.7z" transform="matrix(-.09503 -.0372 -.0372 .09503 151.94 604.13)"/><path class="st17" d="M-1661.8-1308.5c-2.8-.1-5.3 2.3-5.4 5-.3 2.7 1.8 5.3 4.5 5.8 1.5.3 3-.2 4.3-.9 3.7-1.6 8.2-1.4 11.8.5 2.5 1.2 5.7.2 7-2.2 1.4-2.3.7-5.5-1.5-7-1.7-1.3-4.2-1.4-6-.4-3.9 1.9-8.7 1.8-12.5-.2-.7-.4-1.4-.6-2.2-.6zm0 2.7c1.5 0 2.7 1.2 2.7 2.7s-1.2 2.7-2.7 2.7c-1.5 0-2.7-1.2-2.7-2.7s1.2-2.7 2.7-2.7zm17.4 0c1.5 0 2.7 1.2 2.7 2.7s-1.2 2.7-2.7 2.7-2.7-1.2-2.7-2.7 1.2-2.7 2.7-2.7z" transform="matrix(-.09611 -.03432 -.03432 .09611 185.37 620.97)"/><path class="st18" d="M-1651.9-1309.4c-2.8-.1-5.3 2.3-5.4 5-.3 2.7 1.8 5.3 4.5 5.8 1.5.3 3-.2 4.3-.9 3.7-1.6 8.2-1.4 11.8.5 2.5 1.2 5.7.2 7-2.2 1.4-2.3.7-5.5-1.5-7.1-1.7-1.3-4.2-1.4-6-.4-3.9 1.9-8.7 1.8-12.5-.2-.7-.4-1.5-.5-2.2-.5z" transform="matrix(-.09503 -.0372 -.0372 .09503 182.64 614.6)"/><path class="st19" d="M-3989.9-2752.4c0 3.1-2.5 5.6-5.6 5.6-3.1 0-5.6-2.5-5.6-5.6s2.5-5.6 5.6-5.6c3.1 0 5.6 2.5 5.6 5.6z" transform="matrix(-.04621 -.01809 -.01809 .04621 152.043 606.402)"/><path class="st20" d="M-1649.2-1304c0 1.5-1.2 2.7-2.7 2.7-1.5 0-2.7-1.2-2.7-2.7s1.2-2.7 2.7-2.7c1.5 0 2.7 1.2 2.7 2.7z" transform="matrix(-.09503 -.0372 -.0372 .09503 182.64 614.6)"/><path class="st17" d="M-1576.5-1310.1c-2.8-.1-5.3 2.3-5.4 5-.3 2.7 1.8 5.3 4.5 5.8 1.5.3 3-.2 4.3-.9 3.7-1.6 8.2-1.4 11.8.5 2.5 1.2 5.7.2 7-2.2 1.4-2.3.7-5.5-1.5-7-1.7-1.3-4.2-1.4-6-.4-3.9 1.9-8.7 1.8-12.5-.2-.6-.4-1.4-.6-2.2-.6zm0 2.8c1.5 0 2.7 1.2 2.7 2.7s-1.2 2.7-2.7 2.7-2.7-1.2-2.7-2.7 1.2-2.7 2.7-2.7zm17.5 0c1.5 0 2.7 1.2 2.7 2.7 0 1.5-1.2 2.7-2.7 2.7-1.5 0-2.7-1.2-2.7-2.7-.1-1.5 1.2-2.7 2.7-2.7z" transform="matrix(-.09611 -.03432 -.03432 .09611 196.85 625.31)"/><path class="st18" d="M-1566.7-1308.5c-2.8-.1-5.3 2.3-5.4 5-.3 2.7 1.8 5.3 4.5 5.8 1.5.3 3-.2 4.3-.9 3.7-1.6 8.2-1.4 11.8.5 2.5 1.2 5.7.2 7-2.2 1.4-2.3.7-5.5-1.5-7.1-1.7-1.3-4.2-1.4-6-.4-3.9 1.9-8.7 1.8-12.5-.2-.7-.3-1.4-.5-2.2-.5z" transform="matrix(-.09503 -.0372 -.0372 .09503 194.11 618.94)"/><path class="st19" d="M-3814.5-2750.4c0 3.1-2.5 5.6-5.6 5.6-3.1 0-5.6-2.5-5.6-5.6s2.5-5.6 5.6-5.6c3.1 0 5.6 2.5 5.6 5.6z" transform="matrix(-.04621 -.01809 -.01809 .04621 163.513 610.742)"/><path class="st20" d="M-1563.9-1303c0 1.5-1.2 2.7-2.7 2.7-1.5 0-2.7-1.2-2.7-2.7 0-1.5 1.2-2.7 2.7-2.7 1.4 0 2.7 1.2 2.7 2.7z" transform="matrix(-.09503 -.0372 -.0372 .09503 194.11 618.94)"/><path class="st17" d="M-1504.3-1285.3c-2.8-.1-5.3 2.3-5.4 5-.3 2.7 1.8 5.3 4.5 5.8 1.5.3 3-.2 4.3-.9 3.7-1.6 8.2-1.4 11.8.5 2.5 1.2 5.7.2 7-2.2 1.4-2.3.7-5.5-1.5-7-1.7-1.3-4.2-1.4-6-.4-3.9 1.9-8.7 1.8-12.5-.2-.7-.4-1.4-.6-2.2-.6zm0 2.7c1.5 0 2.7 1.2 2.7 2.7 0 1.5-1.2 2.7-2.7 2.7s-2.7-1.2-2.7-2.7c0-1.5 1.2-2.7 2.7-2.7zm17.4 0c1.5 0 2.7 1.2 2.7 2.7 0 1.5-1.2 2.7-2.7 2.7s-2.7-1.2-2.7-2.7c0-1.5 1.2-2.7 2.7-2.7z" transform="matrix(-.09658 -.03298 -.03298 .09658 209.24 629.37)"/><path class="st18" d="M-1495.5-1281.4c-2.8-.1-5.3 2.3-5.4 5-.3 2.7 1.8 5.3 4.5 5.8 1.5.3 3-.2 4.3-.9 3.7-1.6 8.2-1.4 11.8.5 2.5 1.2 5.7.2 7-2.2 1.4-2.3.7-5.5-1.5-7.1-1.7-1.3-4.2-1.4-6-.4-3.9 1.9-8.7 1.8-12.5-.2-.6-.3-1.4-.5-2.2-.5z" transform="matrix(-.09554 -.03586 -.03586 .09554 206.42 623.04)"/><path class="st19" d="M-3668.2-2694.7c0 3.1-2.5 5.6-5.6 5.6s-5.6-2.5-5.6-5.6 2.5-5.6 5.6-5.6 5.6 2.5 5.6 5.6z" transform="matrix(-.04646 -.01744 -.01744 .04646 175.712 615.273)"/><path class="st20" d="M-1492.8-1275.9c0 1.5-1.2 2.7-2.7 2.7s-2.7-1.2-2.7-2.7 1.2-2.7 2.7-2.7 2.7 1.2 2.7 2.7z" transform="matrix(-.09554 -.03586 -.03586 .09554 206.42 623.04)"/><path class="st17" d="M-1416.5-1289.3c-2.8-.1-5.3 2.3-5.4 5-.3 2.7 1.8 5.3 4.5 5.8 1.5.3 3-.2 4.3-.9 3.7-1.6 8.2-1.4 11.8.5 2.5 1.2 5.7.2 7-2.2 1.4-2.3.7-5.5-1.5-7-1.7-1.3-4.2-1.4-6-.4-3.9 1.9-8.7 1.8-12.5-.2-.6-.4-1.4-.6-2.2-.6zm0 2.8c1.5 0 2.7 1.2 2.7 2.7 0 1.5-1.2 2.7-2.7 2.7s-2.7-1.2-2.7-2.7 1.2-2.7 2.7-2.7zm17.5 0c1.5 0 2.7 1.2 2.7 2.7s-1.2 2.7-2.7 2.7-2.7-1.2-2.7-2.7 1.2-2.7 2.7-2.7z" transform="matrix(-.09658 -.03298 -.03298 .09658 221.01 633.99)"/><path class="st18" d="M-1407.6-1282.7c-2.8-.1-5.3 2.3-5.4 5-.3 2.7 1.8 5.3 4.5 5.8 1.5.3 3-.2 4.3-.9 3.7-1.6 8.2-1.4 11.8.5 2.5 1.2 5.7.2 7-2.2 1.4-2.3.7-5.5-1.5-7.1-1.7-1.3-4.2-1.4-6-.4-3.9 1.9-8.7 1.8-12.5-.2-.7-.3-1.4-.5-2.2-.5z" transform="matrix(-.09554 -.03586 -.03586 .09554 218.19 627.65)"/><path class="st19" d="M-3487.4-2697.3c0 3.1-2.5 5.6-5.6 5.6s-5.6-2.5-5.6-5.6 2.5-5.6 5.6-5.6 5.6 2.5 5.6 5.6z" transform="matrix(-.04646 -.01744 -.01744 .04646 187.482 619.883)"/><path class="st20" d="M-1404.9-1277.2c0 1.5-1.2 2.7-2.7 2.7-1.5 0-2.7-1.2-2.7-2.7s1.2-2.7 2.7-2.7c1.5 0 2.7 1.2 2.7 2.7z" transform="matrix(-.09554 -.03586 -.03586 .09554 218.19 627.65)"/><path class="st17" d="M-1331.2-1293.8c-2.8-.1-5.3 2.3-5.4 5-.3 2.7 1.8 5.3 4.5 5.8 1.5.3 3-.2 4.3-.9 3.7-1.6 8.2-1.4 11.8.5 2.5 1.2 5.7.2 7-2.2 1.4-2.3.7-5.5-1.5-7-1.7-1.3-4.2-1.4-6-.4-3.9 1.9-8.7 1.8-12.5-.2-.6-.4-1.4-.6-2.2-.6zm0 2.7c1.5 0 2.7 1.2 2.7 2.7 0 1.5-1.2 2.7-2.7 2.7s-2.7-1.2-2.7-2.7 1.2-2.7 2.7-2.7zm17.5 0c1.5 0 2.7 1.2 2.7 2.7 0 1.5-1.2 2.7-2.7 2.7-1.5 0-2.7-1.2-2.7-2.7s1.2-2.7 2.7-2.7z" transform="matrix(-.09658 -.03298 -.03298 .09658 232.41 638.57)"/><path class="st18" d="M-1322.2-1284.6c-2.8-.1-5.3 2.3-5.4 5-.3 2.7 1.8 5.3 4.5 5.8 1.5.3 3-.2 4.3-.9 3.7-1.6 8.2-1.4 11.8.5 2.5 1.2 5.7.2 7-2.2 1.4-2.3.7-5.5-1.5-7.1-1.7-1.3-4.2-1.4-6-.4-3.9 1.9-8.7 1.8-12.5-.2-.6-.4-1.4-.5-2.2-.5z" transform="matrix(-.09554 -.03586 -.03586 .09554 229.59 632.23)"/><path class="st19" d="M-3311.8-2701.3c0 3.1-2.5 5.6-5.6 5.6s-5.6-2.5-5.6-5.6 2.5-5.6 5.6-5.6c3.1 0 5.6 2.5 5.6 5.6z" transform="matrix(-.04646 -.01744 -.01744 .04646 198.882 624.463)"/><path class="st20" d="M-1319.5-1279.1c0 1.5-1.2 2.7-2.7 2.7s-2.7-1.2-2.7-2.7 1.2-2.7 2.7-2.7c1.5-.1 2.7 1.1 2.7 2.7z" transform="matrix(-.09554 -.03586 -.03586 .09554 229.59 632.23)"/><path class="st17" d="M-1245.8-1295.4c-2.8-.1-5.3 2.3-5.4 5-.3 2.7 1.8 5.3 4.5 5.8 1.5.3 3-.2 4.3-.9 3.7-1.6 8.2-1.4 11.8.5 2.5 1.2 5.7.2 7-2.2 1.4-2.3.7-5.5-1.5-7-1.7-1.3-4.2-1.4-6-.4-3.9 1.9-8.7 1.8-12.5-.2-.7-.4-1.5-.6-2.2-.6zm0 2.7c1.5 0 2.7 1.2 2.7 2.7 0 1.5-1.2 2.7-2.7 2.7s-2.7-1.2-2.7-2.7c0-1.4 1.2-2.7 2.7-2.7zm17.4.1c1.5 0 2.7 1.2 2.7 2.7s-1.2 2.7-2.7 2.7-2.7-1.2-2.7-2.7 1.2-2.7 2.7-2.7z" transform="matrix(-.09658 -.03298 -.03298 .09658 243.95 642.75)"/><path class="st18" d="M-1236.9-1283.6c-2.8-.1-5.3 2.3-5.4 5-.3 2.7 1.8 5.3 4.5 5.8 1.5.3 3-.2 4.3-.9 3.7-1.6 8.2-1.4 11.8.5 2.5 1.2 5.7.2 7-2.2 1.4-2.3.7-5.5-1.5-7.1-1.7-1.3-4.2-1.4-6-.4-3.9 1.9-8.7 1.8-12.5-.2-.7-.4-1.4-.5-2.2-.5z" transform="matrix(-.09554 -.03586 -.03586 .09554 241.12 636.41)"/><path class="st19" d="M-3136.4-2699.3c0 3.1-2.5 5.6-5.6 5.6s-5.6-2.5-5.6-5.6 2.5-5.6 5.6-5.6c3.1 0 5.6 2.5 5.6 5.6z" transform="matrix(-.04646 -.01744 -.01744 .04646 210.412 628.643)"/><path class="st20" d="M-1234.2-1278.2c0 1.5-1.2 2.7-2.7 2.7s-2.7-1.2-2.7-2.7 1.2-2.7 2.7-2.7 2.7 1.2 2.7 2.7z" transform="matrix(-.09554 -.03586 -.03586 .09554 241.12 636.41)"/><path class="st17" d="M2268.5 817.9c-2.8-.1-5.3 2.3-5.4 5-.3 2.7 1.8 5.3 4.5 5.8 1.5.3 3-.2 4.3-.9 3.7-1.6 8.2-1.4 11.8.5 2.5 1.2 5.7.2 7-2.2 1.4-2.3.7-5.5-1.5-7-1.7-1.3-4.2-1.4-6-.4-3.9 1.9-8.7 1.8-12.5-.2-.7-.4-1.5-.6-2.2-.6zm0 2.7c1.5 0 2.7 1.2 2.7 2.7 0 1.5-1.2 2.7-2.7 2.7s-2.7-1.2-2.7-2.7c-.1-1.5 1.2-2.7 2.7-2.7zm17.4 0c1.5 0 2.7 1.2 2.7 2.7 0 1.5-1.2 2.7-2.7 2.7-1.5 0-2.7-1.2-2.7-2.7 0-1.5 1.2-2.7 2.7-2.7z" transform="matrix(.1012 .01315 .01315 -.1012 168.02 597.13)"/><path class="st18" d="M2234.3 878.3c-2.8-.1-5.3 2.3-5.4 5-.3 2.7 1.8 5.3 4.5 5.8 1.5.3 3-.2 4.3-.9 3.7-1.6 8.2-1.4 11.8.5 2.5 1.2 5.7.2 7-2.2 1.4-2.3.7-5.5-1.5-7.1-1.7-1.3-4.2-1.4-6-.4-3.9 1.9-8.7 1.8-12.5-.2-.7-.3-1.4-.5-2.2-.5z" transform="matrix(.1012 .01315 .01315 -.1012 172.45 603.92)"/><path class="st19" d="M4001.6 1746.4c0 3.1-2.5 5.6-5.6 5.6s-5.6-2.5-5.6-5.6 2.5-5.6 5.6-5.6c3.1 0 5.6 2.5 5.6 5.6z" transform="matrix(.04921 .0064 .0064 -.04921 204.12 604.486)"/><path class="st20" d="M2237 883.7c0 1.5-1.2 2.7-2.7 2.7s-2.7-1.2-2.7-2.7c0-1.5 1.2-2.7 2.7-2.7s2.7 1.2 2.7 2.7z" transform="matrix(.1012 .01315 .01315 -.1012 172.45 603.92)"/><path class="st17" d="M2358.4 821.1c-2.8-.1-5.3 2.3-5.4 5-.3 2.7 1.8 5.3 4.5 5.8 1.5.3 3-.2 4.3-.9 3.7-1.6 8.2-1.4 11.8.5 2.5 1.2 5.7.2 7-2.2 1.4-2.3.7-5.5-1.5-7-1.7-1.3-4.2-1.4-6-.4-3.9 1.9-8.7 1.8-12.5-.2-.6-.4-1.4-.6-2.2-.6zm0 2.7c1.5 0 2.7 1.2 2.7 2.7 0 1.5-1.2 2.7-2.7 2.7-1.5 0-2.7-1.2-2.7-2.7 0-1.5 1.2-2.7 2.7-2.7zm17.5 0c1.5 0 2.7 1.2 2.7 2.7 0 1.5-1.2 2.7-2.7 2.7-1.5 0-2.7-1.2-2.7-2.7-.1-1.5 1.1-2.7 2.7-2.7z" transform="matrix(.1012 .01315 .01315 -.1012 155.13 595.92)"/><path class="st18" d="M2324.4 881.5c-2.8-.1-5.3 2.3-5.4 5-.3 2.7 1.8 5.3 4.5 5.8 1.5.3 3-.2 4.3-.9 3.7-1.6 8.2-1.4 11.8.5 2.5 1.2 5.7.2 7-2.2 1.4-2.3.7-5.5-1.5-7.1-1.7-1.3-4.2-1.4-6-.4-3.9 1.9-8.7 1.8-12.5-.2-.7-.3-1.5-.5-2.2-.5z" transform="matrix(.1012 .01315 .01315 -.1012 159.55 602.71)"/><path class="st19" d="M4186.8 1753c0 3.1-2.5 5.6-5.6 5.6s-5.6-2.5-5.6-5.6c0-3.1 2.5-5.6 5.6-5.6s5.6 2.5 5.6 5.6z" transform="matrix(.04921 .0064 .0064 -.04921 191.22 603.276)"/><path class="st20" d="M2327.1 887c0 1.5-1.2 2.7-2.7 2.7s-2.7-1.2-2.7-2.7 1.2-2.7 2.7-2.7 2.7 1.2 2.7 2.7z" transform="matrix(.1012 .01315 .01315 -.1012 159.55 602.71)"/><path class="st17" d="M2449.6 818.2c-2.8-.1-5.3 2.3-5.4 5-.3 2.7 1.8 5.3 4.5 5.8 1.5.3 3-.2 4.3-.9 3.7-1.6 8.2-1.4 11.8.5 2.5 1.2 5.7.2 7-2.2 1.4-2.3.7-5.5-1.5-7-1.7-1.3-4.2-1.4-6-.4-3.9 1.9-8.7 1.8-12.5-.2-.7-.4-1.4-.6-2.2-.6zm0 2.7c1.5 0 2.7 1.2 2.7 2.7s-1.2 2.7-2.7 2.7c-1.5 0-2.7-1.2-2.7-2.7s1.2-2.7 2.7-2.7zm17.4.1c1.5 0 2.7 1.2 2.7 2.7s-1.2 2.7-2.7 2.7-2.7-1.2-2.7-2.7 1.2-2.7 2.7-2.7z" transform="matrix(.1012 .01315 .01315 -.1012 142.18 593.82)"/><path class="st18" d="M2415.5 878.6c-2.8-.1-5.3 2.3-5.4 5-.3 2.7 1.8 5.3 4.5 5.8 1.5.3 3-.2 4.3-.9 3.7-1.6 8.2-1.4 11.8.5 2.5 1.2 5.7.2 7-2.2 1.4-2.3.7-5.5-1.5-7.1-1.7-1.3-4.2-1.4-6-.4-3.9 1.9-8.7 1.8-12.5-.2-.7-.3-1.5-.5-2.2-.5z" transform="matrix(.1012 .01315 .01315 -.1012 146.61 600.61)"/><path class="st19" d="M4374.1 1747c0 3.1-2.5 5.6-5.6 5.6s-5.6-2.5-5.6-5.6 2.5-5.6 5.6-5.6 5.6 2.6 5.6 5.6z" transform="matrix(.04921 .0064 .0064 -.04921 178.28 601.176)"/><path class="st20" d="M2418.2 884.1c0 1.5-1.2 2.7-2.7 2.7-1.5 0-2.7-1.2-2.7-2.7s1.2-2.7 2.7-2.7 2.7 1.2 2.7 2.7z" transform="matrix(.1012 .01315 .01315 -.1012 146.61 600.61)"/><path class="st17" d="M2770.8 1085.9c-2.8-.1-5.3 2.3-5.4 5-.3 2.7 1.8 5.3 4.5 5.8 1.5.3 3-.2 4.3-.9 3.7-1.6 8.2-1.4 11.8.5 2.5 1.2 5.7.2 7-2.2 1.4-2.3.7-5.5-1.5-7-1.7-1.3-4.2-1.4-6-.4-3.9 1.9-8.7 1.8-12.5-.2-.7-.4-1.5-.6-2.2-.6zm0 2.8c1.5 0 2.7 1.2 2.7 2.7s-1.2 2.7-2.7 2.7c-1.5 0-2.7-1.2-2.7-2.7-.1-1.5 1.2-2.7 2.7-2.7zm17.4 0c1.5 0 2.7 1.2 2.7 2.7s-1.2 2.7-2.7 2.7c-1.5 0-2.7-1.2-2.7-2.7s1.2-2.7 2.7-2.7z" transform="matrix(.09897 .02489 .02489 -.09897 82.352 578.73)"/><path class="st18" d="M2736.7 1146.3c-2.8-.1-5.3 2.3-5.4 5-.3 2.7 1.8 5.3 4.5 5.8 1.5.3 3-.2 4.3-.9 3.7-1.6 8.2-1.4 11.8.5 2.5 1.2 5.7.2 7-2.2 1.4-2.3.7-5.5-1.5-7.1-1.7-1.3-4.2-1.4-6-.4-3.9 1.9-8.7 1.8-12.5-.2-.7-.4-1.4-.5-2.2-.5z" transform="matrix(.09897 .02489 .02489 -.09897 85.951 585.98)"/><path class="st19" d="M5034.6 2297.4c0 3.1-2.5 5.6-5.6 5.6-3.1 0-5.6-2.5-5.6-5.6s2.5-5.6 5.6-5.6c3.1.1 5.6 2.6 5.6 5.6z" transform="matrix(.04813 .0121 .0121 -.04813 117.339 590.245)"/><path class="st20" d="M2739.4 1151.7c0 1.5-1.2 2.7-2.7 2.7-1.5 0-2.7-1.2-2.7-2.7s1.2-2.7 2.7-2.7c1.5 0 2.7 1.2 2.7 2.7z" transform="matrix(.09897 .02489 .02489 -.09897 85.951 585.98)"/><path class="st17" d="M2952 800.1c-2.8-.1-5.3 2.3-5.4 5-.3 2.7 1.8 5.3 4.5 5.8 1.5.3 3-.2 4.3-.9 3.7-1.6 8.2-1.4 11.8.5 2.5 1.2 5.7.2 7-2.2 1.4-2.3.7-5.5-1.5-7-1.7-1.3-4.2-1.4-6-.4-3.9 1.9-8.7 1.8-12.5-.2-.6-.5-1.4-.6-2.2-.6zm0 2.7c1.5 0 2.7 1.2 2.7 2.7 0 1.5-1.2 2.7-2.7 2.7s-2.7-1.2-2.7-2.7c0-1.5 1.2-2.7 2.7-2.7zm17.4 0c1.5 0 2.7 1.2 2.7 2.7 0 1.5-1.2 2.7-2.7 2.7s-2.7-1.2-2.7-2.7c0-1.5 1.2-2.7 2.7-2.7z" transform="matrix(.1012 .01315 .01315 -.1012 70.872 581.92)"/><path class="st18" d="M2917.9 860.5c-2.8-.1-5.3 2.3-5.4 5-.3 2.7 1.8 5.3 4.5 5.8 1.5.3 3-.2 4.3-.9 3.7-1.6 8.2-1.4 11.8.5 2.5 1.2 5.7.2 7-2.2 1.4-2.3.7-5.5-1.5-7.1-1.7-1.3-4.2-1.4-6-.4-3.9 1.9-8.7 1.8-12.5-.2-.7-.3-1.4-.5-2.2-.5z" transform="matrix(.1012 .01315 .01315 -.1012 75.295 588.71)"/><path class="st19" d="M5407.3 1709.7c0 3.1-2.5 5.6-5.6 5.6s-5.6-2.5-5.6-5.6c0-3.1 2.5-5.6 5.6-5.6 3.1 0 5.6 2.5 5.6 5.6z" transform="matrix(.04921 .0064 .0064 -.04921 106.966 589.276)"/><path class="st20" d="M2920.6 865.9c0 1.5-1.2 2.7-2.7 2.7-1.5 0-2.7-1.2-2.7-2.7 0-1.5 1.2-2.7 2.7-2.7s2.7 1.2 2.7 2.7z" transform="matrix(.1012 .01315 .01315 -.1012 75.295 588.71)"/><path class="st17" d="M3113.2 378.6c-2.8-.1-5.3 2.3-5.4 5-.3 2.7 1.8 5.3 4.5 5.8 1.5.3 3-.2 4.3-.9 3.7-1.6 8.2-1.4 11.8.5 2.5 1.2 5.7.2 7-2.2 1.4-2.3.7-5.5-1.5-7-1.7-1.3-4.2-1.4-6-.4-3.9 1.9-8.7 1.8-12.5-.2-.7-.4-1.4-.6-2.2-.6zm0 2.7c1.5 0 2.7 1.2 2.7 2.7 0 1.5-1.2 2.7-2.7 2.7s-2.7-1.2-2.7-2.7c0-1.5 1.2-2.7 2.7-2.7zm17.4 0c1.5 0 2.7 1.2 2.7 2.7 0 1.5-1.2 2.7-2.7 2.7s-2.7-1.2-2.7-2.7c0-1.5 1.3-2.7 2.7-2.7z" transform="matrix(.10202 -.00267 -.00267 -.10202 59.94 586.16)"/><path class="st18" d="M2758.1 1483.3c-2.8-.1-5.3 2.3-5.4 5-.3 2.7 1.8 5.3 4.5 5.8 1.5.3 3-.2 4.3-.9 3.7-1.6 8.2-1.4 11.8.5 2.5 1.2 5.7.2 7-2.2 1.4-2.3.7-5.5-1.5-7.1-1.7-1.3-4.2-1.4-6-.4-3.9 1.9-8.7 1.8-12.5-.2-.7-.3-1.5-.5-2.2-.5z" transform="matrix(.09472 .03798 .03798 -.09472 60.545 574.86)"/><path class="st19" d="M5078.7 2990.5c0 3.1-2.5 5.6-5.6 5.6-3.1 0-5.6-2.5-5.6-5.6s2.5-5.6 5.6-5.6c3.1 0 5.6 2.5 5.6 5.6z" transform="matrix(.04606 .01847 .01847 -.04606 91.073 583.309)"/><path class="st20" d="M2760.8 1488.7c0 1.5-1.2 2.7-2.7 2.7s-2.7-1.2-2.7-2.7c0-1.5 1.2-2.7 2.7-2.7 1.5 0 2.7 1.2 2.7 2.7z" transform="matrix(.09472 .03798 .03798 -.09472 60.545 574.86)"/><path class="st17" d="M2690-1499.2c-2.8-.1-5.3 2.3-5.4 5-.3 2.7 1.8 5.3 4.5 5.8 1.5.3 3-.2 4.3-.9 3.7-1.6 8.2-1.4 11.8.5 2.5 1.2 5.7.2 7-2.2 1.4-2.3.7-5.5-1.5-7-1.7-1.3-4.2-1.4-6-.4-3.9 1.9-8.7 1.8-12.5-.2-.6-.4-1.4-.6-2.2-.6zm0 2.8c1.5 0 2.7 1.2 2.7 2.7 0 1.5-1.2 2.7-2.7 2.7s-2.7-1.2-2.7-2.7c0-1.5 1.2-2.7 2.7-2.7zm17.4 0c1.5 0 2.7 1.2 2.7 2.7 0 1.5-1.2 2.7-2.7 2.7s-2.7-1.2-2.7-2.7 1.2-2.7 2.7-2.7z" transform="matrix(.07507 -.06913 -.06913 -.07507 68.235 614.34)"/><path class="st18" d="M3131.1-315.6c-2.8-.1-5.3 2.3-5.4 5-.3 2.7 1.8 5.3 4.5 5.8 1.5.3 3-.2 4.3-.9 3.7-1.6 8.2-1.4 11.8.5 2.5 1.2 5.7.2 7-2.2 1.4-2.3.7-5.5-1.5-7.1-1.7-1.3-4.2-1.4-6-.4-3.9 1.9-8.7 1.8-12.5-.2-.7-.3-1.4-.5-2.2-.5z" transform="matrix(.09742 -.0304 -.0304 -.09742 60.33 604.19)"/><path class="st19" d="M5845.7-708.7c0 3.1-2.5 5.6-5.6 5.6s-5.6-2.5-5.6-5.6c0-3.1 2.5-5.6 5.6-5.6s5.6 2.5 5.6 5.6z" transform="scale(.04963 -.04963) rotate(17.325 40009.296 -51.34)"/><path class="st20" d="M3133.8-310.2c0 1.5-1.2 2.7-2.7 2.7s-2.7-1.2-2.7-2.7c0-1.5 1.2-2.7 2.7-2.7s2.7 1.2 2.7 2.7z" transform="matrix(.09742 -.0304 -.0304 -.09742 60.33 604.19)"/><path class="st17" d="M717.4-2703.4c-2.8-.1-5.3 2.3-5.4 5-.3 2.7 1.8 5.3 4.5 5.8 1.5.3 3-.2 4.3-.9 3.7-1.6 8.2-1.4 11.8.5 2.5 1.2 5.7.2 7-2.2 1.4-2.3.7-5.5-1.5-7-1.7-1.3-4.2-1.4-6-.4-3.9 1.9-8.7 1.8-12.5-.2-.6-.4-1.4-.6-2.2-.6zm0 2.7c1.5 0 2.7 1.2 2.7 2.7s-1.2 2.7-2.7 2.7-2.7-1.2-2.7-2.7 1.2-2.7 2.7-2.7zm17.4 0c1.5 0 2.7 1.2 2.7 2.7s-1.2 2.7-2.7 2.7-2.7-1.2-2.7-2.7c0-1.5 1.2-2.7 2.7-2.7z" transform="matrix(-.00419 -.10197 -.10197 .00419 100.75 628.42)"/><path class="st18" d="M1862.7-2247.8c-2.8-.1-5.3 2.3-5.4 5-.3 2.7 1.8 5.3 4.5 5.8 1.5.3 3-.2 4.3-.9 3.7-1.6 8.2-1.4 11.8.5 2.5 1.2 5.7.2 7-2.2 1.4-2.3.7-5.5-1.5-7.1-1.7-1.3-4.2-1.4-6-.4-3.9 1.9-8.7 1.8-12.5-.2-.6-.3-1.4-.5-2.2-.5z" transform="matrix(.0398 -.09397 -.09397 -.0398 87.901 627.89)"/><path class="st19" d="M3237.5-4681.9c0 3.1-2.5 5.6-5.6 5.6s-5.6-2.5-5.6-5.6c0-3.1 2.5-5.6 5.6-5.6s5.6 2.5 5.6 5.6z" transform="matrix(.01935 -.0457 -.0457 -.01935 96.937 597.53)"/><path class="st20" d="M1865.4-2242.3c0 1.5-1.2 2.7-2.7 2.7-1.5 0-2.7-1.2-2.7-2.7s1.2-2.7 2.7-2.7c1.5 0 2.7 1.2 2.7 2.7z" transform="matrix(.0398 -.09397 -.09397 -.0398 87.901 627.89)"/><path class="st17" d="M-948.9-2373.1c-2.8-.1-5.3 2.3-5.4 5-.3 2.7 1.8 5.3 4.5 5.8 1.5.3 3-.2 4.3-.9 3.7-1.6 8.2-1.4 11.8.5 2.5 1.2 5.7.2 7-2.2 1.4-2.3.7-5.5-1.5-7-1.7-1.3-4.2-1.4-6-.4-3.9 1.9-8.7 1.8-12.5-.2-.6-.4-1.4-.6-2.2-.6zm0 2.7c1.5 0 2.7 1.2 2.7 2.7 0 1.5-1.2 2.7-2.7 2.7s-2.7-1.2-2.7-2.7 1.2-2.7 2.7-2.7zm17.5 0c1.5 0 2.7 1.2 2.7 2.7s-1.2 2.7-2.7 2.7c-1.5 0-2.7-1.2-2.7-2.7s1.2-2.7 2.7-2.7z" transform="matrix(-.06382 -.07964 -.07964 .06382 125.03 622.51)"/><path class="st18" d="M676.6-2653.5c-2.8-.1-5.3 2.3-5.4 5-.3 2.7 1.8 5.3 4.5 5.8 1.5.3 3-.2 4.3-.9 3.7-1.6 8.2-1.4 11.8.5 2.5 1.2 5.7.2 7-2.2 1.4-2.3.7-5.5-1.5-7.1-1.7-1.3-4.2-1.4-6-.4-3.9 1.9-8.7 1.8-12.5-.2-.7-.3-1.4-.5-2.2-.5z" transform="matrix(-.00729 -.10179 -.10179 .00729 108.3 633.67)"/><path class="st19" d="M798.4-5516.1c0 3.1-2.5 5.6-5.6 5.6-3.1 0-5.6-2.5-5.6-5.6s2.5-5.6 5.6-5.6c3.1 0 5.6 2.5 5.6 5.6z" transform="matrix(-.00355 -.0495 -.0495 .00355 102.54 602.522)"/><path class="st20" d="M679.3-2648c0 1.5-1.2 2.7-2.7 2.7s-2.7-1.2-2.7-2.7 1.2-2.7 2.7-2.7 2.7 1.2 2.7 2.7z" transform="matrix(-.00729 -.10179 -.10179 .00729 108.3 633.67)"/><path class="st17" d="M-1863.1-1210.6c-2.8-.1-5.3 2.3-5.4 5-.3 2.7 1.8 5.3 4.5 5.8 1.5.3 3-.2 4.3-.9 3.7-1.6 8.2-1.4 11.8.5 2.5 1.2 5.7.2 7-2.2 1.4-2.3.7-5.5-1.5-7-1.7-1.3-4.2-1.4-6-.4-3.9 1.9-8.7 1.8-12.5-.2-.6-.5-1.4-.6-2.2-.6zm0 2.7c1.5 0 2.7 1.2 2.7 2.7s-1.2 2.7-2.7 2.7-2.7-1.2-2.7-2.7 1.2-2.7 2.7-2.7zm17.4 0c1.5 0 2.7 1.2 2.7 2.7s-1.2 2.7-2.7 2.7-2.7-1.2-2.7-2.7 1.2-2.7 2.7-2.7z" transform="matrix(-.09752 -.03006 -.03006 .09752 166.38 612.3)"/><path class="st18" d="M-1897.2-1150.2c-2.8-.1-5.3 2.3-5.4 5-.3 2.7 1.8 5.3 4.5 5.8 1.5.3 3-.2 4.3-.9 3.7-1.6 8.2-1.4 11.8.5 2.5 1.2 5.7.2 7-2.2 1.4-2.3.7-5.5-1.5-7.1-1.7-1.3-4.2-1.4-6-.4-3.9 1.9-8.7 1.8-12.5-.2-.6-.4-1.4-.5-2.2-.5z" transform="matrix(-.09752 -.03006 -.03006 .09752 163.17 604.86)"/><path class="st19" d="M-4494.2-2424.9c0 3.1-2.5 5.6-5.6 5.6s-5.6-2.5-5.6-5.6 2.5-5.6 5.6-5.6c3.2 0 5.6 2.5 5.6 5.6z" transform="matrix(-.04742 -.01462 -.01462 .04742 132.051 598.95)"/><path class="st20" d="M-1894.5-1144.8c0 1.5-1.2 2.7-2.7 2.7-1.5 0-2.7-1.2-2.7-2.7 0-1.5 1.2-2.7 2.7-2.7 1.5 0 2.7 1.2 2.7 2.7z" transform="matrix(-.09752 -.03006 -.03006 .09752 163.17 604.86)"/><path class="st18" d="M2282.3 1590.4c-2.8-.1-5.3 2.3-5.4 5-.3 2.7 1.8 5.3 4.5 5.8 1.5.3 3-.2 4.3-.9 3.7-1.6 8.2-1.4 11.8.5 2.5 1.2 5.7.2 7-2.2 1.4-2.3.7-5.5-1.5-7.1-1.7-1.3-4.2-1.4-6-.4-3.9 1.9-8.7 1.8-12.5-.2-.6-.4-1.4-.5-2.2-.5z" transform="matrix(.11293 .03873 .03211 -.09689 75.4 617.03)"/><path class="st19" d="M4100.3 3210.6c0 3.1-2.5 5.6-5.6 5.6-3.1 0-5.6-2.5-5.6-5.6s2.5-5.6 5.6-5.6c3.1 0 5.6 2.5 5.6 5.6z" transform="matrix(.05492 .01883 .01562 -.04712 111.343 625.636)"/><path class="st20" d="M2285 1595.8c0 1.5-1.2 2.7-2.7 2.7s-2.7-1.2-2.7-2.7 1.2-2.7 2.7-2.7c1.5 0 2.7 1.2 2.7 2.7z" transform="matrix(.11293 .03873 .03211 -.09689 75.4 617.03)"/><path class="st17" d="M2540.6 817.6c-2.8-.1-5.3 2.3-5.4 5-.3 2.7 1.8 5.3 4.5 5.8 1.5.3 3-.2 4.3-.9 3.7-1.6 8.2-1.4 11.8.5 2.5 1.2 5.7.2 7-2.2 1.4-2.3.7-5.5-1.5-7-1.7-1.3-4.2-1.4-6-.4-3.9 1.9-8.7 1.8-12.5-.2-.6-.4-1.4-.6-2.2-.6zm0 2.8c1.5 0 2.7 1.2 2.7 2.7 0 1.5-1.2 2.7-2.7 2.7-1.5 0-2.7-1.2-2.7-2.7 0-1.5 1.2-2.7 2.7-2.7zm17.4 0c1.5 0 2.7 1.2 2.7 2.7 0 1.5-1.2 2.7-2.7 2.7-1.5 0-2.7-1.2-2.7-2.7.1-1.5 1.3-2.7 2.7-2.7z" transform="matrix(.1012 .01315 .01315 -.1012 129.21 592.05)"/><path class="st18" d="M2506.6 878.1c-2.8-.1-5.3 2.3-5.4 5-.3 2.7 1.8 5.3 4.5 5.8 1.5.3 3-.2 4.3-.9 3.7-1.6 8.2-1.4 11.8.5 2.5 1.2 5.7.2 7-2.2 1.4-2.3.7-5.5-1.5-7.1-1.7-1.3-4.2-1.4-6-.4-3.9 1.9-8.7 1.8-12.5-.2-.7-.4-1.5-.5-2.2-.5z" transform="matrix(.1012 .01315 .01315 -.1012 133.63 598.84)"/><path class="st19" d="M4561.4 1745.9c0 3.1-2.5 5.6-5.6 5.6s-5.6-2.5-5.6-5.6c0-3.1 2.5-5.6 5.6-5.6 3.2 0 5.6 2.5 5.6 5.6z" transform="matrix(.04921 .0064 .0064 -.04921 165.3 599.406)"/><path class="st20" d="M2509.3 883.5c0 1.5-1.2 2.7-2.7 2.7s-2.7-1.2-2.7-2.7c0-1.5 1.2-2.7 2.7-2.7 1.5 0 2.7 1.2 2.7 2.7z" transform="matrix(.1012 .01315 .01315 -.1012 133.63 598.84)"/><path class="st17" d="M2626 818.8c-2.8-.1-5.3 2.3-5.4 5-.3 2.7 1.8 5.3 4.5 5.8 1.5.3 3-.2 4.3-.9 3.7-1.6 8.2-1.4 11.8.5 2.5 1.2 5.7.2 7-2.2 1.4-2.3.7-5.5-1.5-7-1.7-1.3-4.2-1.4-6-.4-3.9 1.9-8.7 1.8-12.5-.2-.6-.5-1.4-.6-2.2-.6zm0 2.7c1.5 0 2.7 1.2 2.7 2.7s-1.2 2.7-2.7 2.7-2.7-1.2-2.7-2.7 1.2-2.7 2.7-2.7zm17.4 0c1.5 0 2.7 1.2 2.7 2.7 0 1.5-1.2 2.7-2.7 2.7s-2.7-1.2-2.7-2.7c0-1.5 1.3-2.7 2.7-2.7z" transform="matrix(.1012 .01315 .01315 -.1012 117.01 590.63)"/><path class="st18" d="M2591.9 879.2c-2.8-.1-5.3 2.3-5.4 5-.3 2.7 1.8 5.3 4.5 5.8 1.5.3 3-.2 4.3-.9 3.7-1.6 8.2-1.4 11.8.5 2.5 1.2 5.7.2 7-2.2 1.4-2.3.7-5.5-1.5-7.1-1.7-1.3-4.2-1.4-6-.4-3.9 1.9-8.7 1.8-12.5-.2-.7-.3-1.4-.5-2.2-.5z" transform="matrix(.1012 .01315 .01315 -.1012 121.44 597.42)"/><path class="st19" d="M4736.9 1748.2c0 3.1-2.5 5.6-5.6 5.6s-5.6-2.5-5.6-5.6 2.5-5.6 5.6-5.6c3.1 0 5.6 2.5 5.6 5.6z" transform="matrix(.04921 .0064 .0064 -.04921 153.11 597.986)"/><path class="st20" d="M2594.6 884.6c0 1.5-1.2 2.7-2.7 2.7s-2.7-1.2-2.7-2.7c0-1.5 1.2-2.7 2.7-2.7s2.7 1.2 2.7 2.7z" transform="matrix(.1012 .01315 .01315 -.1012 121.44 597.42)"/><path class="st17" d="M2710.5 819.3c-2.8-.1-5.3 2.3-5.4 5-.3 2.7 1.8 5.3 4.5 5.8 1.5.3 3-.2 4.3-.9 3.7-1.6 8.2-1.4 11.8.5 2.5 1.2 5.7.2 7-2.2 1.4-2.3.7-5.5-1.5-7-1.7-1.3-4.2-1.4-6-.4-3.9 1.9-8.7 1.8-12.5-.2-.6-.5-1.4-.6-2.2-.6zm0 2.7c1.5 0 2.7 1.2 2.7 2.7 0 1.5-1.2 2.7-2.7 2.7-1.5 0-2.7-1.2-2.7-2.7 0-1.5 1.2-2.7 2.7-2.7zm17.5 0c1.5 0 2.7 1.2 2.7 2.7 0 1.5-1.2 2.7-2.7 2.7-1.5 0-2.7-1.2-2.7-2.7-.1-1.5 1.2-2.7 2.7-2.7z" transform="matrix(.1012 .01315 .01315 -.1012 104.95 589.13)"/><path class="st18" d="M2676.4 879.6c-2.8-.1-5.3 2.3-5.4 5-.3 2.7 1.8 5.3 4.5 5.8 1.5.3 3-.2 4.3-.9 3.7-1.6 8.2-1.4 11.8.5 2.5 1.2 5.7.2 7-2.2 1.4-2.3.7-5.5-1.5-7.1-1.7-1.3-4.2-1.4-6-.4-3.9 1.9-8.7 1.8-12.5-.2-.7-.3-1.4-.5-2.2-.5z" transform="matrix(.1012 .01315 .01315 -.1012 109.38 595.92)"/><path class="st19" d="M4910.7 1749.2c0 3.1-2.5 5.6-5.6 5.6s-5.6-2.5-5.6-5.6 2.5-5.6 5.6-5.6c3.1 0 5.6 2.5 5.6 5.6z" transform="matrix(.04921 .0064 .0064 -.04921 141.05 596.486)"/><path class="st20" d="M2679.1 885.1c0 1.5-1.2 2.7-2.7 2.7-1.5 0-2.7-1.2-2.7-2.7s1.2-2.7 2.7-2.7c1.5 0 2.7 1.2 2.7 2.7z" transform="matrix(.1012 .01315 .01315 -.1012 109.38 595.92)"/><path class="st18" d="M1999.6 1183.1c-2.8-.1-5.3 2.3-5.4 5-.3 2.7 1.8 5.3 4.5 5.8 1.5.3 3-.2 4.3-.9 3.7-1.6 8.2-1.4 11.8.5 2.5 1.2 5.7.2 7-2.2 1.4-2.3.7-5.5-1.5-7.1-1.7-1.3-4.2-1.4-6-.4-3.9 1.9-8.7 1.8-12.5-.2-.6-.3-1.4-.5-2.2-.5z" transform="matrix(.13906 .03735 .02764 -.09825 76.487 582.7)"/><path class="st19" d="M3519 2373.2c0 3.1-2.5 5.6-5.6 5.6s-5.6-2.5-5.6-5.6 2.5-5.6 5.6-5.6 5.6 2.6 5.6 5.6z" transform="matrix(.06762 .01816 .01344 -.04778 120.336 590.833)"/><path class="st20" d="M2002.4 1188.6c0 1.5-1.2 2.7-2.7 2.7s-2.7-1.2-2.7-2.7c0-1.5 1.2-2.7 2.7-2.7 1.4 0 2.7 1.2 2.7 2.7z" transform="matrix(.13906 .03735 .02764 -.09825 76.487 582.7)"/><path class="st21" d="M351.4 508.2l26.4 32.4"/><path d="M450.5 548.8l48.6-12.8" fill="none" stroke="#999"/><path class="st6" d="M-566.4 1058.1l4.3-1.8.5.6-4.5 2.3-.3-1.1z" transform="rotate(5.7 16150.369 17045.093) scale(1.98361)"/><path d="M446.928 459.383l-.592-2.052s-8.586.14-9.08 1.087c-.493.948-.867 2.704 1.126 2.704 1.994 0 8.33-1.56 8.546-1.739h0z" fill="#ac9d93" stroke="#916f6f" stroke-width=".698"/><path d="M463.707 467.273s-5.95-13.686-6.744-13.686-1.984.991-1.984 1.388c-.198.397 6.546 13.29 7.141 13.687.397.595 1.785-1.389 1.587-1.389z" fill="#b3b3b3" stroke="#666" stroke-width="1.523"/><path class="st25" d="M-566.9 1071.2s-7.1 6.1-14.5 7.7-10.2 1.4-11.4 1.3c-1-.4-1.7-.5-1.7-.5l.4-1.6s.9.9 2.1 1.1 9-.5 14.9-2.8 10.2-6.6 10.2-6.6l.6 1.3-.6.1z" transform="translate(1589.4 -1640.5) scale(1.9836)"/><path d="M410.943 495.242l-.396 6.15-2.38-.397.198-5.753c1.586-.198 1.388.198 2.578 0h0z" fill="#ac9d93" stroke="#000" stroke-width="1.523"/><path class="st25" d="M-595.5 1078s-3.1-.9-4.8 2c-1.7 2.8-9.3 20.2-9.3 20.2-1.4.3-1.8-.6-1.6-.8 2.1-2.5 7.7-17 7.9-17.3.2-.3 1.6-2.9 3.1-3.9s4.2-1.4 4.8-1.4-.6.3-.1 1.2z" transform="translate(1589.4 -1640.5) scale(1.9836)"/><path d="M467.873 488.3s-11.505 9.72-14.48 14.281c-2.976 4.563-8.133 15.274-9.522 22.613-2.579 14.084-5.554 27.77-20.233 28.763-9.124-.199-31.936-4.96-32.73-4.96s-10.71-2.38-10.71-2.38c-.199-.595.595-1.785.793-2.777.198-.793 2.38.794 3.57.794s11.704 1.983 13.489 2.182 18.249 3.967 24.993 3.372c5.356-.595 13.092-2.38 15.869-13.092 4.76-22.811 8.728-36.101 25.985-49.987.199-2.182.992-2.777.992-2.777l1.984 3.968z" fill="#1a1a1a" stroke="#000" stroke-width="1.609"/><path d="M386.545 535.906s9.323 1.19 19.043 2.38c4.76.595 9.72 1.19 13.488 1.785 1.984.199 3.57.397 4.76.596 1.19.198 1.984.198 2.183.198h0c4.959 1.587 7.934 4.959 9.124 8.728.992 3.769.397 8.133-.793 10.711-1.19 2.182-3.372 3.967-5.356 4.96s-8.331.991-8.331.991.595-.992 1.587-1.587c4.165-.198 8.53-1.983 10.314-5.356 1.19-2.182 1.984-5.752.992-9.124-.992-3.174-3.372-6.348-7.934-7.736h0c-.397 0-.992 0-1.984-.199-1.19-.198-2.777-.396-4.76-.595-3.77-.396-8.728-1.19-13.489-1.785-9.521-1.19-22.811-3.174-22.811-3.174l.595-1.388 3.372.595z" fill="#333" stroke="#000" stroke-width="1.371"/><path class="st25" d="M-563.5 1074.5s-5.9 5.1-6.8 6.4-5.1 6.8-4.9 13.9c.2 7.1.7 10.6 6.4 18.9.3.5-.1 1.1-.3 1.2s-.5-.1-.7-1.1c-4.6-6.7-6.1-9.7-6.1-19.1 0-6.8 3.8-12.9 4.9-14.3 1.1-1.3 4.8-4.7 6-5.7.5-.4.8-.7 1.2-.9.1 0 .4.7.3.7z" transform="translate(1589.4 -1640.5) scale(1.9836)"/><path d="M-549.6 1096.5c0 .3.3.6.7.6s.7-.3.7-.6-.3-.6-.7-.6-.7.3-.7.6z" fill="#ac9d93" stroke="#000" transform="translate(1589.4 -1640.5) scale(1.9836)"/><path d="M-601.5 1070.6s4.1.1 6.2.1c.6 0 1.3.7 1.3 1.3-.2 3.1-.6 12.7-.6 12.7l-.8-.1s.3-8.7.4-12.6c0-.3-.3-.6-.6-.6-2.1-.1-5.9-.2-5.9-.2v-.6z" fill="#272725" stroke="#000" transform="translate(1589.4 -1640.5) scale(1.9836)"/><path class="st31" d="M-20.5 1542.1c-1-.5-2-.8-3.1-.9-.1 0-.2.1-.2.1-.1 0 .9.2 1.8.5 1.6.5 1.5.7 1.5.7s.6.6.6.5c0-.2-.2-.7-.6-.9z" transform="scale(-1.52318 1.52318) rotate(-7.662 -9317.124 2788.296)"/><path class="st32" d="M-22.9 1539.8v5.4h1.8v-5.4h-1.8z" transform="scale(-1.52318 1.52318) rotate(-7.662 -9317.124 2788.296)"/><path class="st33" d="M-23.8 1541.4l.1.5 3.8-.3-.2-.5-3.7.3z" transform="scale(-1.52318 1.52318) rotate(-7.662 -9317.124 2788.296)"/><path class="st34" d="M-23.8 1542.8l.1.5 3.7-.3-.2-.5-3.6.3z" transform="scale(-1.52318 1.52318) rotate(-7.662 -9317.124 2788.296)"/><path class="st35" d="M-23.8 1544l.1.5 3.7-.3-.2-.5-3.6.3z" transform="scale(-1.52318 1.52318) rotate(-7.662 -9317.124 2788.296)"/><path d="M395.074 471.042s4.761 4.76 7.935 5.356c4.165.992 12.298-1.984 12.298-1.984l-.595 1.389" fill="none" stroke="#666" stroke-width="5.157"/><path class="st31" d="M-49.7 1542.9c-1-.5-2-.8-3.1-.9-.1 0-.2.1-.2.1-.1 0 .9.2 1.8.5 1.6.5 1.5.7 1.5.7s.6.6.6.5c0-.1-.2-.7-.6-.9z" transform="scale(-1.52318 1.52318) rotate(-7.662 -9346.803 2481.757)"/><path class="st32" d="M-52.1 1540.7v5.4h1.8v-5.4h-1.8z" transform="scale(-1.52318 1.52318) rotate(-7.662 -9346.803 2481.757)"/><path class="st33" d="M-53 1542.3l.1.5 3.8-.3-.2-.5-3.7.3z" transform="scale(-1.52318 1.52318) rotate(-7.662 -9346.803 2481.757)"/><path class="st34" d="M-53 1543.6l.1.5 3.7-.3-.2-.5-3.6.3z" transform="scale(-1.52318 1.52318) rotate(-7.662 -9346.803 2481.757)"/><path class="st35" d="M-53 1544.9l.1.5 3.7-.3-.2-.5-3.6.3z" transform="scale(-1.52318 1.52318) rotate(-7.662 -9346.803 2481.757)"/><path d="M422.051 473.62s-2.38-.793-3.57-.197c-2.38.991-.198 5.554-5.753 5.554-2.578 0-5.752-3.57-5.752-3.57s-15.67-2.58-15.472-4.563c.198-2.182 1.984-.992 4.959-.199 5.554 1.587 7.14 1.587 10.711.794 3.57-.595 10.513-1.389 12.695-.397 1.984.794 2.777 2.777 2.182 2.579h0z" fill="#483737" stroke="#483737" stroke-width="1.523"/><path d="M454.186 455.967c-4.563.397-3.57-.595-8.133-.397l-2.777-1.388s6.347-1.984 13.488-.992c3.174 2.182 1.587 1.785-2.578 2.777h0z" fill="#b3b3b3" stroke="#666" stroke-width="1.718"/><path d="M446.846 455.57l-.793-2.38s-9.72 1.19-10.116 2.182-.595 3.174 1.586 2.975c2.182 0 9.125-2.579 9.323-2.777h0z" fill="#ac9d93" stroke="#000" stroke-width=".799"/><path d="M-568 1067.2l1-.5 3.2 6.5-1 .6-.2-.5-.3-.1-1.7-3.5s-.1-.7-.1-1c-.4-.4-.6-1-.9-1.5h0z" fill="#191b17" stroke="#000" transform="translate(1589.4 -1640.5) scale(1.9836)"/><path d="M-570.3 1055.5s7.6 13.3 9.6 17.2c.2.4.9.1 1.4 0 .6-.1 1.1-.3 1.5-.7.4-.3.8-1.1.8-1.1s-2.1 1.1-3.1.9c-.3-.1-.7-.6-.7-.6l-2.3-4.1-.3-.2-4.4-8-.3-.2-1.9-3.4-.3.2z" fill="#f9f9f9" stroke="#ccc" transform="translate(1589.4 -1640.5) scale(1.9836)"/><path d="M-567.3 1062.5l.5-.3s-.1-.3-.2-.4.7-.5.8-.5c.2.2.4.6.5.9.1.1-.7.6-.8.5 0-.1-.2-.3-.2-.3l-.5.3-.1-.2z" fill="#b3b3b3" stroke="#999" transform="translate(1589.4 -1640.5) scale(1.9836)"/><path d="M-568.1 1067.6l1.5-.8-1.5-2.4-.5-.1-.3-.7.4-.3-.3-.5 1.4-.7 5.4 10.2-1.5 1h-.3l-1.5 1.1s-.1.1-.1-.1c.2-.2.4-.5.4-.5l-.4-.6.9-.6-2.3-4.4-.9.5-.4-1.1z" fill="#212121" stroke="#000" transform="translate(1589.4 -1640.5) scale(1.9836)"/><path d="M-563.4 1073.5l.2.4 12.6 21.9s.6.5.5.9c-.2 1 1 1.2 1.6 1 .5-.2.9-1.8-.3-1.9-.3 0-.4-.6-.4-.6s-9.7-18.3-12.1-22.6c-.1-.2-.8-.1-.8-.1l-1.3 1z" fill="#1a1a1a" stroke="#333" transform="translate(1589.4 -1640.5) scale(1.9836)"/><path class="st45" d="M-604 1068.8l3.2.2-.1.5-3-.1-.1-.6z" transform="translate(1589.4 -1640.5) scale(1.9836)"/><path class="st45" d="M-602.7 1069.4l.2 1.1 10.6.2v-.5l-9.9-.2-.1-.7-.8.1z" transform="translate(1589.4 -1640.5) scale(1.9836)"/><path d="M458.153 453.388c-.992-.198-1.785 1.984-2.38 2.579-1.19.793-1.786.992-3.174 1.785-5.951 2.777-14.48 4.562-14.48 4.562l1.388 1.389c5.95-1.984 11.505-3.57 17.059-5.356l2.38-1.785c0-.198 0-3.174-.793-3.174h0z" fill="#e6e6e6" stroke="#666"/><path d="M-570.3 1055.6l.5-.3.2.4-.5.2-.2-.3z" fill="#4d4d4d" stroke="gray" transform="translate(1589.4 -1640.5) scale(1.9836)"/><path d="M456.764 457.157c0 .198-.198.397-.396.397s-.397-.199-.397-.397.198-.397.397-.397.396 0 .396.397z" fill="#4d4d4d" stroke="gray" stroke-width=".992"/><path class="st21" d="M346.6 512l31.2 29.6"/><path class="st49" d="M382.8 544.5l37.9 6.6-.3 1.4-38.7-7.1z"/><path d="M423.806 551.318c1.181-.118 3.661-.118 4.96-2.007.354-.473 1.417 3.188 1.417 3.188-2.48-.236-3.543 1.417-4.723 2.361-.59-1.77-1.181-2.834-1.654-3.542h0z" fill="#4d4d4d" stroke="#666"/><path class="st51" d="M464.4 580.1c-1 .1-3.1.1-4.2 1.7-.3.4-1.2-2.7-1.2-2.7 2.1.2 3-1.2 4-2 .5 1.5 1 2.4 1.4 3z" transform="rotate(180 486.085 618.15) scale(1.1808)"/><path class="st51" d="M462.7 578.1c-.6-.8-1.6-2.7-3.6-2.8-.5 0 1.7-2.4 1.7-2.4.9 1.9 2.5 2 3.7 2.5-.9 1.2-1.4 2.1-1.8 2.7z" transform="rotate(180 486.085 618.15) scale(1.1808)"/><path class="st51" d="M463.6 575.7c.4-1 1.5-2.8.6-4.6-.2-.4 2.9.3 2.9.3-1.2 1.7-.5 3.2-.3 4.5-1.5-.2-2.5-.2-3.2-.2zm4.2 1.5c.6.8 1.6 2.7 3.6 2.8.5 0-1.7 2.4-1.7 2.4-.9-1.9-2.5-2-3.7-2.5 1-1.2 1.5-2.1 1.8-2.7z" transform="rotate(180 486.085 618.15) scale(1.1808)"/><path class="st51" d="M467 579.6c-.4 1-1.5 2.8-.6 4.6.2.4-2.9-.3-2.9-.3 1.2-1.7.5-3.2.3-4.5 1.4.2 2.4.2 3.2.2z" transform="rotate(180 486.085 618.15) scale(1.1808)"/><path d="M421.8 557.104c-1.182.118-3.661.118-4.96 2.007-.354.473-1.417-3.188-1.417-3.188 2.48.236 3.542-1.417 4.723-2.362.59 1.772 1.18 2.834 1.653 3.543h0z" fill="#333" stroke="#666"/><path class="st53" d="M465.7 569.9c-.1 0-.1 0 0 0-.1.3-.2.4-.3.5-.2.2-.4.2-.4.2h-.3c-.2-.1-.4-.2-.4-.6 0 0-.4 0-.4.1 0 .4-.1.6-.2.7-.1.1-.3.2-.3.2s-.1.1-.3 0c-.2 0-.4-.1-.6-.5l-.3.1c.1.4 0 .6-.1.7l-.2.2s-.1.1-.3.1c-.2 0-.4 0-.7-.3l-.3.2c.2.3.2.6.1.7-.1.2-.2.3-.2.3s-.1.1-.2.1c-.2.1-.4.2-.8-.1 0 0-.3.3-.2.3.3.3.3.5.3.7s-.1.3-.1.3l-.2.2c-.1.1-.4.2-.7 0l-.2.3c.3.2.4.4.4.6v.3s0 .1-.2.3c-.1.1-.3.2-.7.2l-.1.3c.4.1.5.3.6.5.1.2 0 .3 0 .3s0 .2-.1.3c-.1.1-.3.3-.7.3v.4c.4.1.6.2.7.4s.1.3.1.3v.3c-.1.2-.2.4-.6.5 0 0 0 .4.1.3.4 0 .6.1.7.2.1.1.2.3.2.3s.1.1.1.3-.1.4-.5.6c0 0 .1.3.2.3.4-.1.6-.1.7 0l.2.2s.1.1.1.3c0 .2 0 .4-.3.7l.2.3c.4-.2.7-.2.8-.1.1.1.2.1.2.1l.2.2c.1.2.1.4-.1.7 0 0 .3.3.3.2.3-.3.5-.3.7-.3.2 0 .3.1.3.1s.1.1.3.2c.1.1.2.4 0 .7l.3.2c.2-.3.4-.4.6-.5h.3s.2 0 .3.1c.1.1.3.3.2.7 0 .1.3.1.4.1.1-.4.3-.5.5-.6.2-.1.3-.1.3-.1s.2 0 .4.1c.1.1.2.3.3.6 0 .1.4 0 .4 0 0-.4.2-.6.3-.7.1-.1.3-.1.3-.1s.1-.1.3 0c.2 0 .4.2.5.5 0 0 .4-.1.3-.1-.1-.4 0-.6.2-.7l.2-.2s.1-.1.3-.1c.2 0 .4.1.6.4 0 0 .3-.1.3-.2-.1-.3-.1-.6 0-.7.1-.2.2-.2.2-.2s.1-.1.3-.2c.2 0 .4 0 .7.3l.3-.2c0-.1-.1-.1-.1-.2-.1-.3-.1-.5-.1-.6 0-.1.1-.2.1-.2l.2-.2c.1-.1.4-.1.7.1l.2-.3c-.3-.2-.3-.5-.3-.7 0-.2.1-.3.1-.3s.1-.2.2-.3c.1-.1.4-.2.7-.1 0 0 .2-.3.1-.3-.3-.2-.5-.4-.5-.6v-.3s0-.2.1-.3c.1-.1.3-.3.7-.2.1 0 .1-.4.1-.4-.4-.1-.5-.3-.6-.4-.1-.2-.1-.3-.1-.3s0-.2.1-.3c.1-.2.2-.4.6-.4.1 0 0-.4 0-.4-.4 0-.6-.1-.7-.3-.1-.1-.1-.3-.1-.3s-.1-.1 0-.3c0-.2.2-.4.5-.5l-.1-.3c-.4.1-.6 0-.7-.1l-.2-.2s-.1-.1-.1-.3c0-.2.1-.4.4-.6l-.2-.3c-.3.2-.6.1-.7.1-.2-.1-.2-.2-.2-.2s-.1-.1-.1-.2c-.1-.1-.1-.3.1-.6 0-.1.1-.1.2-.2 0 0-.2-.3-.3-.3-.3.2-.5.3-.7.2-.2 0-.3-.1-.3-.1l-.2-.2c-.1-.1-.1-.4 0-.7l-.3-.2c-.2.3-.5.4-.6.4-.2 0-.3-.1-.3-.1s-.2 0-.3-.2c-.1-.1-.2-.4-.1-.7l-.3-.1c-.2.3-.4.5-.5.5-.2.1-.3 0-.3 0s-.1 0-.3-.1c-.1-.1-.3-.3-.3-.7-.6.2-.7.2-.8.2zm-.4 1.5c3.4 0 6.3 2.8 6.3 6.3 0 3.4-2.8 6.3-6.3 6.3-3.4 0-6.3-2.8-6.3-6.3.1-3.5 2.9-6.3 6.3-6.3z" transform="rotate(180 486.085 618.15) scale(1.1808)"/><path d="M419.438 554.152c0-1.89 1.535-3.424 3.424-3.424s3.424 1.535 3.424 3.424-1.535 3.424-3.424 3.424c-2.008 0-3.424-1.535-3.424-3.424z" fill="#333" stroke="#4d4d4d" stroke-width=".59"/><path d="M381 543.6l-.4-1.5-5.2-2.2-.4 1 3.7 1.5.3 1-.3.6-.9.6-3.6-1.3-.3 1.1 1.4.9c2 1.1 1.6.7 3 1.3l1.9.1.8-3.1z" fill="#333" stroke="#000"/><path class="st56" d="M379.1 543.2c0 .9-.7 1.6-1.5 1.6-.9 0-1.5-.7-1.5-1.6 0-.9.7-1.6 1.5-1.6s1.5.7 1.5 1.6z"/><path class="st57" d="M377.5 541.9l-1.1.7v1.3l1.1.7 1.1-.7v-1.3l-1.1-.7zm0 .5c.4 0 .8.3.8.8s-.3.8-.8.8-.8-.3-.8-.8.4-.8.8-.8z"/><path d="M472 482.2l1.8-.7-.8-1.7 1.5-.7 2.8 5.4-1.5.7-.8-1.2-1.3.9-1.7-2.7z" fill="#1a1a1c" stroke="#000"/><path class="st56" d="M501.9 534.9c0 .9-.7 1.6-1.5 1.6-.9 0-1.5-.7-1.5-1.6 0-.9.7-1.6 1.5-1.6.8.1 1.5.8 1.5 1.6z"/><path class="st57" d="M500.4 533.7l-1.1.7v1.3l1.1.7 1.1-.7v-1.3l-1.1-.7zm0 .5c.4 0 .8.3.8.8s-.3.8-.8.8-.8-.3-.8-.8.3-.8.8-.8z"/><path class="st17" d="M-1276.7-1166.5c-2.8-.1-5.3 2.3-5.4 5-.3 2.7 1.8 5.3 4.5 5.8 1.5.3 3-.2 4.3-.9 3.7-1.6 8.2-1.4 11.8.5 2.5 1.2 5.7.2 7-2.2 1.4-2.3.7-5.5-1.5-7-1.7-1.3-4.2-1.4-6-.4-3.9 1.9-8.7 1.8-12.5-.2-.6-.5-1.4-.6-2.2-.6zm0 2.7c1.5 0 2.7 1.2 2.7 2.7 0 1.5-1.2 2.7-2.7 2.7-1.5 0-2.7-1.2-2.7-2.7 0-1.5 1.2-2.7 2.7-2.7zm17.4 0c1.5 0 2.7 1.2 2.7 2.7s-1.2 2.7-2.7 2.7-2.7-1.2-2.7-2.7 1.2-2.7 2.7-2.7z" transform="matrix(-.09884 -.02541 -.02541 .09884 254.11 642.4)"/><path class="st18" d="M-1271.4-1155.8c-2.8-.1-5.3 2.3-5.4 5-.3 2.7 1.8 5.3 4.5 5.8 1.5.3 3-.2 4.3-.9 3.7-1.6 8.2-1.4 11.8.5 2.5 1.2 5.7.2 7-2.2 1.4-2.3.7-5.5-1.5-7.1-1.7-1.3-4.2-1.4-6-.4-3.9 1.9-8.7 1.8-12.5-.2-.7-.4-1.5-.5-2.2-.5z" transform="matrix(-.09803 -.02837 -.02837 .09803 250.8 636.3)"/><path class="st19" d="M-3207.4-2436.5c0 3.1-2.5 5.6-5.6 5.6s-5.6-2.5-5.6-5.6 2.5-5.6 5.6-5.6c3.1 0 5.6 2.5 5.6 5.6z" transform="matrix(-.04767 -.0138 -.0138 .04767 219.582 630.93)"/><path class="st20" d="M-1268.7-1150.4c0 1.5-1.2 2.7-2.7 2.7s-2.7-1.2-2.7-2.7c0-1.5 1.2-2.7 2.7-2.7 1.5 0 2.7 1.2 2.7 2.7z" transform="matrix(-.09803 -.02837 -.02837 .09803 250.8 636.3)"/><path class="st17" d="M-1191.2-1168.4c-2.8-.1-5.3 2.3-5.4 5-.3 2.7 1.8 5.3 4.5 5.8 1.5.3 3-.2 4.3-.9 3.7-1.6 8.2-1.4 11.8.5 2.5 1.2 5.7.2 7-2.2 1.4-2.3.7-5.5-1.5-7-1.7-1.3-4.2-1.4-6-.4-3.9 1.9-8.7 1.8-12.5-.2-.6-.4-1.4-.6-2.2-.6zm0 2.7c1.5 0 2.7 1.2 2.7 2.7 0 1.5-1.2 2.7-2.7 2.7s-2.7-1.2-2.7-2.7c0-1.4 1.2-2.7 2.7-2.7zm17.4 0c1.5 0 2.7 1.2 2.7 2.7 0 1.5-1.2 2.7-2.7 2.7s-2.7-1.2-2.7-2.7c0-1.4 1.2-2.7 2.7-2.7z" transform="matrix(-.09884 -.02541 -.02541 .09884 265.95 645.72)"/><path class="st18" d="M-1185.9-1155.1c-2.8-.1-5.3 2.3-5.4 5-.3 2.7 1.8 5.3 4.5 5.8 1.5.3 3-.2 4.3-.9 3.7-1.6 8.2-1.4 11.8.5 2.5 1.2 5.7.2 7-2.2 1.4-2.3.7-5.5-1.5-7.1-1.7-1.3-4.2-1.4-6-.4-3.9 1.9-8.7 1.8-12.5-.2-.6-.3-1.4-.5-2.2-.5z" transform="matrix(-.09803 -.02837 -.02837 .09803 262.65 639.62)"/><path class="st19" d="M-3031.4-2435c0 3.1-2.5 5.6-5.6 5.6s-5.6-2.5-5.6-5.6 2.5-5.6 5.6-5.6c3.1 0 5.6 2.6 5.6 5.6z" transform="matrix(-.04767 -.0138 -.0138 .04767 231.432 634.25)"/><path class="st20" d="M-1183.1-1149.6c0 1.5-1.2 2.7-2.7 2.7s-2.7-1.2-2.7-2.7c0-1.5 1.2-2.7 2.7-2.7s2.7 1.2 2.7 2.7z" transform="matrix(-.09803 -.02837 -.02837 .09803 262.65 639.62)"/><path class="st17" d="M-1104.8-1169.7c-2.8-.1-5.3 2.3-5.4 5-.3 2.7 1.8 5.3 4.5 5.8 1.5.3 3-.2 4.3-.9 3.7-1.6 8.2-1.4 11.8.5 2.5 1.2 5.7.2 7-2.2 1.4-2.3.7-5.5-1.5-7-1.7-1.3-4.2-1.4-6-.4-3.9 1.9-8.7 1.8-12.5-.2-.6-.4-1.4-.6-2.2-.6zm0 2.7c1.5 0 2.7 1.2 2.7 2.7s-1.2 2.7-2.7 2.7-2.7-1.2-2.7-2.7c0-1.5 1.3-2.7 2.7-2.7zm17.5 0c1.5 0 2.7 1.2 2.7 2.7s-1.2 2.7-2.7 2.7-2.7-1.2-2.7-2.7 1.2-2.7 2.7-2.7z" transform="matrix(-.09884 -.02541 -.02541 .09884 277.94 649)"/><path class="st18" d="M-1099.4-1153.8c-2.8-.1-5.3 2.3-5.4 5-.3 2.7 1.8 5.3 4.5 5.8 1.5.3 3-.2 4.3-.9 3.7-1.6 8.2-1.4 11.8.5 2.5 1.2 5.7.2 7-2.2 1.4-2.3.7-5.5-1.5-7.1-1.7-1.3-4.2-1.4-6-.4-3.9 1.9-8.7 1.8-12.5-.2-.7-.3-1.5-.5-2.2-.5z" transform="matrix(-.09803 -.02837 -.02837 .09803 274.64 642.9)"/><path class="st19" d="M-2853.7-2432.4c0 3.1-2.5 5.6-5.6 5.6s-5.6-2.5-5.6-5.6 2.5-5.6 5.6-5.6 5.6 2.6 5.6 5.6z" transform="matrix(-.04767 -.0138 -.0138 .04767 243.422 637.53)"/><path class="st20" d="M-1096.7-1148.4c0 1.5-1.2 2.7-2.7 2.7s-2.7-1.2-2.7-2.7 1.2-2.7 2.7-2.7 2.7 1.2 2.7 2.7z" transform="matrix(-.09803 -.02837 -.02837 .09803 274.64 642.9)"/><path class="st17" d="M-1019.4-1171.3c-2.8-.1-5.3 2.3-5.4 5-.3 2.7 1.8 5.3 4.5 5.8 1.5.3 3-.2 4.3-.9 3.7-1.6 8.2-1.4 11.8.5 2.5 1.2 5.7.2 7-2.2 1.4-2.3.7-5.5-1.5-7-1.7-1.3-4.2-1.4-6-.4-3.9 1.9-8.7 1.8-12.5-.2-.7-.4-1.5-.6-2.2-.6zm0 2.8c1.5 0 2.7 1.2 2.7 2.7s-1.2 2.7-2.7 2.7c-1.5 0-2.7-1.2-2.7-2.7s1.2-2.7 2.7-2.7zm17.4 0c1.5 0 2.7 1.2 2.7 2.7s-1.2 2.7-2.7 2.7-2.7-1.2-2.7-2.7 1.2-2.7 2.7-2.7z" transform="matrix(-.09884 -.02541 -.02541 .09884 289.77 652.27)"/><path class="st18" d="M-1014.1-1152.8c-2.8-.1-5.3 2.3-5.4 5-.3 2.7 1.8 5.3 4.5 5.8 1.5.3 3-.2 4.3-.9 3.7-1.6 8.2-1.4 11.8.5 2.5 1.2 5.7.2 7-2.2 1.4-2.3.7-5.5-1.5-7.1-1.7-1.3-4.2-1.4-6-.4-3.9 1.9-8.7 1.8-12.5-.2-.7-.3-1.5-.5-2.2-.5z" transform="matrix(-.09803 -.02837 -.02837 .09803 286.46 646.17)"/><path class="st19" d="M-2678.4-2430.3c0 3.1-2.5 5.6-5.6 5.6s-5.6-2.5-5.6-5.6 2.5-5.6 5.6-5.6 5.6 2.5 5.6 5.6z" transform="matrix(-.04767 -.0138 -.0138 .04767 255.242 640.8)"/><path class="st20" d="M-1011.4-1147.4c0 1.5-1.2 2.7-2.7 2.7s-2.7-1.2-2.7-2.7 1.2-2.7 2.7-2.7 2.7 1.2 2.7 2.7z" transform="matrix(-.09803 -.02837 -.02837 .09803 286.46 646.17)"/><path class="st17" d="M-1310.7-567.7c-2.8-.1-5.3 2.3-5.4 5-.3 2.7 1.8 5.3 4.5 5.8 1.5.3 3-.2 4.3-.9 3.7-1.6 8.2-1.4 11.8.5 2.5 1.2 5.7.2 7-2.2 1.4-2.3.7-5.5-1.5-7-1.7-1.3-4.2-1.4-6-.4-3.9 1.9-8.7 1.8-12.5-.2-.7-.5-1.4-.6-2.2-.6zm0 2.7c1.5 0 2.7 1.2 2.7 2.7 0 1.5-1.2 2.7-2.7 2.7s-2.7-1.2-2.7-2.7c-.1-1.5 1.2-2.7 2.7-2.7zm17.4 0c1.5 0 2.7 1.2 2.7 2.7s-1.2 2.7-2.7 2.7-2.7-1.2-2.7-2.7 1.2-2.7 2.7-2.7z" transform="matrix(-.10122 .01301 .01301 .10122 298.53 636.75)"/><path class="st18" d="M-1222.5-757.3c-2.8-.1-5.3 2.3-5.4 5-.3 2.7 1.8 5.3 4.5 5.8 1.5.3 3-.2 4.3-.9 3.7-1.6 8.2-1.4 11.8.5 2.5 1.2 5.7.2 7-2.2 1.4-2.3.7-5.5-1.5-7.1-1.7-1.3-4.2-1.4-6-.4-3.9 1.9-8.7 1.8-12.5-.2-.6-.4-1.4-.6-2.2-.5z" transform="matrix(-.10203 -.00218 -.00218 .10203 295.76 637.06)"/><path class="st19" d="M-3106.7-1617.1c0 3.1-2.5 5.6-5.6 5.6s-5.6-2.5-5.6-5.6 2.5-5.6 5.6-5.6 5.6 2.5 5.6 5.6z" transform="matrix(-.04962 -.00106 -.00106 .04962 264.212 639.906)"/><path class="st20" d="M-1219.7-751.9c0 1.5-1.2 2.7-2.7 2.7-1.5 0-2.7-1.2-2.7-2.7s1.2-2.7 2.7-2.7c1.5 0 2.7 1.2 2.7 2.7z" transform="matrix(-.10203 -.00218 -.00218 .10203 295.76 637.06)"/><path class="st17" d="M-1363.1 54.5c-2.8-.1-5.3 2.3-5.4 5-.3 2.7 1.8 5.3 4.5 5.8 1.5.3 3-.2 4.3-.9 3.7-1.6 8.2-1.4 11.8.5 2.5 1.2 5.7.2 7-2.2 1.4-2.3.7-5.5-1.5-7-1.7-1.3-4.2-1.4-6-.4-3.9 1.9-8.7 1.8-12.5-.2-.6-.4-1.4-.6-2.2-.6zm0 2.7c1.5 0 2.7 1.2 2.7 2.7 0 1.5-1.2 2.7-2.7 2.7-1.5 0-2.7-1.2-2.7-2.7s1.2-2.7 2.7-2.7zm17.4 0c1.5 0 2.7 1.2 2.7 2.7s-1.2 2.7-2.7 2.7-2.7-1.2-2.7-2.7 1.3-2.7 2.7-2.7z" transform="matrix(-.09025 .04765 .04765 .09025 301.36 621.24)"/><path class="st18" d="M-1301.5-394.8c-2.8-.1-5.3 2.3-5.4 5-.3 2.7 1.8 5.3 4.5 5.8 1.5.3 3-.2 4.3-.9 3.7-1.6 8.2-1.4 11.8.5 2.5 1.2 5.7.2 7-2.2 1.4-2.3.7-5.5-1.5-7.1-1.7-1.3-4.2-1.4-6-.4-3.9 1.9-8.7 1.8-12.5-.2-.7-.3-1.5-.5-2.2-.5z" transform="matrix(-.10013 .01974 .01974 .10013 303.03 627.2)"/><path class="st19" d="M-3269.3-871.6c0 3.1-2.5 5.6-5.6 5.6s-5.6-2.5-5.6-5.6 2.5-5.6 5.6-5.6 5.6 2.6 5.6 5.6z" transform="matrix(-.0487 .0096 .0096 .0487 272.824 636.742)"/><path class="st20" d="M-1298.8-389.4c0 1.5-1.2 2.7-2.7 2.7s-2.7-1.2-2.7-2.7c0-1.5 1.2-2.7 2.7-2.7 1.5 0 2.7 1.2 2.7 2.7z" transform="matrix(-.10013 .01974 .01974 .10013 303.03 627.2)"/><path class="st17" d="M-1143.6 784.2c-2.8-.1-5.3 2.3-5.4 5-.3 2.7 1.8 5.3 4.5 5.8 1.5.3 3-.2 4.3-.9 3.7-1.6 8.2-1.4 11.8.5 2.5 1.2 5.7.2 7-2.2 1.4-2.3.7-5.5-1.5-7-1.7-1.3-4.2-1.4-6-.4-3.9 1.9-8.7 1.8-12.5-.2-.7-.5-1.5-.6-2.2-.6zm0 2.7c1.5 0 2.7 1.2 2.7 2.7s-1.2 2.7-2.7 2.7c-1.5 0-2.7-1.2-2.7-2.7s1.2-2.7 2.7-2.7zm17.4 0c1.5 0 2.7 1.2 2.7 2.7s-1.2 2.7-2.7 2.7c-1.5 0-2.7-1.2-2.7-2.7s1.2-2.7 2.7-2.7z" transform="matrix(-.06169 .08129 .08129 .06169 295.12 603.43)"/><path class="st18" d="M-1300.8 367c-2.8-.1-5.3 2.3-5.4 5-.3 2.7 1.8 5.3 4.5 5.8 1.5.3 3-.2 4.3-.9 3.7-1.6 8.2-1.4 11.8.5 2.5 1.2 5.7.2 7-2.2 1.4-2.3.7-5.5-1.5-7.1-1.7-1.3-4.2-1.4-6-.4-3.9 1.9-8.7 1.8-12.5-.2-.6-.3-1.4-.5-2.2-.5z" transform="matrix(-.08243 .06016 .06016 .08243 299.15 608.13)"/><path class="st19" d="M-3267.7 695.1c0 3.1-2.5 5.6-5.6 5.6s-5.6-2.5-5.6-5.6c0-3.1 2.5-5.6 5.6-5.6s5.6 2.5 5.6 5.6z" transform="matrix(-.04009 .02926 .02926 .04009 275.798 629.53)"/><path class="st20" d="M-1298 372.5c0 1.5-1.2 2.7-2.7 2.7-1.5 0-2.7-1.2-2.7-2.7 0-1.5 1.2-2.7 2.7-2.7 1.4 0 2.7 1.2 2.7 2.7z" transform="matrix(-.08243 .06016 .06016 .08243 299.15 608.13)"/><path class="st17" d="M-714.7 1281.4c-2.8-.1-5.3 2.3-5.4 5-.3 2.7 1.8 5.3 4.5 5.8 1.5.3 3-.2 4.3-.9 3.7-1.6 8.2-1.4 11.8.5 2.5 1.2 5.7.2 7-2.2 1.4-2.3.7-5.5-1.5-7-1.7-1.3-4.2-1.4-6-.4-3.9 1.9-8.7 1.8-12.5-.2-.7-.4-1.4-.6-2.2-.6zm0 2.7c1.5 0 2.7 1.2 2.7 2.7s-1.2 2.7-2.7 2.7-2.7-1.2-2.7-2.7 1.2-2.7 2.7-2.7zm17.4.1c1.5 0 2.7 1.2 2.7 2.7s-1.2 2.7-2.7 2.7c-1.5 0-2.7-1.2-2.7-2.7 0-1.5 1.2-2.7 2.7-2.7z" transform="matrix(-.0278 .09819 .09819 .0278 285.12 590.38)"/><path class="st18" d="M-1032.7 966.5c-2.8-.1-5.3 2.3-5.4 5-.3 2.7 1.8 5.3 4.5 5.8 1.5.3 3-.2 4.3-.9 3.7-1.6 8.2-1.4 11.8.5 2.5 1.2 5.7.2 7-2.2 1.4-2.3.7-5.5-1.5-7.1-1.7-1.3-4.2-1.4-6-.4-3.9 1.9-8.7 1.8-12.5-.2-.6-.4-1.4-.5-2.2-.5z" transform="matrix(-.05482 .08608 .08608 .05482 290.58 593.29)"/><path class="st19" d="M-2716.4 1927.7c0 3.1-2.5 5.6-5.6 5.6s-5.6-2.5-5.6-5.6c0-3.1 2.5-5.6 5.6-5.6 3 0 5.6 2.5 5.6 5.6z" transform="matrix(-.02666 .04186 .04186 .02666 276.638 621.734)"/><path class="st20" d="M-1030 971.9c0 1.5-1.2 2.7-2.7 2.7s-2.7-1.2-2.7-2.7 1.2-2.7 2.7-2.7 2.7 1.2 2.7 2.7z" transform="matrix(-.05482 .08608 .08608 .05482 290.58 593.29)"/><path class="st17" d="M-27.4 1626.8c-2.8-.1-5.3 2.3-5.4 5-.3 2.7 1.8 5.3 4.5 5.8 1.5.3 3-.2 4.3-.9 3.7-1.6 8.2-1.4 11.8.5 2.5 1.2 5.7.2 7-2.2 1.4-2.3.7-5.5-1.5-7-1.7-1.3-4.2-1.4-6-.4-3.9 1.9-8.7 1.8-12.5-.2-.7-.4-1.4-.6-2.2-.6zm0 2.7c1.5 0 2.7 1.2 2.7 2.7s-1.2 2.7-2.7 2.7-2.7-1.2-2.7-2.7 1.2-2.7 2.7-2.7zm17.4 0c1.5 0 2.7 1.2 2.7 2.7s-1.2 2.7-2.7 2.7-2.7-1.2-2.7-2.7 1.2-2.7 2.7-2.7z" transform="matrix(.01719 .1006 .1006 -.01719 267.6 583.3)"/><path class="st18" d="M-473.5 1494.7c-2.8-.1-5.3 2.3-5.4 5-.3 2.7 1.8 5.3 4.5 5.8 1.5.3 3-.2 4.3-.9 3.7-1.6 8.2-1.4 11.8.5 2.5 1.2 5.7.2 7-2.2 1.4-2.3.7-5.5-1.5-7.1-1.7-1.3-4.2-1.4-6-.4-3.9 1.9-8.7 1.8-12.5-.2-.7-.4-1.5-.5-2.2-.5z" transform="matrix(-.01242 .1013 .1013 .01242 273.78 583.57)"/><path class="st19" d="M-1566.7 3013.8c0 3.1-2.5 5.6-5.6 5.6-3.1 0-5.6-2.5-5.6-5.6s2.5-5.6 5.6-5.6c3.1 0 5.6 2.5 5.6 5.6z" transform="matrix(-.00604 .04926 .04926 .00604 273.442 615.246)"/><path class="st20" d="M-470.8 1500.1c0 1.5-1.2 2.7-2.7 2.7-1.5 0-2.7-1.2-2.7-2.7s1.2-2.7 2.7-2.7c1.5 0 2.7 1.2 2.7 2.7z" transform="matrix(-.01242 .1013 .1013 .01242 273.78 583.57)"/><path class="st17" d="M587.9 1663.1c-2.8-.1-5.3 2.3-5.4 5-.3 2.7 1.8 5.3 4.5 5.8 1.5.3 3-.2 4.3-.9 3.7-1.6 8.2-1.4 11.8.5 2.5 1.2 5.7.2 7-2.2 1.4-2.3.7-5.5-1.5-7-1.7-1.3-4.2-1.4-6-.4-3.9 1.9-8.7 1.8-12.5-.2-.6-.4-1.4-.6-2.2-.6zm0 2.8c1.5 0 2.7 1.2 2.7 2.7s-1.2 2.7-2.7 2.7c-1.5 0-2.7-1.2-2.7-2.7 0-1.5 1.2-2.7 2.7-2.7zm17.5 0c1.5 0 2.7 1.2 2.7 2.7s-1.2 2.7-2.7 2.7-2.7-1.2-2.7-2.7 1.2-2.7 2.7-2.7z" transform="matrix(.05015 .08888 .08888 -.05015 252.31 580.57)"/><path class="st18" d="M105.4 1706c-2.8-.1-5.3 2.3-5.4 5-.3 2.7 1.8 5.3 4.5 5.8 1.5.3 3-.2 4.3-.9 3.7-1.6 8.2-1.4 11.8.5 2.5 1.2 5.7.2 7-2.2 1.4-2.3.7-5.5-1.5-7.1-1.7-1.3-4.2-1.4-6-.4-3.9 1.9-8.7 1.8-12.5-.2-.6-.3-1.4-.5-2.2-.5z" transform="matrix(.02252 .09954 .09954 -.02252 258.23 578.74)"/><path class="st19" d="M-376.1 3448.5c0 3.1-2.5 5.6-5.6 5.6-3.1 0-5.6-2.5-5.6-5.6s2.5-5.6 5.6-5.6c3.1 0 5.6 2.5 5.6 5.6z" transform="matrix(.01095 .0484 .0484 -.01095 268.61 608.668)"/><path class="st20" d="M108.2 1711.5c0 1.5-1.2 2.7-2.7 2.7s-2.7-1.2-2.7-2.7 1.2-2.7 2.7-2.7c1.4 0 2.7 1.2 2.7 2.7z" transform="matrix(.02252 .09954 .09954 -.02252 258.23 578.74)"/><path class="st17" d="M1302.5 1424.4c-2.8-.1-5.3 2.3-5.4 5-.3 2.7 1.8 5.3 4.5 5.8 1.5.3 3-.2 4.3-.9 3.7-1.6 8.2-1.4 11.8.5 2.5 1.2 5.7.2 7-2.2 1.4-2.3.7-5.5-1.5-7-1.7-1.3-4.2-1.4-6-.4-3.9 1.9-8.7 1.8-12.5-.2-.6-.4-1.4-.6-2.2-.6zm0 2.8c1.5 0 2.7 1.2 2.7 2.7s-1.2 2.7-2.7 2.7c-1.5 0-2.7-1.2-2.7-2.7s1.2-2.7 2.7-2.7zm17.5 0c1.5 0 2.7 1.2 2.7 2.7s-1.2 2.7-2.7 2.7-2.7-1.2-2.7-2.7 1.2-2.7 2.7-2.7z" transform="matrix(.08282 .05963 .05963 -.08282 234.22 587.41)"/><path class="st18" d="M1008.7 1626.6c-2.8-.1-5.3 2.3-5.4 5-.3 2.7 1.8 5.3 4.5 5.8 1.5.3 3-.2 4.3-.9 3.7-1.6 8.2-1.4 11.8.5 2.5 1.2 5.7.2 7-2.2 1.4-2.3.7-5.5-1.5-7.1-1.7-1.3-4.2-1.4-6-.4-3.9 1.9-8.7 1.8-12.5-.2-.6-.3-1.4-.5-2.2-.5z" transform="matrix(.07033 .07395 .07395 -.07033 237.23 588.04)"/><path class="st19" d="M1481.3 3285.2c0 3.1-2.5 5.6-5.6 5.6-3.1 0-5.6-2.5-5.6-5.6s2.5-5.6 5.6-5.6c3.1 0 5.6 2.5 5.6 5.6z" transform="matrix(.0342 .03596 .03596 -.0342 261.475 608.426)"/><path class="st20" d="M1011.4 1632.1c0 1.5-1.2 2.7-2.7 2.7s-2.7-1.2-2.7-2.7c0-1.5 1.2-2.7 2.7-2.7s2.7 1.2 2.7 2.7z" transform="matrix(.07033 .07395 .07395 -.07033 237.23 588.04)"/><path class="st17" d="M1812.6 970.5c-2.8-.1-5.3 2.3-5.4 5-.3 2.7 1.8 5.3 4.5 5.8 1.5.3 3-.2 4.3-.9 3.7-1.6 8.2-1.4 11.8.5 2.5 1.2 5.7.2 7-2.2 1.4-2.3.7-5.5-1.5-7-1.7-1.3-4.2-1.4-6-.4-3.9 1.9-8.7 1.8-12.5-.2-.7-.4-1.5-.6-2.2-.6zm0 2.7c1.5 0 2.7 1.2 2.7 2.7 0 1.5-1.2 2.7-2.7 2.7-1.5 0-2.7-1.2-2.7-2.7-.1-1.5 1.2-2.7 2.7-2.7zm17.4 0c1.5 0 2.7 1.2 2.7 2.7 0 1.5-1.2 2.7-2.7 2.7-1.5 0-2.7-1.2-2.7-2.7 0-1.5 1.2-2.7 2.7-2.7z" transform="matrix(.09928 .02362 .02362 -.09928 220.97 599.69)"/><path class="st18" d="M1641.1 1223.9c-2.8-.1-5.3 2.3-5.4 5-.3 2.7 1.8 5.3 4.5 5.8 1.5.3 3-.2 4.3-.9 3.7-1.6 8.2-1.4 11.8.5 2.5 1.2 5.7.2 7-2.2 1.4-2.3.7-5.5-1.5-7.1-1.7-1.3-4.2-1.4-6-.4-3.9 1.9-8.7 1.8-12.5-.2-.7-.3-1.4-.5-2.2-.5z" transform="matrix(.09478 .03784 .03784 -.09478 223.62 600.42)"/><path class="st19" d="M2781.7 2457.1c0 3.1-2.5 5.6-5.6 5.6s-5.6-2.5-5.6-5.6 2.5-5.6 5.6-5.6 5.6 2.5 5.6 5.6z" transform="matrix(.0461 .0184 .0184 -.0461 254.162 608.824)"/><path class="st20" d="M1643.8 1229.4c0 1.5-1.2 2.7-2.7 2.7-1.5 0-2.7-1.2-2.7-2.7 0-1.5 1.2-2.7 2.7-2.7 1.5-.1 2.7 1.2 2.7 2.7z" transform="matrix(.09478 .03784 .03784 -.09478 223.62 600.42)"/><path class="st17" d="M1956.3 869.1c-2.8-.1-5.3 2.3-5.4 5-.3 2.7 1.8 5.3 4.5 5.8 1.5.3 3-.2 4.3-.9 3.7-1.6 8.2-1.4 11.8.5 2.5 1.2 5.7.2 7-2.2 1.4-2.3.7-5.5-1.5-7-1.7-1.3-4.2-1.4-6-.4-3.9 1.9-8.7 1.8-12.5-.2-.7-.5-1.5-.6-2.2-.6zm0 2.7c1.5 0 2.7 1.2 2.7 2.7 0 1.5-1.2 2.7-2.7 2.7-1.5 0-2.7-1.2-2.7-2.7-.1-1.5 1.2-2.7 2.7-2.7zm17.4 0c1.5 0 2.7 1.2 2.7 2.7 0 1.5-1.2 2.7-2.7 2.7-1.5 0-2.7-1.2-2.7-2.7 0-1.5 1.2-2.7 2.7-2.7z" transform="matrix(.10068 .01669 .01669 -.10068 208.77 600.39)"/><path class="st18" d="M1922.2 929.5c-2.8-.1-5.3 2.3-5.4 5-.3 2.7 1.8 5.3 4.5 5.8 1.5.3 3-.2 4.3-.9 3.7-1.6 8.2-1.4 11.8.5 2.5 1.2 5.7.2 7-2.2 1.4-2.3.7-5.5-1.5-7.1-1.7-1.3-4.2-1.4-6-.4-3.9 1.9-8.7 1.8-12.5-.2-.7-.4-1.4-.5-2.2-.5z" transform="matrix(.10068 .01669 .01669 -.10068 212.95 607.33)"/><path class="st19" d="M3359.8 1851.6c0 3.1-2.5 5.6-5.6 5.6s-5.6-2.5-5.6-5.6 2.5-5.6 5.6-5.6 5.6 2.5 5.6 5.6z" transform="matrix(.04896 .00812 .00812 -.04896 244.582 609.006)"/><path class="st20" d="M1924.9 934.9c0 1.5-1.2 2.7-2.7 2.7-1.5 0-2.7-1.2-2.7-2.7 0-1.5 1.2-2.7 2.7-2.7 1.5 0 2.7 1.2 2.7 2.7z" transform="matrix(.10068 .01669 .01669 -.10068 212.95 607.33)"/><path class="st17" d="M2066.8 811.9c-2.8-.1-5.3 2.3-5.4 5-.3 2.7 1.8 5.3 4.5 5.8 1.5.3 3-.2 4.3-.9 3.7-1.6 8.2-1.4 11.8.5 2.5 1.2 5.7.2 7-2.2 1.4-2.3.7-5.5-1.5-7-1.7-1.3-4.2-1.4-6-.4-3.9 1.9-8.7 1.8-12.5-.2-.7-.4-1.4-.6-2.2-.6zm0 2.7c1.5 0 2.7 1.2 2.7 2.7 0 1.5-1.2 2.7-2.7 2.7-1.5 0-2.7-1.2-2.7-2.7s1.2-2.7 2.7-2.7zm17.4 0c1.5 0 2.7 1.2 2.7 2.7 0 1.5-1.2 2.7-2.7 2.7-1.5 0-2.7-1.2-2.7-2.7s1.2-2.7 2.7-2.7z" transform="matrix(.1012 .01315 .01315 -.1012 196.89 600.01)"/><path class="st18" d="M2032.6 872.3c-2.8-.1-5.3 2.3-5.4 5-.3 2.7 1.8 5.3 4.5 5.8 1.5.3 3-.2 4.3-.9 3.7-1.6 8.2-1.4 11.8.5 2.5 1.2 5.7.2 7-2.2 1.4-2.3.7-5.5-1.5-7.1-1.7-1.3-4.2-1.4-6-.4-3.9 1.9-8.7 1.8-12.5-.2-.6-.3-1.4-.5-2.2-.5z" transform="matrix(.1012 .01315 .01315 -.1012 201.32 606.8)"/><path class="st19" d="M3586.9 1734c0 3.1-2.5 5.6-5.6 5.6s-5.6-2.5-5.6-5.6 2.5-5.6 5.6-5.6c3.1 0 5.6 2.5 5.6 5.6z" transform="matrix(.04921 .0064 .0064 -.04921 232.99 607.366)"/><path class="st20" d="M2035.4 877.8c0 1.5-1.2 2.7-2.7 2.7-1.5 0-2.7-1.2-2.7-2.7s1.2-2.7 2.7-2.7c1.4-.1 2.7 1.1 2.7 2.7z" transform="matrix(.1012 .01315 .01315 -.1012 201.32 606.8)"/><path class="st17" d="M2152 811.9c-2.8-.1-5.3 2.3-5.4 5-.3 2.7 1.8 5.3 4.5 5.8 1.5.3 3-.2 4.3-.9 3.7-1.6 8.2-1.4 11.8.5 2.5 1.2 5.7.2 7-2.2 1.4-2.3.7-5.5-1.5-7-1.7-1.3-4.2-1.4-6-.4-3.9 1.9-8.7 1.8-12.5-.2-.7-.4-1.5-.6-2.2-.6zm0 2.8c1.5 0 2.7 1.2 2.7 2.7s-1.2 2.7-2.7 2.7-2.7-1.2-2.7-2.7 1.2-2.7 2.7-2.7zm17.4 0c1.5 0 2.7 1.2 2.7 2.7 0 1.5-1.2 2.7-2.7 2.7-1.5 0-2.7-1.2-2.7-2.7 0-1.5 1.2-2.7 2.7-2.7z" transform="matrix(.1012 .01315 .01315 -.1012 184.74 598.44)"/><path class="st18" d="M2117.9 872.4c-2.8-.1-5.3 2.3-5.4 5-.3 2.7 1.8 5.3 4.5 5.8 1.5.3 3-.2 4.3-.9 3.7-1.6 8.2-1.4 11.8.5 2.5 1.2 5.7.2 7-2.2 1.4-2.3.7-5.5-1.5-7.1-1.7-1.3-4.2-1.4-6-.4-3.9 1.9-8.7 1.8-12.5-.2-.7-.4-1.4-.5-2.2-.5z" transform="matrix(.1012 .01315 .01315 -.1012 189.16 605.23)"/><path class="st19" d="M3762.3 1734.2c0 3.1-2.5 5.6-5.6 5.6s-5.6-2.5-5.6-5.6c0-3.1 2.5-5.6 5.6-5.6 3 0 5.6 2.5 5.6 5.6z" transform="matrix(.04921 .0064 .0064 -.04921 220.83 605.796)"/><path class="st20" d="M2120.6 877.8c0 1.5-1.2 2.7-2.7 2.7s-2.7-1.2-2.7-2.7c0-1.5 1.2-2.7 2.7-2.7s2.7 1.2 2.7 2.7z" transform="matrix(.1012 .01315 .01315 -.1012 189.16 605.23)"/><path class="st17" d="M2518.2 670.3c-2.8-.1-5.3 2.3-5.4 5-.3 2.7 1.8 5.3 4.5 5.8 1.5.3 3-.2 4.3-.9 3.7-1.6 8.2-1.4 11.8.5 2.5 1.2 5.7.2 7-2.2 1.4-2.3.7-5.5-1.5-7-1.7-1.3-4.2-1.4-6-.4-3.9 1.9-8.7 1.8-12.5-.2-.6-.4-1.4-.6-2.2-.6zm0 2.7c1.5 0 2.7 1.2 2.7 2.7 0 1.5-1.2 2.7-2.7 2.7-1.5 0-2.7-1.2-2.7-2.7 0-1.5 1.2-2.7 2.7-2.7zm17.5.1c1.5 0 2.7 1.2 2.7 2.7 0 1.5-1.2 2.7-2.7 2.7s-2.7-1.2-2.7-2.7 1.1-2.7 2.7-2.7z" transform="matrix(.0918 .00459 -.00105 -.10222 179.79 601.41)"/><path class="st18" d="M2484.2 730.6c-2.8-.1-5.3 2.3-5.4 5-.3 2.7 1.8 5.3 4.5 5.8 1.5.3 3-.2 4.3-.9 3.7-1.6 8.2-1.4 11.8.5 2.5 1.2 5.7.2 7-2.2 1.4-2.3.7-5.5-1.5-7.1-1.7-1.3-4.2-1.4-6-.4-3.9 1.9-8.7 1.8-12.5-.2-.7-.3-1.5-.5-2.2-.5z" transform="matrix(.0918 .00459 -.00105 -.10222 184.58 607.81)"/><path class="st19" d="M4515.4 1442.7c0 3.1-2.5 5.6-5.6 5.6s-5.6-2.5-5.6-5.6 2.5-5.6 5.6-5.6 5.6 2.5 5.6 5.6z" transform="matrix(.04464 .00223 -.00051 -.04971 212.861 605.7)"/><path class="st20" d="M2486.9 736.1c0 1.5-1.2 2.7-2.7 2.7s-2.7-1.2-2.7-2.7c0-1.5 1.2-2.7 2.7-2.7 1.5 0 2.7 1.2 2.7 2.7z" transform="matrix(.0918 .00459 -.00105 -.10222 184.58 607.81)"/><path d="M425.3 552.1s-1.4.3-2.3.2c-3.3-.1-3 4 .4 3.6 1.5-.2 2.6-.3 2.6-.3.3-.6.5-.7 1.2-.9 2.5-.4 8.2-1.5 10.9-2 .7-.1 1.2-1.1 1-1.7-.2-.6-1-.8-1.6-.7-3.3.8-8.6 1.7-11.2 2.1-.8.2-.6-.2-1-.3h0z" fill="gray" stroke="#666"/><path d="M438.679 548.617l1.583-1.493c.207-.195.474-.187.669.02l1.363 1.445c.195.207.187.474-.02.67l-1.583 1.492c-.207.195-.474.187-.669-.02l-1.363-1.445c-.126-.272-.118-.54.02-.67m-5.78 5.32l1.584-1.494c.207-.194.474-.187.669.02l1.363 1.446c.195.206.187.474-.02.669l-1.583 1.492c-.207.195-.474.187-.669-.02l-1.363-1.445c-.195-.207-.187-.474.02-.669" fill="#6c5353" stroke="#666" stroke-width=".454"/><path d="M433.8 555.167c-.908-.964.25-1.666 1.214-2.575s.575-1.322 1.538-2.23c.758-.715 1.491-.626 2.318-1.405.963-.909 1.664-1.959 2.572-.995s-.18 1.6-1.145 2.51c-.826.779-.777 1.382-1.538 2.23-.55.52-1.353.496-2.317 1.404-.895.844-1.733 2.024-2.642 1.06z" fill="#ececec" stroke="#666" stroke-width=".536"/><path d="M582.1 1201.2c0-.4-.3-.6-.6-.6s-.6.3-.6.6c0 .4.3.6.6.6s.6-.3.6-.6zm7.4.1c0-.4.3-.6.6-.6s.6.3.6.6-.3.6-.6.6-.6-.3-.6-.6z" transform="matrix(.68846 -.64907 -.64907 -.68846 813.95 1758.8)" fill="#999"/><path d="M438.138 551.077c.26.276.248.677-.028.937s-.676.247-.936-.028-.248-.677.027-.936.677-.248.937.027z" fill="#999" stroke="#666" stroke-width=".568"/><path class="st65" d="M402.9 473.6s3.4 2.2 5.3 2.7c2.4.6 4.9.2 7.3.2 4.6 0 11.1-1.1 13.8-.4.6.2-.7-1.1-1.2-1.3-2.3-1-4.9.2-7.4.3-2.8.2-5.6.9-8.4.7-3.3-.2-9.4-2.2-9.4-2.2z" opacity=".593"/><path class="st65" d="M395.4 502.3l-1.9 3.2-13.7 30.9.3 1.1 13.8-30.2 1.9-4.4zm69-14l-9.7 9.5-5.8 8.5-3.2 6.7-3.3 11.1-2.9 12.8-2 4.8-3.4 4.7.7.7 3.4-5 2.1-5.3 2.8-12.5 3.2-11.3 3.2-6.4 5.7-8.4 9.6-9.5z"/><path class="st49" d="M473.8 489.5c-.2.2.1.7-.2.8-.3.1-.7-.2-.9-.4-.2-.4-.3-1 0-1.2.7-.5 1.1-.9 1.7-1.2.4-.3 1.2 0 1.2 0l7.9 14.6s-6.8-11.2-8.1-13c-.3-.6-1.2 0-1.6.4z" opacity=".914"/><path class="st53" d="M483.3 501.2l-.8 1.4 16.4 29.8.1-1.8z"/><path d="M496.3 527.2l-1.4-1.1-1.5.8 1.7 2.2 1.2-1.9z" fill="gray" stroke="gray"/><path d="M496.9 528.4c0 .7-.6 1.2-1.2 1.2s-1.2-.6-1.2-1.2.6-1.2 1.2-1.2 1.2.5 1.2 1.2z" fill="#b3b3b3"/><path class="st69" d="M352.8 596.9h191.6V640H352.8z"/><text transform="translate(352.829 629.405)" font-size="46.683" font-family="SnellRoundhand-Bold">Re-Cycle</text><path class="st69" d="M305.9 324.2H643v67.4H305.9z"/><text transform="translate(305.89 377.418)" class="st2 st72 st73">About us</text><path class="st69" d="M354.9 751.7h250.2v83.4H354.9z"/><text transform="translate(354.885 804.969)" class="st2 st72 st73">Tours</text><path class="st69" d="M315.9 886.4H643v76.7H315.9z"/><text transform="translate(315.895 939.601)" class="st2 st72 st73">Contact</text><path class="st69" d="M347.8 155.4h257.3v61.3H347.8z"/><text transform="translate(347.758 208.691)" class="st2 st72 st73">Home</text><path class="st69" d="M350.2 68h186.4v34.9H350.2z"/><text transform="translate(350.163 93.805)" class="st72" font-size="36">Navigation</text><path fill="#a7c9db" stroke="#000" stroke-width="4" stroke-miterlimit="10" d="M970.6 124.3H1692v893.6H970.6z"/><path class="st69" d="M1248.4 182.7h158.8v93.2h-158.8z"/><text transform="translate(1270.445 207.719)" class="st72 st76">Header</text><path d="M1087.7 354.2c1.9 0 1.9-3 0-3s-1.9 3 0 3z"/><path d="M1090.2 355c25-25.5 65.1-.9 94.1.9 7.7.5 15.6-.3 22.8-3.3 7.8-3.2 14.1-8.9 21.6-12.5 17.9-8.8 37 1 51.9 11.2 13.5 9.3 26.6 19.3 43.2 22.3 14.7 2.7 29.7.3 43.9-3.6 15.7-4.4 30.8-10.6 46.3-15.7 16.4-5.3 32.9-8.5 50.2-7.9 36.4 1.2 75.4 14.6 109.9-2.8 1.7-.9.2-3.5-1.5-2.6-32 16.1-68.7 4.7-102.4 2.6-16.5-1-32.4.6-48.4 5.2-16 4.6-31.4 11-47.3 16-15.6 4.9-32.1 8.7-48.5 6.2-17.9-2.8-31.5-14-46.1-23.8-12.7-8.5-28.2-16.1-43.9-12.9-8.1 1.7-14.7 6.7-21.6 11-8.2 5.2-16.9 7.8-26.7 7.7-31.2-.3-72.6-27.7-99.7-.2-1.2 1.5.9 3.6 2.2 2.2zm98.2 84.1c19.2-7.5 41.3-15.2 60.4-3.2 7.3 4.6 13.9 10.1 22.7 11.2 8.2 1.1 16.3-1.5 23.7-4.7 8.3-3.5 16.3-8 25-10.5 10.3-3 20.9-2.2 31.3-.1 18.9 3.8 37.1 10.9 56.7 8.3 22.1-2.9 43.1-14.8 65.8-11.6 1.9.3 2.7-2.6.8-2.9-19.5-2.7-37.6 5.1-56.2 9.5-10.6 2.5-21.2 3.4-32 1.7-9.9-1.6-19.6-4.5-29.4-6.8-9.1-2.1-18.5-3.7-27.8-2.9-8.9.8-17.1 4.2-25.2 7.9-8.7 4-17.8 8.9-27.7 9.3-10.9.5-18.3-6.2-27-11.5-19.6-11.9-42.3-4.4-62 3.3-1.7.8-.9 3.7.9 3zm-174.9 122.2c-.5-6.4 4.8-11 10.7-12.5 6.4-1.6 13 .9 19 3.2 11.1 4.3 21.7 7.2 33.8 5.5 5.5-.8 10.9-2.4 15.9-4.8 5.7-2.7 10.8-7.4 17.5-6.4 9.8 1.5 16.9 10 27.1 10.4 1.9.1 1.9-2.9 0-3-11.1-.4-19.3-11.6-30.7-10.5-6 .6-10.8 4.9-16.1 7.3-6.9 3.1-14.6 4.7-22.2 4.6-7.5-.1-14.4-2-21.3-4.7-6-2.4-12.3-5.1-18.9-5.1-8.7.1-18.6 6.4-17.8 16 .2 1.9 3.2 1.9 3 0zm-1.3 42.7c6.8-10.4 19.2-16.1 31.5-14.9 11.9 1.2 20.4 11.2 32.2 12.6 20.8 2.5 42.4-18.4 62.4-8 1.7.9 3.2-1.7 1.5-2.6-22.5-11.7-44.4 13.1-67.3 6.9-7-1.9-12.6-6.8-19.2-9.5-5.2-2.1-10.9-2.9-16.4-2.3-11.1 1.1-21.2 7-27.3 16.4-1 1.5 1.6 3 2.6 1.4zm-7.9 38.8c11.6-5.4 23.5-10.9 36.3-12.8 13.3-2 25 2 37.2 6.8 10.1 4 20.2 7.2 31.2 5.8 11.5-1.4 22.1-6.7 32.4-11.8 1.7-.9.2-3.4-1.5-2.6-11.4 5.6-23.4 11.6-36.3 11.8-12.2.1-23.2-5.7-34.4-9.7-10.5-3.7-21-4.8-32-2.7-12 2.3-23.3 7.5-34.3 12.7-1.9.7-.3 3.3 1.4 2.5zm15.2 34.2c10.5-5.3 22.5-7.1 34.1-5 10.3 1.9 19 8.6 29.3 10.3 9.7 1.6 18.7-4.4 28.1-6 11.9-2 24-1.1 36-.2 1.9.1 1.9-2.9 0-3-11.3-.9-22.8-1.7-34.1-.1-5.9.8-11.4 2.5-16.9 4.5-6.3 2.4-11.9 2.5-18.3.2-9.9-3.6-18.4-8.6-29.2-9.4-10.5-.8-20.9 1.4-30.3 6.1-1.9.9-.4 3.5 1.3 2.6zm1.9 39.7c7.8-6.9 19-9.1 28.9-5.7 5.6 1.9 9.4 6.3 14.6 8.8 3.8 1.9 8.1 2.2 12.2 1.7 10.9-1.3 20.7-7.4 31.4-9.9 12.5-2.9 25.4-3 37.9-.6 1.9.4 2.7-2.5.8-2.9-11.6-2.2-23.4-2.4-35.1-.3-6.5 1.2-12.8 3.2-19 5.6-6 2.3-12.2 5.1-18.7 5.3-7.6.2-11.8-4.6-17.9-8.1-3.7-2.2-7.8-3.5-12.1-3.9-9.2-1.1-18.3 1.8-25.2 7.9-1.4 1.3.7 3.4 2.2 2.1zm-13 35.9c10.7-5.7 23-7.9 34.9-6 5.8.9 11.3 2.7 16.5 5.4 4.8 2.5 9.4 5.5 14.6 7 10.9 3.3 20.8-2.3 30.7-6.2 12.5-4.9 26-6.2 39.3-3.8 1.9.3 2.7-2.6.8-2.9-12.2-2.2-24.8-1.6-36.7 2.2-5.9 1.9-11.5 4.9-17.4 6.9-7.7 2.6-14.5 2.1-21.7-1.5-10.1-5-19.1-9.8-30.6-10.6-11.1-.8-22.2 1.7-32 6.9-1.6.9-.1 3.5 1.6 2.6zm5.4 42.9c4.2-11.3 17.2-14.9 28.1-13.4 12.5 1.8 23.5 8.8 35.3 12.9 10.3 3.6 20.3 4.1 30.8.9 11.1-3.4 21.5-9.1 33.3-9.3 1.9 0 1.9-3 0-3-12.1.1-22.7 5.9-34.1 9.4-15.2 4.6-28.2-.1-42.2-6.3-10.6-4.7-22.1-9.6-34-7.6-8.9 1.5-16.9 6.9-20.1 15.5-.6 1.9 2.3 2.7 2.9.9zm15.6 30.2c2.1-11.2 15.1-17.8 25.3-12.3 4.5 2.5 8.3 6 13 8.3 4.3 2.1 8.8 3.6 13.4 4.5 18.3 3.5 38-2.1 51-15.6 1.3-1.4-.8-3.5-2.1-2.1-15.7 16.2-42 20.6-62.1 10.1-8.3-4.3-14.4-11.7-24.6-9.9-8.3 1.5-15.3 7.9-16.9 16.3-.3 1.7 2.6 2.6 3 .7zm-.9 28.5c10.5-1.1 21.6-2.2 31.6 2 3.8 1.6 7.1 3.4 11.4 3.1 4.9-.4 9.5-3 14.1-4.5 20.9-6.8 43.3-3.1 64.4.4 1.9.3 2.7-2.6.8-2.9-20-3.3-40.9-6.8-60.9-1.9-5 1.2-9.6 3.4-14.4 4.9-6.5 2.1-10.8-.9-16.7-2.9-9.7-3.4-20.3-2.3-30.3-1.3-1.9.3-1.9 3.3 0 3.1zm2.5 45.9c3.6-11.2 13.3-20.2 25.1-22.1 2.6-.4 5.1-.2 6.4 2.6.4 1 .3 2.2.6 3.2.5 1.7 1.3 3.3 2.4 4.7 2.7 3.2 6.7 5.1 10.8 5.7 5.1.7 10.2-.6 15-2 6.8-2.1 13.4-4 20.5-4.8 13.4-1.5 27-.4 40.5.8 1.9.2 1.9-2.8 0-3-14.2-1.2-28.5-2.4-42.7-.5-7.2 1-13.8 3.1-20.8 5.1-6.9 2-15.5 3.1-20.8-2.8-3.1-3.4-1.5-9.6-6.3-11.6-4-1.7-9.9.4-13.6 2-9.6 4-16.9 12.2-20.1 22.1-.5 1.7 2.4 2.5 3 .6zm1.9 29.7c8.4-4.8 11.9-17.3 21.9-19.2 12.9-2.4 21.7 11.6 30.5 18.4 18.9 14.7 40.5-2.4 61.1 3.6 1.9.5 2.7-2.4.8-2.9-10.9-3.2-21.8 0-32.6 1.8-6.3 1.1-13 1.7-19.2-.3-6.4-2.1-11.1-6.9-15.8-11.5-6.9-6.7-16.3-14.7-26.7-11.7-9.9 2.8-12.9 14.4-21.4 19.3-1.8.9-.3 3.5 1.4 2.5z"/><path class="st69" d="M1468.5 534.7h235.4V571h-235.4z"/><text transform="translate(1517.01 559.783)" class="st72 st76">Columns</text><path class="st77" d="M1501.2 865.2h170v112.5h-170zm0-133h170v112.5h-170zm0-132.9h170v112.5h-170z"/><path class="st69" d="M1009.2 473.3h139.7v55.5h-139.7z"/><text transform="translate(1051.75 498.332)" class="st72 st76">List</text><path class="st69" d="M1261.8 309.7h122.5v44h-122.5z"/><text transform="translate(1303.591 334.726)" class="st72 st76">h1</text><path class="st69" d="M1272.9 387.2h116.7v30.6h-116.7z"/><text transform="translate(1319.585 412.224)" class="st72 st76">P</text><path fill="#86a1b0" stroke="#000" stroke-miterlimit="10" d="M1214.5 800.2h233.4v175.7h-233.4z"/><path class="st69" d="M1221.2 744.4h220.1v59.3h-220.1z"/><text transform="translate(1227.957 769.473)" class="st72 st76">Div-container</text><path class="st69" d="M1196.2 870.8h260v67h-260z"/><text transform="translate(1226.23 895.839)" class="st72 st76">Contact form</text><path class="st77" d="M1072.1 221.9h549.2v72.4h-549.2z"/><path class="st69" d="M1280.5 240.9h101.4v51.7h-101.4z"/><text transform="translate(1292.326 265.981)" class="st72 st76">Logo</text><path class="st69" d="M976.6 968.9H1145v47.8H976.6z"/><text transform="translate(1010.173 993.93)" class="st72 st76">Footer</text><path class="st77" d="M1213.8 540.6h235v136.7h-235z"/><path class="st69" d="M1215.5 584H1447v78.5h-231.5z"/><text transform="translate(1282.62 609.018)" class="st72 st76">Image</text><path class="st69" d="M1174.4 72.2h313.7v26.5h-313.7z"/><text transform="translate(1237.98 97.279)" class="st72 st76">Layout sites</text></svg>