<svg width="541.87mm" height="1166.06" viewBox="0 0 1920 1093.182" xmlns="http://www.w3.org/2000/svg"><defs><linearGradient id="a" x1="1587.1" x2="1587.1" y1="1465.4" y2="1873.2" gradientUnits="userSpaceOnUse"><stop stop-color="#ef0000" offset="0"/><stop stop-color="#c80000" offset="1"/></linearGradient></defs><path d="M-.35 480.77L274.4 756.642l406.451-75.687-274.75-275.872L-.35 480.77z" fill="#7fc94c"/><path d="M275.6 756.395l59.01 59.252 405.183-75.451-59.01-59.252-405.183 75.45z" fill="#f9f792"/><path d="M333.469 815.951l275.38 276.504 406.45-75.687-275.38-276.504-406.45 75.687z" fill="#4ca0c9"/><path d="M404.545 405.069l274.75 275.872 543.75 62.172L948.292 467.24l-543.747-62.17z" fill="#7fc94c"/><path d="M679.275 680.92l59.011 59.253 193.71 22.148 275.38 276.504 158.025 18.069-275.38-276.504 192.009 21.954-59.012-59.252-543.743-62.171z" fill="#f9f792"/><path d="M1090.169 780.475l275.38 276.504 192.009 21.954-275.38-276.504-192.01-21.954z" fill="#c9a14c"/><path d="M738.363 740.25l275.38 276.504 193.711 22.149-275.38-276.504-193.71-22.149z" fill="#4ca0c9"/><path d="M1274.667 802.517l275.38 276.504 369.657-112.63-275.38-276.504-369.657 112.63z" fill="#c9a14c"/><path d="M940.848 467.336l274.75 275.872 369.658-112.63-274.75-275.872-369.658 112.63z" fill="#7fc94c"/><path d="M1215.578 743.188l59.011 59.252 369.658-112.63-59.011-59.253-369.658 112.63z" fill="#f9f792"/><path d="M405.53 405.526l274.013 275.77 59.72 59.723 274.014 275.77 194.977 22.835 158.093 17.566 191.465 21.08-275.767-275.77-57.967-59.724-275.768-275.77-542.774-61.478z" fill-opacity=".152"/><g transform="translate(-1494.942 -757.32) scale(1.60999)"><path transform="translate(0 -995.64)" d="M1731.4 1612.3c0 79.687-144.29 266.52-144.29 324.14 0-57.579-144.29-244.45-144.29-324.14s64.599-144.29 144.29-144.29 144.29 64.599 144.29 144.29z" fill="url(#a)" stroke="#a00000" stroke-linecap="square" stroke-linejoin="round" stroke-width="4.79"/><circle transform="translate(239.09 -741.47) scale(.83958)" cx="1605.6" cy="1614.1" r="59.094" fill="#a00000"/></g></svg>