<svg version="1.1" id="Layer_1" xmlns="http://www.w3.org/2000/svg" x="0" y="0" viewBox="0 0 1296 1728" xml:space="preserve"><style>.st1{fill:#1a1a1a}.st2{fill:none;stroke:#999;stroke-width:.5}.st3{stroke-width:3.61;stroke-linecap:round;stroke-linejoin:round;stroke-miterlimit:10}.st3,.st4{fill:#999;stroke:#b3b3b3}.st7,.st8{fill:#1f1a17;stroke:#000;stroke-width:7.620000e-02}.st8{fill:#edeef0}.st13{fill:none;stroke:#999;stroke-width:4}.st15{fill:#4d4d4d;stroke:#000;stroke-linejoin:bevel}.st15,.st16{stroke-width:.1}.st16,.st17,.st18{stroke:#000;stroke-linejoin:bevel}.st16{fill:#666}.st17,.st18{fill:#333;stroke-width:.2056}.st18{stroke-width:.2385}.st19{fill:#666;stroke:#999}.st23{fill:#333;stroke:#000;stroke-width:.7679}.st29{fill:#ccc;stroke:#4d4d4d;stroke-width:.5}.st30{stroke-width:1.0384}.st30,.st31,.st32{fill:#ac9d93;stroke:#000}.st31{stroke-width:.5379}.st32{stroke-width:.5519}.st33{fill:#ac9d93;stroke-width:.54}.st33,.st43{stroke:#000}.st43,.st47{fill:#4d4d4d}.st49{stroke:#333;stroke-width:.8469}.st49,.st51{fill:#333}.st54{fill:#ccc;stroke:#999;stroke-width:.8}.st55{fill:gray;stroke:#e6e6e6;stroke-width:.4359}.st63{fill:#666}</style><path d="M1131.1 1166.4H164.4c-13.8 0-25-11.2-25-25V573.7c0-13.8 11.2-25 25-25h966.7c13.8 0 25 11.2 25 25v567.7c0 13.8-11.2 25-25 25z" fill="#bae2c5"/><ellipse class="st1" cx="835.8" cy="972.7" rx="126.6" ry="9.7"/><ellipse class="st2" cx="835.8" cy="972.7" rx="126.6" ry="9.7"/><ellipse class="st1" cx="458.6" cy="972.7" rx="126.6" ry="9.7"/><ellipse class="st2" cx="458.6" cy="972.7" rx="126.6" ry="9.7"/><path class="st3" d="M11130.1 8712.5l-503.3-1193.6m729.3 1091.7l-697.4-1070.4m922.4 909.1l-804.6-1046.5m-170.1 85.1l-961.4-856m403.2-345.6l716 1098.8m12.3 17.7L10298 6178.2m245.5-52.3l75.3 1266.3m187-1269.8l-190.5 1275.1m448.3-1228.1l-273.8 1276m521.1-1178.6L10788.1 7472m731.9-1070.5l-826.7 953.5m1017.2-770l-1055.4 778.9m1213.1-549.4l-1104.1 701.8m1199.8-481.2l-1212.2 492.7m1269-234.8l-1275.1 77.1m1281.3 180.7l-1260.1-163m1213.1 426.2l-1263.6-269.4m1167 514.9l-1166.1-514.8m1027.9 730.1l-958.8-850.7m-1278.7-577.7L10695 7355m-1284.8-255.2l1257.4 259.6M9365 7377.1l1280.4 156m-1270.7 92.2l1322.1-78.9m-1262.7 334.1l1197.1-501.5m-1088.1 741.6l1057.1-684.1m-899.4 902.1l1009.3-793.1m-831.2 958.8l862.2-969.4m-141.8-70L10112 8649.6m498-1153.7l-258.7 1243.2m432.3-1253l-165.7 1296.4m230.4-6.2l-58.5-1314.1m-190.5-2.6l-771.8-1019.9" transform="translate(-339.247 4.321) scale(.11002)"/><path class="st4" d="M457.1 110.3c0-1.3 1.1-2.4 2.4-2.4 1.3 0 2.4 1.1 2.4 2.4 0 1.3-1.1 2.4-2.4 2.4-1.4 0-2.4-1.1-2.4-2.4m1.9 0c0 .3.2.5.5.5s.5-.2.5-.5-.2-.5-.5-.5-.5.3-.5.5z" transform="translate(-1163.147 343.777) scale(4.3537)"/><g stroke="#c5a372"><path d="M984.87 823.349c0-81.344-66.184-147.528-147.528-147.528-81.343 0-147.527 66.184-147.527 147.528s66.184 147.528 147.527 147.528c81.344.37 147.528-65.815 147.528-147.528zm-4.807 0c0-79.125-63.965-143.09-143.09-143.09s-143.091 63.965-143.091 143.09 63.966 143.09 143.09 143.09c79.126 0 143.091-63.965 143.091-143.09z" fill="#666" stroke-width=".081"/><path d="M985.98 822.98c0 82.082-66.555 148.636-148.638 148.636S688.706 905.062 688.706 822.98s66.553-148.637 148.636-148.637S985.98 741.266 985.98 822.98z" fill="none" stroke-width="10.811"/></g><path class="st7" d="M306.3 204c0-1.4-1.1-2.5-2.5-2.5s-2.5 1.1-2.5 2.5 1.1 2.5 2.5 2.5 2.5-1.1 2.5-2.5" transform="translate(-285.894 69.871) scale(3.6974)"/><path class="st8" d="M304.3 204c0-.3-.3-.6-.6-.6s-.6.3-.6.6.3.6.6.6c.4-.1.6-.3.6-.6m-2.2-1.5l.1-.3.3-.3.6-.3h.4l.2.1-1.6.8z" transform="translate(-285.894 69.871) scale(3.6974)"/><path class="st8" d="M304.3 204c0-.3-.3-.6-.6-.6s-.6.3-.6.6.3.6.6.6c.4-.1.6-.3.6-.6" transform="translate(-285.894 69.871) scale(3.6974)"/><path class="st3" d="M12444 9255.9l-503.3-1193.6m729.2 1091.7l-697.4-1070.4m922.5 909.1l-804.6-1046.5m-170.1 85.1l-961.4-856m403.1-345.6l716 1098.8m12.4 17.7l-478.5-1224.6m245.4-52.3l75.3 1266.3m187-1269.8l-190.5 1275.1m448.4-1228.2l-273.8 1276m521-1178.5l-522.8 1205.1m731.9-1070.4l-826.7 953.5m1017.3-770.1L11969 7907.2m1213.1-549.4L12078 8059.6m1199.8-481.1l-1212.2 492.7m1268.9-234.9l-1275.1 77.1m1281.3 180.8l-1260.1-163m1213.1 426.2L12030.1 8088m1167.1 514.8L12031 8088m1027.9 730.2l-958.8-850.7m-1278.6-577.8l1187.4 508.6M10724 7643.2l1257.4 259.6m-1302.6 17.7l1280.4 156m-1270.6 92.1l1322.1-78.9m-1262.8 334.1l1197.1-501.5M10856.9 8664l1057.1-684.1m-899.4 902.1l1009.3-793.1m-831.1 958.8l862.2-969.4m-141.8-70.1L11425.8 9193m498-1153.7l-258.7 1243.2m432.4-1253l-165.7 1296.4m230.4-6.2l-58.5-1314.1m-190.5-2.7L11141.4 6983" transform="matrix(.0868 0 0 .0887 -581.104 139.88)"/><path class="st4" d="M490.3 124c0-1.3 1.1-2.4 2.4-2.4 1.3 0 2.4 1.1 2.4 2.4 0 1.3-1.1 2.4-2.4 2.4-1.4.1-2.4-1-2.4-2.4m1.9 0c0 .3.2.5.5.5s.5-.2.5-.5-.2-.5-.5-.5c-.3.1-.5.3-.5.5z" transform="matrix(3.43496 0 0 3.50981 -1231.135 413.536)"/><g fill="none" stroke-width="5.271"><path d="M383.8 219.9c0 22.6-18.3 40.9-40.9 40.9-22.6 0-40.9-18.3-40.9-40.9s18.3-40.9 40.9-40.9c22.6 0 40.9 18.3 40.9 40.9z" stroke="#c5a372" transform="matrix(2.91716 0 0 2.98073 -539.01 192.724)"/><path d="M382.2 219.9c0 21.7-17.6 39.3-39.3 39.3-21.7 0-39.3-17.6-39.3-39.3s17.6-39.3 39.3-39.3c21.7 0 39.3 17.6 39.3 39.3z" stroke="#4d4d4d" transform="matrix(2.91716 0 0 2.98073 -539.01 192.724)"/></g><path class="st7" d="M345.4 220.1c0-1.4-1.1-2.5-2.5-2.5s-2.5 1.1-2.5 2.5 1.1 2.5 2.5 2.5c1.4.1 2.5-1.1 2.5-2.5" transform="matrix(2.91716 0 0 2.98073 -539.01 192.724)"/><path class="st8" d="M343.4 220.1c0-.3-.3-.6-.6-.6s-.6.3-.6.6.3.6.6.6c.4 0 .6-.2.6-.6m-2.2-1.4l.1-.3.3-.3.6-.3h.4l.2.1-1.6.8z" transform="matrix(2.91716 0 0 2.98073 -539.01 192.724)"/><path class="st8" d="M343.4 220.1c0-.3-.3-.6-.6-.6s-.6.3-.6.6.3.6.6.6c.4 0 .6-.2.6-.6" transform="matrix(2.91716 0 0 2.98073 -539.01 192.724)"/><path d="M676 809.7l153.5 8.5" fill="none" stroke="#b3b3b3"/><path d="M461.042 864.698c0-.106-.039-.355-.087-.547-.364-1.393-1.872-2.084-3.245-1.479-.384.173-.893.653-1.094 1.046-.096.183-.202.327-.23.308-.03-.01-.202-.077-.375-.135-.24-.086-.307-.134-.278-.201a5.65 5.65 0 00.124-.528c.298-1.43-.806-2.717-2.323-2.717-.576 0-1.22.259-1.623.662l-.182.182-.336-.288c-.183-.153-.336-.297-.336-.307s.086-.153.201-.307c.356-.5.433-.749.433-1.421 0-.547-.02-.634-.173-.94a2.609 2.609 0 00-1.777-1.326c-.412-.077-1.036 0-1.344.163l-.172.087-.212-.432c-.115-.24-.21-.432-.192-.442s.144-.096.288-.202c.816-.556 1.19-1.372 1.047-2.256-.202-1.18-1.171-2.026-2.343-2.026h-.365l-.038-.278c-.067-.48-.067-.48.307-.557.97-.211 1.642-.893 1.815-1.843.077-.432-.02-1.056-.24-1.508-.27-.556-.893-1.075-1.412-1.19l-.182-.039.106-.48c.057-.268.115-.499.134-.508s.144 0 .288.028c1.411.327 2.708-.643 2.804-2.102.048-.74-.164-1.316-.692-1.872l-.269-.279.288-.432c.154-.24.298-.432.308-.432s.134.086.288.182c1.18.797 2.707.365 3.36-.95.26-.519.298-1.143.115-1.747-.067-.23-.153-.442-.192-.461-.115-.067-.057-.144.346-.423l.403-.278.125.173c.48.662 1.066 1.037 1.738 1.085a2.273 2.273 0 001.91-.75c.461-.489.624-.883.644-1.583l.01-.567.412-.106c.22-.057.442-.105.48-.105.038 0 .096.125.135.278.374 1.488 1.939 2.18 3.331 1.488.576-.288 1.104-.96 1.22-1.545l.038-.192.49.067.49.067.009.605c.01.864.23 1.373.806 1.824 1.037.816 2.67.634 3.38-.384l.182-.26.432.24c.24.135.442.25.451.26.01.01-.067.211-.182.451-.192.404-.202.48-.202 1.008 0 .49.02.615.154.903.576 1.22 2.055 1.738 3.245 1.123l.423-.211.326.394.326.393-.345.336c-.202.202-.423.48-.528.701-.163.327-.173.423-.173.96 0 .557.02.634.192.99a2.394 2.394 0 002.746 1.286c.125-.029.153.01.307.49.096.287.144.537.115.566s-.201.086-.384.154c-1.43.46-1.968 2.179-1.094 3.513.317.48 1.094.98 1.517.98.173 0 .201.086.153.576l-.038.441-.279-.028c-.902-.106-1.862.432-2.256 1.257a2.433 2.433 0 00.95 3.15c.097.057.097.086-.066.364-.096.164-.173.308-.183.317-.01.01-.173-.038-.365-.115-.259-.106-.48-.134-.864-.144-.547-.01-.854.096-1.344.432-.509.355-.94 1.229-.94 1.91 0 .433.2 1.057.45 1.383.116.154.212.279.212.298s-.135.134-.308.278l-.307.26-.297-.279a2.843 2.843 0 00-.644-.442c-.297-.144-.422-.163-.912-.163-.528 0-.605.02-.98.202-.796.393-1.305 1.142-1.343 1.987-.01.279.01.586.057.768l.087.307-.452.173-.45.173-.164-.355c-.23-.49-.634-.903-1.094-1.114-.327-.153-.442-.173-.951-.173-.518 0-.614.02-.97.192-.758.356-1.229.97-1.382 1.786l-.077.403h-.874l-.038-.201h0z" fill="#333" stroke="#999" stroke-width=".272"/><path class="st13" d="M4664.9 4019.4l-5.4-14.1c-25.8 11-47.5-24.3-19.7-40.8m-1.6.3l-10-11.3c-20.3 19.4-53-6-32.8-31.3m-1.3 1.1l-13.4-6.9c-11.9 25.4-51.6 13.6-41.9-17.2m-.6 1.6l-15-1.4c-1.6 28-42.9 31.7-45.3-.5" transform="rotate(2.458 -10288.367 1295.507) scale(.09601)"/><path class="st13" d="M4478.3 3900.5l-14.5 4.2c8.7 26.7-28.4 45.2-42.4 16" transform="rotate(2.458 -10288.367 1295.507) scale(.09601)"/><path class="st13" d="M4422.2 3922l-12 9.1c17.7 21.8-10.3 52.4-33.8 30.1m.8 1.4l-7.9 12.8c24.4 13.9 9.3 52.5-20.6 40.3m1.2.7l-2.3 14.9c27.9 3.4 28.9 44.8-3.4 45.2" transform="rotate(2.458 -10288.367 1295.507) scale(.09601)"/><path class="st13" d="M4345.7 4075.4l2.4 13.6c27.2-6.9 43.2 31.3 13.2 43.4m1.8-.3l6.8 12c23.3-15.7 51.2 14.9 27 36.4m1.6-1.2l10.8 8.6c15.7-23.3 53.1-5.4 38.7 23.6" transform="rotate(2.458 -10288.367 1295.507) scale(.09601)"/><path class="st13" d="M4447.7 4210l13.2 4.2c6.4-27.3 47.7-24 44.6 8.2" transform="rotate(2.458 -10288.367 1295.507) scale(.09601)"/><path class="st13" d="M4505.4 4220.5l13.8-.5c-3.2-27.9 36.9-38.6 44.7-7.2m.2-2.2l12.6-5.6c-13.2-24.7 20-49.5 38.9-23.2" transform="rotate(2.458 -10288.367 1295.507) scale(.09601)"/><path class="st13" d="M4614.4 4181.2l9.7-9.9c-21.5-18.1.2-53.4 27.5-36" transform="rotate(2.458 -10288.367 1295.507) scale(.09601)"/><path class="st13" d="M4649.2 4136l5.9-12.5c-26.2-10.1-17.1-50.5 14.3-43m-1.7-1l1-13.8c-28.1.2-34.5-40.7-2.5-45.2" transform="rotate(2.458 -10288.367 1295.507) scale(.09601)"/><path d="M335.9 792.2c58.7-125.8 273.2-100.3 262.2 83.8-.1 1.4-3.3 2.3-3.2.9 4.2-176.9-188.5-205.4-254.4-83.8-.9 1.4-5.3.6-4.6-.9h0z" stroke="#666"/><path class="st15" d="M-3688.2 1645c-8.4-.2-16.1 6.9-16.6 15.3-.8 8.2 5.5 16.3 13.6 17.6 4.6 1 9.2-.7 13.2-2.8 11.4-5 25.1-4.3 36 1.6 7.5 3.7 17.4.5 21.4-6.8 4.2-7 2.2-16.8-4.5-21.5-5.2-4-12.7-4.3-18.3-1.1-11.8 5.9-26.4 5.5-38-.7-2.1-1.1-4.4-1.6-6.8-1.6zm0 8.3c4.6 0 8.3 3.7 8.3 8.3s-3.7 8.3-8.3 8.3-8.3-3.7-8.3-8.3 3.8-8.3 8.3-8.3zm53.2 0c4.6 0 8.3 3.7 8.3 8.3s-3.7 8.3-8.3 8.3-8.3-3.7-8.3-8.3 3.7-8.3 8.3-8.3z" transform="matrix(-.09847 -.02679 -.02679 .09847 142.52 602.89)"/><path class="st16" d="M-3964.2 236.6c-8.4-.2-16.1 6.9-16.6 15.3-.8 8.2 5.5 16.3 13.6 17.6 4.6 1 9.2-.7 13.2-2.8 11.4-5 25.1-4.3 36 1.5 7.5 3.7 17.3.5 21.3-6.8 4.2-7 2.2-16.8-4.5-21.6-5.2-4-12.7-4.3-18.3-1.1-11.8 5.9-26.4 5.5-38-.7-2-.9-4.4-1.4-6.7-1.4z" transform="matrix(-.08362 -.05851 -.05851 .08362 138.78 610.75)"/><path class="st17" d="M-8659.8 449.8c0 9.4-7.6 17-17 17s-17-7.6-17-17 7.6-17 17-17 17 7.6 17 17z" transform="matrix(-.04066 -.02845 -.02845 .04066 110.968 595.585)"/><path class="st18" d="M-3955.9 253.2c0 4.6-3.7 8.3-8.3 8.3-4.6 0-8.3-3.7-8.3-8.3 0-4.6 3.7-8.3 8.3-8.3 4.6 0 8.3 3.8 8.3 8.3z" transform="matrix(-.08362 -.05851 -.05851 .08362 138.78 610.75)"/><path class="st15" d="M-3779.8 1325.7c-8.4-.2-16.1 6.9-16.6 15.3-.8 8.2 5.5 16.3 13.6 17.6 4.6 1 9.2-.7 13.2-2.8 11.4-5 25.1-4.3 36 1.6 7.5 3.7 17.4.5 21.4-6.8 4.2-7 2.2-16.8-4.5-21.5-5.2-4-12.7-4.3-18.3-1.1-11.8 5.9-26.4 5.5-38-.7-2.1-1.1-4.4-1.6-6.8-1.6zm0 8.4c4.6 0 8.3 3.7 8.3 8.3s-3.7 8.3-8.3 8.3c-4.6 0-8.3-3.7-8.3-8.3s3.8-8.3 8.3-8.3zm53.2 0c4.6 0 8.3 3.7 8.3 8.3s-3.7 8.3-8.3 8.3-8.3-3.7-8.3-8.3 3.7-8.3 8.3-8.3z" transform="matrix(-.09611 -.03432 -.03432 .09611 154.68 610.51)"/><path class="st16" d="M-3812.8 1260.2c-8.4-.2-16.1 6.9-16.6 15.3-.8 8.2 5.5 16.3 13.6 17.6 4.6 1 9.2-.7 13.2-2.8 11.4-5 25.1-4.3 36 1.5 7.5 3.7 17.3.5 21.3-6.8 4.2-7 2.2-16.8-4.5-21.6-5.2-4-12.7-4.3-18.3-1.1-11.8 5.9-26.4 5.5-38-.7-2-.9-4.3-1.4-6.7-1.4z" transform="matrix(-.09503 -.0372 -.0372 .09503 151.94 604.13)"/><path class="st17" d="M-8348.3 2554.6c0 9.4-7.6 17-17 17s-17-7.6-17-17 7.6-17 17-17 17 7.6 17 17z" transform="matrix(-.04621 -.01809 -.01809 .04621 121.343 595.932)"/><path class="st18" d="M-3804.5 1276.8c0 4.6-3.7 8.3-8.3 8.3-4.6 0-8.3-3.7-8.3-8.3 0-4.6 3.7-8.3 8.3-8.3 4.6 0 8.3 3.7 8.3 8.3z" transform="matrix(-.09503 -.0372 -.0372 .09503 151.94 604.13)"/><path class="st15" d="M-3743.6 1326.3c-8.4-.2-16.1 6.9-16.6 15.3-.8 8.2 5.5 16.3 13.6 17.6 4.6 1 9.2-.7 13.2-2.8 11.4-5 25.1-4.3 36 1.6 7.5 3.7 17.4.5 21.4-6.8 4.2-7 2.2-16.8-4.5-21.5-5.2-4-12.7-4.3-18.3-1.1-11.8 5.9-26.4 5.5-38-.7-2.1-1.1-4.4-1.6-6.8-1.6zm0 8.3c4.6 0 8.3 3.7 8.3 8.3s-3.7 8.3-8.3 8.3c-4.6 0-8.3-3.7-8.3-8.3s3.7-8.3 8.3-8.3zm53.2 0c4.6 0 8.3 3.7 8.3 8.3s-3.7 8.3-8.3 8.3-8.3-3.7-8.3-8.3 3.7-8.3 8.3-8.3z" transform="matrix(-.09611 -.03432 -.03432 .09611 185.37 620.97)"/><path class="st16" d="M-3776.6 1261.8c-8.4-.2-16.1 6.9-16.6 15.3-.8 8.2 5.5 16.3 13.6 17.6 4.6 1 9.2-.7 13.2-2.8 11.4-5 25.1-4.3 36 1.5 7.5 3.7 17.3.5 21.3-6.8 4.2-7 2.2-16.8-4.5-21.6-5.2-4-12.7-4.3-18.3-1.1-11.8 5.9-26.4 5.5-38-.7-2-.9-4.4-1.4-6.7-1.4z" transform="matrix(-.09503 -.0372 -.0372 .09503 182.64 614.6)"/><path class="st17" d="M-8274 2557.9c0 9.4-7.6 17-17 17s-17-7.6-17-17 7.6-17 17-17 17 7.6 17 17z" transform="matrix(-.04621 -.01809 -.01809 .04621 152.043 606.402)"/><path class="st18" d="M-3768.3 1278.4c0 4.6-3.7 8.3-8.3 8.3-4.6 0-8.3-3.7-8.3-8.3 0-4.6 3.7-8.3 8.3-8.3 4.6 0 8.3 3.7 8.3 8.3z" transform="matrix(-.09503 -.0372 -.0372 .09503 182.64 614.6)"/><path class="st15" d="M-3729.9 1326c-8.4-.2-16.1 6.9-16.6 15.3-.8 8.2 5.5 16.3 13.6 17.6 4.6 1 9.2-.7 13.2-2.8 11.4-5 25.1-4.3 36 1.6 7.5 3.7 17.4.5 21.4-6.8 4.2-7 2.2-16.8-4.5-21.5-5.2-4-12.7-4.3-18.3-1.1-11.8 5.9-26.4 5.5-38-.7-2.1-1.1-4.4-1.6-6.8-1.6zm0 8.3c4.6 0 8.3 3.7 8.3 8.3 0 4.6-3.7 8.3-8.3 8.3-4.6 0-8.3-3.7-8.3-8.3 0-4.6 3.7-8.3 8.3-8.3zm53.2.1c4.6 0 8.3 3.7 8.3 8.3 0 4.6-3.7 8.3-8.3 8.3s-8.3-3.7-8.3-8.3c0-4.6 3.7-8.3 8.3-8.3z" transform="matrix(-.09611 -.03432 -.03432 .09611 196.85 625.31)"/><path class="st16" d="M-3762.9 1261.9c-8.4-.2-16.1 6.9-16.6 15.3-.8 8.2 5.5 16.3 13.6 17.6 4.6 1 9.2-.7 13.2-2.8 11.4-5 25.1-4.3 36 1.5 7.5 3.7 17.3.5 21.3-6.8 4.2-7 2.2-16.8-4.5-21.6-5.2-4-12.7-4.3-18.3-1.1-11.8 5.9-26.4 5.5-38-.7-2.1-.8-4.4-1.4-6.7-1.4z" transform="matrix(-.09503 -.0372 -.0372 .09503 194.11 618.94)"/><path class="st17" d="M-8245.8 2558.3c0 9.4-7.6 17-17 17s-17-7.6-17-17 7.6-17 17-17c9.3-.1 17 7.6 17 17z" transform="matrix(-.04621 -.01809 -.01809 .04621 163.513 610.742)"/><path class="st18" d="M-3754.6 1278.6c0 4.6-3.7 8.3-8.3 8.3-4.6 0-8.3-3.7-8.3-8.3s3.7-8.3 8.3-8.3c4.6 0 8.3 3.7 8.3 8.3z" transform="matrix(-.09503 -.0372 -.0372 .09503 194.11 618.94)"/><path class="st15" d="M-3697.8 1382.7c-8.4-.2-16.1 6.9-16.6 15.3-.8 8.2 5.5 16.3 13.6 17.6 4.6 1 9.2-.7 13.2-2.8 11.4-5 25.1-4.3 36 1.6 7.5 3.7 17.4.5 21.4-6.8 4.2-7 2.2-16.8-4.5-21.5-5.2-4-12.7-4.3-18.3-1.1-11.8 5.9-26.4 5.5-38-.7-2.1-1.1-4.4-1.6-6.8-1.6zm0 8.3c4.6 0 8.3 3.7 8.3 8.3 0 4.6-3.7 8.3-8.3 8.3s-8.3-3.7-8.3-8.3c0-4.6 3.7-8.3 8.3-8.3zm53.2 0c4.6 0 8.3 3.7 8.3 8.3s-3.7 8.3-8.3 8.3-8.3-3.7-8.3-8.3 3.7-8.3 8.3-8.3z" transform="matrix(-.09658 -.03298 -.03298 .09658 209.24 629.37)"/><path class="st16" d="M-3732.6 1320.1c-8.4-.2-16.1 6.9-16.6 15.3-.8 8.2 5.5 16.3 13.6 17.6 4.6 1 9.2-.7 13.2-2.8 11.4-5 25.1-4.3 36 1.5 7.5 3.7 17.3.5 21.3-6.8 4.2-7 2.2-16.8-4.5-21.6-5.2-4-12.7-4.3-18.3-1.1-11.8 5.9-26.4 5.5-38-.7-2-.8-4.4-1.4-6.7-1.4z" transform="matrix(-.09554 -.03586 -.03586 .09554 206.42 623.04)"/><path class="st17" d="M-8183.5 2677.9c0 9.4-7.6 17-17 17s-17-7.6-17-17 7.6-17 17-17 17 7.6 17 17z" transform="matrix(-.04646 -.01744 -.01744 .04646 175.712 615.273)"/><path class="st18" d="M-3724.3 1336.8c0 4.6-3.7 8.3-8.3 8.3s-8.3-3.7-8.3-8.3 3.7-8.3 8.3-8.3 8.3 3.7 8.3 8.3z" transform="matrix(-.09554 -.03586 -.03586 .09554 206.42 623.04)"/><path class="st15" d="M-3683.7 1382c-8.4-.2-16.1 6.9-16.6 15.3-.8 8.2 5.5 16.3 13.6 17.6 4.6 1 9.2-.7 13.2-2.8 11.4-5 25.1-4.3 36 1.6 7.5 3.7 17.4.5 21.4-6.8 4.2-7 2.2-16.8-4.5-21.5-5.2-4-12.7-4.3-18.3-1.1-11.8 5.9-26.4 5.5-38-.7-2.1-1.1-4.4-1.6-6.8-1.6zm0 8.3c4.6 0 8.3 3.7 8.3 8.3 0 4.6-3.7 8.3-8.3 8.3s-8.3-3.7-8.3-8.3c0-4.6 3.7-8.3 8.3-8.3zm53.2.1c4.6 0 8.3 3.7 8.3 8.3s-3.7 8.3-8.3 8.3-8.3-3.7-8.3-8.3 3.7-8.3 8.3-8.3z" transform="matrix(-.09658 -.03298 -.03298 .09658 221.01 633.99)"/><path class="st16" d="M-3718.5 1319.9c-8.4-.2-16.1 6.9-16.6 15.3-.8 8.2 5.5 16.3 13.6 17.6 4.6 1 9.2-.7 13.2-2.8 11.4-5 25.1-4.3 36 1.5 7.5 3.7 17.3.5 21.3-6.8 4.2-7 2.2-16.8-4.5-21.6-5.2-4-12.7-4.3-18.3-1.1-11.8 5.9-26.4 5.5-38-.7-2-.8-4.4-1.4-6.7-1.4z" transform="matrix(-.09554 -.03586 -.03586 .09554 218.19 627.65)"/><path class="st17" d="M-8154.5 2677.5c0 9.4-7.6 17-17 17s-17-7.6-17-17 7.6-17 17-17 17 7.6 17 17z" transform="matrix(-.04646 -.01744 -.01744 .04646 187.482 619.883)"/><path class="st18" d="M-3710.2 1336.6c0 4.6-3.7 8.3-8.3 8.3-4.6 0-8.3-3.7-8.3-8.3s3.7-8.3 8.3-8.3c4.6 0 8.3 3.7 8.3 8.3z" transform="matrix(-.09554 -.03586 -.03586 .09554 218.19 627.65)"/><path class="st15" d="M-3670 1381.3c-8.4-.2-16.1 6.9-16.6 15.3-.8 8.2 5.5 16.3 13.6 17.6 4.6 1 9.2-.7 13.2-2.8 11.4-5 25.1-4.3 36 1.6 7.5 3.7 17.4.5 21.4-6.8 4.2-7 2.2-16.8-4.5-21.5-5.2-4-12.7-4.3-18.3-1.1-11.8 5.9-26.4 5.5-38-.7-2.1-1.1-4.5-1.6-6.8-1.6zm0 8.3c4.6 0 8.3 3.7 8.3 8.3 0 4.6-3.7 8.3-8.3 8.3-4.6 0-8.3-3.7-8.3-8.3 0-4.6 3.7-8.3 8.3-8.3zm53.2 0c4.6 0 8.3 3.7 8.3 8.3 0 4.6-3.7 8.3-8.3 8.3s-8.3-3.7-8.3-8.3c0-4.6 3.7-8.3 8.3-8.3z" transform="matrix(-.09658 -.03298 -.03298 .09658 232.41 638.57)"/><path class="st16" d="M-3704.8 1319.6c-8.4-.2-16.1 6.9-16.6 15.3-.8 8.2 5.5 16.3 13.6 17.6 4.6 1 9.2-.7 13.2-2.8 11.4-5 25.1-4.3 36 1.5 7.5 3.7 17.3.5 21.3-6.8 4.2-7 2.2-16.8-4.5-21.6-5.2-4-12.7-4.3-18.3-1.1-11.8 5.9-26.4 5.5-38-.7-2-.9-4.4-1.4-6.7-1.4z" transform="matrix(-.09554 -.03586 -.03586 .09554 229.59 632.23)"/><path class="st17" d="M-8126.3 2676.9c0 9.4-7.6 17-17 17s-17-7.6-17-17 7.6-17 17-17c9.4-.1 17 7.6 17 17z" transform="matrix(-.04646 -.01744 -.01744 .04646 198.882 624.463)"/><path class="st18" d="M-3696.5 1336.3c0 4.6-3.7 8.3-8.3 8.3-4.6 0-8.3-3.7-8.3-8.3s3.7-8.3 8.3-8.3c4.6-.1 8.3 3.7 8.3 8.3z" transform="matrix(-.09554 -.03586 -.03586 .09554 229.59 632.23)"/><path class="st15" d="M-3656.3 1381c-8.4-.2-16.1 6.9-16.6 15.3-.8 8.2 5.5 16.3 13.6 17.6 4.6 1 9.2-.7 13.2-2.8 11.4-5 25.1-4.3 36 1.6 7.5 3.7 17.4.5 21.4-6.8 4.2-7 2.2-16.8-4.5-21.5-5.2-4-12.7-4.3-18.3-1.1-11.8 5.9-26.4 5.5-38-.7-2.1-1.1-4.5-1.6-6.8-1.6zm0 8.3c4.6 0 8.3 3.7 8.3 8.3s-3.7 8.3-8.3 8.3-8.3-3.7-8.3-8.3 3.7-8.3 8.3-8.3zm53.2.1c4.6 0 8.3 3.7 8.3 8.3s-3.7 8.3-8.3 8.3-8.3-3.7-8.3-8.3 3.7-8.3 8.3-8.3z" transform="matrix(-.09658 -.03298 -.03298 .09658 243.95 642.75)"/><path class="st16" d="M-3691.1 1319.8c-8.4-.2-16.1 6.9-16.6 15.3-.8 8.2 5.5 16.3 13.6 17.6 4.6 1 9.2-.7 13.2-2.8 11.4-5 25.1-4.3 36 1.5 7.5 3.7 17.3.5 21.3-6.8 4.2-7 2.2-16.8-4.5-21.6-5.2-4-12.7-4.3-18.3-1.1-11.8 5.9-26.4 5.5-38-.7-2-.9-4.4-1.4-6.7-1.4z" transform="matrix(-.09554 -.03586 -.03586 .09554 241.12 636.41)"/><path class="st17" d="M-8098.2 2677.2c0 9.4-7.6 17-17 17s-17-7.6-17-17 7.6-17 17-17 17 7.6 17 17z" transform="matrix(-.04646 -.01744 -.01744 .04646 210.412 628.643)"/><path class="st18" d="M-3682.8 1336.4c0 4.6-3.7 8.3-8.3 8.3-4.6 0-8.3-3.7-8.3-8.3s3.7-8.3 8.3-8.3c4.6 0 8.3 3.7 8.3 8.3z" transform="matrix(-.09554 -.03586 -.03586 .09554 241.12 636.41)"/><path class="st15" d="M4089-1990.4c-8.4-.2-16.1 6.9-16.6 15.3-.8 8.2 5.5 16.3 13.6 17.6 4.6 1 9.2-.7 13.2-2.8 11.4-5 25.1-4.3 36 1.6 7.5 3.7 17.4.5 21.4-6.8 4.2-7 2.2-16.8-4.5-21.5-5.2-4-12.7-4.3-18.3-1.1-11.8 5.9-26.4 5.5-38-.7-2.1-1.1-4.5-1.6-6.8-1.6zm0 8.3c4.6 0 8.3 3.7 8.3 8.3s-3.7 8.3-8.3 8.3-8.3-3.7-8.3-8.3 3.7-8.3 8.3-8.3zm53.2 0c4.6 0 8.3 3.7 8.3 8.3s-3.7 8.3-8.3 8.3-8.3-3.7-8.3-8.3 3.7-8.3 8.3-8.3z" transform="matrix(.1012 .01315 .01315 -.1012 168.02 597.13)"/><path class="st16" d="M4090.7-1930c-8.4-.2-16.1 6.9-16.6 15.3-.8 8.2 5.5 16.3 13.6 17.6 4.6 1 9.2-.7 13.2-2.8 11.4-5 25.1-4.3 36 1.5 7.5 3.7 17.3.5 21.3-6.8 4.2-7 2.2-16.8-4.5-21.6-5.2-4-12.7-4.3-18.3-1.1-11.8 5.9-26.4 5.5-38-.7-2-.9-4.3-1.4-6.7-1.4z" transform="matrix(.1012 .01315 .01315 -.1012 172.45 603.92)"/><path class="st17" d="M7904-4005.5c0 9.4-7.6 17-17 17s-17-7.6-17-17 7.6-17 17-17c9.3 0 17 7.6 17 17z" transform="matrix(.04921 .0064 .0064 -.04921 204.12 604.486)"/><path class="st18" d="M4099-1913.4c0 4.6-3.7 8.3-8.3 8.3s-8.3-3.7-8.3-8.3 3.7-8.3 8.3-8.3 8.3 3.7 8.3 8.3z" transform="matrix(.1012 .01315 .01315 -.1012 172.45 603.92)"/><path class="st15" d="M4103.4-1989.9c-8.4-.2-16.1 6.9-16.6 15.3-.8 8.2 5.5 16.3 13.6 17.6 4.6 1 9.2-.7 13.2-2.8 11.4-5 25.1-4.3 36 1.6 7.5 3.7 17.4.5 21.4-6.8 4.2-7 2.2-16.8-4.5-21.5-5.2-4-12.7-4.3-18.3-1.1-11.8 5.9-26.4 5.5-38-.7-2.1-1.1-4.4-1.6-6.8-1.6zm0 8.3c4.6 0 8.3 3.7 8.3 8.3 0 4.6-3.7 8.3-8.3 8.3-4.6 0-8.3-3.7-8.3-8.3 0-4.6 3.7-8.3 8.3-8.3zm53.2 0c4.6 0 8.3 3.7 8.3 8.3 0 4.6-3.7 8.3-8.3 8.3s-8.3-3.7-8.3-8.3c0-4.6 3.7-8.3 8.3-8.3z" transform="matrix(.1012 .01315 .01315 -.1012 155.13 595.92)"/><path class="st16" d="M4105.2-1929.5c-8.4-.2-16.1 6.9-16.6 15.3-.8 8.2 5.5 16.3 13.6 17.6 4.6 1 9.2-.7 13.2-2.8 11.4-5 25.1-4.3 36 1.5 7.5 3.7 17.3.5 21.3-6.8 4.2-7 2.2-16.8-4.5-21.6-5.2-4-12.7-4.3-18.3-1.1-11.8 5.9-26.4 5.5-38-.7-2.1-.9-4.4-1.4-6.7-1.4z" transform="matrix(.1012 .01315 .01315 -.1012 159.55 602.71)"/><path class="st17" d="M7933.7-4004.4c0 9.4-7.6 17-17 17s-17-7.6-17-17 7.6-17 17-17 17 7.6 17 17z" transform="matrix(.04921 .0064 .0064 -.04921 191.22 603.276)"/><path class="st18" d="M4113.5-1912.9c0 4.6-3.7 8.3-8.3 8.3s-8.3-3.7-8.3-8.3 3.7-8.3 8.3-8.3 8.3 3.8 8.3 8.3z" transform="matrix(.1012 .01315 .01315 -.1012 159.55 602.71)"/><path class="st15" d="M4118.1-1990.4c-8.4-.2-16.1 6.9-16.6 15.3-.8 8.2 5.5 16.3 13.6 17.6 4.6 1 9.2-.7 13.2-2.8 11.4-5 25.1-4.3 36 1.6 7.5 3.7 17.4.5 21.4-6.8 4.2-7 2.2-16.8-4.5-21.5-5.2-4-12.7-4.3-18.3-1.1-11.8 5.9-26.4 5.5-38-.7-2.2-1.1-4.5-1.6-6.8-1.6zm0 8.3c4.6 0 8.3 3.7 8.3 8.3s-3.7 8.3-8.3 8.3c-4.6 0-8.3-3.7-8.3-8.3s3.7-8.3 8.3-8.3zm53.1.1c4.6 0 8.3 3.7 8.3 8.3s-3.7 8.3-8.3 8.3-8.3-3.7-8.3-8.3 3.8-8.3 8.3-8.3z" transform="matrix(.1012 .01315 .01315 -.1012 142.18 593.82)"/><path class="st16" d="M4119.8-1929.9c-8.4-.2-16.1 6.9-16.6 15.3-.8 8.2 5.5 16.3 13.6 17.6 4.6 1 9.2-.7 13.2-2.8 11.4-5 25.1-4.3 36 1.5 7.5 3.7 17.3.5 21.3-6.8 4.2-7 2.2-16.8-4.5-21.6-5.2-4-12.7-4.3-18.3-1.1-11.8 5.9-26.4 5.5-38-.7-2-.9-4.4-1.4-6.7-1.4z" transform="matrix(.1012 .01315 .01315 -.1012 146.61 600.61)"/><path class="st17" d="M7963.7-4005.4c0 9.4-7.6 17-17 17s-17-7.6-17-17 7.6-17 17-17 17 7.6 17 17z" transform="matrix(.04921 .0064 .0064 -.04921 178.28 601.176)"/><path class="st18" d="M4128.1-1913.3c0 4.6-3.7 8.3-8.3 8.3-4.6 0-8.3-3.7-8.3-8.3s3.7-8.3 8.3-8.3c4.6 0 8.3 3.7 8.3 8.3z" transform="matrix(.1012 .01315 .01315 -.1012 146.61 600.61)"/><path class="st15" d="M4405.2-1534.2c-8.4-.2-16.1 6.9-16.6 15.3-.8 8.2 5.5 16.3 13.6 17.6 4.6 1 9.2-.7 13.2-2.8 11.4-5 25.1-4.3 36 1.6 7.5 3.7 17.4.5 21.4-6.8 4.2-7 2.2-16.8-4.5-21.5-5.2-4-12.7-4.3-18.3-1.1-11.8 5.9-26.4 5.5-38-.7-2.1-1.1-4.5-1.6-6.8-1.6zm0 8.3c4.6 0 8.3 3.7 8.3 8.3 0 4.6-3.7 8.3-8.3 8.3-4.6 0-8.3-3.7-8.3-8.3 0-4.6 3.7-8.3 8.3-8.3zm53.1 0c4.6 0 8.3 3.7 8.3 8.3s-3.7 8.3-8.3 8.3-8.3-3.7-8.3-8.3 3.8-8.3 8.3-8.3z" transform="matrix(.09897 .02489 .02489 -.09897 82.352 578.73)"/><path class="st16" d="M4406.9-1473.8c-8.4-.2-16.1 6.9-16.6 15.3-.8 8.2 5.5 16.3 13.6 17.6 4.6 1 9.2-.7 13.2-2.8 11.4-5 25.1-4.3 36 1.5 7.5 3.7 17.3.5 21.3-6.8 4.2-7 2.2-16.8-4.5-21.6-5.2-4-12.7-4.3-18.3-1.1-11.8 5.9-26.4 5.5-38-.7-2-.9-4.3-1.4-6.7-1.4z" transform="matrix(.09897 .02489 .02489 -.09897 85.951 585.98)"/><path class="st17" d="M8554.2-3067.3c0 9.4-7.6 17-17 17s-17-7.6-17-17 7.6-17 17-17 17 7.6 17 17z" transform="matrix(.04813 .0121 .0121 -.04813 117.339 590.245)"/><path class="st18" d="M4415.2-1457.2c0 4.6-3.7 8.3-8.3 8.3s-8.3-3.7-8.3-8.3 3.7-8.3 8.3-8.3 8.3 3.8 8.3 8.3z" transform="matrix(.09897 .02489 .02489 -.09897 85.951 585.98)"/><path class="st15" d="M4198.7-1993.3c-8.4-.2-16.1 6.9-16.6 15.3-.8 8.2 5.5 16.3 13.6 17.6 4.6 1 9.2-.7 13.2-2.8 11.4-5 25.1-4.3 36 1.6 7.5 3.7 17.4.5 21.4-6.8 4.2-7 2.2-16.8-4.5-21.5-5.2-4-12.7-4.3-18.3-1.1-11.8 5.9-26.4 5.5-38-.7-2.1-1.1-4.5-1.6-6.8-1.6zm0 8.3c4.6 0 8.3 3.7 8.3 8.3 0 4.6-3.7 8.3-8.3 8.3-4.6 0-8.3-3.7-8.3-8.3 0-4.6 3.7-8.3 8.3-8.3zm53.1.1c4.6 0 8.3 3.7 8.3 8.3 0 4.6-3.7 8.3-8.3 8.3s-8.3-3.7-8.3-8.3c.1-4.6 3.8-8.3 8.3-8.3z" transform="matrix(.1012 .01315 .01315 -.1012 70.872 581.92)"/><path class="st16" d="M4200.4-1932.9c-8.4-.2-16.1 6.9-16.6 15.3-.8 8.2 5.5 16.3 13.6 17.6 4.6 1 9.2-.7 13.2-2.8 11.4-5 25.1-4.3 36 1.5 7.5 3.7 17.3.5 21.3-6.8 4.2-7 2.2-16.8-4.5-21.6-5.2-4-12.7-4.3-18.3-1.1-11.8 5.9-26.4 5.5-38-.7-2-.8-4.3-1.4-6.7-1.4z" transform="matrix(.1012 .01315 .01315 -.1012 75.295 588.71)"/><path class="st17" d="M8129.5-4011.3c0 9.4-7.6 17-17 17s-17-7.6-17-17 7.6-17 17-17c9.4-.1 17 7.5 17 17z" transform="matrix(.04921 .0064 .0064 -.04921 106.966 589.276)"/><path class="st18" d="M4208.7-1916.2c0 4.6-3.7 8.3-8.3 8.3-4.6 0-8.3-3.7-8.3-8.3 0-4.6 3.7-8.3 8.3-8.3 4.6 0 8.3 3.7 8.3 8.3z" transform="matrix(.1012 .01315 .01315 -.1012 75.295 588.71)"/><path class="st15" d="M3840.6-2561c-8.4-.2-16.1 6.9-16.6 15.3-.8 8.2 5.5 16.3 13.6 17.6 4.6 1 9.2-.7 13.2-2.8 11.4-5 25.1-4.3 36 1.6 7.5 3.7 17.4.5 21.4-6.8 4.2-7 2.2-16.8-4.5-21.5-5.2-4-12.7-4.3-18.3-1.1-11.8 5.9-26.4 5.5-38-.7-2.2-1.1-4.5-1.6-6.8-1.6zm0 8.3c4.6 0 8.3 3.7 8.3 8.3s-3.7 8.3-8.3 8.3c-4.6 0-8.3-3.7-8.3-8.3s3.7-8.3 8.3-8.3zm53.1 0c4.6 0 8.3 3.7 8.3 8.3s-3.7 8.3-8.3 8.3-8.3-3.7-8.3-8.3 3.8-8.3 8.3-8.3z" transform="matrix(.10202 -.00267 -.00267 -.10202 59.94 586.16)"/><path class="st16" d="M4619.8-913.5c-8.4-.2-16.1 6.9-16.6 15.3-.8 8.2 5.5 16.3 13.6 17.6 4.6 1 9.2-.7 13.2-2.8 11.4-5 25.1-4.3 36 1.5 7.5 3.7 17.3.5 21.3-6.8 4.2-7 2.2-16.8-4.5-21.6-5.2-4-12.7-4.3-18.3-1.1-11.8 5.9-26.4 5.5-38-.7-2-.9-4.4-1.4-6.7-1.4z" transform="matrix(.09472 .03798 .03798 -.09472 60.545 574.86)"/><path class="st17" d="M8991.9-1915.2c0 9.4-7.6 17-17 17s-17-7.6-17-17 7.6-17 17-17 17 7.6 17 17z" transform="matrix(.04606 .01847 .01847 -.04606 91.073 583.309)"/><path class="st18" d="M4628.1-896.9c0 4.6-3.7 8.3-8.3 8.3-4.6 0-8.3-3.7-8.3-8.3s3.7-8.3 8.3-8.3c4.6 0 8.3 3.7 8.3 8.3z" transform="matrix(.09472 .03798 .03798 -.09472 60.545 574.86)"/><path class="st15" d="M1240.2-4179.5c-8.4-.2-16.1 6.9-16.6 15.3-.8 8.2 5.5 16.3 13.6 17.6 4.6 1 9.2-.7 13.2-2.8 11.4-5 25.1-4.3 36 1.6 7.5 3.7 17.4.5 21.4-6.8 4.2-7 2.2-16.8-4.5-21.5-5.2-4-12.7-4.3-18.3-1.1-11.8 5.9-26.4 5.5-38-.7-2.1-1.1-4.4-1.6-6.8-1.6zm0 8.3c4.6 0 8.3 3.7 8.3 8.3 0 4.6-3.7 8.3-8.3 8.3s-8.3-3.7-8.3-8.3c0-4.5 3.7-8.3 8.3-8.3zm53.2.1c4.6 0 8.3 3.7 8.3 8.3 0 4.6-3.7 8.3-8.3 8.3-4.6 0-8.3-3.7-8.3-8.3 0-4.6 3.7-8.3 8.3-8.3z" transform="matrix(.07507 -.06913 -.06913 -.07507 68.235 614.34)"/><path class="st16" d="M2995.3-3342.9c-8.4-.2-16.1 6.9-16.6 15.3-.8 8.2 5.5 16.3 13.6 17.6 4.6 1 9.2-.7 13.2-2.8 11.4-5 25.1-4.3 36 1.5 7.5 3.7 17.3.5 21.3-6.8 4.2-7 2.2-16.8-4.5-21.6-5.2-4-12.7-4.3-18.3-1.1-11.8 5.9-26.4 5.5-38-.7-2-.8-4.3-1.4-6.7-1.4z" transform="matrix(.09742 -.0304 -.0304 -.09742 60.33 604.19)"/><path class="st17" d="M5651.4-6910.8c0 9.4-7.6 17-17 17s-17-7.6-17-17 7.6-17 17-17 17 7.6 17 17z" transform="scale(.04963 -.04963) rotate(17.325 40009.296 -51.34)"/><path class="st18" d="M3003.6-3326.2c0 4.6-3.7 8.3-8.3 8.3s-8.3-3.7-8.3-8.3c0-4.6 3.7-8.3 8.3-8.3s8.3 3.7 8.3 8.3z" transform="matrix(.09742 -.0304 -.0304 -.09742 60.33 604.19)"/><path class="st15" d="M-2324.8-3320.1c-8.4-.2-16.1 6.9-16.6 15.3-.8 8.2 5.5 16.3 13.6 17.6 4.6 1 9.2-.7 13.2-2.8 11.4-5 25.1-4.3 36 1.6 7.5 3.7 17.4.5 21.4-6.8 4.2-7 2.2-16.8-4.5-21.5-5.2-4-12.7-4.3-18.3-1.1-11.8 5.9-26.4 5.5-38-.7-2.1-1.1-4.4-1.6-6.8-1.6zm0 8.3c4.6 0 8.3 3.7 8.3 8.3s-3.7 8.3-8.3 8.3c-4.6 0-8.3-3.7-8.3-8.3s3.7-8.3 8.3-8.3zm53.2 0c4.6 0 8.3 3.7 8.3 8.3 0 4.6-3.7 8.3-8.3 8.3s-8.3-3.7-8.3-8.3c0-4.6 3.7-8.3 8.3-8.3z" transform="matrix(-.00419 -.10197 -.10197 .00419 100.75 628.42)"/><path class="st16" d="M-595.1-4090.4c-8.4-.2-16.1 6.9-16.6 15.3-.8 8.2 5.5 16.3 13.6 17.6 4.6 1 9.2-.7 13.2-2.8 11.4-5 25.1-4.3 36 1.5 7.5 3.7 17.3.5 21.3-6.8 4.2-7 2.2-16.8-4.5-21.6-5.2-4-12.7-4.3-18.3-1.1-11.8 5.9-26.4 5.5-38-.7-2-.8-4.4-1.4-6.7-1.4z" transform="matrix(.0398 -.09397 -.09397 -.0398 87.901 627.89)"/><path class="st17" d="M-1731.7-8447.9c0 9.4-7.6 17-17 17s-17-7.6-17-17 7.6-17 17-17 17 7.6 17 17z" transform="matrix(.01935 -.0457 -.0457 -.01935 96.937 597.53)"/><path class="st18" d="M-586.8-4073.7c0 4.6-3.7 8.3-8.3 8.3-4.6 0-8.3-3.7-8.3-8.3 0-4.6 3.7-8.3 8.3-8.3 4.6 0 8.3 3.7 8.3 8.3z" transform="matrix(.0398 -.09397 -.09397 -.0398 87.901 627.89)"/><path class="st15" d="M-3821.4-1051c-8.4-.2-16.1 6.9-16.6 15.3-.8 8.2 5.5 16.3 13.6 17.6 4.6 1 9.2-.7 13.2-2.8 11.4-5 25.1-4.3 36 1.6 7.5 3.7 17.4.5 21.4-6.8 4.2-7 2.2-16.8-4.5-21.5-5.2-4-12.7-4.3-18.3-1.1-11.8 5.9-26.4 5.5-38-.7-2.1-1.1-4.5-1.6-6.8-1.6zm0 8.3c4.6 0 8.3 3.7 8.3 8.3 0 4.6-3.7 8.3-8.3 8.3-4.6 0-8.3-3.7-8.3-8.3 0-4.6 3.7-8.3 8.3-8.3zm53.2.1c4.6 0 8.3 3.7 8.3 8.3s-3.7 8.3-8.3 8.3-8.3-3.7-8.3-8.3c0-4.6 3.7-8.3 8.3-8.3z" transform="matrix(-.06382 -.07964 -.07964 .06382 125.03 622.51)"/><path class="st16" d="M-2413.7-3176.2c-8.4-.2-16.1 6.9-16.6 15.3-.8 8.2 5.5 16.3 13.6 17.6 4.6 1 9.2-.7 13.2-2.8 11.4-5 25.1-4.3 36 1.5 7.5 3.7 17.3.5 21.3-6.8 4.2-7 2.2-16.8-4.5-21.6-5.2-4-12.7-4.3-18.3-1.1-11.8 5.9-26.4 5.5-38-.7-2-.8-4.3-1.4-6.7-1.4z" transform="matrix(-.00729 -.10179 -.10179 .00729 108.3 633.67)"/><path class="st17" d="M-5471.3-6568c0 9.4-7.6 17-17 17s-17-7.6-17-17 7.6-17 17-17 17 7.6 17 17z" transform="matrix(-.00355 -.0495 -.0495 .00355 102.54 602.522)"/><path class="st18" d="M-2405.4-3159.5c0 4.6-3.7 8.3-8.3 8.3s-8.3-3.7-8.3-8.3c0-4.6 3.7-8.3 8.3-8.3s8.3 3.7 8.3 8.3z" transform="matrix(-.00729 -.10179 -.10179 .00729 108.3 633.67)"/><path class="st15" d="M-3709 1507.6c-8.4-.2-16.1 6.9-16.6 15.3-.8 8.2 5.5 16.3 13.6 17.6 4.6 1 9.2-.7 13.2-2.8 11.4-5 25.1-4.3 36 1.6 7.5 3.7 17.4.5 21.4-6.8 4.2-7 2.2-16.8-4.5-21.5-5.2-4-12.7-4.3-18.3-1.1-11.8 5.9-26.4 5.5-38-.7-2.1-1.1-4.5-1.6-6.8-1.6zm0 8.3c4.6 0 8.3 3.7 8.3 8.3 0 4.6-3.7 8.3-8.3 8.3s-8.3-3.7-8.3-8.3c0-4.6 3.7-8.3 8.3-8.3zm53.2 0c4.6 0 8.3 3.7 8.3 8.3 0 4.6-3.7 8.3-8.3 8.3s-8.3-3.7-8.3-8.3c0-4.6 3.7-8.3 8.3-8.3z" transform="matrix(-.09752 -.03006 -.03006 .09752 166.38 612.3)"/><path class="st16" d="M-3707.3 1568c-8.4-.2-16.1 6.9-16.6 15.3-.8 8.2 5.5 16.3 13.6 17.6 4.6 1 9.2-.7 13.2-2.8 11.4-5 25.1-4.3 36 1.5 7.5 3.7 17.3.5 21.3-6.8 4.2-7 2.2-16.8-4.5-21.6-5.2-4-12.7-4.3-18.3-1.1-11.8 5.9-26.4 5.5-38-.7-2-.9-4.3-1.4-6.7-1.4z" transform="matrix(-.09752 -.03006 -.03006 .09752 163.17 604.86)"/><path class="st17" d="M-8131.4 3187.7c0 9.4-7.6 17-17 17s-17-7.6-17-17 7.6-17 17-17c9.4-.1 17 7.6 17 17z" transform="matrix(-.04742 -.01462 -.01462 .04742 132.051 598.95)"/><path class="st18" d="M-3699 1584.6c0 4.6-3.7 8.3-8.3 8.3-4.6 0-8.3-3.7-8.3-8.3s3.7-8.3 8.3-8.3c4.6 0 8.3 3.8 8.3 8.3z" transform="matrix(-.09752 -.03006 -.03006 .09752 163.17 604.86)"/><path class="st16" d="M3910.5-1090.5c-8.4-.2-16.1 6.9-16.6 15.3-.8 8.2 5.5 16.3 13.6 17.6 4.6 1 9.2-.7 13.2-2.8 11.4-5 25.1-4.3 36 1.5 7.5 3.7 17.3.5 21.3-6.8 4.2-7 2.2-16.8-4.5-21.6-5.2-4-12.7-4.3-18.3-1.1-11.8 5.9-26.4 5.5-38-.7-2-.9-4.4-1.4-6.7-1.4z" transform="matrix(.11293 .03873 .03211 -.09689 75.4 617.03)"/><path class="st17" d="M7533.4-2279.2c0 9.4-7.6 17-17 17s-17-7.6-17-17 7.6-17 17-17c9.3 0 17 7.6 17 17z" transform="matrix(.05492 .01883 .01562 -.04712 111.343 625.636)"/><path class="st18" d="M3918.8-1073.9c0 4.6-3.7 8.3-8.3 8.3-4.6 0-8.3-3.7-8.3-8.3 0-4.6 3.7-8.3 8.3-8.3 4.6 0 8.3 3.7 8.3 8.3z" transform="matrix(.11293 .03873 .03211 -.09689 75.4 617.03)"/><path class="st15" d="M4132.7-1990.5c-8.4-.2-16.1 6.9-16.6 15.3-.8 8.2 5.5 16.3 13.6 17.6 4.6 1 9.2-.7 13.2-2.8 11.4-5 25.1-4.3 36 1.6 7.5 3.7 17.4.5 21.4-6.8 4.2-7 2.2-16.8-4.5-21.5-5.2-4-12.7-4.3-18.3-1.1-11.8 5.9-26.4 5.5-38-.7-2.2-1.1-4.5-1.6-6.8-1.6zm0 8.3c4.6 0 8.3 3.7 8.3 8.3 0 4.6-3.7 8.3-8.3 8.3-4.6 0-8.3-3.7-8.3-8.3 0-4.5 3.7-8.3 8.3-8.3zm53.1.1c4.6 0 8.3 3.7 8.3 8.3 0 4.6-3.7 8.3-8.3 8.3s-8.3-3.7-8.3-8.3c.1-4.6 3.8-8.3 8.3-8.3z" transform="matrix(.1012 .01315 .01315 -.1012 129.21 592.05)"/><path class="st16" d="M4134.4-1930c-8.4-.2-16.1 6.9-16.6 15.3-.8 8.2 5.5 16.3 13.6 17.6 4.6 1 9.2-.7 13.2-2.8 11.4-5 25.1-4.3 36 1.5 7.5 3.7 17.3.5 21.3-6.8 4.2-7 2.2-16.8-4.5-21.6-5.2-4-12.7-4.3-18.3-1.1-11.8 5.9-26.4 5.5-38-.7-2-.9-4.4-1.4-6.7-1.4z" transform="matrix(.1012 .01315 .01315 -.1012 133.63 598.84)"/><path class="st17" d="M7993.8-4005.5c0 9.4-7.6 17-17 17s-17-7.6-17-17 7.6-17 17-17c9.4-.1 17 7.5 17 17z" transform="matrix(.04921 .0064 .0064 -.04921 165.3 599.406)"/><path class="st18" d="M4142.7-1913.4c0 4.6-3.7 8.3-8.3 8.3-4.6 0-8.3-3.7-8.3-8.3s3.7-8.3 8.3-8.3c4.6 0 8.3 3.7 8.3 8.3z" transform="matrix(.1012 .01315 .01315 -.1012 133.63 598.84)"/><path class="st15" d="M4146.4-1990.3c-8.4-.2-16.1 6.9-16.6 15.3-.8 8.2 5.5 16.3 13.6 17.6 4.6 1 9.2-.7 13.2-2.8 11.4-5 25.1-4.3 36 1.6 7.5 3.7 17.4.5 21.4-6.8 4.2-7 2.2-16.8-4.5-21.5-5.2-4-12.7-4.3-18.3-1.1-11.8 5.9-26.4 5.5-38-.7-2.2-1.1-4.5-1.6-6.8-1.6zm0 8.3c4.6 0 8.3 3.7 8.3 8.3s-3.7 8.3-8.3 8.3-8.3-3.7-8.3-8.3 3.7-8.3 8.3-8.3zm53.1.1c4.6 0 8.3 3.7 8.3 8.3s-3.7 8.3-8.3 8.3-8.3-3.7-8.3-8.3 3.8-8.3 8.3-8.3z" transform="matrix(.1012 .01315 .01315 -.1012 117.01 590.63)"/><path class="st16" d="M4148.1-1929.9c-8.4-.2-16.1 6.9-16.6 15.3-.8 8.2 5.5 16.3 13.6 17.6 4.6 1 9.2-.7 13.2-2.8 11.4-5 25.1-4.3 36 1.5 7.5 3.7 17.3.5 21.3-6.8 4.2-7 2.2-16.8-4.5-21.6-5.2-4-12.7-4.3-18.3-1.1-11.8 5.9-26.4 5.5-38-.7-2-.8-4.4-1.4-6.7-1.4z" transform="matrix(.1012 .01315 .01315 -.1012 121.44 597.42)"/><path class="st17" d="M8022-4005.2c0 9.4-7.6 17-17 17s-17-7.6-17-17 7.6-17 17-17c9.3 0 17 7.6 17 17z" transform="matrix(.04921 .0064 .0064 -.04921 153.11 597.986)"/><path class="st18" d="M4156.4-1913.2c0 4.6-3.7 8.3-8.3 8.3s-8.3-3.7-8.3-8.3 3.7-8.3 8.3-8.3 8.3 3.7 8.3 8.3z" transform="matrix(.1012 .01315 .01315 -.1012 121.44 597.42)"/><path class="st15" d="M4159.9-1990.2c-8.4-.2-16.1 6.9-16.6 15.3-.8 8.2 5.5 16.3 13.6 17.6 4.6 1 9.2-.7 13.2-2.8 11.4-5 25.1-4.3 36 1.6 7.5 3.7 17.4.5 21.4-6.8 4.2-7 2.2-16.8-4.5-21.5-5.2-4-12.7-4.3-18.3-1.1-11.8 5.9-26.4 5.5-38-.7-2.1-1.1-4.4-1.6-6.8-1.6zm0 8.3c4.6 0 8.3 3.7 8.3 8.3s-3.7 8.3-8.3 8.3c-4.6 0-8.3-3.7-8.3-8.3s3.7-8.3 8.3-8.3zm53.2 0c4.6 0 8.3 3.7 8.3 8.3s-3.7 8.3-8.3 8.3-8.3-3.7-8.3-8.3 3.7-8.3 8.3-8.3z" transform="matrix(.1012 .01315 .01315 -.1012 104.95 589.13)"/><path class="st16" d="M4161.7-1929.8c-8.4-.2-16.1 6.9-16.6 15.3-.8 8.2 5.5 16.3 13.6 17.6 4.6 1 9.2-.7 13.2-2.8 11.4-5 25.1-4.3 36 1.5 7.5 3.7 17.3.5 21.3-6.8 4.2-7 2.2-16.8-4.5-21.6-5.2-4-12.7-4.3-18.3-1.1-11.8 5.9-26.4 5.5-38-.7-2.1-.9-4.4-1.4-6.7-1.4z" transform="matrix(.1012 .01315 .01315 -.1012 109.38 595.92)"/><path class="st17" d="M8049.9-4005c0 9.4-7.6 17-17 17s-17-7.6-17-17 7.6-17 17-17c9.3-.1 17 7.6 17 17z" transform="matrix(.04921 .0064 .0064 -.04921 141.05 596.486)"/><path class="st18" d="M4170-1913.2c0 4.6-3.7 8.3-8.3 8.3-4.6 0-8.3-3.7-8.3-8.3s3.7-8.3 8.3-8.3c4.5 0 8.3 3.8 8.3 8.3z" transform="matrix(.1012 .01315 .01315 -.1012 109.38 595.92)"/><path class="st16" d="M3263.1-1409.3c-8.4-.2-16.1 6.9-16.6 15.3-.8 8.2 5.5 16.3 13.6 17.6 4.6 1 9.2-.7 13.2-2.8 11.4-5 25.1-4.3 36 1.5 7.5 3.7 17.3.5 21.3-6.8 4.2-7 2.2-16.8-4.5-21.6-5.2-4-12.7-4.3-18.3-1.1-11.8 5.9-26.4 5.5-38-.7-2-.8-4.3-1.4-6.7-1.4z" transform="matrix(.13906 .03735 .02764 -.09825 76.487 582.7)"/><path class="st17" d="M6202.2-2934.6c0 9.4-7.6 17-17 17s-17-7.6-17-17 7.6-17 17-17 17 7.6 17 17z" transform="matrix(.06762 .01816 .01344 -.04778 120.336 590.833)"/><path class="st18" d="M3271.5-1392.6c0 4.6-3.7 8.3-8.3 8.3-4.6 0-8.3-3.7-8.3-8.3 0-4.6 3.7-8.3 8.3-8.3 4.5 0 8.3 3.7 8.3 8.3z" transform="matrix(.13906 .03735 .02764 -.09825 76.487 582.7)"/><path class="st19" d="M382 742.6l80.6 98.9"/><path d="M684.2 866.3l148.4-39.2" fill="none" stroke="#999"/><path class="st4" d="M-447 1111.7l13-5.4 1.4 1.7-13.6 7-.8-3.3z" transform="rotate(5.7 16150.369 17045.093) scale(1.98361)"/><path d="M673.166 593.4l-1.54-6.533s-26.37.557-27.633 3.222-2.603 8.113 3.338 8.506c6.138.414 25.184-4.662 25.835-5.195h0z" fill="#ac9d93" stroke="#916f6f" stroke-width=".698"/><path d="M724.749 617.432s-18.25-41.854-20.828-41.854c-2.579 0-5.752 3.174-6.348 4.364-.396 1.19 19.836 40.267 21.622 41.854s6.149-4.166 5.554-4.364z" fill="#b3b3b3" stroke="#666" stroke-width="1.523"/><path class="st23" d="M-434.2 1164.7s-21.8 18.7-44.3 23.4-31.1 4.4-34.8 3.9c-3.2-1.3-5.3-1.5-5.3-1.5l1.1-4.9s2.7 2.6 6.3 3.3c3.6.7 27.6-1.4 45.5-8.5 18-7.1 31-20.1 31-20.1l1.8 3.9-1.3.5z" transform="translate(1589.4 -1640.5) scale(1.9836)"/><path d="M563.482 703.123l-1.19 18.845-7.34-.992.397-17.654c5.356-.794 4.563.396 8.133-.199h0z" fill="#ac9d93" stroke="#000" stroke-width="1.523"/><path class="st23" d="M-521.4 1185.5s-9.6-2.6-14.8 6c-5.2 8.6-28.4 61.5-28.4 61.5-4.2.8-5.5-1.8-4.8-2.5 6.3-7.7 23.6-52 24.1-52.9s4.8-8.9 9.5-11.9 12.8-4.4 14.5-4.2c1.7.2-1.6 1.2-.1 4z" transform="translate(1589.4 -1640.5) scale(1.9836)"/><path d="M737.444 681.7s-35.308 29.755-44.036 43.838c-8.926 14.084-24.597 46.416-29.357 69.228-7.935 42.845-16.861 84.898-61.69 87.873-27.572-.793-97.395-15.274-99.775-15.274s-32.531-7.537-32.531-7.537c-.397-1.984 1.785-5.356 2.181-8.53.397-2.182 7.141 2.579 11.109 2.579s35.903 6.15 41.259 6.546 55.937 12.298 76.17 10.315c16.067-1.587 39.87-7.141 48.4-40.07 14.282-69.425 26.58-110.089 79.145-152.34.397-6.545 2.976-8.53 2.976-8.53l6.149 11.903z" fill="#1a1a1a" stroke="#000" stroke-width="1.609"/><path d="M488.899 826.9s28.564 3.769 57.92 7.538c14.68 1.983 29.556 3.769 40.863 5.157a553.88 553.88 0 0014.282 1.785c3.57.397 6.15.794 6.546.794h.397c14.877 4.959 24.398 15.075 27.572 26.778 3.173 11.505 1.388 24.597-2.58 32.531-3.371 6.745-10.115 11.902-16.463 15.076-6.348 3.174-25.39 3.174-25.39 3.174s1.984-2.778 4.76-4.761c12.894-.397 25.787-5.95 31.738-16.067 3.769-6.546 5.951-17.654 3.174-27.572-2.777-9.918-10.513-19.241-24.2-23.804h0c-.992 0-2.975-.198-6.348-.595a553.88 553.88 0 01-14.281-1.785c-11.505-1.388-26.382-3.372-40.863-5.157-29.357-3.769-69.624-9.521-69.624-9.521l1.785-4.364 10.712.793z" fill="#333" stroke="#000" stroke-width="1.371"/><path class="st23" d="M-423.7 1174.8s-17.9 15.5-20.9 19.6-15.5 20.6-14.9 42.3c.6 21.7 2.2 32.4 19.6 57.7 1 1.4-.3 3.3-1 3.6-.7.3-1.4-.3-2.2-3.3-14-20.5-18.6-29.7-18.7-58.4-.1-20.9 11.6-39.4 14.9-43.5 3.3-4.1 14.5-14.2 18.2-17.5 1.5-1.3 2.3-2.1 3.7-2.6.7-.2 1.6 1.9 1.3 2.1z" transform="translate(1589.4 -1640.5) scale(1.9836)"/><path d="M-381.4 1241.9c0 1 .9 1.8 2 1.8s2-.8 2-1.8-.9-1.8-2-1.8-2 .8-2 1.8z" fill="#ac9d93" stroke="#000" transform="translate(1589.4 -1640.5) scale(1.9836)"/><path d="M-539.7 1162.8s12.4.3 18.8.3c1.9 0 4.1 2.2 4 4.1-.5 9.5-1.9 38.9-1.9 38.9l-2.4-.2s.8-26.7 1.1-38.6c0-.9-1-1.9-1.9-1.9-6.3-.2-18-.5-18-.5l.3-2.1z" fill="#272725" stroke="#000" transform="translate(1589.4 -1640.5) scale(1.9836)"/><path class="st29" d="M-134.5 1640.7c-3.2-1.5-6.1-2.5-9.6-2.6-.2 0-.5.3-.7.4-.2.1 2.7.7 5.6 1.6 4.9 1.6 4.5 2 4.5 2s1.9 1.8 1.9 1.4c0-.5-.5-2.2-1.7-2.8z" transform="scale(-1.52318 1.52318) rotate(-7.662 -9317.124 2788.296)"/><path class="st30" d="M-141.9 1633.7l.1 16.5 5.6.1-.1-16.4-5.6-.2z" transform="scale(-1.52318 1.52318) rotate(-7.662 -9317.124 2788.296)"/><path class="st31" d="M-144.8 1638.7l.2 1.4 11.5-.8-.5-1.5-11.2.9z" transform="scale(-1.52318 1.52318) rotate(-7.662 -9317.124 2788.296)"/><path class="st32" d="M-144.7 1642.8l.2 1.5 11.4-.9-.5-1.5-11.1.9z" transform="scale(-1.52318 1.52318) rotate(-7.662 -9317.124 2788.296)"/><path class="st33" d="M-144.8 1646.6l.2 1.4 11.4-.9-.5-1.5-11.1 1z" transform="scale(-1.52318 1.52318) rotate(-7.662 -9317.124 2788.296)"/><path d="M515.28 629.135s14.68 14.282 24.002 16.266c12.497 2.777 37.689-6.348 37.689-6.348l-1.984 4.364" fill="none" stroke="#666" stroke-width="5.157"/><path class="st29" d="M-139.2 1640.8c-3.2-1.5-6.1-2.5-9.6-2.6-.2 0-.5.3-.7.4-.2.1 2.7.7 5.6 1.6 4.9 1.6 4.5 2 4.5 2s1.9 1.8 1.9 1.4c0-.5-.5-2.2-1.7-2.8z" transform="scale(-1.52318 1.52318) rotate(-7.662 -9346.803 2481.757)"/><path class="st30" d="M-146.6 1633.9l.1 16.5 5.6.1-.1-16.4-5.6-.2z" transform="scale(-1.52318 1.52318) rotate(-7.662 -9346.803 2481.757)"/><path class="st31" d="M-149.5 1638.8l.2 1.4 11.5-.8-.5-1.5-11.2.9z" transform="scale(-1.52318 1.52318) rotate(-7.662 -9346.803 2481.757)"/><path class="st32" d="M-149.3 1642.9l.2 1.5 11.4-.9-.5-1.5-11.1.9z" transform="scale(-1.52318 1.52318) rotate(-7.662 -9346.803 2481.757)"/><path class="st33" d="M-149.5 1646.7l.2 1.4 11.4-.9-.5-1.5-11.1 1z" transform="scale(-1.52318 1.52318) rotate(-7.662 -9346.803 2481.757)"/><path d="M597.6 637.268s-7.538-2.182-11.108-.794c-7.538 2.777-.794 16.861-17.257 16.861-7.935 0-17.456-10.91-17.456-10.91s-47.805-7.736-47.21-13.885c.595-6.546 6.348-2.975 15.274-.595 16.86 4.76 21.621 4.562 32.53 2.38 10.91-1.983 32.334-4.165 38.483-1.388 5.752 2.578 8.728 8.926 6.744 8.33h0z" fill="#483737" stroke="#483737" stroke-width="1.523"/><path d="M695.788 582.917c-14.083 1.19-10.91-1.983-24.993-.992l-8.331-4.363s19.24-5.951 41.259-2.976c9.52 6.943 4.76 5.554-7.935 8.331h0z" fill="#b3b3b3" stroke="#666" stroke-width="1.718"/><path d="M673.175 581.727l-2.38-7.34s-29.953 3.571-31.143 6.745-1.983 9.72 4.761 9.323c6.943 0 28.167-7.934 28.762-8.728h0z" fill="#ac9d93" stroke="#000" stroke-width=".799"/><path d="M-437.5 1152.4l3-1.5 9.7 19.9-2.9 1.7-.7-1.5-.9-.2-5.3-10.7s-.2-2.2-.4-2.9c-.9-1.4-1.6-3.3-2.5-4.8h0z" fill="#191b17" stroke="#000" transform="translate(1589.4 -1640.5) scale(1.9836)"/><path d="M-444.6 1116.8s23.3 40.5 29.3 52.6c.6 1.2 2.8.2 4.2-.1 1.7-.4 3.4-1 4.7-2 1.1-.9 2.5-3.4 2.5-3.4s-6.3 3.4-9.5 2.7c-.9-.2-2.1-1.9-2.1-1.9l-6.9-12.5-.9-.7-13.5-24.3-.9-.5-5.9-10.3-1 .4z" fill="#f9f9f9" stroke="#ccc" transform="translate(1589.4 -1640.5) scale(1.9836)"/><path d="M-435.4 1138l1.4-.8s-.3-.8-.5-1.1c-.2-.3 2.2-1.6 2.4-1.4.5.7 1.1 1.7 1.5 2.6.2.4-2.2 1.8-2.4 1.4-.1-.3-.6-.9-.6-.9l-1.4.9-.4-.7z" fill="#b3b3b3" stroke="#999" transform="translate(1589.4 -1640.5) scale(1.9836)"/><path d="M-437.9 1153.7l4.6-2.3-4.5-7.2-1.4-.2-.8-2.1 1.3-1-1-1.5 4.2-2 16.6 31.1-4.7 3.1-1-.1-4.5 3.4s-.4.2-.3-.3c.6-.7 1.3-1.4 1.3-1.4l-1.2-1.7 2.8-1.8-6.9-13.5-2.7 1.4-1.8-3.9z" fill="#212121" stroke="#000" transform="translate(1589.4 -1640.5) scale(1.9836)"/><path d="M-423.5 1171.7l.6 1.2 38.6 66.8s1.9 1.5 1.6 2.7c-.6 2.9 3.2 3.6 4.9 2.9 1.5-.6 2.8-5.5-1-5.8-1-.1-1.2-1.9-1.2-1.9s-29.6-55.7-36.9-68.9c-.4-.7-2.3-.2-2.3-.2l-4.3 3.2z" fill="#1a1a1a" stroke="#333" transform="translate(1589.4 -1640.5) scale(1.9836)"/><path class="st43" d="M-547.4 1157.3l9.9.6-.2 1.4-9.3-.3-.4-1.7z" transform="translate(1589.4 -1640.5) scale(1.9836)"/><path class="st43" d="M-543.4 1159.2l.5 3.4 32.2.6v-1.5l-30.3-.5-.4-2.2-2 .2z" transform="translate(1589.4 -1640.5) scale(1.9836)"/><path d="M707.69 574.983c-2.976-.595-5.158 6.149-7.538 7.736-3.57 2.579-5.554 3.174-9.918 5.157-18.249 8.331-44.036 13.687-44.036 13.687l4.364 4.364c18.448-6.15 35.11-11.108 51.97-16.464l7.538-5.157c.198-.199.198-8.926-2.38-9.323h0z" fill="#e6e6e6" stroke="#666"/><path d="M-444.4 1117.1l1.5-.8.5 1.1-1.6.7-.4-1z" fill="#4d4d4d" stroke="gray" transform="translate(1589.4 -1640.5) scale(1.9836)"/><path d="M703.326 586.488c0 .793-.595 1.388-1.389 1.388s-1.388-.595-1.388-1.388.595-1.389 1.388-1.389 1.389.595 1.389 1.389z" fill="#4d4d4d" stroke="gray" stroke-width=".992"/><path class="st19" d="M367.2 754.2l95.3 90.4"/><path class="st47" d="M477.8 853.2l115.5 20.2-.7 4.3-118.2-21.6z"/><path d="M602.816 874.03c3.778-.472 11.217-.354 15.232-6.258.945-1.417 4.487 9.683 4.487 9.683-7.439-.827-10.981 4.25-14.524 7.085-2.007-5.078-3.896-8.148-5.195-10.51h0z" fill="#4d4d4d" stroke="#666"/><path class="st49" d="M312.8 306.8c-3.2.4-9.5.3-12.9 5.3-.8 1.2-3.8-8.2-3.8-8.2 6.3.7 9.3-3.6 12.3-6 1.7 4.3 3.3 6.9 4.4 8.9z" transform="rotate(180 486.085 618.15) scale(1.1808)"/><path class="st49" d="M307.6 300.7c-1.9-2.5-5-8.1-11.1-8.5-1.5-.1 5.2-7.4 5.2-7.4 2.6 5.8 7.7 6.2 11.4 7.6-2.8 3.7-4.4 6.4-5.5 8.3z" transform="rotate(180 486.085 618.15) scale(1.1808)"/><path class="st49" d="M310.3 293.2c1.2-3 4.5-8.4 1.8-13.9-.6-1.3 9 .8 9 .8-3.7 5.1-1.5 9.8-.9 13.7-4.6-.6-7.7-.6-9.9-.6zm13 4.6c1.9 2.5 5 8.1 11.1 8.5 1.5.1-5.2 7.4-5.2 7.4-2.6-5.8-7.7-6.2-11.4-7.6 2.9-3.7 4.4-6.4 5.5-8.3z" transform="rotate(180 486.085 618.15) scale(1.1808)"/><path class="st49" d="M320.7 305.3c-1.2 3-4.5 8.4-1.8 13.9.6 1.3-9-.8-9-.8 3.7-5.1 1.5-9.8.9-13.7 4.5.6 7.6.6 9.9.6z" transform="rotate(180 486.085 618.15) scale(1.1808)"/><path d="M596.558 891.86c-3.779.473-11.218.355-15.233 6.259-.944 1.417-4.487-9.683-4.487-9.683 7.44.827 10.982-4.25 14.524-7.084 2.007 5.077 3.897 8.147 5.196 10.509h0z" fill="#333" stroke="#666"/><path class="st51" d="M316.6 275.6h-.2c-.2.8-.5 1.3-.8 1.6-.6.5-1.3.6-1.3.6s-.4.1-1-.1c-.5-.2-1.1-.6-1.3-1.8 0-.1-1.1.1-1.1.2 0 1.1-.4 1.8-.7 2.1-.4.4-.8.5-.8.5s-.4.2-1 .1-1.2-.4-1.7-1.4c-.1-.1-1 .3-1 .4.3 1.1.1 1.8-.2 2.2-.3.4-.7.6-.7.6s-.4.3-.9.3-1.3-.1-2-1c-.1-.1-.9.6-.9.6.5 1 .5 1.7.3 2.2-.2.5-.5.8-.5.8s-.2.2-.5.4c-.5.3-1.3.5-2.5-.4-.1-.1-.8.8-.7.8.8.8.9 1.6.8 2.1s-.3.9-.3.9-.2.4-.6.7c-.4.3-1.2.5-2.2 0-.1-.1-.6.9-.5 1 .9.6 1.2 1.3 1.3 1.9.1.5-.1.9-.1.9s-.1.4-.5.8-1 .7-2.2.5c-.1 0-.4 1-.3 1 1.1.4 1.5 1 1.7 1.5.2.5.1.9.1.9s0 .5-.2.9-.8 1-2 1c-.1 0-.1.3-.1.6s0 .5.1.5c1.1.2 1.7.7 2 1.1.3.4.3.9.3.9s.1.4 0 1c-.2.5-.6 1.1-1.7 1.4-.1 0 .1 1.1.2 1 1.1-.1 1.8.3 2.2.6s.5.8.5.8.2.4.2.9-.3 1.2-1.4 1.8c-.1.1.4 1 .5 1 1.1-.4 1.8-.2 2.2.1s.7.6.7.6.3.4.4.9c.1.5 0 1.2-.9 2-.1.1.6.9.7.9 1.1-.7 2-.5 2.5-.3.3.2.6.3.6.3s.4.2.6.7c.2.5.3 1.2-.4 2.2-.1.1.8.8.9.7.8-.8 1.5-1 2-.9.5 0 .9.2.9.2s.4.2.8.6.5 1.1.1 2.2c-.1.1 1 .6 1 .5.6-1 1.3-1.3 1.8-1.4.5-.1.9.1.9.1s.5.1.9.4c.4.3.8 1 .6 2.2 0 .2 1 .3 1.1.2.4-1.1.9-1.5 1.4-1.7.5-.2.9-.2.9-.2s.7-.1 1.3.4c.4.3.7.8.8 1.8 0 .2 1.1.1 1.1 0 .1-1.1.6-1.7 1-2 .4-.3.8-.4.8-.4s.4-.2 1 0c.5.1 1.2.5 1.5 1.6 0 .1 1.1-.2 1-.3-.2-1.1.1-1.8.5-2.2s.7-.6.7-.6.4-.2.9-.2 1.3.2 1.9 1.3c.1.1 1-.4 1-.5-.4-1-.3-1.8 0-2.2.2-.5.6-.7.6-.7s.3-.3.9-.5c.5-.1 1.2 0 2.1.8.1.1.9-.7.8-.7-.1-.2-.3-.4-.3-.6-.4-.8-.3-1.4-.2-1.8.1-.4.3-.7.3-.7s.3-.4.7-.6 1.2-.3 2.2.3c.1.1.7-.8.6-.9-.9-.7-1-1.5-1-2s.2-.9.2-.9.2-.5.6-.8 1.1-.6 2.2-.2c.1 0 .5-.9.4-1-1-.5-1.4-1.2-1.5-1.7-.1-.5 0-.9 0-.9s0-.5.4-.9c.3-.4.9-.8 2.1-.7.2 0 .3-1.1.2-1.1-1.1-.3-1.6-.8-1.8-1.3-.2-.5-.2-.9-.2-.9s-.1-.5.2-1c.2-.5.7-1.1 1.9-1.2.2 0 0-1.1-.1-1.1-1.1 0-1.7-.4-2.1-.8s-.4-.8-.4-.8-.2-.4-.1-1c.1-.5.5-1.2 1.6-1.6.1-.1-.3-1-.4-1-1.1.2-1.8 0-2.2-.4-.4-.3-.6-.7-.6-.7s-.2-.4-.3-.9c0-.5.2-1.3 1.1-1.9.1-.1-.5-1-.6-.9-1 .5-1.8.4-2.2.2-.5-.2-.7-.6-.7-.6s-.3-.2-.4-.6c-.2-.4-.2-1 .2-1.7.1-.2.3-.4.5-.6.1-.1-.7-.8-.8-.8-.9.7-1.6.8-2.2.7s-.8-.3-.8-.3-.4-.2-.7-.7c-.3-.5-.4-1.2.1-2.2.1-.1-.9-.7-.9-.6-.7.9-1.4 1.1-1.9 1.2-.5 0-.9-.2-.9-.2s-.5-.1-.8-.5c-.4-.4-.7-1.1-.4-2.2 0-.1-1-.4-1-.3-.5 1-1.1 1.4-1.6 1.6-.5.2-.9.1-.9.1s-.4 0-.9-.3c-.4-.3-.9-.9-.9-2.1-.8-.4-1.3-.4-1.6-.4zm-1 4.7c10.5 0 19.1 8.6 19.1 19.1 0 10.5-8.5 19.1-19.1 19.1-10.5 0-19.1-8.6-19.1-19.1 0-10.6 8.5-19.1 19.1-19.1z" transform="rotate(180 486.085 618.15) scale(1.1808)"/><path d="M589.473 882.887c0-5.668 4.605-10.273 10.273-10.273 5.668 0 10.273 4.605 10.273 10.273s-4.605 10.273-10.273 10.273c-5.786 0-10.273-4.606-10.273-10.273z" fill="#333" stroke="#4d4d4d" stroke-width=".59"/><path d="M472.3 850.4l-1.1-4.5-15.9-6.6-1.2 3.2 11.2 4.6.8 3-.8 1.8-2.6 1.7-11-4-1 3.3 4.4 2.8c6.1 3.4 4.9 2.2 9.2 4.1l5.9.4 2.1-9.8z" fill="#333" stroke="#000"/><path class="st54" d="M466.4 849.2c0 2.6-2.1 4.8-4.7 4.8s-4.7-2.1-4.7-4.8c0-2.6 2.1-4.8 4.7-4.8s4.7 2.2 4.7 4.8z"/><path class="st55" d="M461.6 845.3l-3.3 2v3.9l3.3 2 3.3-2v-3.9l-3.3-2zm0 1.6c1.3 0 2.3 1 2.3 2.3s-1 2.3-2.3 2.3-2.3-1-2.3-2.3 1.1-2.3 2.3-2.3z"/><path d="M749.8 663.1l5.4-2.2-2.5-5.1 4.7-2.2 8.5 16.5-4.7 2.2-2.5-3.8-4.1 2.8-4.8-8.2z" fill="#1a1a1c" stroke="#000"/><path class="st54" d="M841.2 824.1c0 2.6-2.1 4.8-4.7 4.8s-4.7-2.1-4.7-4.8c0-2.6 2.1-4.8 4.7-4.8s4.7 2.1 4.7 4.8z"/><path class="st55" d="M836.5 820.2l-3.3 2v3.9l3.3 2 3.3-2v-3.9l-3.3-2zm0 1.6c1.3 0 2.3 1 2.3 2.3 0 1.3-1 2.3-2.3 2.3-1.3 0-2.3-1-2.3-2.3 0-1.3 1-2.3 2.3-2.3z"/><path class="st15" d="M-3534.3 1689.4c-8.4-.2-16.1 6.9-16.6 15.3-.8 8.2 5.5 16.3 13.6 17.6 4.6 1 9.2-.7 13.2-2.8 11.4-5 25.1-4.3 36 1.6 7.5 3.7 17.4.5 21.4-6.8 4.2-7 2.2-16.8-4.5-21.5-5.2-4-12.7-4.3-18.3-1.1-11.8 5.9-26.4 5.5-38-.7-2.2-1.1-4.5-1.6-6.8-1.6zm0 8.3c4.6 0 8.3 3.7 8.3 8.3 0 4.6-3.7 8.3-8.3 8.3s-8.3-3.7-8.3-8.3c-.1-4.6 3.7-8.3 8.3-8.3zm53.1 0c4.6 0 8.3 3.7 8.3 8.3s-3.7 8.3-8.3 8.3c-4.6 0-8.3-3.7-8.3-8.3s3.7-8.3 8.3-8.3z" transform="matrix(-.09884 -.02541 -.02541 .09884 254.11 642.4)"/><path class="st16" d="M-3578.3 1631.3c-8.4-.2-16.1 6.9-16.6 15.3-.8 8.2 5.5 16.3 13.6 17.6 4.6 1 9.2-.7 13.2-2.8 11.4-5 25.1-4.3 36 1.5 7.5 3.7 17.3.5 21.3-6.8 4.2-7 2.2-16.8-4.5-21.6-5.2-4-12.7-4.3-18.3-1.1-11.8 5.9-26.4 5.5-38-.7-2-.9-4.4-1.4-6.7-1.4z" transform="matrix(-.09803 -.02837 -.02837 .09803 250.8 636.3)"/><path class="st17" d="M-7866.2 3317.8c0 9.4-7.6 17-17 17s-17-7.6-17-17 7.6-17 17-17 17 7.6 17 17z" transform="matrix(-.04767 -.0138 -.0138 .04767 219.582 630.93)"/><path class="st18" d="M-3570 1648c0 4.6-3.7 8.3-8.3 8.3-4.6 0-8.3-3.7-8.3-8.3s3.7-8.3 8.3-8.3c4.6-.1 8.3 3.7 8.3 8.3z" transform="matrix(-.09803 -.02837 -.02837 .09803 250.8 636.3)"/><path class="st15" d="M-3520.6 1689.1c-8.4-.2-16.1 6.9-16.6 15.3-.8 8.2 5.5 16.3 13.6 17.6 4.6 1 9.2-.7 13.2-2.8 11.4-5 25.1-4.3 36 1.6 7.5 3.7 17.4.5 21.4-6.8 4.2-7 2.2-16.8-4.5-21.5-5.2-4-12.7-4.3-18.3-1.1-11.8 5.9-26.4 5.5-38-.7-2.1-1.1-4.5-1.6-6.8-1.6zm0 8.3c4.6 0 8.3 3.7 8.3 8.3s-3.7 8.3-8.3 8.3c-4.6 0-8.3-3.7-8.3-8.3s3.7-8.3 8.3-8.3zm53.1 0c4.6 0 8.3 3.7 8.3 8.3s-3.7 8.3-8.3 8.3-8.3-3.7-8.3-8.3 3.8-8.3 8.3-8.3z" transform="matrix(-.09884 -.02541 -.02541 .09884 265.95 645.72)"/><path class="st16" d="M-3564.6 1631.4c-8.4-.2-16.1 6.9-16.6 15.3-.8 8.2 5.5 16.3 13.6 17.6 4.6 1 9.2-.7 13.2-2.8 11.4-5 25.1-4.3 36 1.5 7.5 3.7 17.3.5 21.3-6.8 4.2-7 2.2-16.8-4.5-21.6-5.2-4-12.7-4.3-18.3-1.1-11.8 5.9-26.4 5.5-38-.7-2-.8-4.3-1.4-6.7-1.4z" transform="matrix(-.09803 -.02837 -.02837 .09803 262.65 639.62)"/><path class="st17" d="M-7837.9 3318.1c0 9.4-7.6 17-17 17s-17-7.6-17-17 7.6-17 17-17c9.3-.1 17 7.6 17 17z" transform="matrix(-.04767 -.0138 -.0138 .04767 231.432 634.25)"/><path class="st18" d="M-3556.3 1648.1c0 4.6-3.7 8.3-8.3 8.3-4.6 0-8.3-3.7-8.3-8.3 0-4.6 3.7-8.3 8.3-8.3 4.6 0 8.3 3.7 8.3 8.3z" transform="matrix(-.09803 -.02837 -.02837 .09803 262.65 639.62)"/><path class="st15" d="M-3506.8 1688.9c-8.4-.2-16.1 6.9-16.6 15.3-.8 8.2 5.5 16.3 13.6 17.6 4.6 1 9.2-.7 13.2-2.8 11.4-5 25.1-4.3 36 1.6 7.5 3.7 17.4.5 21.4-6.8 4.2-7 2.2-16.8-4.5-21.5-5.2-4-12.7-4.3-18.3-1.1-11.8 5.9-26.4 5.5-38-.7-2.1-1.1-4.4-1.6-6.8-1.6zm0 8.3c4.6 0 8.3 3.7 8.3 8.3 0 4.6-3.7 8.3-8.3 8.3-4.6 0-8.3-3.7-8.3-8.3 0-4.6 3.8-8.3 8.3-8.3zm53.2 0c4.6 0 8.3 3.7 8.3 8.3s-3.7 8.3-8.3 8.3-8.3-3.7-8.3-8.3 3.7-8.3 8.3-8.3z" transform="matrix(-.09884 -.02541 -.02541 .09884 277.94 649)"/><path class="st16" d="M-3550.7 1631.6c-8.4-.2-16.1 6.9-16.6 15.3-.8 8.2 5.5 16.3 13.6 17.6 4.6 1 9.2-.7 13.2-2.8 11.4-5 25.1-4.3 36 1.5 7.5 3.7 17.3.5 21.3-6.8 4.2-7 2.2-16.8-4.5-21.6-5.2-4-12.7-4.3-18.3-1.1-11.8 5.9-26.4 5.5-38-.7-2-.8-4.4-1.4-6.7-1.4z" transform="matrix(-.09803 -.02837 -.02837 .09803 274.64 642.9)"/><path class="st17" d="M-7809.4 3318.5c0 9.4-7.6 17-17 17s-17-7.6-17-17 7.6-17 17-17 17 7.6 17 17z" transform="matrix(-.04767 -.0138 -.0138 .04767 243.422 637.53)"/><path class="st18" d="M-3542.4 1648.3c0 4.6-3.7 8.3-8.3 8.3s-8.3-3.7-8.3-8.3 3.7-8.3 8.3-8.3 8.3 3.7 8.3 8.3z" transform="matrix(-.09803 -.02837 -.02837 .09803 274.64 642.9)"/><path class="st15" d="M-3493.1 1688.6c-8.4-.2-16.1 6.9-16.6 15.3-.8 8.2 5.5 16.3 13.6 17.6 4.6 1 9.2-.7 13.2-2.8 11.4-5 25.1-4.3 36 1.6 7.5 3.7 17.4.5 21.4-6.8 4.2-7 2.2-16.8-4.5-21.5-5.2-4-12.7-4.3-18.3-1.1-11.8 5.9-26.4 5.5-38-.7-2.1-1.1-4.4-1.6-6.8-1.6zm0 8.3c4.6 0 8.3 3.7 8.3 8.3s-3.7 8.3-8.3 8.3c-4.6 0-8.3-3.7-8.3-8.3s3.7-8.3 8.3-8.3zm53.2.1c4.6 0 8.3 3.7 8.3 8.3s-3.7 8.3-8.3 8.3-8.3-3.7-8.3-8.3 3.7-8.3 8.3-8.3z" transform="matrix(-.09884 -.02541 -.02541 .09884 289.77 652.27)"/><path class="st16" d="M-3537 1631.8c-8.4-.2-16.1 6.9-16.6 15.3-.8 8.2 5.5 16.3 13.6 17.6 4.6 1 9.2-.7 13.2-2.8 11.4-5 25.1-4.3 36 1.5 7.5 3.7 17.3.5 21.3-6.8 4.2-7 2.2-16.8-4.5-21.6-5.2-4-12.7-4.3-18.3-1.1-11.8 5.9-26.4 5.5-38-.7-2-.9-4.4-1.4-6.7-1.4z" transform="matrix(-.09803 -.02837 -.02837 .09803 286.46 646.17)"/><path class="st17" d="M-7781.3 3318.8c0 9.4-7.6 17-17 17s-17-7.6-17-17 7.6-17 17-17 17 7.6 17 17z" transform="matrix(-.04767 -.0138 -.0138 .04767 255.242 640.8)"/><path class="st18" d="M-3528.7 1648.4c0 4.6-3.7 8.3-8.3 8.3-4.6 0-8.3-3.7-8.3-8.3s3.7-8.3 8.3-8.3c4.6 0 8.3 3.7 8.3 8.3z" transform="matrix(-.09803 -.02837 -.02837 .09803 286.46 646.17)"/><path class="st15" d="M-2619.8 3010.6c-8.4-.2-16.1 6.9-16.6 15.3-.8 8.2 5.5 16.3 13.6 17.6 4.6 1 9.2-.7 13.2-2.8 11.4-5 25.1-4.3 36 1.6 7.5 3.7 17.4.5 21.4-6.8 4.2-7 2.2-16.8-4.5-21.5-5.2-4-12.7-4.3-18.3-1.1-11.8 5.9-26.4 5.5-38-.7-2.1-1.1-4.4-1.6-6.8-1.6zm0 8.3c4.6 0 8.3 3.7 8.3 8.3 0 4.6-3.7 8.3-8.3 8.3-4.6 0-8.3-3.7-8.3-8.3 0-4.6 3.7-8.3 8.3-8.3zm53.2.1c4.6 0 8.3 3.7 8.3 8.3 0 4.6-3.7 8.3-8.3 8.3s-8.3-3.7-8.3-8.3c0-4.6 3.7-8.3 8.3-8.3z" transform="matrix(-.10122 .01301 .01301 .10122 298.53 636.75)"/><path class="st16" d="M-3015.2 2591.8c-8.4-.2-16.1 6.9-16.6 15.3-.8 8.2 5.5 16.3 13.6 17.6 4.6 1 9.2-.7 13.2-2.8 11.4-5 25.1-4.3 36 1.5 7.5 3.7 17.3.5 21.3-6.8 4.2-7 2.2-16.8-4.5-21.6-5.2-4-12.7-4.3-18.3-1.1-11.8 5.9-26.4 5.5-38-.7-2-.9-4.3-1.5-6.7-1.4z" transform="matrix(-.10203 -.00218 -.00218 .10203 295.76 637.06)"/><path class="st17" d="M-6708.2 5292.8c0 9.4-7.6 17-17 17s-17-7.6-17-17 7.6-17 17-17 17 7.6 17 17z" transform="matrix(-.04962 -.00106 -.00106 .04962 264.212 639.906)"/><path class="st18" d="M-3006.9 2608.4c0 4.6-3.7 8.3-8.3 8.3s-8.3-3.7-8.3-8.3c0-4.6 3.7-8.3 8.3-8.3s8.3 3.7 8.3 8.3z" transform="matrix(-.10203 -.00218 -.00218 .10203 295.76 637.06)"/><path class="st15" d="M-1401.2 3876c-8.4-.2-16.1 6.9-16.6 15.3-.8 8.2 5.5 16.3 13.6 17.6 4.6 1 9.2-.7 13.2-2.8 11.4-5 25.1-4.3 36 1.6 7.5 3.7 17.4.5 21.4-6.8 4.2-7 2.2-16.8-4.5-21.5-5.2-4-12.7-4.3-18.3-1.1-11.8 5.9-26.4 5.5-38-.7-2.1-1.1-4.5-1.6-6.8-1.6zm0 8.3c4.6 0 8.3 3.7 8.3 8.3s-3.7 8.3-8.3 8.3-8.3-3.7-8.3-8.3 3.7-8.3 8.3-8.3zm53.1 0c4.6 0 8.3 3.7 8.3 8.3s-3.7 8.3-8.3 8.3c-4.6 0-8.3-3.7-8.3-8.3s3.8-8.3 8.3-8.3z" transform="matrix(-.09025 .04765 .04765 .09025 301.36 621.24)"/><path class="st16" d="M-2404.1 3264.5c-8.4-.2-16.1 6.9-16.6 15.3-.8 8.2 5.5 16.3 13.6 17.6 4.6 1 9.2-.7 13.2-2.8 11.4-5 25.1-4.3 36 1.5 7.5 3.7 17.3.5 21.3-6.8 4.2-7 2.2-16.8-4.5-21.6-5.2-4-12.7-4.3-18.3-1.1-11.8 5.9-26.4 5.5-38-.7-2-.9-4.3-1.4-6.7-1.4z" transform="matrix(-.10013 .01974 .01974 .10013 303.03 627.2)"/><path class="st17" d="M-5451.5 6676.2c0 9.4-7.6 17-17 17s-17-7.6-17-17 7.6-17 17-17 17 7.6 17 17z" transform="matrix(-.0487 .0096 .0096 .0487 272.824 636.742)"/><path class="st18" d="M-2395.7 3281.1c0 4.6-3.7 8.3-8.3 8.3-4.6 0-8.3-3.7-8.3-8.3 0-4.6 3.7-8.3 8.3-8.3 4.5 0 8.3 3.7 8.3 8.3z" transform="matrix(-.10013 .01974 .01974 .10013 303.03 627.2)"/><path class="st15" d="M367.6 4275.1c-8.4-.2-16.1 6.9-16.6 15.3-.8 8.2 5.5 16.3 13.6 17.6 4.6 1 9.2-.7 13.2-2.8 11.4-5 25.1-4.3 36 1.6 7.5 3.7 17.4.5 21.4-6.8 4.2-7 2.2-16.8-4.5-21.5-5.2-4-12.7-4.3-18.3-1.1-11.8 5.9-26.4 5.5-38-.7-2.1-1.1-4.4-1.6-6.8-1.6zm0 8.3c4.6 0 8.3 3.7 8.3 8.3s-3.7 8.3-8.3 8.3c-4.6 0-8.3-3.7-8.3-8.3s3.8-8.3 8.3-8.3zm53.2 0c4.6 0 8.3 3.7 8.3 8.3s-3.7 8.3-8.3 8.3c-4.6 0-8.3-3.7-8.3-8.3s3.7-8.3 8.3-8.3z" transform="matrix(-.06169 .08129 .08129 .06169 295.12 603.43)"/><path class="st16" d="M-824.3 4154.4c-8.4-.2-16.1 6.9-16.6 15.3-.8 8.2 5.5 16.3 13.6 17.6 4.6 1 9.2-.7 13.2-2.8 11.4-5 25.1-4.3 36 1.5 7.5 3.7 17.3.5 21.3-6.8 4.2-7 2.2-16.8-4.5-21.6-5.2-4-12.7-4.3-18.3-1.1-11.8 5.9-26.4 5.5-38-.7-2-.9-4.4-1.4-6.7-1.4z" transform="matrix(-.08243 .06016 .06016 .08243 299.15 608.13)"/><path class="st17" d="M-2203 8506.2c0 9.4-7.6 17-17 17s-17-7.6-17-17 7.6-17 17-17 17 7.6 17 17z" transform="matrix(-.04009 .02926 .02926 .04009 275.798 629.53)"/><path class="st18" d="M-816 4171.1c0 4.6-3.7 8.3-8.3 8.3s-8.3-3.7-8.3-8.3 3.7-8.3 8.3-8.3 8.3 3.7 8.3 8.3z" transform="matrix(-.08243 .06016 .06016 .08243 299.15 608.13)"/><path class="st15" d="M1899.4 3991.3c-8.4-.2-16.1 6.9-16.6 15.3-.8 8.2 5.5 16.3 13.6 17.6 4.6 1 9.2-.7 13.2-2.8 11.4-5 25.1-4.3 36 1.6 7.5 3.7 17.4.5 21.4-6.8 4.2-7 2.2-16.8-4.5-21.5-5.2-4-12.7-4.3-18.3-1.1-11.8 5.9-26.4 5.5-38-.7-2.1-1.1-4.4-1.6-6.8-1.6zm0 8.3c4.6 0 8.3 3.7 8.3 8.3 0 4.6-3.7 8.3-8.3 8.3s-8.3-3.7-8.3-8.3c0-4.6 3.7-8.3 8.3-8.3zm53.2.1c4.6 0 8.3 3.7 8.3 8.3 0 4.6-3.7 8.3-8.3 8.3s-8.3-3.7-8.3-8.3c0-4.6 3.7-8.3 8.3-8.3z" transform="matrix(-.0278 .09819 .09819 .0278 285.12 590.38)"/><path class="st16" d="M724.4 4322.2c-8.4-.2-16.1 6.9-16.6 15.3-.8 8.2 5.5 16.3 13.6 17.6 4.6 1 9.2-.7 13.2-2.8 11.4-5 25.1-4.3 36 1.5 7.5 3.7 17.3.5 21.3-6.8 4.2-7 2.2-16.8-4.5-21.6-5.2-4-12.7-4.3-18.3-1.1-11.8 5.9-26.4 5.5-38-.7-2-.9-4.4-1.4-6.7-1.4z" transform="matrix(-.05482 .08608 .08608 .05482 290.58 593.29)"/><path class="st17" d="M981.7 8851.2c0 9.4-7.6 17-17 17s-17-7.6-17-17 7.6-17 17-17c9.3 0 17 7.6 17 17z" transform="matrix(-.02666 .04186 .04186 .02666 276.638 621.734)"/><path class="st18" d="M732.7 4338.8c0 4.6-3.7 8.3-8.3 8.3-4.6 0-8.3-3.7-8.3-8.3s3.7-8.3 8.3-8.3c4.6 0 8.3 3.8 8.3 8.3z" transform="matrix(-.05482 .08608 .08608 .05482 290.58 593.29)"/><path class="st15" d="M3434.1 2957.4c-8.4-.2-16.1 6.9-16.6 15.3-.8 8.2 5.5 16.3 13.6 17.6 4.6 1 9.2-.7 13.2-2.8 11.4-5 25.1-4.3 36 1.6 7.5 3.7 17.4.5 21.4-6.8 4.2-7 2.2-16.8-4.5-21.5-5.2-4-12.7-4.3-18.3-1.1-11.8 5.9-26.4 5.5-38-.7-2.1-1.1-4.4-1.6-6.8-1.6zm0 8.3c4.6 0 8.3 3.7 8.3 8.3s-3.7 8.3-8.3 8.3c-4.6 0-8.3-3.7-8.3-8.3s3.7-8.3 8.3-8.3zm53.2 0c4.6 0 8.3 3.7 8.3 8.3s-3.7 8.3-8.3 8.3-8.3-3.7-8.3-8.3 3.7-8.3 8.3-8.3z" transform="matrix(.01719 .1006 .1006 -.01719 267.6 583.3)"/><path class="st16" d="M2491.1 3772.7c-8.4-.2-16.1 6.9-16.6 15.3-.8 8.2 5.5 16.3 13.6 17.6 4.6 1 9.2-.7 13.2-2.8 11.4-5 25.1-4.3 36 1.5 7.5 3.7 17.3.5 21.3-6.8 4.2-7 2.2-16.8-4.5-21.6-5.2-4-12.7-4.3-18.3-1.1-11.8 5.9-26.4 5.5-38-.7-2-.9-4.4-1.4-6.7-1.4z" transform="matrix(-.01242 .1013 .1013 .01242 273.78 583.57)"/><path class="st17" d="M4614.6 7721.1c0 9.4-7.6 17-17 17s-17-7.6-17-17 7.6-17 17-17 17 7.6 17 17z" transform="matrix(-.00604 .04926 .04926 .00604 273.442 615.246)"/><path class="st18" d="M2499.4 3789.3c0 4.6-3.7 8.3-8.3 8.3-4.6 0-8.3-3.7-8.3-8.3 0-4.6 3.7-8.3 8.3-8.3 4.6 0 8.3 3.7 8.3 8.3z" transform="matrix(-.01242 .1013 .1013 .01242 273.78 583.57)"/><path class="st15" d="M4228.8 1757.3c-8.4-.2-16.1 6.9-16.6 15.3-.8 8.2 5.5 16.3 13.6 17.6 4.6 1 9.2-.7 13.2-2.8 11.4-5 25.1-4.3 36 1.6 7.5 3.7 17.4.5 21.4-6.8 4.2-7 2.2-16.8-4.5-21.5-5.2-4-12.7-4.3-18.3-1.1-11.8 5.9-26.4 5.5-38-.7-2.1-1.1-4.4-1.6-6.8-1.6zm0 8.3c4.6 0 8.3 3.7 8.3 8.3 0 4.6-3.7 8.3-8.3 8.3-4.6 0-8.3-3.7-8.3-8.3 0-4.6 3.7-8.3 8.3-8.3zm53.2 0c4.6 0 8.3 3.7 8.3 8.3s-3.7 8.3-8.3 8.3-8.3-3.7-8.3-8.3 3.7-8.3 8.3-8.3z" transform="matrix(.05015 .08888 .08888 -.05015 252.31 580.57)"/><path class="st16" d="M3596.8 2851.2c-8.4-.2-16.1 6.9-16.6 15.3-.8 8.2 5.5 16.3 13.6 17.6 4.6 1 9.2-.7 13.2-2.8 11.4-5 25.1-4.3 36 1.5 7.5 3.7 17.3.5 21.3-6.8 4.2-7 2.2-16.8-4.5-21.6-5.2-4-12.7-4.3-18.3-1.1-11.8 5.9-26.4 5.5-38-.7-2-.9-4.3-1.4-6.7-1.4z" transform="matrix(.02252 .09954 .09954 -.02252 258.23 578.74)"/><path class="st17" d="M6888.4 5826.3c0 9.4-7.6 17-17 17s-17-7.6-17-17 7.6-17 17-17 17 7.6 17 17z" transform="matrix(.01095 .0484 .0484 -.01095 268.61 608.668)"/><path class="st18" d="M3605.2 2867.8c0 4.6-3.7 8.3-8.3 8.3-4.6 0-8.3-3.7-8.3-8.3 0-4.6 3.7-8.3 8.3-8.3 4.5 0 8.3 3.7 8.3 8.3z" transform="matrix(.02252 .09954 .09954 -.02252 258.23 578.74)"/><path class="st15" d="M4577.5-10.6c-8.4-.2-16.1 6.9-16.6 15.3-.8 8.2 5.5 16.3 13.6 17.6 4.6 1 9.2-.7 13.2-2.8 11.4-5 25.1-4.3 36 1.6 7.5 3.7 17.4.5 21.4-6.8 4.2-7 2.2-16.8-4.5-21.5-5.2-4-12.7-4.3-18.3-1.1-11.8 5.9-26.4 5.5-38-.7-2.1-1.1-4.5-1.6-6.8-1.6zm0 8.3c4.6 0 8.3 3.7 8.3 8.3s-3.7 8.3-8.3 8.3c-4.6 0-8.3-3.7-8.3-8.3s3.7-8.3 8.3-8.3zm53.2 0c4.6 0 8.3 3.7 8.3 8.3s-3.7 8.3-8.3 8.3-8.3-3.7-8.3-8.3 3.7-8.3 8.3-8.3z" transform="matrix(.08282 .05963 .05963 -.08282 234.22 587.41)"/><path class="st16" d="M4529.1 828.8c-8.4-.2-16.1 6.9-16.6 15.3-.8 8.2 5.5 16.3 13.6 17.6 4.6 1 9.2-.7 13.2-2.8 11.4-5 25.1-4.3 36 1.5 7.5 3.7 17.3.5 21.3-6.8 4.2-7 2.2-16.8-4.5-21.6-5.2-4-12.7-4.3-18.3-1.1-11.8 5.9-26.4 5.5-38-.7-2-.9-4.4-1.4-6.7-1.4z" transform="matrix(.07033 .07395 .07395 -.07033 237.23 588.04)"/><path class="st17" d="M8805.4 1667.6c0 9.4-7.6 17-17 17s-17-7.6-17-17 7.6-17 17-17c9.3 0 17 7.6 17 17z" transform="matrix(.0342 .03596 .03596 -.0342 261.475 608.426)"/><path class="st18" d="M4537.4 845.5c0 4.6-3.7 8.3-8.3 8.3s-8.3-3.7-8.3-8.3c0-4.6 3.7-8.3 8.3-8.3s8.3 3.7 8.3 8.3z" transform="matrix(.07033 .07395 .07395 -.07033 237.23 588.04)"/><path class="st15" d="M4228.1-1599.2c-8.4-.2-16.1 6.9-16.6 15.3-.8 8.2 5.5 16.3 13.6 17.6 4.6 1 9.2-.7 13.2-2.8 11.4-5 25.1-4.3 36 1.6 7.5 3.7 17.4.5 21.4-6.8 4.2-7 2.2-16.8-4.5-21.5-5.2-4-12.7-4.3-18.3-1.1-11.8 5.9-26.4 5.5-38-.7-2.2-1.1-4.5-1.6-6.8-1.6zm0 8.3c4.6 0 8.3 3.7 8.3 8.3 0 4.6-3.7 8.3-8.3 8.3-4.6 0-8.3-3.7-8.3-8.3-.1-4.6 3.7-8.3 8.3-8.3zm53.1 0c4.6 0 8.3 3.7 8.3 8.3 0 4.6-3.7 8.3-8.3 8.3s-8.3-3.7-8.3-8.3c0-4.6 3.7-8.3 8.3-8.3z" transform="matrix(.09928 .02362 .02362 -.09928 220.97 599.69)"/><path class="st16" d="M4438.4-960.8c-8.4-.2-16.1 6.9-16.6 15.3-.8 8.2 5.5 16.3 13.6 17.6 4.6 1 9.2-.7 13.2-2.8 11.4-5 25.1-4.3 36 1.5 7.5 3.7 17.3.5 21.3-6.8 4.2-7 2.2-16.8-4.5-21.6-5.2-4-12.7-4.3-18.3-1.1-11.8 5.9-26.4 5.5-38-.7-2-.9-4.3-1.4-6.7-1.4z" transform="matrix(.09478 .03784 .03784 -.09478 223.62 600.42)"/><path class="st17" d="M8619-2012.5c0 9.4-7.6 17-17 17s-17-7.6-17-17 7.6-17 17-17 17 7.6 17 17z" transform="matrix(.0461 .0184 .0184 -.0461 254.162 608.824)"/><path class="st18" d="M4446.7-944.2c0 4.6-3.7 8.3-8.3 8.3-4.6 0-8.3-3.7-8.3-8.3s3.7-8.3 8.3-8.3c4.6 0 8.3 3.7 8.3 8.3z" transform="matrix(.09478 .03784 .03784 -.09478 223.62 600.42)"/><path class="st15" d="M4114.3-1861.4c-8.4-.2-16.1 6.9-16.6 15.3-.8 8.2 5.5 16.3 13.6 17.6 4.6 1 9.2-.7 13.2-2.8 11.4-5 25.1-4.3 36 1.6 7.5 3.7 17.4.5 21.4-6.8 4.2-7 2.2-16.8-4.5-21.5-5.2-4-12.7-4.3-18.3-1.1-11.8 5.9-26.4 5.5-38-.7-2.1-1.1-4.4-1.6-6.8-1.6zm0 8.3c4.6 0 8.3 3.7 8.3 8.3 0 4.6-3.7 8.3-8.3 8.3-4.6 0-8.3-3.7-8.3-8.3 0-4.6 3.8-8.3 8.3-8.3zm53.2 0c4.6 0 8.3 3.7 8.3 8.3s-3.7 8.3-8.3 8.3c-4.6 0-8.3-3.7-8.3-8.3s3.7-8.3 8.3-8.3z" transform="matrix(.10068 .01669 .01669 -.10068 208.77 600.39)"/><path class="st16" d="M4116.1-1801c-8.4-.2-16.1 6.9-16.6 15.3-.8 8.2 5.5 16.3 13.6 17.6 4.6 1 9.2-.7 13.2-2.8 11.4-5 25.1-4.3 36 1.5 7.5 3.7 17.3.5 21.3-6.8 4.2-7 2.2-16.8-4.5-21.6-5.2-4-12.7-4.3-18.3-1.1-11.8 5.9-26.4 5.5-38-.7-2-.9-4.4-1.4-6.7-1.4z" transform="matrix(.10068 .01669 .01669 -.10068 212.95 607.33)"/><path class="st17" d="M7956.1-3740.2c0 9.4-7.6 17-17 17s-17-7.6-17-17 7.6-17 17-17 17 7.6 17 17z" transform="matrix(.04896 .00812 .00812 -.04896 244.582 609.006)"/><path class="st18" d="M4124.4-1784.4c0 4.6-3.7 8.3-8.3 8.3s-8.3-3.7-8.3-8.3c0-4.6 3.7-8.3 8.3-8.3s8.3 3.7 8.3 8.3z" transform="matrix(.10068 .01669 .01669 -.10068 212.95 607.33)"/><path class="st15" d="M4056.6-1991.4c-8.4-.2-16.1 6.9-16.6 15.3-.8 8.2 5.5 16.3 13.6 17.6 4.6 1 9.2-.7 13.2-2.8 11.4-5 25.1-4.3 36 1.6 7.5 3.7 17.4.5 21.4-6.8 4.2-7 2.2-16.8-4.5-21.5-5.2-4-12.7-4.3-18.3-1.1-11.8 5.9-26.4 5.5-38-.7-2.1-1.1-4.4-1.6-6.8-1.6zm0 8.3c4.6 0 8.3 3.7 8.3 8.3 0 4.6-3.7 8.3-8.3 8.3-4.6 0-8.3-3.7-8.3-8.3 0-4.6 3.7-8.3 8.3-8.3zm53.2.1c4.6 0 8.3 3.7 8.3 8.3 0 4.6-3.7 8.3-8.3 8.3s-8.3-3.7-8.3-8.3c0-4.6 3.7-8.3 8.3-8.3z" transform="matrix(.1012 .01315 .01315 -.1012 196.89 600.01)"/><path class="st16" d="M4058.3-1931c-8.4-.2-16.1 6.9-16.6 15.3-.8 8.2 5.5 16.3 13.6 17.6 4.6 1 9.2-.7 13.2-2.8 11.4-5 25.1-4.3 36 1.5 7.5 3.7 17.3.5 21.3-6.8 4.2-7 2.2-16.8-4.5-21.6-5.2-4-12.7-4.3-18.3-1.1-11.8 5.9-26.4 5.5-38-.7-2-.8-4.3-1.4-6.7-1.4z" transform="matrix(.1012 .01315 .01315 -.1012 201.32 606.8)"/><path class="st17" d="M7837.4-4007.4c0 9.4-7.6 17-17 17s-17-7.6-17-17 7.6-17 17-17c9.4-.1 17 7.5 17 17z" transform="matrix(.04921 .0064 .0064 -.04921 232.99 607.366)"/><path class="st18" d="M4066.7-1914.3c0 4.6-3.7 8.3-8.3 8.3-4.6 0-8.3-3.7-8.3-8.3 0-4.6 3.7-8.3 8.3-8.3 4.5 0 8.3 3.7 8.3 8.3z" transform="matrix(.1012 .01315 .01315 -.1012 201.32 606.8)"/><path class="st15" d="M4070.3-1991.4c-8.4-.2-16.1 6.9-16.6 15.3-.8 8.2 5.5 16.3 13.6 17.6 4.6 1 9.2-.7 13.2-2.8 11.4-5 25.1-4.3 36 1.6 7.5 3.7 17.4.5 21.4-6.8 4.2-7 2.2-16.8-4.5-21.5-5.2-4-12.7-4.3-18.3-1.1-11.8 5.9-26.4 5.5-38-.7-2.1-1.1-4.5-1.6-6.8-1.6zm0 8.3c4.6 0 8.3 3.7 8.3 8.3s-3.7 8.3-8.3 8.3c-4.6 0-8.3-3.7-8.3-8.3s3.7-8.3 8.3-8.3zm53.2.1c4.6 0 8.3 3.7 8.3 8.3s-3.7 8.3-8.3 8.3-8.3-3.7-8.3-8.3 3.7-8.3 8.3-8.3z" transform="matrix(.1012 .01315 .01315 -.1012 184.74 598.44)"/><path class="st16" d="M4072-1930.9c-8.4-.2-16.1 6.9-16.6 15.3-.8 8.2 5.5 16.3 13.6 17.6 4.6 1 9.2-.7 13.2-2.8 11.4-5 25.1-4.3 36 1.5 7.5 3.7 17.3.5 21.3-6.8 4.2-7 2.2-16.8-4.5-21.6-5.2-4-12.7-4.3-18.3-1.1-11.8 5.9-26.4 5.5-38-.7-2-.9-4.3-1.4-6.7-1.4z" transform="matrix(.1012 .01315 .01315 -.1012 189.16 605.23)"/><path class="st17" d="M7865.6-4007.4c0 9.4-7.6 17-17 17s-17-7.6-17-17 7.6-17 17-17c9.3-.1 17 7.6 17 17z" transform="matrix(.04921 .0064 .0064 -.04921 220.83 605.796)"/><path class="st18" d="M4080.3-1914.3c0 4.6-3.7 8.3-8.3 8.3s-8.3-3.7-8.3-8.3 3.7-8.3 8.3-8.3 8.3 3.7 8.3 8.3z" transform="matrix(.1012 .01315 .01315 -.1012 189.16 605.23)"/><path class="st15" d="M4132-2277c-8.4-.2-16.1 6.9-16.6 15.3-.8 8.2 5.5 16.3 13.6 17.6 4.6 1 9.2-.7 13.2-2.8 11.4-5 25.1-4.3 36 1.6 7.5 3.7 17.4.5 21.4-6.8 4.2-7 2.2-16.8-4.5-21.5-5.2-4-12.7-4.3-18.3-1.1-11.8 5.9-26.4 5.5-38-.7-2.1-1.1-4.4-1.6-6.8-1.6zm0 8.3c4.6 0 8.3 3.7 8.3 8.3s-3.7 8.3-8.3 8.3c-4.6 0-8.3-3.7-8.3-8.3s3.7-8.3 8.3-8.3zm53.2.1c4.6 0 8.3 3.7 8.3 8.3 0 4.6-3.7 8.3-8.3 8.3s-8.3-3.7-8.3-8.3c0-4.6 3.7-8.3 8.3-8.3z" transform="matrix(.0918 .00459 -.00105 -.10222 179.79 601.41)"/><path class="st16" d="M4133.8-2216.6c-8.4-.2-16.1 6.9-16.6 15.3-.8 8.2 5.5 16.3 13.6 17.6 4.6 1 9.2-.7 13.2-2.8 11.4-5 25.1-4.3 36 1.5 7.5 3.7 17.3.5 21.3-6.8 4.2-7 2.2-16.8-4.5-21.6-5.2-4-12.7-4.3-18.3-1.1-11.8 5.9-26.4 5.5-38-.7-2.1-.9-4.4-1.4-6.7-1.4z" transform="matrix(.0918 .00459 -.00105 -.10222 184.58 607.81)"/><path class="st17" d="M7992.5-4594.8c0 9.4-7.6 17-17 17s-17-7.6-17-17 7.6-17 17-17 17 7.6 17 17z" transform="matrix(.04464 .00223 -.00051 -.04971 212.861 605.7)"/><path class="st18" d="M4142.1-2199.9c0 4.6-3.7 8.3-8.3 8.3-4.6 0-8.3-3.7-8.3-8.3 0-4.6 3.7-8.3 8.3-8.3 4.6-.1 8.3 3.7 8.3 8.3z" transform="matrix(.0918 .00459 -.00105 -.10222 184.58 607.81)"/><path d="M607.4 876.4s-4.4.9-6.9.7c-10.1-.4-9.1 12.3 1.3 11.1 4.5-.5 7.8-.9 7.8-.9.8-1.8 1.6-2.2 3.7-2.6 7.7-1.3 24.9-4.5 33.3-6.1 2-.4 3.6-3.4 3-5.3-.6-1.7-3.2-2.5-5-2.1-10.1 2.5-26.1 5.1-34.2 6.4-2.5.4-1.9-.7-3-1.2h0z" fill="gray" stroke="#666"/><path d="M648.215 865.765l4.888-4.608a1.294 1.294 0 011.872.055l4.154 4.406c.52.55.496 1.353-.055 1.873l-4.888 4.608c-.55.52-1.353.496-1.872-.055l-4.155-4.406a1.294 1.294 0 01.056-1.873m-17.617 16.349l4.888-4.608a1.294 1.294 0 011.873.055l4.154 4.406c.519.55.495 1.353-.056 1.872l-4.888 4.609a1.294 1.294 0 01-1.872-.055l-4.154-4.407c-.455-.481-.496-1.353.055-1.872" fill="#6c5353" stroke="#666" stroke-width=".454"/><path d="M633.296 885.942c-2.726-2.892.819-5.063 3.71-7.79 2.892-2.725 1.789-3.896 4.68-6.622 2.41-2.272 4.546-2.075 6.887-4.282 2.891-2.726 5.13-6.007 7.856-3.115 2.726 2.891-.616 5.002-3.439 7.663-2.616 2.467-2.404 4.347-4.68 6.623-1.72 1.622-3.994 1.555-6.886 4.281-2.685 2.532-5.401 6.133-8.128 3.242z" fill="#ececec" stroke="#666" stroke-width=".536"/><path d="M499.6 802.2c0-1.1-.9-1.9-1.9-1.9s-1.9.9-1.9 1.9c0 1.1.9 1.9 1.9 1.9s1.9-.8 1.9-1.9zm22.4.3c0-1.1.9-1.9 1.9-1.9s1.9.9 1.9 1.9-.9 1.9-1.9 1.9-1.9-.9-1.9-1.9z" transform="matrix(.68846 -.64907 -.64907 -.68846 813.95 1758.8)" fill="#999"/><path d="M646.515 873.48c.779.826.674 2.094-.083 2.808s-2.095.675-2.809-.082-.674-2.095.083-2.81 2.03-.743 2.809.084z" fill="#999" stroke="#666" stroke-width=".568"/><path class="st63" d="M539 637s10.3 6.8 16.2 8.3c7.2 1.9 14.9.7 22.4.7 14 0 33.8-3.5 42-1.1 1.8.5-2.1-3.4-3.8-4.1-7-2.9-15.1.5-22.6.9-8.6.5-17.2 2.7-25.7 2-9.8-.8-28.5-6.7-28.5-6.7z" opacity=".593"/><path class="st63" d="M516.2 724.5l-5.7 9.7-42.1 94.3 1 3.3 42.2-91.9 5.7-13.6zm210.5-42.7l-29.5 29.1-17.7 25.7-9.8 20.5-10.1 33.9-8.9 39.2-6 14.6-10.5 14.2 2.3 2.3 10.2-15.2 6.4-16.3 8.5-38.2 10-34.5 9.8-19.6 17.4-25.5 29.3-28.9z"/><path class="st47" d="M755.5 685.5c-.6.6.2 2.2-.6 2.5-.9.4-2.2-.5-2.8-1.3-.7-1.1-1-3.1 0-3.8 2.2-1.5 3.4-2.7 5.3-3.8 1.3-.8 3.7 0 3.7 0l24.1 44.5s-20.8-34.1-24.8-39.7c-.9-1.4-3.7.4-4.9 1.6z" opacity=".914"/><path class="st51" d="M784.4 721.1l-2.3 4.2 49.9 91.1.3-5.4z"/><path d="M824.1 800.5l-4.4-3.5-4.7 2.5 5.1 6.6 4-5.6z" fill="gray" stroke="gray"/><path d="M826 804c0 2.1-1.7 3.8-3.8 3.8-2.1 0-3.8-1.7-3.8-3.8s1.7-3.8 3.8-3.8c2.1 0 3.8 1.7 3.8 3.8z" fill="#b3b3b3"/><path fill="none" d="M386.2 1013.2h584.7v131.6H386.2z"/><text transform="translate(386.233 1112.406)" font-size="142.471" font-family="SnellRoundhand-Bold">Re-Cycle</text></svg>