<?xml version="1.0" encoding="utf-8"?>
<!-- Generator: Adobe Illustrator 22.1.0, SVG Export Plug-In . SVG Version: 6.00 Build 0)  -->
<svg version="1.1" id="Layer_1" xmlns="http://www.w3.org/2000/svg" xmlns:xlink="http://www.w3.org/1999/xlink" x="0px" y="0px"
	 viewBox="0 0 1920 1080" style="enable-background:new 0 0 1920 1080;" xml:space="preserve">
<style type="text/css">
	.st0{fill:#A7C9DB;stroke:#000000;stroke-miterlimit:10;}
	.st1{fill:#130924;stroke:#000000;stroke-miterlimit:10;}
	.st2{fill:#BAE2C5;}
	.st3{fill:#1A1A1A;}
	.st4{fill:none;stroke:#999999;stroke-width:0.5;}
	.st5{fill:#999999;stroke:#B3B3B3;stroke-width:3.61;stroke-linecap:round;stroke-linejoin:round;stroke-miterlimit:10;}
	.st6{fill:#999999;stroke:#B3B3B3;}
	.st7{fill:#666666;stroke:#C5A372;stroke-width:2.151000e-02;}
	.st8{fill:none;stroke:#C5A372;stroke-width:2.9242;}
	.st9{fill:#1F1A17;stroke:#000000;stroke-width:7.620000e-02;}
	.st10{fill:#EDEEF0;stroke:#000000;stroke-width:7.620000e-02;}
	.st11{fill:none;stroke:#C5A372;stroke-width:5.2706;}
	.st12{fill:none;stroke:#4D4D4D;stroke-width:5.2706;}
	.st13{fill:none;stroke:#B3B3B3;}
	.st14{fill:#333333;stroke:#999999;stroke-width:2.8284;}
	.st15{fill:none;stroke:#999999;stroke-width:4;}
	.st16{stroke:#666666;}
	.st17{fill:#4D4D4D;stroke:#000000;stroke-width:0.1;stroke-linejoin:bevel;}
	.st18{fill:#666666;stroke:#000000;stroke-width:0.1;stroke-linejoin:bevel;}
	.st19{fill:#333333;stroke:#000000;stroke-width:0.2056;stroke-linejoin:bevel;}
	.st20{fill:#333333;stroke:#000000;stroke-width:0.2385;stroke-linejoin:bevel;}
	.st21{fill:#666666;stroke:#999999;}
	.st22{fill:none;stroke:#999999;}
	.st23{fill:#AC9D93;stroke:#916F6F;stroke-width:0.3516;}
	.st24{fill:#B3B3B3;stroke:#666666;stroke-width:0.7679;}
	.st25{fill:#333333;stroke:#000000;stroke-width:0.7679;}
	.st26{fill:#AC9D93;stroke:#000000;stroke-width:0.7679;}
	.st27{fill:#1A1A1A;stroke:#000000;stroke-width:0.8115;}
	.st28{fill:#333333;stroke:#000000;stroke-width:0.6909;}
	.st29{fill:#AC9D93;stroke:#000000;}
	.st30{fill:#272725;stroke:#000000;}
	.st31{fill:#CCCCCC;stroke:#4D4D4D;stroke-width:0.5;}
	.st32{fill:#AC9D93;stroke:#000000;stroke-width:1.0384;}
	.st33{fill:#AC9D93;stroke:#000000;stroke-width:0.5379;}
	.st34{fill:#AC9D93;stroke:#000000;stroke-width:0.5519;}
	.st35{fill:#AC9D93;stroke:#000000;stroke-width:0.54;}
	.st36{fill:none;stroke:#666666;stroke-width:2.6;}
	.st37{fill:#483737;stroke:#483737;stroke-width:0.7679;}
	.st38{fill:#B3B3B3;stroke:#666666;stroke-width:0.8659;}
	.st39{fill:#AC9D93;stroke:#000000;stroke-width:0.4033;}
	.st40{fill:#191B17;stroke:#000000;}
	.st41{fill:#F9F9F9;stroke:#CCCCCC;}
	.st42{fill:#B3B3B3;stroke:#999999;}
	.st43{fill:#212121;stroke:#000000;}
	.st44{fill:#1A1A1A;stroke:#333333;}
	.st45{fill:#4D4D4D;stroke:#000000;}
	.st46{fill:#E6E6E6;stroke:#666666;stroke-width:0.5041;}
	.st47{fill:#4D4D4D;stroke:#808080;}
	.st48{fill:#4D4D4D;stroke:#808080;stroke-width:0.5;}
	.st49{fill:#4D4D4D;}
	.st50{fill:#4D4D4D;stroke:#666666;stroke-width:0.8469;}
	.st51{fill:#333333;stroke:#333333;stroke-width:0.8469;}
	.st52{fill:#333333;stroke:#666666;stroke-width:0.8469;}
	.st53{fill:#333333;}
	.st54{fill:#333333;stroke:#4D4D4D;stroke-width:0.5;}
	.st55{fill:#333333;stroke:#000000;}
	.st56{fill:#CCCCCC;stroke:#999999;stroke-width:0.8;}
	.st57{fill:#808080;stroke:#E6E6E6;stroke-width:0.4359;}
	.st58{fill:#1A1A1C;stroke:#000000;}
	.st59{fill:#808080;stroke:#666666;}
	.st60{fill:#6C5353;stroke:#666666;stroke-width:0.48;}
	.st61{fill:#ECECEC;stroke:#666666;stroke-width:0.5668;}
	.st62{fill:#999999;}
	.st63{fill:#999999;stroke:#666666;stroke-width:0.6;}
	.st64{opacity:0.5926;enable-background:new    ;}
	.st65{fill:#666666;}
	.st66{opacity:0.9136;enable-background:new    ;}
	.st67{fill:#808080;stroke:#808080;}
	.st68{fill:#B3B3B3;}
	.st69{fill:none;}
	.st70{font-family:'SnellRoundhand-Bold';}
	.st71{font-size:46.6834px;}
	.st72{font-family:'MicrosoftSansSerif';}
	.st73{font-size:74.3861px;}
	.st74{font-size:36px;}
	.st75{fill:#A7C9DB;stroke:#000000;stroke-width:4;stroke-miterlimit:10;}
	.st76{font-size:35px;}
	.st77{fill:#86A1B0;}
	.st78{fill:#86A1B0;stroke:#000000;stroke-miterlimit:10;}
</style>
<rect x="0" class="st0" width="1920" height="1080"/>
<rect x="93.3" y="122.2" class="st1" width="700" height="893"/>
<path class="st2" d="M596.9,647.1H280.1c-4.5,0-8.2-3.7-8.2-8.2v-186c0-4.5,3.7-8.2,8.2-8.2h316.8c4.5,0,8.2,3.7,8.2,8.2v186
	C605.1,643.4,601.4,647.1,596.9,647.1z"/>
<g>
	<ellipse class="st3" cx="500.1" cy="583.6" rx="41.5" ry="3.2"/>
	<ellipse class="st4" cx="500.1" cy="583.6" rx="41.5" ry="3.2"/>
</g>
<g>
	<ellipse class="st3" cx="376.5" cy="583.6" rx="41.5" ry="3.2"/>
	<ellipse class="st4" cx="376.5" cy="583.6" rx="41.5" ry="3.2"/>
</g>
<g transform="matrix(3.5433 0 0 3.5433 -330.61 93.072)">
	<g transform="matrix(1.0435 0 0 1.0435 12.62 -6.5478)">
		<g transform="matrix(1.1775 0 0 1.1775 -237.26 74.08)">
			<g transform="matrix(.02527 0 0 .02527 189.24 -77.969)">
				<path class="st5" d="M7776.8,5236.2l-164.9-391.1"/>
			</g>
			<g transform="matrix(.02527 0 0 .02527 189.24 -77.969)">
				<path class="st5" d="M7850.9,5202.8l-228.5-350.7"/>
			</g>
			<g transform="matrix(.02527 0 0 .02527 189.24 -77.969)">
				<path class="st5" d="M7924.6,5150L7661,4807.1"/>
			</g>
			<g transform="matrix(.02527 0 0 .02527 189.24 -77.969)">
				<path class="st5" d="M7605.2,4835l-315-280.5"/>
			</g>
			<g transform="matrix(.02527 0 0 .02527 189.24 -77.969)">
				<path class="st5" d="M7422.3,4441.2l234.6,360"/>
			</g>
			<g transform="matrix(.02527 0 0 .02527 189.24 -77.969)">
				<path class="st5" d="M7661,4807.1l-156.8-401.3"/>
			</g>
			<g transform="matrix(.02527 0 0 .02527 189.24 -77.969)">
				<path class="st5" d="M7584.6,4388.7l24.7,414.9"/>
			</g>
			<g transform="matrix(.02527 0 0 .02527 189.24 -77.969)">
				<path class="st5" d="M7670.6,4387.5l-62.4,417.8"/>
			</g>
			<g transform="matrix(.02527 0 0 .02527 189.24 -77.969)">
				<path class="st5" d="M7755,4402.9l-89.7,418.1"/>
			</g>
			<g transform="matrix(.02527 0 0 .02527 189.24 -77.969)">
				<path class="st5" d="M7836.1,4434.9l-171.3,394.9"/>
			</g>
			<g transform="matrix(.02527 0 0 .02527 189.24 -77.969)">
				<path class="st5" d="M7904.6,4479l-270.9,312.4"/>
			</g>
			<g transform="matrix(.02527 0 0 .02527 189.24 -77.969)">
				<path class="st5" d="M7967,4539.1l-345.8,255.2"/>
			</g>
			<g transform="matrix(.02527 0 0 .02527 189.24 -77.969)">
				<path class="st5" d="M8018.7,4614.3l-361.8,230"/>
			</g>
			<g transform="matrix(.02527 0 0 .02527 189.24 -77.969)">
				<path class="st5" d="M8050,4686.6L7652.8,4848"/>
			</g>
			<g transform="matrix(.02527 0 0 .02527 189.24 -77.969)">
				<path class="st5" d="M8068.7,4771.1l-417.8,25.3"/>
			</g>
			<g transform="matrix(.02527 0 0 .02527 189.24 -77.969)">
				<path class="st5" d="M8070.7,4855.6l-412.9-53.4"/>
			</g>
			<g transform="matrix(.02527 0 0 .02527 189.24 -77.969)">
				<path class="st5" d="M8055.3,4941.8l-414-88.3"/>
			</g>
			<g transform="matrix(.02527 0 0 .02527 189.24 -77.969)">
				<path class="st5" d="M8023.6,5022.3l-382.1-168.7"/>
			</g>
			<g transform="matrix(.02527 0 0 .02527 189.24 -77.969)">
				<path class="st5" d="M7978.3,5092.8l-314.2-278.7"/>
			</g>
			<g transform="matrix(.02527 0 0 .02527 189.24 -77.969)">
				<path class="st5" d="M7245.2,4624.8l389.1,166.7"/>
			</g>
			<g transform="matrix(.02527 0 0 .02527 189.24 -77.969)">
				<path class="st5" d="M7213.3,4707.8l412,85.1"/>
			</g>
			<g transform="matrix(.02527 0 0 .02527 189.24 -77.969)">
				<path class="st5" d="M7198.5,4798.7l419.5,51.1"/>
			</g>
			<g transform="matrix(.02527 0 0 .02527 189.24 -77.969)">
				<path class="st5" d="M7201.6,4880l433.2-25.9"/>
			</g>
			<g transform="matrix(.02527 0 0 .02527 189.24 -77.969)">
				<path class="st5" d="M7221.1,4963.6l392.3-164.3"/>
			</g>
			<g transform="matrix(.02527 0 0 .02527 189.24 -77.969)">
				<path class="st5" d="M7256.8,5042.3l346.4-224.2"/>
			</g>
			<g transform="matrix(.02527 0 0 .02527 189.24 -77.969)">
				<path class="st5" d="M7308.5,5113.7l330.7-259.9"/>
			</g>
			<g transform="matrix(.02527 0 0 .02527 189.24 -77.969)">
				<path class="st5" d="M7366.8,5168l282.5-317.6"/>
			</g>
			<g transform="matrix(.02527 0 0 .02527 189.24 -77.969)">
				<path class="st5" d="M7602.9,4827.4l-159.7,388.2"/>
			</g>
			<g transform="matrix(.02527 0 0 .02527 189.24 -77.969)">
				<path class="st5" d="M7606.4,4837.6l-84.8,407.4"/>
			</g>
			<g transform="matrix(.02527 0 0 .02527 189.24 -77.969)">
				<path class="st5" d="M7663.3,4834.4l-54.3,424.8"/>
			</g>
			<g transform="matrix(.02527 0 0 .02527 189.24 -77.969)">
				<path class="st5" d="M7684.5,5257.1l-19.2-430.6"/>
			</g>
			<g transform="matrix(.02527 0 0 .02527 189.24 -77.969)">
				<path class="st5" d="M7602.9,4825.7L7350,4491.5"/>
			</g>
			<path class="st6" d="M381.4,43.9c0-0.4,0.4-0.8,0.8-0.8s0.8,0.4,0.8,0.8c0,0.4-0.4,0.8-0.8,0.8C381.7,44.7,381.4,44.3,381.4,43.9
				 M382,43.9c0,0.1,0.1,0.2,0.2,0.2s0.2-0.1,0.2-0.2c0-0.1-0.1-0.2-0.2-0.2S382,43.8,382,43.9z"/>
		</g>
		<g>
			<g>
				<g transform="translate(-4.912 -58.816)">
					<path class="st7" d="M230.7,184.5c0-7.2-5.9-13.1-13.1-13.1c-7.2,0-13.1,5.9-13.1,13.1c0,7.2,5.9,13.1,13.1,13.1
						C224.8,197.6,230.7,191.8,230.7,184.5z M230.3,184.5c0-7-5.7-12.7-12.7-12.7c-7,0-12.7,5.7-12.7,12.7c0,7,5.7,12.7,12.7,12.7
						C224.6,197.2,230.3,191.5,230.3,184.5z"/>
					<path class="st8" d="M230.8,184.5c0,7.3-5.9,13.2-13.2,13.2c-7.3,0-13.2-5.9-13.2-13.2c0-7.3,5.9-13.2,13.2-13.2
						C224.9,171.3,230.8,177.3,230.8,184.5z"/>
				</g>
			</g>
		</g>
		<path class="st9" d="M213.5,125.8c0-0.5-0.4-0.8-0.8-0.8c-0.5,0-0.8,0.4-0.8,0.8s0.4,0.8,0.8,0.8S213.5,126.2,213.5,125.8"/>
		<path class="st10" d="M212.9,125.8c0-0.1-0.1-0.2-0.2-0.2c-0.1,0-0.2,0.1-0.2,0.2l0,0c0,0.1,0.1,0.2,0.2,0.2
			C212.8,125.9,212.9,125.9,212.9,125.8L212.9,125.8"/>
		<path class="st10" d="M212.2,125.3L212.2,125.3l0.1-0.2l0.2-0.1h0.1l0.1,0L212.2,125.3z"/>
		<path class="st10" d="M212.9,125.8c0-0.1-0.1-0.2-0.2-0.2c-0.1,0-0.2,0.1-0.2,0.2l0,0c0,0.1,0.1,0.2,0.2,0.2
			C212.8,125.9,212.9,125.9,212.9,125.8L212.9,125.8"/>
	</g>
	<g transform="matrix(.82329 0 0 .84123 -58.815 28.124)">
		<g transform="matrix(1.1775 0 0 1.1775 -237.26 74.08)">
			<g transform="matrix(.02527 0 0 .02527 189.24 -77.969)">
				<path class="st5" d="M11185.3,4959.3l-164.9-391.1"/>
			</g>
			<g transform="matrix(.02527 0 0 .02527 189.24 -77.969)">
				<path class="st5" d="M11259.3,4925.9l-228.5-350.7"/>
			</g>
			<g transform="matrix(.02527 0 0 .02527 189.24 -77.969)">
				<path class="st5" d="M11333.1,4873.1l-263.6-342.9"/>
			</g>
			<g transform="matrix(.02527 0 0 .02527 189.24 -77.969)">
				<path class="st5" d="M11013.7,4558l-315-280.5"/>
			</g>
			<g transform="matrix(.02527 0 0 .02527 189.24 -77.969)">
				<path class="st5" d="M10830.8,4164.3l234.6,360"/>
			</g>
			<g transform="matrix(.02527 0 0 .02527 189.24 -77.969)">
				<path class="st5" d="M11069.4,4530.1l-156.8-401.3"/>
			</g>
			<g transform="matrix(.02527 0 0 .02527 189.24 -77.969)">
				<path class="st5" d="M10993.1,4111.7l24.7,414.9"/>
			</g>
			<g transform="matrix(.02527 0 0 .02527 189.24 -77.969)">
				<path class="st5" d="M11079,4110.6l-62.4,417.8"/>
			</g>
			<g transform="matrix(.02527 0 0 .02527 189.24 -77.969)">
				<path class="st5" d="M11163.5,4126l-89.7,418.1"/>
			</g>
			<g transform="matrix(.02527 0 0 .02527 189.24 -77.969)">
				<path class="st5" d="M11244.5,4157.9l-171.3,394.9"/>
			</g>
			<g transform="matrix(.02527 0 0 .02527 189.24 -77.969)">
				<path class="st5" d="M11313,4202.1l-270.9,312.4"/>
			</g>
			<g transform="matrix(.02527 0 0 .02527 189.24 -77.969)">
				<path class="st5" d="M11375.5,4262.1l-345.8,255.2"/>
			</g>
			<g transform="matrix(.02527 0 0 .02527 189.24 -77.969)">
				<path class="st5" d="M11427.2,4337.3l-361.8,230"/>
			</g>
			<g transform="matrix(.02527 0 0 .02527 189.24 -77.969)">
				<path class="st5" d="M11458.5,4409.7l-397.2,161.4"/>
			</g>
			<g transform="matrix(.02527 0 0 .02527 189.24 -77.969)">
				<path class="st5" d="M11477.1,4494.1l-417.8,25.3"/>
			</g>
			<g transform="matrix(.02527 0 0 .02527 189.24 -77.969)">
				<path class="st5" d="M11479.1,4578.6l-412.9-53.4"/>
			</g>
			<g transform="matrix(.02527 0 0 .02527 189.24 -77.969)">
				<path class="st5" d="M11463.7,4664.9l-414-88.3"/>
			</g>
			<g transform="matrix(.02527 0 0 .02527 189.24 -77.969)">
				<path class="st5" d="M11432.1,4745.3l-382.1-168.7"/>
			</g>
			<g transform="matrix(.02527 0 0 .02527 189.24 -77.969)">
				<path class="st5" d="M11386.8,4815.9l-314.2-278.7"/>
			</g>
			<g transform="matrix(.02527 0 0 .02527 189.24 -77.969)">
				<path class="st5" d="M10653.7,4347.8l389.1,166.7"/>
			</g>
			<g transform="matrix(.02527 0 0 .02527 189.24 -77.969)">
				<path class="st5" d="M10621.7,4430.9l412,85.1"/>
			</g>
			<g transform="matrix(.02527 0 0 .02527 189.24 -77.969)">
				<path class="st5" d="M10606.9,4521.7l419.5,51.1"/>
			</g>
			<g transform="matrix(.02527 0 0 .02527 189.24 -77.969)">
				<path class="st5" d="M10610.1,4603l433.2-25.9"/>
			</g>
			<g transform="matrix(.02527 0 0 .02527 189.24 -77.969)">
				<path class="st5" d="M10629.6,4686.6l392.3-164.3"/>
			</g>
			<g transform="matrix(.02527 0 0 .02527 189.24 -77.969)">
				<path class="st5" d="M10665.3,4765.3l346.4-224.2"/>
			</g>
			<g transform="matrix(.02527 0 0 .02527 189.24 -77.969)">
				<path class="st5" d="M10716.9,4836.8l330.7-259.9"/>
			</g>
			<g transform="matrix(.02527 0 0 .02527 189.24 -77.969)">
				<path class="st5" d="M10775.3,4891.1l282.5-317.6"/>
			</g>
			<g transform="matrix(.02527 0 0 .02527 189.24 -77.969)">
				<path class="st5" d="M11011.4,4550.5l-159.7,388.2"/>
			</g>
			<g transform="matrix(.02527 0 0 .02527 189.24 -77.969)">
				<path class="st5" d="M11014.9,4560.7l-84.8,407.4"/>
			</g>
			<g transform="matrix(.02527 0 0 .02527 189.24 -77.969)">
				<path class="st5" d="M11071.8,4557.4l-54.3,424.8"/>
			</g>
			<g transform="matrix(.02527 0 0 .02527 189.24 -77.969)">
				<path class="st5" d="M11093,4980.2l-19.2-430.6"/>
			</g>
			<g transform="matrix(.02527 0 0 .02527 189.24 -77.969)">
				<path class="st5" d="M11011.4,4548.7l-252.9-334.2"/>
			</g>
			<path class="st6" d="M467.5,36.9c0-0.4,0.4-0.8,0.8-0.8s0.8,0.4,0.8,0.8c0,0.4-0.4,0.8-0.8,0.8C467.8,37.7,467.5,37.3,467.5,36.9
				 M468.1,36.9c0,0.1,0.1,0.2,0.2,0.2s0.2-0.1,0.2-0.2c0-0.1-0.1-0.2-0.2-0.2C468.2,36.8,468.1,36.8,468.1,36.9z"/>
		</g>
		<g>
			<g>
				<g>
					<path class="st11" d="M327.6,117.5c0,7.4-6,13.4-13.4,13.4c-7.4,0-13.4-6-13.4-13.4c0-7.4,6-13.4,13.4-13.4
						C321.6,104.1,327.6,110.1,327.6,117.5z"/>
					<path class="st12" d="M327,117.5c0,7.1-5.8,12.9-12.9,12.9s-12.9-5.8-12.9-12.9s5.8-12.9,12.9-12.9
						C321.3,104.6,327,110.3,327,117.5z"/>
				</g>
			</g>
		</g>
		<path class="st9" d="M315,117.5c0-0.5-0.4-0.8-0.8-0.8c-0.5,0-0.8,0.4-0.8,0.8s0.4,0.8,0.8,0.8C314.6,118.4,315,118,315,117.5"/>
		<path class="st10" d="M314.3,117.5c0-0.1-0.1-0.2-0.2-0.2s-0.2,0.1-0.2,0.2l0,0c0,0.1,0.1,0.2,0.2,0.2
			C314.2,117.7,314.3,117.7,314.3,117.5L314.3,117.5"/>
		<path class="st10" d="M313.6,117.1L313.6,117.1l0.1-0.2l0.2-0.1h0.1l0.1,0L313.6,117.1z"/>
		<path class="st10" d="M314.3,117.5c0-0.1-0.1-0.2-0.2-0.2s-0.2,0.1-0.2,0.2l0,0c0,0.1,0.1,0.2,0.2,0.2
			C314.2,117.7,314.3,117.7,314.3,117.5L314.3,117.5"/>
	</g>
</g>
<path class="st13" d="M447.8,530.2l50.3,2.8"/>
<g transform="matrix(.09601 0 0 .09601 39.798 444.27)">
	<path class="st14" d="M3515.7,1082.9c0-0.4-0.1-1.2-0.3-1.9c-1.2-4.8-6.4-7.1-11.1-5c-1.3,0.6-3,2.2-3.7,3.6
		c-0.3,0.6-0.7,1.1-0.8,1c-0.1,0-0.7-0.3-1.3-0.5c-0.8-0.3-1-0.5-1-0.7c0.1-0.2,0.3-1,0.4-1.8c1-4.9-2.8-9.3-7.9-9.3
		c-2,0-4.2,0.9-5.5,2.3l-0.6,0.6l-1.1-1c-0.6-0.5-1.1-1-1.1-1c0,0,0.3-0.5,0.7-1c1.2-1.7,1.5-2.6,1.5-4.8c0-1.9-0.1-2.2-0.6-3.2
		c-1.1-2.3-3.6-4.1-6.1-4.5c-1.4-0.3-3.5,0-4.6,0.6l-0.6,0.3l-0.7-1.5c-0.4-0.8-0.7-1.5-0.7-1.5c0.1,0,0.5-0.3,1-0.7
		c2.8-1.9,4.1-4.7,3.6-7.7c-0.7-4-4-6.9-8-6.9h-1.2l-0.1-1c-0.2-1.6-0.2-1.6,1-1.9c3.3-0.7,5.6-3,6.2-6.3c0.3-1.5-0.1-3.6-0.8-5.1
		c-0.9-1.9-3-3.7-4.8-4.1l-0.6-0.1l0.4-1.6c0.2-0.9,0.4-1.7,0.5-1.7s0.5,0,1,0.1c4.8,1.1,9.2-2.2,9.6-7.2c0.2-2.5-0.6-4.5-2.4-6.4
		l-0.9-1l1-1.5c0.5-0.8,1-1.5,1-1.5c0,0,0.5,0.3,1,0.6c4,2.7,9.2,1.2,11.5-3.2c0.9-1.8,1-3.9,0.4-6c-0.2-0.8-0.5-1.5-0.7-1.6
		c-0.4-0.2-0.2-0.5,1.2-1.4l1.4-1l0.4,0.6c1.6,2.3,3.6,3.5,5.9,3.7c2.5,0.2,4.8-0.7,6.5-2.6c1.6-1.7,2.1-3,2.2-5.4l0-1.9l1.4-0.4
		c0.8-0.2,1.5-0.4,1.6-0.4s0.3,0.4,0.5,1c1.3,5.1,6.6,7.4,11.4,5.1c2-1,3.8-3.3,4.2-5.3l0.1-0.7l1.7,0.2l1.7,0.2l0,2.1
		c0,2.9,0.8,4.7,2.8,6.2c3.5,2.8,9.1,2.2,11.5-1.3l0.6-0.9l1.5,0.8c0.8,0.5,1.5,0.9,1.5,0.9c0,0-0.2,0.7-0.6,1.5
		c-0.7,1.4-0.7,1.6-0.7,3.4c0,1.7,0.1,2.1,0.5,3.1c2,4.2,7,5.9,11.1,3.8l1.4-0.7l1.1,1.3l1.1,1.3l-1.2,1.1c-0.7,0.7-1.4,1.6-1.8,2.4
		c-0.6,1.1-0.6,1.4-0.6,3.3c0,1.9,0.1,2.2,0.7,3.4c1.7,3.5,5.6,5.3,9.4,4.4c0.4-0.1,0.5,0,1,1.7c0.3,1,0.5,1.8,0.4,1.9
		c-0.1,0.1-0.7,0.3-1.3,0.5c-4.9,1.6-6.7,7.4-3.7,12c1.1,1.6,3.7,3.3,5.2,3.3c0.6,0,0.7,0.3,0.5,2l-0.1,1.5l-1-0.1
		c-3.1-0.4-6.4,1.5-7.7,4.3c-1.9,3.9-0.5,8.5,3.2,10.7c0.3,0.2,0.3,0.3-0.2,1.2c-0.3,0.6-0.6,1-0.6,1.1c0,0-0.6-0.1-1.2-0.4
		c-0.9-0.4-1.6-0.5-2.9-0.5c-1.9,0-2.9,0.3-4.6,1.5c-1.7,1.2-3.2,4.2-3.2,6.5c0,1.5,0.7,3.6,1.5,4.7c0.4,0.5,0.7,1,0.7,1
		c0,0.1-0.5,0.5-1,1l-1,0.9l-1-1c-0.6-0.5-1.5-1.2-2.2-1.5c-1-0.5-1.4-0.6-3.1-0.6c-1.8,0-2.1,0.1-3.3,0.7c-2.7,1.3-4.5,3.9-4.6,6.8
		c0,1,0,2,0.2,2.6l0.3,1l-1.5,0.6l-1.5,0.6l-0.6-1.2c-0.8-1.7-2.2-3.1-3.7-3.8c-1.1-0.5-1.5-0.6-3.2-0.6c-1.8,0-2.1,0.1-3.3,0.7
		c-2.6,1.2-4.2,3.3-4.7,6.1l-0.3,1.4h-3L3515.7,1082.9L3515.7,1082.9z"/>
	<g transform="matrix(.99908 .04282 -.04282 .99908 64.684 -26.354)">
		<path class="st15" d="M3547,896l-1.8-4.6c-8.5,3.6-15.6-8-6.5-13.4"/>
		<path class="st15" d="M3538.2,878.1l-3.3-3.7c-6.7,6.4-17.4-2-10.7-10.3"/>
		<path class="st15" d="M3523.8,864.5l-4.4-2.3c-3.9,8.3-16.9,4.5-13.7-5.6"/>
		<path class="st15" d="M3505.4,857.1l-4.9-0.5c-0.5,9.2-14.1,10.4-14.8-0.2"/>
		<path class="st15" d="M3485.8,857l-4.8,1.4c2.9,8.7-9.3,14.8-13.9,5.2"/>
		<path class="st15" d="M3467.4,864.1l-3.9,3c5.8,7.1-3.4,17.2-11.1,9.9"/>
		<path class="st15" d="M3452.7,877.4l-2.6,4.2c8,4.6,3,17.2-6.8,13.2"/>
		<path class="st15" d="M3443.7,895l-0.8,4.9c9.1,1.1,9.5,14.7-1.1,14.8"/>
		<path class="st15" d="M3442.4,914.3l0.8,4.5c8.9-2.3,14.2,10.3,4.3,14.2"/>
		<path class="st15" d="M3448.1,932.9l2.2,3.9c7.6-5.1,16.8,4.9,8.8,11.9"/>
		<path class="st15" d="M3459.7,948.4l3.5,2.8c5.1-7.6,17.4-1.8,12.7,7.7"/>
		<path class="st15" d="M3475.8,958.4l4.3,1.4c2.1-8.9,15.6-7.9,14.6,2.7"/>
		<path class="st15" d="M3494.7,961.9l4.5-0.2c-1-9.1,12.1-12.6,14.6-2.4"/>
		<path class="st15" d="M3513.9,958.6l4.1-1.8c-4.3-8.1,6.6-16.2,12.7-7.6"/>
		<path class="st15" d="M3530.4,949l3.2-3.2c-7-5.9,0.1-17.5,9-11.8"/>
		<path class="st15" d="M3541.8,934.2l1.9-4.1c-8.6-3.3-5.6-16.5,4.7-14.1"/>
		<path class="st15" d="M3547.9,915.7l0.3-4.5c-9.2,0.1-11.3-13.3-0.8-14.8"/>
	</g>
</g>
<path class="st16" d="M336.3,524.5c19.2-41.2,89.5-32.9,85.9,27.5c0,0.5-1.1,0.8-1,0.3c1.4-58-61.8-67.3-83.4-27.5
	C337.5,525.2,336.1,525,336.3,524.5L336.3,524.5z"/>
<g transform="matrix(-.09847 -.02679 -.02679 .09847 142.52 602.89)">
	<path class="st17" d="M-2080.7-1124.5c-2.8-0.1-5.3,2.3-5.4,5c-0.3,2.7,1.8,5.3,4.5,5.8c1.5,0.3,3-0.2,4.3-0.9
		c3.7-1.6,8.2-1.4,11.8,0.5c2.5,1.2,5.7,0.2,7-2.2c1.4-2.3,0.7-5.5-1.5-7c-1.7-1.3-4.2-1.4-6-0.4c-3.9,1.9-8.7,1.8-12.5-0.2
		C-2079.2-1124.3-2079.9-1124.5-2080.7-1124.5z M-2080.7-1121.7c1.5,0,2.7,1.2,2.7,2.7s-1.2,2.7-2.7,2.7s-2.7-1.2-2.7-2.7
		S-2082.2-1121.7-2080.7-1121.7z M-2063.3-1121.7c1.5,0,2.7,1.2,2.7,2.7s-1.2,2.7-2.7,2.7s-2.7-1.2-2.7-2.7
		S-2064.8-1121.7-2063.3-1121.7z"/>
</g>
<g transform="matrix(-.08362 -.05851 -.05851 .08362 138.78 610.75)">
	<path class="st18" d="M-1547.9-1839.3c-2.8-0.1-5.3,2.3-5.4,5c-0.3,2.7,1.8,5.3,4.5,5.8c1.5,0.3,3-0.2,4.3-0.9
		c3.7-1.6,8.2-1.4,11.8,0.5c2.5,1.2,5.7,0.2,7-2.2c1.4-2.3,0.7-5.5-1.5-7.1c-1.7-1.3-4.2-1.4-6-0.4c-3.9,1.9-8.7,1.8-12.5-0.2
		C-1546.3-1839.1-1547.1-1839.3-1547.9-1839.3L-1547.9-1839.3z"/>
	<g transform="matrix(.4863 0 0 .4863 308.47 34.488)">
		<path class="st19" d="M-3775.9-3841.9c0,3.1-2.5,5.6-5.6,5.6c-3.1,0-5.6-2.5-5.6-5.6s2.5-5.6,5.6-5.6
			C-3778.4-3847.5-3775.9-3845-3775.9-3841.9z"/>
	</g>
	<g>
		<path class="st20" d="M-1545.1-1833.9c0,1.5-1.2,2.7-2.7,2.7s-2.7-1.2-2.7-2.7c0-1.5,1.2-2.7,2.7-2.7
			C-1546.4-1836.6-1545.1-1835.3-1545.1-1833.9z"/>
	</g>
</g>
<g transform="matrix(-.09611 -.03432 -.03432 .09611 154.68 610.51)">
	<path class="st17" d="M-1887.2-1311.8c-2.8-0.1-5.3,2.3-5.4,5c-0.3,2.7,1.8,5.3,4.5,5.8c1.5,0.3,3-0.2,4.3-0.9
		c3.7-1.6,8.2-1.4,11.8,0.5c2.5,1.2,5.7,0.2,7-2.2c1.4-2.3,0.7-5.5-1.5-7c-1.7-1.3-4.2-1.4-6-0.4c-3.9,1.9-8.7,1.8-12.5-0.2
		C-1885.7-1311.6-1886.5-1311.8-1887.2-1311.8z M-1887.2-1309c1.5,0,2.7,1.2,2.7,2.7s-1.2,2.7-2.7,2.7c-1.5,0-2.7-1.2-2.7-2.7
		S-1888.7-1309-1887.2-1309z M-1869.8-1309c1.5,0,2.7,1.2,2.7,2.7s-1.2,2.7-2.7,2.7s-2.7-1.2-2.7-2.7S-1871.3-1309-1869.8-1309z"/>
</g>
<g transform="matrix(-.09503 -.0372 -.0372 .09503 151.94 604.13)">
	<path class="st18" d="M-1877.3-1319.5c-2.8-0.1-5.3,2.3-5.4,5c-0.3,2.7,1.8,5.3,4.5,5.8c1.5,0.3,3-0.2,4.3-0.9
		c3.7-1.6,8.2-1.4,11.8,0.5c2.5,1.2,5.7,0.2,7-2.2c1.4-2.3,0.7-5.5-1.5-7.1c-1.7-1.3-4.2-1.4-6-0.4c-3.9,1.9-8.7,1.8-12.5-0.2
		C-1875.7-1319.3-1876.5-1319.5-1877.3-1319.5L-1877.3-1319.5z"/>
	<g transform="matrix(.4863 0 0 .4863 308.47 34.488)">
		<path class="st19" d="M-4453.2-2773c0,3.1-2.5,5.6-5.6,5.6c-3.1,0-5.6-2.5-5.6-5.6s2.5-5.6,5.6-5.6
			C-4455.7-2778.6-4453.2-2776.1-4453.2-2773z"/>
	</g>
	<g>
		<path class="st20" d="M-1874.6-1314c0,1.5-1.2,2.7-2.7,2.7c-1.5,0-2.7-1.2-2.7-2.7c0-1.5,1.2-2.7,2.7-2.7
			C-1875.8-1316.7-1874.6-1315.5-1874.6-1314z"/>
	</g>
</g>
<g transform="matrix(-.09611 -.03432 -.03432 .09611 185.37 620.97)">
	<path class="st17" d="M-1661.8-1308.5c-2.8-0.1-5.3,2.3-5.4,5c-0.3,2.7,1.8,5.3,4.5,5.8c1.5,0.3,3-0.2,4.3-0.9
		c3.7-1.6,8.2-1.4,11.8,0.5c2.5,1.2,5.7,0.2,7-2.2c1.4-2.3,0.7-5.5-1.5-7c-1.7-1.3-4.2-1.4-6-0.4c-3.9,1.9-8.7,1.8-12.5-0.2
		C-1660.3-1308.3-1661-1308.5-1661.8-1308.5z M-1661.8-1305.8c1.5,0,2.7,1.2,2.7,2.7s-1.2,2.7-2.7,2.7c-1.5,0-2.7-1.2-2.7-2.7
		S-1663.3-1305.8-1661.8-1305.8z M-1644.4-1305.8c1.5,0,2.7,1.2,2.7,2.7s-1.2,2.7-2.7,2.7s-2.7-1.2-2.7-2.7
		S-1645.9-1305.8-1644.4-1305.8z"/>
</g>
<g transform="matrix(-.09503 -.0372 -.0372 .09503 182.64 614.6)">
	<path class="st18" d="M-1651.9-1309.4c-2.8-0.1-5.3,2.3-5.4,5c-0.3,2.7,1.8,5.3,4.5,5.8c1.5,0.3,3-0.2,4.3-0.9
		c3.7-1.6,8.2-1.4,11.8,0.5c2.5,1.2,5.7,0.2,7-2.2c1.4-2.3,0.7-5.5-1.5-7.1c-1.7-1.3-4.2-1.4-6-0.4c-3.9,1.9-8.7,1.8-12.5-0.2
		C-1650.4-1309.3-1651.2-1309.4-1651.9-1309.4L-1651.9-1309.4z"/>
	<g transform="matrix(.4863 0 0 .4863 308.47 34.488)">
		<path class="st19" d="M-3989.9-2752.4c0,3.1-2.5,5.6-5.6,5.6c-3.1,0-5.6-2.5-5.6-5.6s2.5-5.6,5.6-5.6
			C-3992.4-2758-3989.9-2755.5-3989.9-2752.4z"/>
	</g>
	<g>
		<path class="st20" d="M-1649.2-1304c0,1.5-1.2,2.7-2.7,2.7c-1.5,0-2.7-1.2-2.7-2.7s1.2-2.7,2.7-2.7
			C-1650.4-1306.7-1649.2-1305.5-1649.2-1304z"/>
	</g>
</g>
<g transform="matrix(-.09611 -.03432 -.03432 .09611 196.85 625.31)">
	<path class="st17" d="M-1576.5-1310.1c-2.8-0.1-5.3,2.3-5.4,5c-0.3,2.7,1.8,5.3,4.5,5.8c1.5,0.3,3-0.2,4.3-0.9
		c3.7-1.6,8.2-1.4,11.8,0.5c2.5,1.2,5.7,0.2,7-2.2c1.4-2.3,0.7-5.5-1.5-7c-1.7-1.3-4.2-1.4-6-0.4c-3.9,1.9-8.7,1.8-12.5-0.2
		C-1574.9-1309.9-1575.7-1310.1-1576.5-1310.1z M-1576.5-1307.3c1.5,0,2.7,1.2,2.7,2.7s-1.2,2.7-2.7,2.7s-2.7-1.2-2.7-2.7
		S-1578-1307.3-1576.5-1307.3z M-1559-1307.3c1.5,0,2.7,1.2,2.7,2.7c0,1.5-1.2,2.7-2.7,2.7c-1.5,0-2.7-1.2-2.7-2.7
		C-1561.8-1306.1-1560.5-1307.3-1559-1307.3z"/>
</g>
<g transform="matrix(-.09503 -.0372 -.0372 .09503 194.11 618.94)">
	<path class="st18" d="M-1566.7-1308.5c-2.8-0.1-5.3,2.3-5.4,5c-0.3,2.7,1.8,5.3,4.5,5.8c1.5,0.3,3-0.2,4.3-0.9
		c3.7-1.6,8.2-1.4,11.8,0.5c2.5,1.2,5.7,0.2,7-2.2c1.4-2.3,0.7-5.5-1.5-7.1c-1.7-1.3-4.2-1.4-6-0.4c-3.9,1.9-8.7,1.8-12.5-0.2
		C-1565.2-1308.3-1565.9-1308.5-1566.7-1308.5L-1566.7-1308.5z"/>
	<g transform="matrix(.4863 0 0 .4863 308.47 34.488)">
		<path class="st19" d="M-3814.5-2750.4c0,3.1-2.5,5.6-5.6,5.6c-3.1,0-5.6-2.5-5.6-5.6s2.5-5.6,5.6-5.6
			C-3817-2756-3814.5-2753.5-3814.5-2750.4z"/>
	</g>
	<g>
		<path class="st20" d="M-1563.9-1303c0,1.5-1.2,2.7-2.7,2.7c-1.5,0-2.7-1.2-2.7-2.7c0-1.5,1.2-2.7,2.7-2.7
			C-1565.2-1305.7-1563.9-1304.5-1563.9-1303z"/>
	</g>
</g>
<g transform="matrix(-.09658 -.03298 -.03298 .09658 209.24 629.37)">
	<path class="st17" d="M-1504.3-1285.3c-2.8-0.1-5.3,2.3-5.4,5c-0.3,2.7,1.8,5.3,4.5,5.8c1.5,0.3,3-0.2,4.3-0.9
		c3.7-1.6,8.2-1.4,11.8,0.5c2.5,1.2,5.7,0.2,7-2.2c1.4-2.3,0.7-5.5-1.5-7c-1.7-1.3-4.2-1.4-6-0.4c-3.9,1.9-8.7,1.8-12.5-0.2
		C-1502.8-1285.1-1503.5-1285.3-1504.3-1285.3z M-1504.3-1282.6c1.5,0,2.7,1.2,2.7,2.7c0,1.5-1.2,2.7-2.7,2.7s-2.7-1.2-2.7-2.7
		C-1507-1281.4-1505.8-1282.6-1504.3-1282.6z M-1486.9-1282.6c1.5,0,2.7,1.2,2.7,2.7c0,1.5-1.2,2.7-2.7,2.7s-2.7-1.2-2.7-2.7
		C-1489.6-1281.4-1488.4-1282.6-1486.9-1282.6z"/>
</g>
<g transform="matrix(-.09554 -.03586 -.03586 .09554 206.42 623.04)">
	<path class="st18" d="M-1495.5-1281.4c-2.8-0.1-5.3,2.3-5.4,5c-0.3,2.7,1.8,5.3,4.5,5.8c1.5,0.3,3-0.2,4.3-0.9
		c3.7-1.6,8.2-1.4,11.8,0.5c2.5,1.2,5.7,0.2,7-2.2c1.4-2.3,0.7-5.5-1.5-7.1c-1.7-1.3-4.2-1.4-6-0.4c-3.9,1.9-8.7,1.8-12.5-0.2
		C-1493.9-1281.2-1494.7-1281.4-1495.5-1281.4L-1495.5-1281.4z"/>
	<g transform="matrix(.4863 0 0 .4863 308.47 34.488)">
		<path class="st19" d="M-3668.2-2694.7c0,3.1-2.5,5.6-5.6,5.6s-5.6-2.5-5.6-5.6s2.5-5.6,5.6-5.6S-3668.2-2697.8-3668.2-2694.7z"/>
	</g>
	<g>
		<path class="st20" d="M-1492.8-1275.9c0,1.5-1.2,2.7-2.7,2.7s-2.7-1.2-2.7-2.7s1.2-2.7,2.7-2.7S-1492.8-1277.4-1492.8-1275.9z"/>
	</g>
</g>
<g transform="matrix(-.09658 -.03298 -.03298 .09658 221.01 633.99)">
	<path class="st17" d="M-1416.5-1289.3c-2.8-0.1-5.3,2.3-5.4,5c-0.3,2.7,1.8,5.3,4.5,5.8c1.5,0.3,3-0.2,4.3-0.9
		c3.7-1.6,8.2-1.4,11.8,0.5c2.5,1.2,5.7,0.2,7-2.2c1.4-2.3,0.7-5.5-1.5-7c-1.7-1.3-4.2-1.4-6-0.4c-3.9,1.9-8.7,1.8-12.5-0.2
		C-1414.9-1289.1-1415.7-1289.3-1416.5-1289.3z M-1416.5-1286.5c1.5,0,2.7,1.2,2.7,2.7c0,1.5-1.2,2.7-2.7,2.7s-2.7-1.2-2.7-2.7
		S-1418-1286.5-1416.5-1286.5z M-1399-1286.5c1.5,0,2.7,1.2,2.7,2.7s-1.2,2.7-2.7,2.7s-2.7-1.2-2.7-2.7S-1400.5-1286.5-1399-1286.5z
		"/>
</g>
<g transform="matrix(-.09554 -.03586 -.03586 .09554 218.19 627.65)">
	<path class="st18" d="M-1407.6-1282.7c-2.8-0.1-5.3,2.3-5.4,5c-0.3,2.7,1.8,5.3,4.5,5.8c1.5,0.3,3-0.2,4.3-0.9
		c3.7-1.6,8.2-1.4,11.8,0.5c2.5,1.2,5.7,0.2,7-2.2c1.4-2.3,0.7-5.5-1.5-7.1c-1.7-1.3-4.2-1.4-6-0.4c-3.9,1.9-8.7,1.8-12.5-0.2
		C-1406.1-1282.5-1406.8-1282.7-1407.6-1282.7L-1407.6-1282.7z"/>
	<g transform="matrix(.4863 0 0 .4863 308.47 34.488)">
		<path class="st19" d="M-3487.4-2697.3c0,3.1-2.5,5.6-5.6,5.6s-5.6-2.5-5.6-5.6s2.5-5.6,5.6-5.6S-3487.4-2700.4-3487.4-2697.3z"/>
	</g>
	<g>
		<path class="st20" d="M-1404.9-1277.2c0,1.5-1.2,2.7-2.7,2.7c-1.5,0-2.7-1.2-2.7-2.7s1.2-2.7,2.7-2.7
			C-1406.1-1279.9-1404.9-1278.7-1404.9-1277.2z"/>
	</g>
</g>
<g transform="matrix(-.09658 -.03298 -.03298 .09658 232.41 638.57)">
	<path class="st17" d="M-1331.2-1293.8c-2.8-0.1-5.3,2.3-5.4,5c-0.3,2.7,1.8,5.3,4.5,5.8c1.5,0.3,3-0.2,4.3-0.9
		c3.7-1.6,8.2-1.4,11.8,0.5c2.5,1.2,5.7,0.2,7-2.2c1.4-2.3,0.7-5.5-1.5-7c-1.7-1.3-4.2-1.4-6-0.4c-3.9,1.9-8.7,1.8-12.5-0.2
		C-1329.6-1293.6-1330.4-1293.8-1331.2-1293.8z M-1331.2-1291.1c1.5,0,2.7,1.2,2.7,2.7c0,1.5-1.2,2.7-2.7,2.7s-2.7-1.2-2.7-2.7
		S-1332.7-1291.1-1331.2-1291.1z M-1313.7-1291.1c1.5,0,2.7,1.2,2.7,2.7c0,1.5-1.2,2.7-2.7,2.7c-1.5,0-2.7-1.2-2.7-2.7
		S-1315.2-1291.1-1313.7-1291.1z"/>
</g>
<g transform="matrix(-.09554 -.03586 -.03586 .09554 229.59 632.23)">
	<path class="st18" d="M-1322.2-1284.6c-2.8-0.1-5.3,2.3-5.4,5c-0.3,2.7,1.8,5.3,4.5,5.8c1.5,0.3,3-0.2,4.3-0.9
		c3.7-1.6,8.2-1.4,11.8,0.5c2.5,1.2,5.7,0.2,7-2.2c1.4-2.3,0.7-5.5-1.5-7.1c-1.7-1.3-4.2-1.4-6-0.4c-3.9,1.9-8.7,1.8-12.5-0.2
		C-1320.6-1284.5-1321.4-1284.6-1322.2-1284.6L-1322.2-1284.6z"/>
	<g transform="matrix(.4863 0 0 .4863 308.47 34.488)">
		<path class="st19" d="M-3311.8-2701.3c0,3.1-2.5,5.6-5.6,5.6s-5.6-2.5-5.6-5.6s2.5-5.6,5.6-5.6
			C-3314.3-2706.9-3311.8-2704.4-3311.8-2701.3z"/>
	</g>
	<g>
		<path class="st20" d="M-1319.5-1279.1c0,1.5-1.2,2.7-2.7,2.7s-2.7-1.2-2.7-2.7s1.2-2.7,2.7-2.7
			C-1320.7-1281.9-1319.5-1280.7-1319.5-1279.1z"/>
	</g>
</g>
<g transform="matrix(-.09658 -.03298 -.03298 .09658 243.95 642.75)">
	<path class="st17" d="M-1245.8-1295.4c-2.8-0.1-5.3,2.3-5.4,5c-0.3,2.7,1.8,5.3,4.5,5.8c1.5,0.3,3-0.2,4.3-0.9
		c3.7-1.6,8.2-1.4,11.8,0.5c2.5,1.2,5.7,0.2,7-2.2c1.4-2.3,0.7-5.5-1.5-7c-1.7-1.3-4.2-1.4-6-0.4c-3.9,1.9-8.7,1.8-12.5-0.2
		C-1244.3-1295.2-1245.1-1295.4-1245.8-1295.4z M-1245.8-1292.7c1.5,0,2.7,1.2,2.7,2.7c0,1.5-1.2,2.7-2.7,2.7s-2.7-1.2-2.7-2.7
		C-1248.5-1291.4-1247.3-1292.7-1245.8-1292.7z M-1228.4-1292.6c1.5,0,2.7,1.2,2.7,2.7s-1.2,2.7-2.7,2.7s-2.7-1.2-2.7-2.7
		S-1229.9-1292.6-1228.4-1292.6z"/>
</g>
<g transform="matrix(-.09554 -.03586 -.03586 .09554 241.12 636.41)">
	<path class="st18" d="M-1236.9-1283.6c-2.8-0.1-5.3,2.3-5.4,5c-0.3,2.7,1.8,5.3,4.5,5.8c1.5,0.3,3-0.2,4.3-0.9
		c3.7-1.6,8.2-1.4,11.8,0.5c2.5,1.2,5.7,0.2,7-2.2c1.4-2.3,0.7-5.5-1.5-7.1c-1.7-1.3-4.2-1.4-6-0.4c-3.9,1.9-8.7,1.8-12.5-0.2
		C-1235.4-1283.5-1236.1-1283.6-1236.9-1283.6L-1236.9-1283.6z"/>
	<g transform="matrix(.4863 0 0 .4863 308.47 34.488)">
		<path class="st19" d="M-3136.4-2699.3c0,3.1-2.5,5.6-5.6,5.6s-5.6-2.5-5.6-5.6s2.5-5.6,5.6-5.6
			C-3138.9-2704.9-3136.4-2702.4-3136.4-2699.3z"/>
	</g>
	<g>
		<path class="st20" d="M-1234.2-1278.2c0,1.5-1.2,2.7-2.7,2.7s-2.7-1.2-2.7-2.7s1.2-2.7,2.7-2.7S-1234.2-1279.7-1234.2-1278.2z"/>
	</g>
</g>
<g transform="matrix(.1012 .01315 .01315 -.1012 168.02 597.13)">
	<path class="st17" d="M2268.5,817.9c-2.8-0.1-5.3,2.3-5.4,5c-0.3,2.7,1.8,5.3,4.5,5.8c1.5,0.3,3-0.2,4.3-0.9
		c3.7-1.6,8.2-1.4,11.8,0.5c2.5,1.2,5.7,0.2,7-2.2c1.4-2.3,0.7-5.5-1.5-7c-1.7-1.3-4.2-1.4-6-0.4c-3.9,1.9-8.7,1.8-12.5-0.2
		C2270,818.1,2269.2,817.9,2268.5,817.9z M2268.5,820.6c1.5,0,2.7,1.2,2.7,2.7c0,1.5-1.2,2.7-2.7,2.7s-2.7-1.2-2.7-2.7
		C2265.7,821.8,2267,820.6,2268.5,820.6z M2285.9,820.6c1.5,0,2.7,1.2,2.7,2.7c0,1.5-1.2,2.7-2.7,2.7c-1.5,0-2.7-1.2-2.7-2.7
		C2283.2,821.8,2284.4,820.6,2285.9,820.6z"/>
</g>
<g transform="matrix(.1012 .01315 .01315 -.1012 172.45 603.92)">
	<path class="st18" d="M2234.3,878.3c-2.8-0.1-5.3,2.3-5.4,5c-0.3,2.7,1.8,5.3,4.5,5.8c1.5,0.3,3-0.2,4.3-0.9
		c3.7-1.6,8.2-1.4,11.8,0.5c2.5,1.2,5.7,0.2,7-2.2c1.4-2.3,0.7-5.5-1.5-7.1c-1.7-1.3-4.2-1.4-6-0.4c-3.9,1.9-8.7,1.8-12.5-0.2
		C2235.8,878.5,2235.1,878.3,2234.3,878.3L2234.3,878.3z"/>
	<g transform="matrix(.4863 0 0 .4863 308.47 34.488)">
		<path class="st19" d="M4001.6,1746.4c0,3.1-2.5,5.6-5.6,5.6s-5.6-2.5-5.6-5.6s2.5-5.6,5.6-5.6
			C3999.1,1740.8,4001.6,1743.3,4001.6,1746.4z"/>
	</g>
	<g>
		<path class="st20" d="M2237,883.7c0,1.5-1.2,2.7-2.7,2.7s-2.7-1.2-2.7-2.7c0-1.5,1.2-2.7,2.7-2.7S2237,882.2,2237,883.7z"/>
	</g>
</g>
<g transform="matrix(.1012 .01315 .01315 -.1012 155.13 595.92)">
	<path class="st17" d="M2358.4,821.1c-2.8-0.1-5.3,2.3-5.4,5c-0.3,2.7,1.8,5.3,4.5,5.8c1.5,0.3,3-0.2,4.3-0.9
		c3.7-1.6,8.2-1.4,11.8,0.5c2.5,1.2,5.7,0.2,7-2.2c1.4-2.3,0.7-5.5-1.5-7c-1.7-1.3-4.2-1.4-6-0.4c-3.9,1.9-8.7,1.8-12.5-0.2
		C2360,821.3,2359.2,821.1,2358.4,821.1z M2358.4,823.8c1.5,0,2.7,1.2,2.7,2.7c0,1.5-1.2,2.7-2.7,2.7c-1.5,0-2.7-1.2-2.7-2.7
		C2355.7,825,2356.9,823.8,2358.4,823.8z M2375.9,823.8c1.5,0,2.7,1.2,2.7,2.7c0,1.5-1.2,2.7-2.7,2.7c-1.5,0-2.7-1.2-2.7-2.7
		C2373.1,825,2374.3,823.8,2375.9,823.8z"/>
</g>
<g transform="matrix(.1012 .01315 .01315 -.1012 159.55 602.71)">
	<path class="st18" d="M2324.4,881.5c-2.8-0.1-5.3,2.3-5.4,5c-0.3,2.7,1.8,5.3,4.5,5.8c1.5,0.3,3-0.2,4.3-0.9
		c3.7-1.6,8.2-1.4,11.8,0.5c2.5,1.2,5.7,0.2,7-2.2c1.4-2.3,0.7-5.5-1.5-7.1c-1.7-1.3-4.2-1.4-6-0.4c-3.9,1.9-8.7,1.8-12.5-0.2
		C2325.9,881.7,2325.1,881.5,2324.4,881.5L2324.4,881.5z"/>
	<g transform="matrix(.4863 0 0 .4863 308.47 34.488)">
		<path class="st19" d="M4186.8,1753c0,3.1-2.5,5.6-5.6,5.6s-5.6-2.5-5.6-5.6c0-3.1,2.5-5.6,5.6-5.6S4186.8,1749.9,4186.8,1753z"/>
	</g>
	<g>
		<path class="st20" d="M2327.1,887c0,1.5-1.2,2.7-2.7,2.7s-2.7-1.2-2.7-2.7s1.2-2.7,2.7-2.7S2327.1,885.5,2327.1,887z"/>
	</g>
</g>
<g transform="matrix(.1012 .01315 .01315 -.1012 142.18 593.82)">
	<path class="st17" d="M2449.6,818.2c-2.8-0.1-5.3,2.3-5.4,5c-0.3,2.7,1.8,5.3,4.5,5.8c1.5,0.3,3-0.2,4.3-0.9
		c3.7-1.6,8.2-1.4,11.8,0.5c2.5,1.2,5.7,0.2,7-2.2c1.4-2.3,0.7-5.5-1.5-7c-1.7-1.3-4.2-1.4-6-0.4c-3.9,1.9-8.7,1.8-12.5-0.2
		C2451.1,818.4,2450.4,818.2,2449.6,818.2z M2449.6,820.9c1.5,0,2.7,1.2,2.7,2.7s-1.2,2.7-2.7,2.7c-1.5,0-2.7-1.2-2.7-2.7
		S2448.1,820.9,2449.6,820.9z M2467,821c1.5,0,2.7,1.2,2.7,2.7s-1.2,2.7-2.7,2.7s-2.7-1.2-2.7-2.7S2465.5,821,2467,821z"/>
</g>
<g transform="matrix(.1012 .01315 .01315 -.1012 146.61 600.61)">
	<path class="st18" d="M2415.5,878.6c-2.8-0.1-5.3,2.3-5.4,5c-0.3,2.7,1.8,5.3,4.5,5.8c1.5,0.3,3-0.2,4.3-0.9
		c3.7-1.6,8.2-1.4,11.8,0.5c2.5,1.2,5.7,0.2,7-2.2c1.4-2.3,0.7-5.5-1.5-7.1c-1.7-1.3-4.2-1.4-6-0.4c-3.9,1.9-8.7,1.8-12.5-0.2
		C2417,878.8,2416.2,878.6,2415.5,878.6L2415.5,878.6z"/>
	<g transform="matrix(.4863 0 0 .4863 308.47 34.488)">
		<path class="st19" d="M4374.1,1747c0,3.1-2.5,5.6-5.6,5.6s-5.6-2.5-5.6-5.6s2.5-5.6,5.6-5.6S4374.1,1744,4374.1,1747z"/>
	</g>
	<g>
		<path class="st20" d="M2418.2,884.1c0,1.5-1.2,2.7-2.7,2.7c-1.5,0-2.7-1.2-2.7-2.7s1.2-2.7,2.7-2.7S2418.2,882.6,2418.2,884.1z"/>
	</g>
</g>
<g transform="matrix(.09897 .02489 .02489 -.09897 82.352 578.73)">
	<path class="st17" d="M2770.8,1085.9c-2.8-0.1-5.3,2.3-5.4,5c-0.3,2.7,1.8,5.3,4.5,5.8c1.5,0.3,3-0.2,4.3-0.9
		c3.7-1.6,8.2-1.4,11.8,0.5c2.5,1.2,5.7,0.2,7-2.2c1.4-2.3,0.7-5.5-1.5-7c-1.7-1.3-4.2-1.4-6-0.4c-3.9,1.9-8.7,1.8-12.5-0.2
		C2772.3,1086.1,2771.5,1085.9,2770.8,1085.9z M2770.8,1088.7c1.5,0,2.7,1.2,2.7,2.7s-1.2,2.7-2.7,2.7c-1.5,0-2.7-1.2-2.7-2.7
		C2768,1089.9,2769.3,1088.7,2770.8,1088.7z M2788.2,1088.7c1.5,0,2.7,1.2,2.7,2.7s-1.2,2.7-2.7,2.7c-1.5,0-2.7-1.2-2.7-2.7
		S2786.7,1088.7,2788.2,1088.7z"/>
</g>
<g transform="matrix(.09897 .02489 .02489 -.09897 85.951 585.98)">
	<path class="st18" d="M2736.7,1146.3c-2.8-0.1-5.3,2.3-5.4,5c-0.3,2.7,1.8,5.3,4.5,5.8c1.5,0.3,3-0.2,4.3-0.9
		c3.7-1.6,8.2-1.4,11.8,0.5c2.5,1.2,5.7,0.2,7-2.2c1.4-2.3,0.7-5.5-1.5-7.1c-1.7-1.3-4.2-1.4-6-0.4c-3.9,1.9-8.7,1.8-12.5-0.2
		C2738.2,1146.4,2737.5,1146.3,2736.7,1146.3L2736.7,1146.3z"/>
	<g transform="matrix(.4863 0 0 .4863 308.47 34.488)">
		<path class="st19" d="M5034.6,2297.4c0,3.1-2.5,5.6-5.6,5.6c-3.1,0-5.6-2.5-5.6-5.6s2.5-5.6,5.6-5.6
			C5032.1,2291.9,5034.6,2294.4,5034.6,2297.4z"/>
	</g>
	<g>
		<path class="st20" d="M2739.4,1151.7c0,1.5-1.2,2.7-2.7,2.7c-1.5,0-2.7-1.2-2.7-2.7s1.2-2.7,2.7-2.7
			C2738.2,1149,2739.4,1150.2,2739.4,1151.7z"/>
	</g>
</g>
<g transform="matrix(.1012 .01315 .01315 -.1012 70.872 581.92)">
	<path class="st17" d="M2952,800.1c-2.8-0.1-5.3,2.3-5.4,5c-0.3,2.7,1.8,5.3,4.5,5.8c1.5,0.3,3-0.2,4.3-0.9
		c3.7-1.6,8.2-1.4,11.8,0.5c2.5,1.2,5.7,0.2,7-2.2c1.4-2.3,0.7-5.5-1.5-7c-1.7-1.3-4.2-1.4-6-0.4c-3.9,1.9-8.7,1.8-12.5-0.2
		C2953.6,800.2,2952.8,800.1,2952,800.1z M2952,802.8c1.5,0,2.7,1.2,2.7,2.7c0,1.5-1.2,2.7-2.7,2.7s-2.7-1.2-2.7-2.7
		C2949.3,804,2950.5,802.8,2952,802.8z M2969.4,802.8c1.5,0,2.7,1.2,2.7,2.7c0,1.5-1.2,2.7-2.7,2.7s-2.7-1.2-2.7-2.7
		C2966.7,804,2967.9,802.8,2969.4,802.8z"/>
</g>
<g transform="matrix(.1012 .01315 .01315 -.1012 75.295 588.71)">
	<path class="st18" d="M2917.9,860.5c-2.8-0.1-5.3,2.3-5.4,5c-0.3,2.7,1.8,5.3,4.5,5.8c1.5,0.3,3-0.2,4.3-0.9
		c3.7-1.6,8.2-1.4,11.8,0.5c2.5,1.2,5.7,0.2,7-2.2c1.4-2.3,0.7-5.5-1.5-7.1c-1.7-1.3-4.2-1.4-6-0.4c-3.9,1.9-8.7,1.8-12.5-0.2
		C2919.4,860.7,2918.7,860.5,2917.9,860.5L2917.9,860.5z"/>
	<g transform="matrix(.4863 0 0 .4863 308.47 34.488)">
		<path class="st19" d="M5407.3,1709.7c0,3.1-2.5,5.6-5.6,5.6s-5.6-2.5-5.6-5.6c0-3.1,2.5-5.6,5.6-5.6
			C5404.8,1704.1,5407.3,1706.6,5407.3,1709.7z"/>
	</g>
	<g>
		<path class="st20" d="M2920.6,865.9c0,1.5-1.2,2.7-2.7,2.7c-1.5,0-2.7-1.2-2.7-2.7c0-1.5,1.2-2.7,2.7-2.7
			S2920.6,864.4,2920.6,865.9z"/>
	</g>
</g>
<g transform="matrix(.10202 -.00267 -.00267 -.10202 59.94 586.16)">
	<path class="st17" d="M3113.2,378.6c-2.8-0.1-5.3,2.3-5.4,5c-0.3,2.7,1.8,5.3,4.5,5.8c1.5,0.3,3-0.2,4.3-0.9
		c3.7-1.6,8.2-1.4,11.8,0.5c2.5,1.2,5.7,0.2,7-2.2c1.4-2.3,0.7-5.5-1.5-7c-1.7-1.3-4.2-1.4-6-0.4c-3.9,1.9-8.7,1.8-12.5-0.2
		C3114.7,378.8,3114,378.6,3113.2,378.6z M3113.2,381.3c1.5,0,2.7,1.2,2.7,2.7c0,1.5-1.2,2.7-2.7,2.7s-2.7-1.2-2.7-2.7
		C3110.5,382.5,3111.7,381.3,3113.2,381.3z M3130.6,381.3c1.5,0,2.7,1.2,2.7,2.7c0,1.5-1.2,2.7-2.7,2.7s-2.7-1.2-2.7-2.7
		C3127.9,382.5,3129.2,381.3,3130.6,381.3z"/>
</g>
<g transform="matrix(.09472 .03798 .03798 -.09472 60.545 574.86)">
	<path class="st18" d="M2758.1,1483.3c-2.8-0.1-5.3,2.3-5.4,5c-0.3,2.7,1.8,5.3,4.5,5.8c1.5,0.3,3-0.2,4.3-0.9
		c3.7-1.6,8.2-1.4,11.8,0.5c2.5,1.2,5.7,0.2,7-2.2c1.4-2.3,0.7-5.5-1.5-7.1c-1.7-1.3-4.2-1.4-6-0.4c-3.9,1.9-8.7,1.8-12.5-0.2
		C2759.6,1483.5,2758.8,1483.3,2758.1,1483.3L2758.1,1483.3z"/>
	<g transform="matrix(.4863 0 0 .4863 308.47 34.488)">
		<path class="st19" d="M5078.7,2990.5c0,3.1-2.5,5.6-5.6,5.6c-3.1,0-5.6-2.5-5.6-5.6s2.5-5.6,5.6-5.6
			C5076.2,2984.9,5078.7,2987.4,5078.7,2990.5z"/>
	</g>
	<g>
		<path class="st20" d="M2760.8,1488.7c0,1.5-1.2,2.7-2.7,2.7s-2.7-1.2-2.7-2.7c0-1.5,1.2-2.7,2.7-2.7
			C2759.6,1486,2760.8,1487.2,2760.8,1488.7z"/>
	</g>
</g>
<g transform="matrix(.07507 -.06913 -.06913 -.07507 68.235 614.34)">
	<path class="st17" d="M2690-1499.2c-2.8-0.1-5.3,2.3-5.4,5c-0.3,2.7,1.8,5.3,4.5,5.8c1.5,0.3,3-0.2,4.3-0.9
		c3.7-1.6,8.2-1.4,11.8,0.5c2.5,1.2,5.7,0.2,7-2.2c1.4-2.3,0.7-5.5-1.5-7c-1.7-1.3-4.2-1.4-6-0.4c-3.9,1.9-8.7,1.8-12.5-0.2
		C2691.6-1499,2690.8-1499.2,2690-1499.2z M2690-1496.4c1.5,0,2.7,1.2,2.7,2.7c0,1.5-1.2,2.7-2.7,2.7s-2.7-1.2-2.7-2.7
		C2687.3-1495.2,2688.5-1496.4,2690-1496.4z M2707.4-1496.4c1.5,0,2.7,1.2,2.7,2.7c0,1.5-1.2,2.7-2.7,2.7s-2.7-1.2-2.7-2.7
		S2705.9-1496.4,2707.4-1496.4z"/>
</g>
<g transform="matrix(.09742 -.0304 -.0304 -.09742 60.33 604.19)">
	<path class="st18" d="M3131.1-315.6c-2.8-0.1-5.3,2.3-5.4,5c-0.3,2.7,1.8,5.3,4.5,5.8c1.5,0.3,3-0.2,4.3-0.9
		c3.7-1.6,8.2-1.4,11.8,0.5c2.5,1.2,5.7,0.2,7-2.2c1.4-2.3,0.7-5.5-1.5-7.1c-1.7-1.3-4.2-1.4-6-0.4c-3.9,1.9-8.7,1.8-12.5-0.2
		C3132.6-315.4,3131.9-315.6,3131.1-315.6L3131.1-315.6z"/>
	<g transform="matrix(.4863 0 0 .4863 308.47 34.488)">
		<path class="st19" d="M5845.7-708.7c0,3.1-2.5,5.6-5.6,5.6s-5.6-2.5-5.6-5.6c0-3.1,2.5-5.6,5.6-5.6S5845.7-711.8,5845.7-708.7z"/>
	</g>
	<g>
		<path class="st20" d="M3133.8-310.2c0,1.5-1.2,2.7-2.7,2.7s-2.7-1.2-2.7-2.7c0-1.5,1.2-2.7,2.7-2.7S3133.8-311.7,3133.8-310.2z"/>
	</g>
</g>
<g transform="matrix(-.00419 -.10197 -.10197 .00419 100.75 628.42)">
	<path class="st17" d="M717.4-2703.4c-2.8-0.1-5.3,2.3-5.4,5c-0.3,2.7,1.8,5.3,4.5,5.8c1.5,0.3,3-0.2,4.3-0.9
		c3.7-1.6,8.2-1.4,11.8,0.5c2.5,1.2,5.7,0.2,7-2.2c1.4-2.3,0.7-5.5-1.5-7c-1.7-1.3-4.2-1.4-6-0.4c-3.9,1.9-8.7,1.8-12.5-0.2
		C719-2703.2,718.2-2703.4,717.4-2703.4z M717.4-2700.7c1.5,0,2.7,1.2,2.7,2.7s-1.2,2.7-2.7,2.7s-2.7-1.2-2.7-2.7
		S715.9-2700.7,717.4-2700.7z M734.8-2700.7c1.5,0,2.7,1.2,2.7,2.7s-1.2,2.7-2.7,2.7s-2.7-1.2-2.7-2.7
		C732.1-2699.5,733.3-2700.7,734.8-2700.7z"/>
</g>
<g transform="matrix(.0398 -.09397 -.09397 -.0398 87.901 627.89)">
	<path class="st18" d="M1862.7-2247.8c-2.8-0.1-5.3,2.3-5.4,5c-0.3,2.7,1.8,5.3,4.5,5.8c1.5,0.3,3-0.2,4.3-0.9
		c3.7-1.6,8.2-1.4,11.8,0.5c2.5,1.2,5.7,0.2,7-2.2c1.4-2.3,0.7-5.5-1.5-7.1c-1.7-1.3-4.2-1.4-6-0.4c-3.9,1.9-8.7,1.8-12.5-0.2
		C1864.3-2247.6,1863.5-2247.8,1862.7-2247.8L1862.7-2247.8z"/>
	<g transform="matrix(.4863 0 0 .4863 308.47 34.488)">
		<path class="st19" d="M3237.5-4681.9c0,3.1-2.5,5.6-5.6,5.6s-5.6-2.5-5.6-5.6c0-3.1,2.5-5.6,5.6-5.6S3237.5-4685,3237.5-4681.9z"
			/>
	</g>
	<g>
		<path class="st20" d="M1865.4-2242.3c0,1.5-1.2,2.7-2.7,2.7c-1.5,0-2.7-1.2-2.7-2.7s1.2-2.7,2.7-2.7
			C1864.2-2245,1865.4-2243.8,1865.4-2242.3z"/>
	</g>
</g>
<g transform="matrix(-.06382 -.07964 -.07964 .06382 125.03 622.51)">
	<path class="st17" d="M-948.9-2373.1c-2.8-0.1-5.3,2.3-5.4,5c-0.3,2.7,1.8,5.3,4.5,5.8c1.5,0.3,3-0.2,4.3-0.9
		c3.7-1.6,8.2-1.4,11.8,0.5c2.5,1.2,5.7,0.2,7-2.2c1.4-2.3,0.7-5.5-1.5-7c-1.7-1.3-4.2-1.4-6-0.4c-3.9,1.9-8.7,1.8-12.5-0.2
		C-947.3-2372.9-948.1-2373.1-948.9-2373.1z M-948.9-2370.4c1.5,0,2.7,1.2,2.7,2.7c0,1.5-1.2,2.7-2.7,2.7s-2.7-1.2-2.7-2.7
		S-950.4-2370.4-948.9-2370.4z M-931.4-2370.4c1.5,0,2.7,1.2,2.7,2.7s-1.2,2.7-2.7,2.7c-1.5,0-2.7-1.2-2.7-2.7
		S-932.9-2370.4-931.4-2370.4z"/>
</g>
<g transform="matrix(-.00729 -.10179 -.10179 .00729 108.3 633.67)">
	<path class="st18" d="M676.6-2653.5c-2.8-0.1-5.3,2.3-5.4,5c-0.3,2.7,1.8,5.3,4.5,5.8c1.5,0.3,3-0.2,4.3-0.9
		c3.7-1.6,8.2-1.4,11.8,0.5c2.5,1.2,5.7,0.2,7-2.2c1.4-2.3,0.7-5.5-1.5-7.1c-1.7-1.3-4.2-1.4-6-0.4c-3.9,1.9-8.7,1.8-12.5-0.2
		C678.1-2653.3,677.4-2653.5,676.6-2653.5L676.6-2653.5z"/>
	<g transform="matrix(.4863 0 0 .4863 308.47 34.488)">
		<path class="st19" d="M798.4-5516.1c0,3.1-2.5,5.6-5.6,5.6c-3.1,0-5.6-2.5-5.6-5.6s2.5-5.6,5.6-5.6
			C795.9-5521.7,798.4-5519.2,798.4-5516.1z"/>
	</g>
	<g>
		<path class="st20" d="M679.3-2648c0,1.5-1.2,2.7-2.7,2.7s-2.7-1.2-2.7-2.7s1.2-2.7,2.7-2.7S679.3-2649.5,679.3-2648z"/>
	</g>
</g>
<g transform="matrix(-.09752 -.03006 -.03006 .09752 166.38 612.3)">
	<path class="st17" d="M-1863.1-1210.6c-2.8-0.1-5.3,2.3-5.4,5c-0.3,2.7,1.8,5.3,4.5,5.8c1.5,0.3,3-0.2,4.3-0.9
		c3.7-1.6,8.2-1.4,11.8,0.5c2.5,1.2,5.7,0.2,7-2.2c1.4-2.3,0.7-5.5-1.5-7c-1.7-1.3-4.2-1.4-6-0.4c-3.9,1.9-8.7,1.8-12.5-0.2
		C-1861.5-1210.5-1862.3-1210.6-1863.1-1210.6z M-1863.1-1207.9c1.5,0,2.7,1.2,2.7,2.7s-1.2,2.7-2.7,2.7s-2.7-1.2-2.7-2.7
		S-1864.6-1207.9-1863.1-1207.9z M-1845.7-1207.9c1.5,0,2.7,1.2,2.7,2.7s-1.2,2.7-2.7,2.7s-2.7-1.2-2.7-2.7
		S-1847.2-1207.9-1845.7-1207.9z"/>
</g>
<g transform="matrix(-.09752 -.03006 -.03006 .09752 163.17 604.86)">
	<path class="st18" d="M-1897.2-1150.2c-2.8-0.1-5.3,2.3-5.4,5c-0.3,2.7,1.8,5.3,4.5,5.8c1.5,0.3,3-0.2,4.3-0.9
		c3.7-1.6,8.2-1.4,11.8,0.5c2.5,1.2,5.7,0.2,7-2.2c1.4-2.3,0.7-5.5-1.5-7.1c-1.7-1.3-4.2-1.4-6-0.4c-3.9,1.9-8.7,1.8-12.5-0.2
		C-1895.6-1150.1-1896.4-1150.2-1897.2-1150.2L-1897.2-1150.2z"/>
	<g transform="matrix(.4863 0 0 .4863 308.47 34.488)">
		<path class="st19" d="M-4494.2-2424.9c0,3.1-2.5,5.6-5.6,5.6s-5.6-2.5-5.6-5.6s2.5-5.6,5.6-5.6
			C-4496.6-2430.5-4494.2-2428-4494.2-2424.9z"/>
	</g>
	<g>
		<path class="st20" d="M-1894.5-1144.8c0,1.5-1.2,2.7-2.7,2.7c-1.5,0-2.7-1.2-2.7-2.7c0-1.5,1.2-2.7,2.7-2.7
			C-1895.7-1147.5-1894.5-1146.3-1894.5-1144.8z"/>
	</g>
</g>
<g transform="matrix(.11293 .03873 .03211 -.09689 75.4 617.03)">
	<path class="st18" d="M2282.3,1590.4c-2.8-0.1-5.3,2.3-5.4,5c-0.3,2.7,1.8,5.3,4.5,5.8c1.5,0.3,3-0.2,4.3-0.9
		c3.7-1.6,8.2-1.4,11.8,0.5c2.5,1.2,5.7,0.2,7-2.2c1.4-2.3,0.7-5.5-1.5-7.1c-1.7-1.3-4.2-1.4-6-0.4c-3.9,1.9-8.7,1.8-12.5-0.2
		C2283.9,1590.5,2283.1,1590.4,2282.3,1590.4L2282.3,1590.4z"/>
	<g transform="matrix(.4863 0 0 .4863 308.47 34.488)">
		<path class="st19" d="M4100.3,3210.6c0,3.1-2.5,5.6-5.6,5.6c-3.1,0-5.6-2.5-5.6-5.6s2.5-5.6,5.6-5.6
			C4097.8,3205,4100.3,3207.5,4100.3,3210.6z"/>
	</g>
	<g>
		<path class="st20" d="M2285,1595.8c0,1.5-1.2,2.7-2.7,2.7s-2.7-1.2-2.7-2.7s1.2-2.7,2.7-2.7
			C2283.8,1593.1,2285,1594.3,2285,1595.8z"/>
	</g>
</g>
<g transform="matrix(.1012 .01315 .01315 -.1012 129.21 592.05)">
	<path class="st17" d="M2540.6,817.6c-2.8-0.1-5.3,2.3-5.4,5c-0.3,2.7,1.8,5.3,4.5,5.8c1.5,0.3,3-0.2,4.3-0.9
		c3.7-1.6,8.2-1.4,11.8,0.5c2.5,1.2,5.7,0.2,7-2.2c1.4-2.3,0.7-5.5-1.5-7c-1.7-1.3-4.2-1.4-6-0.4c-3.9,1.9-8.7,1.8-12.5-0.2
		C2542.2,817.8,2541.4,817.6,2540.6,817.6z M2540.6,820.4c1.5,0,2.7,1.2,2.7,2.7c0,1.5-1.2,2.7-2.7,2.7c-1.5,0-2.7-1.2-2.7-2.7
		C2537.9,821.6,2539.1,820.4,2540.6,820.4z M2558,820.4c1.5,0,2.7,1.2,2.7,2.7c0,1.5-1.2,2.7-2.7,2.7c-1.5,0-2.7-1.2-2.7-2.7
		C2555.4,821.6,2556.6,820.4,2558,820.4z"/>
</g>
<g transform="matrix(.1012 .01315 .01315 -.1012 133.63 598.84)">
	<path class="st18" d="M2506.6,878.1c-2.8-0.1-5.3,2.3-5.4,5c-0.3,2.7,1.8,5.3,4.5,5.8c1.5,0.3,3-0.2,4.3-0.9
		c3.7-1.6,8.2-1.4,11.8,0.5c2.5,1.2,5.7,0.2,7-2.2c1.4-2.3,0.7-5.5-1.5-7.1c-1.7-1.3-4.2-1.4-6-0.4c-3.9,1.9-8.7,1.8-12.5-0.2
		C2508.1,878.2,2507.3,878.1,2506.6,878.1L2506.6,878.1z"/>
	<g transform="matrix(.4863 0 0 .4863 308.47 34.488)">
		<path class="st19" d="M4561.4,1745.9c0,3.1-2.5,5.6-5.6,5.6s-5.6-2.5-5.6-5.6c0-3.1,2.5-5.6,5.6-5.6
			C4559,1740.3,4561.4,1742.8,4561.4,1745.9z"/>
	</g>
	<g>
		<path class="st20" d="M2509.3,883.5c0,1.5-1.2,2.7-2.7,2.7s-2.7-1.2-2.7-2.7c0-1.5,1.2-2.7,2.7-2.7
			C2508.1,880.8,2509.3,882,2509.3,883.5z"/>
	</g>
</g>
<g transform="matrix(.1012 .01315 .01315 -.1012 117.01 590.63)">
	<path class="st17" d="M2626,818.8c-2.8-0.1-5.3,2.3-5.4,5c-0.3,2.7,1.8,5.3,4.5,5.8c1.5,0.3,3-0.2,4.3-0.9
		c3.7-1.6,8.2-1.4,11.8,0.5c2.5,1.2,5.7,0.2,7-2.2c1.4-2.3,0.7-5.5-1.5-7c-1.7-1.3-4.2-1.4-6-0.4c-3.9,1.9-8.7,1.8-12.5-0.2
		C2627.6,818.9,2626.8,818.8,2626,818.8z M2626,821.5c1.5,0,2.7,1.2,2.7,2.7s-1.2,2.7-2.7,2.7s-2.7-1.2-2.7-2.7
		S2624.5,821.5,2626,821.5z M2643.4,821.5c1.5,0,2.7,1.2,2.7,2.7c0,1.5-1.2,2.7-2.7,2.7s-2.7-1.2-2.7-2.7
		C2640.7,822.7,2642,821.5,2643.4,821.5z"/>
</g>
<g transform="matrix(.1012 .01315 .01315 -.1012 121.44 597.42)">
	<path class="st18" d="M2591.9,879.2c-2.8-0.1-5.3,2.3-5.4,5c-0.3,2.7,1.8,5.3,4.5,5.8c1.5,0.3,3-0.2,4.3-0.9
		c3.7-1.6,8.2-1.4,11.8,0.5c2.5,1.2,5.7,0.2,7-2.2c1.4-2.3,0.7-5.5-1.5-7.1c-1.7-1.3-4.2-1.4-6-0.4c-3.9,1.9-8.7,1.8-12.5-0.2
		C2593.4,879.4,2592.7,879.2,2591.9,879.2L2591.9,879.2z"/>
	<g transform="matrix(.4863 0 0 .4863 308.47 34.488)">
		<path class="st19" d="M4736.9,1748.2c0,3.1-2.5,5.6-5.6,5.6s-5.6-2.5-5.6-5.6s2.5-5.6,5.6-5.6
			C4734.4,1742.6,4736.9,1745.1,4736.9,1748.2z"/>
	</g>
	<g>
		<path class="st20" d="M2594.6,884.6c0,1.5-1.2,2.7-2.7,2.7s-2.7-1.2-2.7-2.7c0-1.5,1.2-2.7,2.7-2.7S2594.6,883.1,2594.6,884.6z"/>
	</g>
</g>
<g transform="matrix(.1012 .01315 .01315 -.1012 104.95 589.13)">
	<path class="st17" d="M2710.5,819.3c-2.8-0.1-5.3,2.3-5.4,5c-0.3,2.7,1.8,5.3,4.5,5.8c1.5,0.3,3-0.2,4.3-0.9
		c3.7-1.6,8.2-1.4,11.8,0.5c2.5,1.2,5.7,0.2,7-2.2c1.4-2.3,0.7-5.5-1.5-7c-1.7-1.3-4.2-1.4-6-0.4c-3.9,1.9-8.7,1.8-12.5-0.2
		C2712.1,819.4,2711.3,819.3,2710.5,819.3z M2710.5,822c1.5,0,2.7,1.2,2.7,2.7c0,1.5-1.2,2.7-2.7,2.7c-1.5,0-2.7-1.2-2.7-2.7
		C2707.8,823.2,2709,822,2710.5,822z M2728,822c1.5,0,2.7,1.2,2.7,2.7c0,1.5-1.2,2.7-2.7,2.7c-1.5,0-2.7-1.2-2.7-2.7
		C2725.2,823.2,2726.5,822,2728,822z"/>
</g>
<g transform="matrix(.1012 .01315 .01315 -.1012 109.38 595.92)">
	<path class="st18" d="M2676.4,879.6c-2.8-0.1-5.3,2.3-5.4,5c-0.3,2.7,1.8,5.3,4.5,5.8c1.5,0.3,3-0.2,4.3-0.9
		c3.7-1.6,8.2-1.4,11.8,0.5c2.5,1.2,5.7,0.2,7-2.2c1.4-2.3,0.7-5.5-1.5-7.1c-1.7-1.3-4.2-1.4-6-0.4c-3.9,1.9-8.7,1.8-12.5-0.2
		C2677.9,879.8,2677.2,879.6,2676.4,879.6L2676.4,879.6z"/>
	<g transform="matrix(.4863 0 0 .4863 308.47 34.488)">
		<path class="st19" d="M4910.7,1749.2c0,3.1-2.5,5.6-5.6,5.6s-5.6-2.5-5.6-5.6s2.5-5.6,5.6-5.6
			C4908.2,1743.6,4910.7,1746.1,4910.7,1749.2z"/>
	</g>
	<g>
		<path class="st20" d="M2679.1,885.1c0,1.5-1.2,2.7-2.7,2.7c-1.5,0-2.7-1.2-2.7-2.7s1.2-2.7,2.7-2.7
			C2677.9,882.4,2679.1,883.6,2679.1,885.1z"/>
	</g>
</g>
<g transform="matrix(.13906 .03735 .02764 -.09825 76.487 582.7)">
	<path class="st18" d="M1999.6,1183.1c-2.8-0.1-5.3,2.3-5.4,5c-0.3,2.7,1.8,5.3,4.5,5.8c1.5,0.3,3-0.2,4.3-0.9
		c3.7-1.6,8.2-1.4,11.8,0.5c2.5,1.2,5.7,0.2,7-2.2c1.4-2.3,0.7-5.5-1.5-7.1c-1.7-1.3-4.2-1.4-6-0.4c-3.9,1.9-8.7,1.8-12.5-0.2
		C2001.2,1183.3,2000.4,1183.1,1999.6,1183.1L1999.6,1183.1z"/>
	<g transform="matrix(.4863 0 0 .4863 308.47 34.488)">
		<path class="st19" d="M3519,2373.2c0,3.1-2.5,5.6-5.6,5.6s-5.6-2.5-5.6-5.6s2.5-5.6,5.6-5.6S3519,2370.2,3519,2373.2z"/>
	</g>
	<g>
		<path class="st20" d="M2002.4,1188.6c0,1.5-1.2,2.7-2.7,2.7s-2.7-1.2-2.7-2.7c0-1.5,1.2-2.7,2.7-2.7
			C2001.1,1185.9,2002.4,1187.1,2002.4,1188.6z"/>
	</g>
</g>
<path class="st21" d="M351.4,508.2l26.4,32.4"/>
<path class="st22" d="M450.5,548.8l48.6-12.8"/>
<g transform="matrix(1.9836 0 0 1.9836 1589.4 -1640.5)">
	<g transform="matrix(.99506 .09932 -.09932 .99506 92.445 60.87)">
		<path class="st6" d="M-566.4,1058.1l4.3-1.8l0.5,0.6l-4.5,2.3L-566.4,1058.1z"/>
		<path class="st23" d="M-566,1059.2l-0.4-1c0,0-4.3,0.5-4.5,1c-0.2,0.5-0.3,1.4,0.7,1.3C-569.2,1060.4-566.1,1059.3-566,1059.2
			L-566,1059.2z"/>
	</g>
	<path class="st24" d="M-567.5,1062.6c0,0-3-6.9-3.4-6.9s-1,0.5-1,0.7c-0.1,0.2,3.3,6.7,3.6,6.9
		C-568.1,1063.6-567.4,1062.6-567.5,1062.6z"/>
	<path class="st25" d="M-566.9,1071.2c0,0-7.1,6.1-14.5,7.7s-10.2,1.4-11.4,1.3c-1-0.4-1.7-0.5-1.7-0.5l0.4-1.6c0,0,0.9,0.9,2.1,1.1
		s9-0.5,14.9-2.8c5.9-2.3,10.2-6.6,10.2-6.6l0.6,1.3L-566.9,1071.2z"/>
	<path class="st26" d="M-594.1,1076.7l-0.2,3.1l-1.2-0.2l0.1-2.9C-594.6,1076.6-594.7,1076.8-594.1,1076.7L-594.1,1076.7z"/>
	<path class="st25" d="M-595.5,1078c0,0-3.1-0.9-4.8,2c-1.7,2.8-9.3,20.2-9.3,20.2c-1.4,0.3-1.8-0.6-1.6-0.8
		c2.1-2.5,7.7-17,7.9-17.3c0.2-0.3,1.6-2.9,3.1-3.9c1.5-1,4.2-1.4,4.8-1.4S-596,1077.1-595.5,1078L-595.5,1078z"/>
	<path class="st27" d="M-565.4,1073.2c0,0-5.8,4.9-7.3,7.2c-1.5,2.3-4.1,7.7-4.8,11.4c-1.3,7.1-2.8,14-10.2,14.5
		c-4.6-0.1-16.1-2.5-16.5-2.5s-5.4-1.2-5.4-1.2c-0.1-0.3,0.3-0.9,0.4-1.4c0.1-0.4,1.2,0.4,1.8,0.4s5.9,1,6.8,1.1s9.2,2,12.6,1.7
		c2.7-0.3,6.6-1.2,8-6.6c2.4-11.5,4.4-18.2,13.1-25.2c0.1-1.1,0.5-1.4,0.5-1.4L-565.4,1073.2z"/>
	<path class="st28" d="M-606.4,1097.2c0,0,4.7,0.6,9.6,1.2c2.4,0.3,4.9,0.6,6.8,0.9c1,0.1,1.8,0.2,2.4,0.3c0.6,0.1,1,0.1,1.1,0.1h0
		h0c2.5,0.8,4,2.5,4.6,4.4c0.5,1.9,0.2,4.1-0.4,5.4c-0.6,1.1-1.7,2-2.7,2.5s-4.2,0.5-4.2,0.5s0.3-0.5,0.8-0.8c2.1-0.1,4.3-1,5.2-2.7
		c0.6-1.1,1-2.9,0.5-4.6c-0.5-1.6-1.7-3.2-4-3.9l0,0c-0.2,0-0.5,0-1-0.1c-0.6-0.1-1.4-0.2-2.4-0.3c-1.9-0.2-4.4-0.6-6.8-0.9
		c-4.8-0.6-11.5-1.6-11.5-1.6l0.3-0.7L-606.4,1097.2z"/>
	<path class="st25" d="M-563.5,1074.5c0,0-5.9,5.1-6.8,6.4s-5.1,6.8-4.9,13.9c0.2,7.1,0.7,10.6,6.4,18.9c0.3,0.5-0.1,1.1-0.3,1.2
		s-0.5-0.1-0.7-1.1c-4.6-6.7-6.1-9.7-6.1-19.1c0-6.8,3.8-12.9,4.9-14.3c1.1-1.3,4.8-4.7,6-5.7c0.5-0.4,0.8-0.7,1.2-0.9
		C-563.7,1073.8-563.4,1074.5-563.5,1074.5L-563.5,1074.5z"/>
	<path class="st29" d="M-549.6,1096.5c0,0.3,0.3,0.6,0.7,0.6s0.7-0.3,0.7-0.6c0-0.3-0.3-0.6-0.7-0.6S-549.6,1096.2-549.6,1096.5z"/>
	<path class="st30" d="M-601.5,1070.6c0,0,4.1,0.1,6.2,0.1c0.6,0,1.3,0.7,1.3,1.3c-0.2,3.1-0.6,12.7-0.6,12.7l-0.8-0.1
		c0,0,0.3-8.7,0.4-12.6c0-0.3-0.3-0.6-0.6-0.6c-2.1-0.1-5.9-0.2-5.9-0.2L-601.5,1070.6z"/>
	<g transform="matrix(-.76103 -.10238 -.10238 .76103 -451.93 -107.74)">
		<path class="st31" d="M-20.5,1542.1c-1-0.5-2-0.8-3.1-0.9c-0.1,0-0.2,0.1-0.2,0.1c-0.1,0,0.9,0.2,1.8,0.5c1.6,0.5,1.5,0.7,1.5,0.7
			s0.6,0.6,0.6,0.5C-19.9,1542.8-20.1,1542.3-20.5,1542.1L-20.5,1542.1z"/>
		<path class="st32" d="M-22.9,1539.8l0,5.4l1.8,0l0-5.4L-22.9,1539.8z"/>
		<path class="st33" d="M-23.8,1541.4l0.1,0.5l3.8-0.3l-0.2-0.5L-23.8,1541.4L-23.8,1541.4z"/>
		<path class="st34" d="M-23.8,1542.8l0.1,0.5l3.7-0.3l-0.2-0.5L-23.8,1542.8L-23.8,1542.8z"/>
		<path class="st35" d="M-23.8,1544l0.1,0.5l3.7-0.3l-0.2-0.5L-23.8,1544L-23.8,1544z"/>
	</g>
	<path class="st36" d="M-602.1,1064.5c0,0,2.4,2.4,4,2.7c2.1,0.5,6.2-1,6.2-1l-0.3,0.7"/>
	<g transform="matrix(-.76103 -.10238 -.10238 .76103 -483.11 -112.88)">
		<path class="st31" d="M-49.7,1542.9c-1-0.5-2-0.8-3.1-0.9c-0.1,0-0.2,0.1-0.2,0.1c-0.1,0,0.9,0.2,1.8,0.5c1.6,0.5,1.5,0.7,1.5,0.7
			s0.6,0.6,0.6,0.5C-49.1,1543.7-49.3,1543.1-49.7,1542.9L-49.7,1542.9z"/>
		<path class="st32" d="M-52.1,1540.7l0,5.4l1.8,0l0-5.4L-52.1,1540.7z"/>
		<path class="st33" d="M-53,1542.3l0.1,0.5l3.8-0.3l-0.2-0.5L-53,1542.3L-53,1542.3z"/>
		<path class="st34" d="M-53,1543.6l0.1,0.5l3.7-0.3l-0.2-0.5L-53,1543.6L-53,1543.6z"/>
		<path class="st35" d="M-53,1544.9l0.1,0.5l3.7-0.3l-0.2-0.5L-53,1544.9L-53,1544.9z"/>
	</g>
	<path class="st37" d="M-588.5,1065.8c0,0-1.2-0.4-1.8-0.1c-1.2,0.5-0.1,2.8-2.9,2.8c-1.3,0-2.9-1.8-2.9-1.8s-7.9-1.3-7.8-2.3
		c0.1-1.1,1-0.5,2.5-0.1c2.8,0.8,3.6,0.8,5.4,0.4c1.8-0.3,5.3-0.7,6.4-0.2C-588.6,1064.9-588.2,1065.9-588.5,1065.8L-588.5,1065.8z"
		/>
	<path class="st38" d="M-572.3,1056.9c-2.3,0.2-1.8-0.3-4.1-0.2l-1.4-0.7c0,0,3.2-1,6.8-0.5
		C-569.4,1056.6-570.2,1056.4-572.3,1056.9L-572.3,1056.9z"/>
	<path class="st39" d="M-576,1056.7l-0.4-1.2c0,0-4.9,0.6-5.1,1.1s-0.3,1.6,0.8,1.5C-579.6,1058.1-576.1,1056.8-576,1056.7
		L-576,1056.7z"/>
	<path class="st40" d="M-568,1067.2l1-0.5l3.2,6.5l-1,0.6l-0.2-0.5l-0.3-0.1l-1.7-3.5c0,0-0.1-0.7-0.1-1
		C-567.5,1068.3-567.7,1067.7-568,1067.2L-568,1067.2z"/>
	<path class="st41" d="M-570.3,1055.5c0,0,7.6,13.3,9.6,17.2c0.2,0.4,0.9,0.1,1.4,0c0.6-0.1,1.1-0.3,1.5-0.7
		c0.4-0.3,0.8-1.1,0.8-1.1s-2.1,1.1-3.1,0.9c-0.3-0.1-0.7-0.6-0.7-0.6l-2.3-4.1l-0.3-0.2l-4.4-8l-0.3-0.2l-1.9-3.4L-570.3,1055.5z"
		/>
	<path class="st42" d="M-567.3,1062.5l0.5-0.3c0,0-0.1-0.3-0.2-0.4s0.7-0.5,0.8-0.5c0.2,0.2,0.4,0.6,0.5,0.9
		c0.1,0.1-0.7,0.6-0.8,0.5c0-0.1-0.2-0.3-0.2-0.3l-0.5,0.3L-567.3,1062.5z"/>
	<path class="st43" d="M-568.1,1067.6l1.5-0.8l-1.5-2.4l-0.5-0.1l-0.3-0.7l0.4-0.3l-0.3-0.5l1.4-0.7l5.4,10.2l-1.5,1l-0.3,0
		l-1.5,1.1c0,0-0.1,0.1-0.1-0.1c0.2-0.2,0.4-0.5,0.4-0.5l-0.4-0.6l0.9-0.6l-2.3-4.4l-0.9,0.5L-568.1,1067.6z"/>
	<path class="st44" d="M-563.4,1073.5l0.2,0.4l12.6,21.9c0,0,0.6,0.5,0.5,0.9c-0.2,1,1,1.2,1.6,1c0.5-0.2,0.9-1.8-0.3-1.9
		c-0.3,0-0.4-0.6-0.4-0.6s-9.7-18.3-12.1-22.6c-0.1-0.2-0.8-0.1-0.8-0.1L-563.4,1073.5z"/>
	<path class="st45" d="M-604,1068.8l3.2,0.2l-0.1,0.5l-3-0.1L-604,1068.8z"/>
	<path class="st45" d="M-602.7,1069.4l0.2,1.1l10.6,0.2v-0.5l-9.9-0.2l-0.1-0.7L-602.7,1069.4z"/>
	<path class="st46" d="M-570.3,1055.6c-0.5-0.1-0.9,1-1.2,1.3c-0.6,0.4-0.9,0.5-1.6,0.9c-3,1.4-7.3,2.3-7.3,2.3l0.7,0.7
		c3-1,5.8-1.8,8.6-2.7l1.2-0.9C-569.9,1057.1-569.9,1055.6-570.3,1055.6L-570.3,1055.6z"/>
	<path class="st47" d="M-570.3,1055.6l0.5-0.3l0.2,0.4l-0.5,0.2L-570.3,1055.6z"/>
	<path class="st48" d="M-571,1057.5c0,0.1-0.1,0.2-0.2,0.2s-0.2-0.1-0.2-0.2s0.1-0.2,0.2-0.2S-571,1057.3-571,1057.5z"/>
</g>
<path class="st21" d="M346.6,512l31.2,29.6"/>
<g>
	<polygon class="st49" points="382.8,544.5 420.7,551.1 420.4,552.5 381.7,545.4 	"/>
</g>
<g transform="matrix(-1.1808 0 0 -1.1808 972.17 1236.3)">
	<path class="st50" d="M464.4,580.1c-1,0.1-3.1,0.1-4.2,1.7c-0.3,0.4-1.2-2.7-1.2-2.7c2.1,0.2,3-1.2,4-2
		C463.5,578.6,464,579.5,464.4,580.1L464.4,580.1z"/>
	<path class="st51" d="M464.4,580.1c-1,0.1-3.1,0.1-4.2,1.7c-0.3,0.4-1.2-2.7-1.2-2.7c2.1,0.2,3-1.2,4-2
		C463.5,578.6,464,579.5,464.4,580.1L464.4,580.1z"/>
	<path class="st51" d="M462.7,578.1c-0.6-0.8-1.6-2.7-3.6-2.8c-0.5,0,1.7-2.4,1.7-2.4c0.9,1.9,2.5,2,3.7,2.5
		C463.6,576.6,463.1,577.5,462.7,578.1L462.7,578.1z"/>
	<path class="st51" d="M463.6,575.7c0.4-1,1.5-2.8,0.6-4.6c-0.2-0.4,2.9,0.3,2.9,0.3c-1.2,1.7-0.5,3.2-0.3,4.5
		C465.3,575.7,464.3,575.7,463.6,575.7L463.6,575.7z"/>
	<path class="st51" d="M467.8,577.2c0.6,0.8,1.6,2.7,3.6,2.8c0.5,0-1.7,2.4-1.7,2.4c-0.9-1.9-2.5-2-3.7-2.5
		C467,578.7,467.5,577.8,467.8,577.2L467.8,577.2z"/>
	<path class="st51" d="M467,579.6c-0.4,1-1.5,2.8-0.6,4.6c0.2,0.4-2.9-0.3-2.9-0.3c1.2-1.7,0.5-3.2,0.3-4.5
		C465.2,579.6,466.2,579.6,467,579.6L467,579.6z"/>
	<path class="st52" d="M466.1,575.2c1-0.1,3.1-0.1,4.2-1.7c0.3-0.4,1.2,2.7,1.2,2.7c-2.1-0.2-3,1.2-4,2
		C467,576.7,466.5,575.8,466.1,575.2L466.1,575.2z"/>
	<path class="st53" d="M465.7,569.9C465.6,569.9,465.6,569.9,465.7,569.9c-0.1,0.3-0.2,0.4-0.3,0.5c-0.2,0.2-0.4,0.2-0.4,0.2
		s-0.1,0-0.3,0c-0.2-0.1-0.4-0.2-0.4-0.6c0,0-0.4,0-0.4,0.1c0,0.4-0.1,0.6-0.2,0.7c-0.1,0.1-0.3,0.2-0.3,0.2s-0.1,0.1-0.3,0
		c-0.2,0-0.4-0.1-0.6-0.5c0,0-0.3,0.1-0.3,0.1c0.1,0.4,0,0.6-0.1,0.7c-0.1,0.1-0.2,0.2-0.2,0.2s-0.1,0.1-0.3,0.1
		c-0.2,0-0.4,0-0.7-0.3c0,0-0.3,0.2-0.3,0.2c0.2,0.3,0.2,0.6,0.1,0.7c-0.1,0.2-0.2,0.3-0.2,0.3s-0.1,0.1-0.2,0.1
		c-0.2,0.1-0.4,0.2-0.8-0.1c0,0-0.3,0.3-0.2,0.3c0.3,0.3,0.3,0.5,0.3,0.7s-0.1,0.3-0.1,0.3s-0.1,0.1-0.2,0.2c-0.1,0.1-0.4,0.2-0.7,0
		c0,0-0.2,0.3-0.2,0.3c0.3,0.2,0.4,0.4,0.4,0.6c0,0.2,0,0.3,0,0.3s0,0.1-0.2,0.3c-0.1,0.1-0.3,0.2-0.7,0.2c0,0-0.1,0.3-0.1,0.3
		c0.4,0.1,0.5,0.3,0.6,0.5c0.1,0.2,0,0.3,0,0.3s0,0.2-0.1,0.3c-0.1,0.1-0.3,0.3-0.7,0.3c0,0,0,0.1,0,0.2c0,0.1,0,0.2,0,0.2
		c0.4,0.1,0.6,0.2,0.7,0.4s0.1,0.3,0.1,0.3s0,0.1,0,0.3c-0.1,0.2-0.2,0.4-0.6,0.5c0,0,0,0.4,0.1,0.3c0.4,0,0.6,0.1,0.7,0.2
		c0.1,0.1,0.2,0.3,0.2,0.3s0.1,0.1,0.1,0.3s-0.1,0.4-0.5,0.6c0,0,0.1,0.3,0.2,0.3c0.4-0.1,0.6-0.1,0.7,0c0.1,0.1,0.2,0.2,0.2,0.2
		s0.1,0.1,0.1,0.3c0,0.2,0,0.4-0.3,0.7c0,0,0.2,0.3,0.2,0.3c0.4-0.2,0.7-0.2,0.8-0.1c0.1,0.1,0.2,0.1,0.2,0.1s0.1,0.1,0.2,0.2
		c0.1,0.2,0.1,0.4-0.1,0.7c0,0,0.3,0.3,0.3,0.2c0.3-0.3,0.5-0.3,0.7-0.3c0.2,0,0.3,0.1,0.3,0.1s0.1,0.1,0.3,0.2
		c0.1,0.1,0.2,0.4,0,0.7c0,0,0.3,0.2,0.3,0.2c0.2-0.3,0.4-0.4,0.6-0.5c0.2,0,0.3,0,0.3,0s0.2,0,0.3,0.1c0.1,0.1,0.3,0.3,0.2,0.7
		c0,0.1,0.3,0.1,0.4,0.1c0.1-0.4,0.3-0.5,0.5-0.6c0.2-0.1,0.3-0.1,0.3-0.1s0.2,0,0.4,0.1c0.1,0.1,0.2,0.3,0.3,0.6c0,0.1,0.4,0,0.4,0
		c0-0.4,0.2-0.6,0.3-0.7c0.1-0.1,0.3-0.1,0.3-0.1s0.1-0.1,0.3,0c0.2,0,0.4,0.2,0.5,0.5c0,0,0.4-0.1,0.3-0.1c-0.1-0.4,0-0.6,0.2-0.7
		c0.1-0.1,0.2-0.2,0.2-0.2s0.1-0.1,0.3-0.1c0.2,0,0.4,0.1,0.6,0.4c0,0,0.3-0.1,0.3-0.2c-0.1-0.3-0.1-0.6,0-0.7
		c0.1-0.2,0.2-0.2,0.2-0.2s0.1-0.1,0.3-0.2c0.2,0,0.4,0,0.7,0.3c0,0,0.3-0.2,0.3-0.2c0-0.1-0.1-0.1-0.1-0.2
		c-0.1-0.3-0.1-0.5-0.1-0.6c0-0.1,0.1-0.2,0.1-0.2s0.1-0.1,0.2-0.2c0.1-0.1,0.4-0.1,0.7,0.1c0,0,0.2-0.3,0.2-0.3
		c-0.3-0.2-0.3-0.5-0.3-0.7c0-0.2,0.1-0.3,0.1-0.3s0.1-0.2,0.2-0.3c0.1-0.1,0.4-0.2,0.7-0.1c0,0,0.2-0.3,0.1-0.3
		c-0.3-0.2-0.5-0.4-0.5-0.6s0-0.3,0-0.3s0-0.2,0.1-0.3c0.1-0.1,0.3-0.3,0.7-0.2c0.1,0,0.1-0.4,0.1-0.4c-0.4-0.1-0.5-0.3-0.6-0.4
		c-0.1-0.2-0.1-0.3-0.1-0.3s0-0.2,0.1-0.3c0.1-0.2,0.2-0.4,0.6-0.4c0.1,0,0-0.4,0-0.4c-0.4,0-0.6-0.1-0.7-0.3
		c-0.1-0.1-0.1-0.3-0.1-0.3s-0.1-0.1,0-0.3c0-0.2,0.2-0.4,0.5-0.5c0,0-0.1-0.3-0.1-0.3c-0.4,0.1-0.6,0-0.7-0.1
		c-0.1-0.1-0.2-0.2-0.2-0.2s-0.1-0.1-0.1-0.3c0-0.2,0.1-0.4,0.4-0.6c0,0-0.2-0.3-0.2-0.3c-0.3,0.2-0.6,0.1-0.7,0.1
		c-0.2-0.1-0.2-0.2-0.2-0.2s-0.1-0.1-0.1-0.2c-0.1-0.1-0.1-0.3,0.1-0.6c0-0.1,0.1-0.1,0.2-0.2c0,0-0.2-0.3-0.3-0.3
		c-0.3,0.2-0.5,0.3-0.7,0.2c-0.2,0-0.3-0.1-0.3-0.1s-0.1-0.1-0.2-0.2s-0.1-0.4,0-0.7c0,0-0.3-0.2-0.3-0.2c-0.2,0.3-0.5,0.4-0.6,0.4
		c-0.2,0-0.3-0.1-0.3-0.1s-0.2,0-0.3-0.2c-0.1-0.1-0.2-0.4-0.1-0.7c0,0-0.3-0.1-0.3-0.1c-0.2,0.3-0.4,0.5-0.5,0.5
		c-0.2,0.1-0.3,0-0.3,0s-0.1,0-0.3-0.1c-0.1-0.1-0.3-0.3-0.3-0.7C465.9,569.9,465.8,569.9,465.7,569.9L465.7,569.9z M465.3,571.4
		c3.4,0,6.3,2.8,6.3,6.3c0,3.4-2.8,6.3-6.3,6.3c-3.4,0-6.3-2.8-6.3-6.3C459.1,574.2,461.9,571.4,465.3,571.4z"/>
	<path class="st54" d="M468.1,577.7c0,1.6-1.3,2.9-2.9,2.9s-2.9-1.3-2.9-2.9s1.3-2.9,2.9-2.9C466.9,574.8,468.1,576.1,468.1,577.7z"
		/>
</g>
<path class="st55" d="M381,543.6l-0.4-1.5l-5.2-2.2l-0.4,1l3.7,1.5l0.3,1l-0.3,0.6l-0.9,0.6l-3.6-1.3l-0.3,1.1l1.4,0.9
	c2,1.1,1.6,0.7,3,1.3l1.9,0.1L381,543.6z"/>
<path class="st56" d="M379.1,543.2c0,0.9-0.7,1.6-1.5,1.6c-0.9,0-1.5-0.7-1.5-1.6c0-0.9,0.7-1.6,1.5-1.6
	C378.4,541.6,379.1,542.3,379.1,543.2z"/>
<path class="st57" d="M377.5,541.9l-1.1,0.7v1.3l1.1,0.7l1.1-0.7v-1.3L377.5,541.9z M377.5,542.4c0.4,0,0.8,0.3,0.8,0.8
	s-0.3,0.8-0.8,0.8s-0.8-0.3-0.8-0.8S377.1,542.4,377.5,542.4z"/>
<path class="st58" d="M472,482.2l1.8-0.7l-0.8-1.7l1.5-0.7l2.8,5.4l-1.5,0.7l-0.8-1.2l-1.3,0.9L472,482.2z"/>
<path class="st56" d="M501.9,534.9c0,0.9-0.7,1.6-1.5,1.6c-0.9,0-1.5-0.7-1.5-1.6c0-0.9,0.7-1.6,1.5-1.6
	C501.2,533.4,501.9,534.1,501.9,534.9z"/>
<path class="st57" d="M500.4,533.7l-1.1,0.7v1.3l1.1,0.7l1.1-0.7v-1.3L500.4,533.7z M500.4,534.2c0.4,0,0.8,0.3,0.8,0.8
	s-0.3,0.8-0.8,0.8s-0.8-0.3-0.8-0.8S499.9,534.2,500.4,534.2z"/>
<g transform="matrix(-.09884 -.02541 -.02541 .09884 254.11 642.4)">
	<path class="st17" d="M-1276.7-1166.5c-2.8-0.1-5.3,2.3-5.4,5c-0.3,2.7,1.8,5.3,4.5,5.8c1.5,0.3,3-0.2,4.3-0.9
		c3.7-1.6,8.2-1.4,11.8,0.5c2.5,1.2,5.7,0.2,7-2.2c1.4-2.3,0.7-5.5-1.5-7c-1.7-1.3-4.2-1.4-6-0.4c-3.9,1.9-8.7,1.8-12.5-0.2
		C-1275.1-1166.4-1275.9-1166.5-1276.7-1166.5z M-1276.7-1163.8c1.5,0,2.7,1.2,2.7,2.7c0,1.5-1.2,2.7-2.7,2.7
		c-1.5,0-2.7-1.2-2.7-2.7C-1279.4-1162.6-1278.2-1163.8-1276.7-1163.8z M-1259.3-1163.8c1.5,0,2.7,1.2,2.7,2.7s-1.2,2.7-2.7,2.7
		s-2.7-1.2-2.7-2.7S-1260.8-1163.8-1259.3-1163.8z"/>
</g>
<g transform="matrix(-.09803 -.02837 -.02837 .09803 250.8 636.3)">
	<path class="st18" d="M-1271.4-1155.8c-2.8-0.1-5.3,2.3-5.4,5c-0.3,2.7,1.8,5.3,4.5,5.8c1.5,0.3,3-0.2,4.3-0.9
		c3.7-1.6,8.2-1.4,11.8,0.5c2.5,1.2,5.7,0.2,7-2.2c1.4-2.3,0.7-5.5-1.5-7.1c-1.7-1.3-4.2-1.4-6-0.4c-3.9,1.9-8.7,1.8-12.5-0.2
		C-1269.9-1155.7-1270.7-1155.8-1271.4-1155.8L-1271.4-1155.8z"/>
	<g transform="matrix(.4863 0 0 .4863 308.47 34.488)">
		<path class="st19" d="M-3207.4-2436.5c0,3.1-2.5,5.6-5.6,5.6s-5.6-2.5-5.6-5.6s2.5-5.6,5.6-5.6
			C-3209.9-2442.1-3207.4-2439.6-3207.4-2436.5z"/>
	</g>
	<g>
		<path class="st20" d="M-1268.7-1150.4c0,1.5-1.2,2.7-2.7,2.7s-2.7-1.2-2.7-2.7c0-1.5,1.2-2.7,2.7-2.7
			C-1269.9-1153.1-1268.7-1151.9-1268.7-1150.4z"/>
	</g>
</g>
<g transform="matrix(-.09884 -.02541 -.02541 .09884 265.95 645.72)">
	<path class="st17" d="M-1191.2-1168.4c-2.8-0.1-5.3,2.3-5.4,5c-0.3,2.7,1.8,5.3,4.5,5.8c1.5,0.3,3-0.2,4.3-0.9
		c3.7-1.6,8.2-1.4,11.8,0.5c2.5,1.2,5.7,0.2,7-2.2c1.4-2.3,0.7-5.5-1.5-7c-1.7-1.3-4.2-1.4-6-0.4c-3.9,1.9-8.7,1.8-12.5-0.2
		C-1189.6-1168.2-1190.4-1168.4-1191.2-1168.4z M-1191.2-1165.7c1.5,0,2.7,1.2,2.7,2.7c0,1.5-1.2,2.7-2.7,2.7s-2.7-1.2-2.7-2.7
		C-1193.9-1164.4-1192.7-1165.7-1191.2-1165.7z M-1173.8-1165.7c1.5,0,2.7,1.2,2.7,2.7c0,1.5-1.2,2.7-2.7,2.7s-2.7-1.2-2.7-2.7
		C-1176.5-1164.4-1175.3-1165.7-1173.8-1165.7z"/>
</g>
<g transform="matrix(-.09803 -.02837 -.02837 .09803 262.65 639.62)">
	<path class="st18" d="M-1185.9-1155.1c-2.8-0.1-5.3,2.3-5.4,5c-0.3,2.7,1.8,5.3,4.5,5.8c1.5,0.3,3-0.2,4.3-0.9
		c3.7-1.6,8.2-1.4,11.8,0.5c2.5,1.2,5.7,0.2,7-2.2c1.4-2.3,0.7-5.5-1.5-7.1c-1.7-1.3-4.2-1.4-6-0.4c-3.9,1.9-8.7,1.8-12.5-0.2
		C-1184.3-1154.9-1185.1-1155.1-1185.9-1155.1L-1185.9-1155.1z"/>
	<g transform="matrix(.4863 0 0 .4863 308.47 34.488)">
		<path class="st19" d="M-3031.4-2435c0,3.1-2.5,5.6-5.6,5.6s-5.6-2.5-5.6-5.6s2.5-5.6,5.6-5.6
			C-3033.9-2440.6-3031.4-2438-3031.4-2435z"/>
	</g>
	<g>
		<path class="st20" d="M-1183.1-1149.6c0,1.5-1.2,2.7-2.7,2.7s-2.7-1.2-2.7-2.7c0-1.5,1.2-2.7,2.7-2.7
			S-1183.1-1151.1-1183.1-1149.6z"/>
	</g>
</g>
<g transform="matrix(-.09884 -.02541 -.02541 .09884 277.94 649)">
	<path class="st17" d="M-1104.8-1169.7c-2.8-0.1-5.3,2.3-5.4,5c-0.3,2.7,1.8,5.3,4.5,5.8c1.5,0.3,3-0.2,4.3-0.9
		c3.7-1.6,8.2-1.4,11.8,0.5c2.5,1.2,5.7,0.2,7-2.2c1.4-2.3,0.7-5.5-1.5-7c-1.7-1.3-4.2-1.4-6-0.4c-3.9,1.9-8.7,1.8-12.5-0.2
		C-1103.2-1169.5-1104-1169.7-1104.8-1169.7z M-1104.8-1167c1.5,0,2.7,1.2,2.7,2.7s-1.2,2.7-2.7,2.7s-2.7-1.2-2.7-2.7
		C-1107.5-1165.8-1106.2-1167-1104.8-1167z M-1087.3-1167c1.5,0,2.7,1.2,2.7,2.7s-1.2,2.7-2.7,2.7s-2.7-1.2-2.7-2.7
		S-1088.8-1167-1087.3-1167z"/>
</g>
<g transform="matrix(-.09803 -.02837 -.02837 .09803 274.64 642.9)">
	<path class="st18" d="M-1099.4-1153.8c-2.8-0.1-5.3,2.3-5.4,5c-0.3,2.7,1.8,5.3,4.5,5.8c1.5,0.3,3-0.2,4.3-0.9
		c3.7-1.6,8.2-1.4,11.8,0.5c2.5,1.2,5.7,0.2,7-2.2c1.4-2.3,0.7-5.5-1.5-7.1c-1.7-1.3-4.2-1.4-6-0.4c-3.9,1.9-8.7,1.8-12.5-0.2
		C-1097.9-1153.6-1098.7-1153.8-1099.4-1153.8L-1099.4-1153.8z"/>
	<g transform="matrix(.4863 0 0 .4863 308.47 34.488)">
		<path class="st19" d="M-2853.7-2432.4c0,3.1-2.5,5.6-5.6,5.6s-5.6-2.5-5.6-5.6s2.5-5.6,5.6-5.6S-2853.7-2435.4-2853.7-2432.4z"/>
	</g>
	<g>
		<path class="st20" d="M-1096.7-1148.4c0,1.5-1.2,2.7-2.7,2.7s-2.7-1.2-2.7-2.7s1.2-2.7,2.7-2.7S-1096.7-1149.9-1096.7-1148.4z"/>
	</g>
</g>
<g transform="matrix(-.09884 -.02541 -.02541 .09884 289.77 652.27)">
	<path class="st17" d="M-1019.4-1171.3c-2.8-0.1-5.3,2.3-5.4,5c-0.3,2.7,1.8,5.3,4.5,5.8c1.5,0.3,3-0.2,4.3-0.9
		c3.7-1.6,8.2-1.4,11.8,0.5c2.5,1.2,5.7,0.2,7-2.2c1.4-2.3,0.7-5.5-1.5-7c-1.7-1.3-4.2-1.4-6-0.4c-3.9,1.9-8.7,1.8-12.5-0.2
		C-1017.9-1171.1-1018.7-1171.3-1019.4-1171.3z M-1019.4-1168.5c1.5,0,2.7,1.2,2.7,2.7s-1.2,2.7-2.7,2.7c-1.5,0-2.7-1.2-2.7-2.7
		S-1020.9-1168.5-1019.4-1168.5z M-1002-1168.5c1.5,0,2.7,1.2,2.7,2.7s-1.2,2.7-2.7,2.7s-2.7-1.2-2.7-2.7
		S-1003.5-1168.5-1002-1168.5z"/>
</g>
<g transform="matrix(-.09803 -.02837 -.02837 .09803 286.46 646.17)">
	<path class="st18" d="M-1014.1-1152.8c-2.8-0.1-5.3,2.3-5.4,5c-0.3,2.7,1.8,5.3,4.5,5.8c1.5,0.3,3-0.2,4.3-0.9
		c3.7-1.6,8.2-1.4,11.8,0.5c2.5,1.2,5.7,0.2,7-2.2c1.4-2.3,0.7-5.5-1.5-7.1c-1.7-1.3-4.2-1.4-6-0.4c-3.9,1.9-8.7,1.8-12.5-0.2
		C-1012.6-1152.6-1013.4-1152.8-1014.1-1152.8L-1014.1-1152.8z"/>
	<g transform="matrix(.4863 0 0 .4863 308.47 34.488)">
		<path class="st19" d="M-2678.4-2430.3c0,3.1-2.5,5.6-5.6,5.6s-5.6-2.5-5.6-5.6s2.5-5.6,5.6-5.6S-2678.4-2433.4-2678.4-2430.3z"/>
	</g>
	<g>
		<path class="st20" d="M-1011.4-1147.4c0,1.5-1.2,2.7-2.7,2.7s-2.7-1.2-2.7-2.7s1.2-2.7,2.7-2.7S-1011.4-1148.9-1011.4-1147.4z"/>
	</g>
</g>
<g transform="matrix(-.10122 .01301 .01301 .10122 298.53 636.75)">
	<path class="st17" d="M-1310.7-567.7c-2.8-0.1-5.3,2.3-5.4,5c-0.3,2.7,1.8,5.3,4.5,5.8c1.5,0.3,3-0.2,4.3-0.9
		c3.7-1.6,8.2-1.4,11.8,0.5c2.5,1.2,5.7,0.2,7-2.2c1.4-2.3,0.7-5.5-1.5-7c-1.7-1.3-4.2-1.4-6-0.4c-3.9,1.9-8.7,1.8-12.5-0.2
		C-1309.2-567.6-1309.9-567.7-1310.7-567.7z M-1310.7-565c1.5,0,2.7,1.2,2.7,2.7c0,1.5-1.2,2.7-2.7,2.7s-2.7-1.2-2.7-2.7
		C-1313.5-563.8-1312.2-565-1310.7-565z M-1293.3-565c1.5,0,2.7,1.2,2.7,2.7s-1.2,2.7-2.7,2.7s-2.7-1.2-2.7-2.7
		S-1294.8-565-1293.3-565z"/>
</g>
<g transform="matrix(-.10203 -.00218 -.00218 .10203 295.76 637.06)">
	<path class="st18" d="M-1222.5-757.3c-2.8-0.1-5.3,2.3-5.4,5c-0.3,2.7,1.8,5.3,4.5,5.8c1.5,0.3,3-0.2,4.3-0.9
		c3.7-1.6,8.2-1.4,11.8,0.5c2.5,1.2,5.7,0.2,7-2.2c1.4-2.3,0.7-5.5-1.5-7.1c-1.7-1.3-4.2-1.4-6-0.4c-3.9,1.9-8.7,1.8-12.5-0.2
		C-1220.9-757.2-1221.7-757.4-1222.5-757.3L-1222.5-757.3z"/>
	<g transform="matrix(.4863 0 0 .4863 308.47 34.488)">
		<path class="st19" d="M-3106.7-1617.1c0,3.1-2.5,5.6-5.6,5.6s-5.6-2.5-5.6-5.6s2.5-5.6,5.6-5.6S-3106.7-1620.2-3106.7-1617.1z"/>
	</g>
	<g>
		<path class="st20" d="M-1219.7-751.9c0,1.5-1.2,2.7-2.7,2.7c-1.5,0-2.7-1.2-2.7-2.7s1.2-2.7,2.7-2.7
			C-1220.9-754.6-1219.7-753.4-1219.7-751.9z"/>
	</g>
</g>
<g transform="matrix(-.09025 .04765 .04765 .09025 301.36 621.24)">
	<path class="st17" d="M-1363.1,54.5c-2.8-0.1-5.3,2.3-5.4,5c-0.3,2.7,1.8,5.3,4.5,5.8c1.5,0.3,3-0.2,4.3-0.9
		c3.7-1.6,8.2-1.4,11.8,0.5c2.5,1.2,5.7,0.2,7-2.2c1.4-2.3,0.7-5.5-1.5-7c-1.7-1.3-4.2-1.4-6-0.4c-3.9,1.9-8.7,1.8-12.5-0.2
		C-1361.5,54.7-1362.3,54.5-1363.1,54.5z M-1363.1,57.2c1.5,0,2.7,1.2,2.7,2.7c0,1.5-1.2,2.7-2.7,2.7c-1.5,0-2.7-1.2-2.7-2.7
		S-1364.6,57.2-1363.1,57.2z M-1345.7,57.2c1.5,0,2.7,1.2,2.7,2.7s-1.2,2.7-2.7,2.7s-2.7-1.2-2.7-2.7S-1347.1,57.2-1345.7,57.2z"/>
</g>
<g transform="matrix(-.10013 .01974 .01974 .10013 303.03 627.2)">
	<path class="st18" d="M-1301.5-394.8c-2.8-0.1-5.3,2.3-5.4,5c-0.3,2.7,1.8,5.3,4.5,5.8c1.5,0.3,3-0.2,4.3-0.9
		c3.7-1.6,8.2-1.4,11.8,0.5c2.5,1.2,5.7,0.2,7-2.2c1.4-2.3,0.7-5.5-1.5-7.1c-1.7-1.3-4.2-1.4-6-0.4c-3.9,1.9-8.7,1.8-12.5-0.2
		C-1300-394.6-1300.8-394.8-1301.5-394.8L-1301.5-394.8z"/>
	<g transform="matrix(.4863 0 0 .4863 308.47 34.488)">
		<path class="st19" d="M-3269.3-871.6c0,3.1-2.5,5.6-5.6,5.6s-5.6-2.5-5.6-5.6s2.5-5.6,5.6-5.6S-3269.3-874.6-3269.3-871.6z"/>
	</g>
	<g>
		<path class="st20" d="M-1298.8-389.4c0,1.5-1.2,2.7-2.7,2.7s-2.7-1.2-2.7-2.7c0-1.5,1.2-2.7,2.7-2.7
			C-1300-392.1-1298.8-390.9-1298.8-389.4z"/>
	</g>
</g>
<g transform="matrix(-.06169 .08129 .08129 .06169 295.12 603.43)">
	<path class="st17" d="M-1143.6,784.2c-2.8-0.1-5.3,2.3-5.4,5c-0.3,2.7,1.8,5.3,4.5,5.8c1.5,0.3,3-0.2,4.3-0.9
		c3.7-1.6,8.2-1.4,11.8,0.5c2.5,1.2,5.7,0.2,7-2.2c1.4-2.3,0.7-5.5-1.5-7c-1.7-1.3-4.2-1.4-6-0.4c-3.9,1.9-8.7,1.8-12.5-0.2
		C-1142.1,784.3-1142.9,784.2-1143.6,784.2z M-1143.6,786.9c1.5,0,2.7,1.2,2.7,2.7s-1.2,2.7-2.7,2.7c-1.5,0-2.7-1.2-2.7-2.7
		S-1145.1,786.9-1143.6,786.9z M-1126.2,786.9c1.5,0,2.7,1.2,2.7,2.7s-1.2,2.7-2.7,2.7c-1.5,0-2.7-1.2-2.7-2.7
		S-1127.7,786.9-1126.2,786.9z"/>
</g>
<g transform="matrix(-.08243 .06016 .06016 .08243 299.15 608.13)">
	<path class="st18" d="M-1300.8,367c-2.8-0.1-5.3,2.3-5.4,5c-0.3,2.7,1.8,5.3,4.5,5.8c1.5,0.3,3-0.2,4.3-0.9
		c3.7-1.6,8.2-1.4,11.8,0.5c2.5,1.2,5.7,0.2,7-2.2c1.4-2.3,0.7-5.5-1.5-7.1c-1.7-1.3-4.2-1.4-6-0.4c-3.9,1.9-8.7,1.8-12.5-0.2
		C-1299.2,367.2-1300,367-1300.8,367L-1300.8,367z"/>
	<g transform="matrix(.4863 0 0 .4863 308.47 34.488)">
		<path class="st19" d="M-3267.7,695.1c0,3.1-2.5,5.6-5.6,5.6s-5.6-2.5-5.6-5.6c0-3.1,2.5-5.6,5.6-5.6S-3267.7,692-3267.7,695.1z"/>
	</g>
	<g>
		<path class="st20" d="M-1298,372.5c0,1.5-1.2,2.7-2.7,2.7c-1.5,0-2.7-1.2-2.7-2.7c0-1.5,1.2-2.7,2.7-2.7
			C-1299.3,369.8-1298,371-1298,372.5z"/>
	</g>
</g>
<g transform="matrix(-.0278 .09819 .09819 .0278 285.12 590.38)">
	<path class="st17" d="M-714.7,1281.4c-2.8-0.1-5.3,2.3-5.4,5c-0.3,2.7,1.8,5.3,4.5,5.8c1.5,0.3,3-0.2,4.3-0.9
		c3.7-1.6,8.2-1.4,11.8,0.5c2.5,1.2,5.7,0.2,7-2.2c1.4-2.3,0.7-5.5-1.5-7c-1.7-1.3-4.2-1.4-6-0.4c-3.9,1.9-8.7,1.8-12.5-0.2
		C-713.2,1281.6-713.9,1281.4-714.7,1281.4z M-714.7,1284.1c1.5,0,2.7,1.2,2.7,2.7s-1.2,2.7-2.7,2.7s-2.7-1.2-2.7-2.7
		S-716.2,1284.1-714.7,1284.1z M-697.3,1284.2c1.5,0,2.7,1.2,2.7,2.7s-1.2,2.7-2.7,2.7c-1.5,0-2.7-1.2-2.7-2.7
		C-700,1285.4-698.8,1284.2-697.3,1284.2z"/>
</g>
<g transform="matrix(-.05482 .08608 .08608 .05482 290.58 593.29)">
	<path class="st18" d="M-1032.7,966.5c-2.8-0.1-5.3,2.3-5.4,5c-0.3,2.7,1.8,5.3,4.5,5.8c1.5,0.3,3-0.2,4.3-0.9
		c3.7-1.6,8.2-1.4,11.8,0.5c2.5,1.2,5.7,0.2,7-2.2c1.4-2.3,0.7-5.5-1.5-7.1c-1.7-1.3-4.2-1.4-6-0.4c-3.9,1.9-8.7,1.8-12.5-0.2
		C-1031.1,966.6-1031.9,966.5-1032.7,966.5L-1032.7,966.5z"/>
	<g transform="matrix(.4863 0 0 .4863 308.47 34.488)">
		<path class="st19" d="M-2716.4,1927.7c0,3.1-2.5,5.6-5.6,5.6s-5.6-2.5-5.6-5.6c0-3.1,2.5-5.6,5.6-5.6
			C-2719,1922.1-2716.4,1924.6-2716.4,1927.7z"/>
	</g>
	<g>
		<path class="st20" d="M-1030,971.9c0,1.5-1.2,2.7-2.7,2.7s-2.7-1.2-2.7-2.7s1.2-2.7,2.7-2.7S-1030,970.4-1030,971.9z"/>
	</g>
</g>
<g transform="matrix(.01719 .1006 .1006 -.01719 267.6 583.3)">
	<path class="st17" d="M-27.4,1626.8c-2.8-0.1-5.3,2.3-5.4,5c-0.3,2.7,1.8,5.3,4.5,5.8c1.5,0.3,3-0.2,4.3-0.9
		c3.7-1.6,8.2-1.4,11.8,0.5c2.5,1.2,5.7,0.2,7-2.2c1.4-2.3,0.7-5.5-1.5-7c-1.7-1.3-4.2-1.4-6-0.4c-3.9,1.9-8.7,1.8-12.5-0.2
		C-25.9,1627-26.6,1626.8-27.4,1626.8z M-27.4,1629.5c1.5,0,2.7,1.2,2.7,2.7s-1.2,2.7-2.7,2.7s-2.7-1.2-2.7-2.7
		S-28.9,1629.5-27.4,1629.5z M-10,1629.5c1.5,0,2.7,1.2,2.7,2.7s-1.2,2.7-2.7,2.7s-2.7-1.2-2.7-2.7S-11.5,1629.5-10,1629.5z"/>
</g>
<g transform="matrix(-.01242 .1013 .1013 .01242 273.78 583.57)">
	<path class="st18" d="M-473.5,1494.7c-2.8-0.1-5.3,2.3-5.4,5c-0.3,2.7,1.8,5.3,4.5,5.8c1.5,0.3,3-0.2,4.3-0.9
		c3.7-1.6,8.2-1.4,11.8,0.5c2.5,1.2,5.7,0.2,7-2.2c1.4-2.3,0.7-5.5-1.5-7.1c-1.7-1.3-4.2-1.4-6-0.4c-3.9,1.9-8.7,1.8-12.5-0.2
		C-472,1494.8-472.8,1494.7-473.5,1494.7L-473.5,1494.7z"/>
	<g transform="matrix(.4863 0 0 .4863 308.47 34.488)">
		<path class="st19" d="M-1566.7,3013.8c0,3.1-2.5,5.6-5.6,5.6c-3.1,0-5.6-2.5-5.6-5.6s2.5-5.6,5.6-5.6
			C-1569.2,3008.2-1566.7,3010.7-1566.7,3013.8z"/>
	</g>
	<g>
		<path class="st20" d="M-470.8,1500.1c0,1.5-1.2,2.7-2.7,2.7c-1.5,0-2.7-1.2-2.7-2.7s1.2-2.7,2.7-2.7
			C-472,1497.4-470.8,1498.6-470.8,1500.1z"/>
	</g>
</g>
<g transform="matrix(.05015 .08888 .08888 -.05015 252.31 580.57)">
	<path class="st17" d="M587.9,1663.1c-2.8-0.1-5.3,2.3-5.4,5c-0.3,2.7,1.8,5.3,4.5,5.8c1.5,0.3,3-0.2,4.3-0.9
		c3.7-1.6,8.2-1.4,11.8,0.5c2.5,1.2,5.7,0.2,7-2.2c1.4-2.3,0.7-5.5-1.5-7c-1.7-1.3-4.2-1.4-6-0.4c-3.9,1.9-8.7,1.8-12.5-0.2
		C589.5,1663.3,588.7,1663.1,587.9,1663.1z M587.9,1665.9c1.5,0,2.7,1.2,2.7,2.7s-1.2,2.7-2.7,2.7c-1.5,0-2.7-1.2-2.7-2.7
		C585.2,1667.1,586.4,1665.9,587.9,1665.9z M605.4,1665.9c1.5,0,2.7,1.2,2.7,2.7s-1.2,2.7-2.7,2.7s-2.7-1.2-2.7-2.7
		S603.9,1665.9,605.4,1665.9z"/>
</g>
<g transform="matrix(.02252 .09954 .09954 -.02252 258.23 578.74)">
	<path class="st18" d="M105.4,1706c-2.8-0.1-5.3,2.3-5.4,5c-0.3,2.7,1.8,5.3,4.5,5.8c1.5,0.3,3-0.2,4.3-0.9
		c3.7-1.6,8.2-1.4,11.8,0.5c2.5,1.2,5.7,0.2,7-2.2c1.4-2.3,0.7-5.5-1.5-7.1c-1.7-1.3-4.2-1.4-6-0.4c-3.9,1.9-8.7,1.8-12.5-0.2
		C107,1706.2,106.2,1706,105.4,1706L105.4,1706z"/>
	<g transform="matrix(.4863 0 0 .4863 308.47 34.488)">
		<path class="st19" d="M-376.1,3448.5c0,3.1-2.5,5.6-5.6,5.6c-3.1,0-5.6-2.5-5.6-5.6s2.5-5.6,5.6-5.6
			C-378.6,3442.9-376.1,3445.4-376.1,3448.5z"/>
	</g>
	<g>
		<path class="st20" d="M108.2,1711.5c0,1.5-1.2,2.7-2.7,2.7s-2.7-1.2-2.7-2.7s1.2-2.7,2.7-2.7
			C106.9,1708.8,108.2,1710,108.2,1711.5z"/>
	</g>
</g>
<g transform="matrix(.08282 .05963 .05963 -.08282 234.22 587.41)">
	<path class="st17" d="M1302.5,1424.4c-2.8-0.1-5.3,2.3-5.4,5c-0.3,2.7,1.8,5.3,4.5,5.8c1.5,0.3,3-0.2,4.3-0.9
		c3.7-1.6,8.2-1.4,11.8,0.5c2.5,1.2,5.7,0.2,7-2.2c1.4-2.3,0.7-5.5-1.5-7c-1.7-1.3-4.2-1.4-6-0.4c-3.9,1.9-8.7,1.8-12.5-0.2
		C1304.1,1424.6,1303.3,1424.4,1302.5,1424.4z M1302.5,1427.2c1.5,0,2.7,1.2,2.7,2.7s-1.2,2.7-2.7,2.7c-1.5,0-2.7-1.2-2.7-2.7
		S1301,1427.2,1302.5,1427.2z M1320,1427.2c1.5,0,2.7,1.2,2.7,2.7s-1.2,2.7-2.7,2.7s-2.7-1.2-2.7-2.7S1318.5,1427.2,1320,1427.2z"/>
</g>
<g transform="matrix(.07033 .07395 .07395 -.07033 237.23 588.04)">
	<path class="st18" d="M1008.7,1626.6c-2.8-0.1-5.3,2.3-5.4,5c-0.3,2.7,1.8,5.3,4.5,5.8c1.5,0.3,3-0.2,4.3-0.9
		c3.7-1.6,8.2-1.4,11.8,0.5c2.5,1.2,5.7,0.2,7-2.2c1.4-2.3,0.7-5.5-1.5-7.1c-1.7-1.3-4.2-1.4-6-0.4c-3.9,1.9-8.7,1.8-12.5-0.2
		C1010.3,1626.8,1009.5,1626.6,1008.7,1626.6L1008.7,1626.6z"/>
	<g transform="matrix(.4863 0 0 .4863 308.47 34.488)">
		<path class="st19" d="M1481.3,3285.2c0,3.1-2.5,5.6-5.6,5.6c-3.1,0-5.6-2.5-5.6-5.6s2.5-5.6,5.6-5.6
			C1478.8,3279.6,1481.3,3282.1,1481.3,3285.2z"/>
	</g>
	<g>
		<path class="st20" d="M1011.4,1632.1c0,1.5-1.2,2.7-2.7,2.7s-2.7-1.2-2.7-2.7c0-1.5,1.2-2.7,2.7-2.7S1011.4,1630.6,1011.4,1632.1z
			"/>
	</g>
</g>
<g transform="matrix(.09928 .02362 .02362 -.09928 220.97 599.69)">
	<path class="st17" d="M1812.6,970.5c-2.8-0.1-5.3,2.3-5.4,5c-0.3,2.7,1.8,5.3,4.5,5.8c1.5,0.3,3-0.2,4.3-0.9
		c3.7-1.6,8.2-1.4,11.8,0.5c2.5,1.2,5.7,0.2,7-2.2c1.4-2.3,0.7-5.5-1.5-7c-1.7-1.3-4.2-1.4-6-0.4c-3.9,1.9-8.7,1.8-12.5-0.2
		C1814.1,970.7,1813.3,970.5,1812.6,970.5z M1812.6,973.2c1.5,0,2.7,1.2,2.7,2.7c0,1.5-1.2,2.7-2.7,2.7c-1.5,0-2.7-1.2-2.7-2.7
		C1809.8,974.4,1811.1,973.2,1812.6,973.2z M1830,973.2c1.5,0,2.7,1.2,2.7,2.7c0,1.5-1.2,2.7-2.7,2.7c-1.5,0-2.7-1.2-2.7-2.7
		C1827.3,974.4,1828.5,973.2,1830,973.2z"/>
</g>
<g transform="matrix(.09478 .03784 .03784 -.09478 223.62 600.42)">
	<path class="st18" d="M1641.1,1223.9c-2.8-0.1-5.3,2.3-5.4,5c-0.3,2.7,1.8,5.3,4.5,5.8c1.5,0.3,3-0.2,4.3-0.9
		c3.7-1.6,8.2-1.4,11.8,0.5c2.5,1.2,5.7,0.2,7-2.2c1.4-2.3,0.7-5.5-1.5-7.1c-1.7-1.3-4.2-1.4-6-0.4c-3.9,1.9-8.7,1.8-12.5-0.2
		C1642.6,1224.1,1641.9,1223.9,1641.1,1223.9L1641.1,1223.9z"/>
	<g transform="matrix(.4863 0 0 .4863 308.47 34.488)">
		<path class="st19" d="M2781.7,2457.1c0,3.1-2.5,5.6-5.6,5.6s-5.6-2.5-5.6-5.6s2.5-5.6,5.6-5.6S2781.7,2454,2781.7,2457.1z"/>
	</g>
	<g>
		<path class="st20" d="M1643.8,1229.4c0,1.5-1.2,2.7-2.7,2.7c-1.5,0-2.7-1.2-2.7-2.7c0-1.5,1.2-2.7,2.7-2.7
			C1642.6,1226.6,1643.8,1227.9,1643.8,1229.4z"/>
	</g>
</g>
<g transform="matrix(.10068 .01669 .01669 -.10068 208.77 600.39)">
	<path class="st17" d="M1956.3,869.1c-2.8-0.1-5.3,2.3-5.4,5c-0.3,2.7,1.8,5.3,4.5,5.8c1.5,0.3,3-0.2,4.3-0.9
		c3.7-1.6,8.2-1.4,11.8,0.5c2.5,1.2,5.7,0.2,7-2.2c1.4-2.3,0.7-5.5-1.5-7c-1.7-1.3-4.2-1.4-6-0.4c-3.9,1.9-8.7,1.8-12.5-0.2
		C1957.8,869.2,1957,869.1,1956.3,869.1z M1956.3,871.8c1.5,0,2.7,1.2,2.7,2.7c0,1.5-1.2,2.7-2.7,2.7c-1.5,0-2.7-1.2-2.7-2.7
		C1953.5,873,1954.8,871.8,1956.3,871.8z M1973.7,871.8c1.5,0,2.7,1.2,2.7,2.7c0,1.5-1.2,2.7-2.7,2.7c-1.5,0-2.7-1.2-2.7-2.7
		C1971,873,1972.2,871.8,1973.7,871.8z"/>
</g>
<g transform="matrix(.10068 .01669 .01669 -.10068 212.95 607.33)">
	<path class="st18" d="M1922.2,929.5c-2.8-0.1-5.3,2.3-5.4,5c-0.3,2.7,1.8,5.3,4.5,5.8c1.5,0.3,3-0.2,4.3-0.9
		c3.7-1.6,8.2-1.4,11.8,0.5c2.5,1.2,5.7,0.2,7-2.2c1.4-2.3,0.7-5.5-1.5-7.1c-1.7-1.3-4.2-1.4-6-0.4c-3.9,1.9-8.7,1.8-12.5-0.2
		C1923.7,929.6,1923,929.5,1922.2,929.5L1922.2,929.5z"/>
	<g transform="matrix(.4863 0 0 .4863 308.47 34.488)">
		<path class="st19" d="M3359.8,1851.6c0,3.1-2.5,5.6-5.6,5.6s-5.6-2.5-5.6-5.6s2.5-5.6,5.6-5.6S3359.8,1848.5,3359.8,1851.6z"/>
	</g>
	<g>
		<path class="st20" d="M1924.9,934.9c0,1.5-1.2,2.7-2.7,2.7c-1.5,0-2.7-1.2-2.7-2.7c0-1.5,1.2-2.7,2.7-2.7
			C1923.7,932.2,1924.9,933.4,1924.9,934.9z"/>
	</g>
</g>
<g transform="matrix(.1012 .01315 .01315 -.1012 196.89 600.01)">
	<path class="st17" d="M2066.8,811.9c-2.8-0.1-5.3,2.3-5.4,5c-0.3,2.7,1.8,5.3,4.5,5.8c1.5,0.3,3-0.2,4.3-0.9
		c3.7-1.6,8.2-1.4,11.8,0.5c2.5,1.2,5.7,0.2,7-2.2c1.4-2.3,0.7-5.5-1.5-7c-1.7-1.3-4.2-1.4-6-0.4c-3.9,1.9-8.7,1.8-12.5-0.2
		C2068.3,812.1,2067.6,811.9,2066.8,811.9z M2066.8,814.6c1.5,0,2.7,1.2,2.7,2.7c0,1.5-1.2,2.7-2.7,2.7c-1.5,0-2.7-1.2-2.7-2.7
		S2065.3,814.6,2066.8,814.6z M2084.2,814.6c1.5,0,2.7,1.2,2.7,2.7c0,1.5-1.2,2.7-2.7,2.7c-1.5,0-2.7-1.2-2.7-2.7
		S2082.7,814.6,2084.2,814.6z"/>
</g>
<g transform="matrix(.1012 .01315 .01315 -.1012 201.32 606.8)">
	<path class="st18" d="M2032.6,872.3c-2.8-0.1-5.3,2.3-5.4,5c-0.3,2.7,1.8,5.3,4.5,5.8c1.5,0.3,3-0.2,4.3-0.9
		c3.7-1.6,8.2-1.4,11.8,0.5c2.5,1.2,5.7,0.2,7-2.2c1.4-2.3,0.7-5.5-1.5-7.1c-1.7-1.3-4.2-1.4-6-0.4c-3.9,1.9-8.7,1.8-12.5-0.2
		C2034.2,872.5,2033.4,872.3,2032.6,872.3L2032.6,872.3z"/>
	<g transform="matrix(.4863 0 0 .4863 308.47 34.488)">
		<path class="st19" d="M3586.9,1734c0,3.1-2.5,5.6-5.6,5.6s-5.6-2.5-5.6-5.6s2.5-5.6,5.6-5.6
			C3584.4,1728.4,3586.9,1730.9,3586.9,1734z"/>
	</g>
	<g>
		<path class="st20" d="M2035.4,877.8c0,1.5-1.2,2.7-2.7,2.7c-1.5,0-2.7-1.2-2.7-2.7s1.2-2.7,2.7-2.7
			C2034.1,875,2035.4,876.2,2035.4,877.8z"/>
	</g>
</g>
<g transform="matrix(.1012 .01315 .01315 -.1012 184.74 598.44)">
	<path class="st17" d="M2152,811.9c-2.8-0.1-5.3,2.3-5.4,5c-0.3,2.7,1.8,5.3,4.5,5.8c1.5,0.3,3-0.2,4.3-0.9
		c3.7-1.6,8.2-1.4,11.8,0.5c2.5,1.2,5.7,0.2,7-2.2c1.4-2.3,0.7-5.5-1.5-7c-1.7-1.3-4.2-1.4-6-0.4c-3.9,1.9-8.7,1.8-12.5-0.2
		C2153.5,812.1,2152.7,811.9,2152,811.9z M2152,814.7c1.5,0,2.7,1.2,2.7,2.7s-1.2,2.7-2.7,2.7s-2.7-1.2-2.7-2.7
		S2150.5,814.7,2152,814.7z M2169.4,814.7c1.5,0,2.7,1.2,2.7,2.7c0,1.5-1.2,2.7-2.7,2.7c-1.5,0-2.7-1.2-2.7-2.7
		C2166.7,815.9,2167.9,814.7,2169.4,814.7z"/>
</g>
<g transform="matrix(.1012 .01315 .01315 -.1012 189.16 605.23)">
	<path class="st18" d="M2117.9,872.4c-2.8-0.1-5.3,2.3-5.4,5c-0.3,2.7,1.8,5.3,4.5,5.8c1.5,0.3,3-0.2,4.3-0.9
		c3.7-1.6,8.2-1.4,11.8,0.5c2.5,1.2,5.7,0.2,7-2.2c1.4-2.3,0.7-5.5-1.5-7.1c-1.7-1.3-4.2-1.4-6-0.4c-3.9,1.9-8.7,1.8-12.5-0.2
		C2119.4,872.5,2118.7,872.4,2117.9,872.4L2117.9,872.4z"/>
	<g transform="matrix(.4863 0 0 .4863 308.47 34.488)">
		<path class="st19" d="M3762.3,1734.2c0,3.1-2.5,5.6-5.6,5.6s-5.6-2.5-5.6-5.6c0-3.1,2.5-5.6,5.6-5.6
			C3759.7,1728.6,3762.3,1731.1,3762.3,1734.2z"/>
	</g>
	<g>
		<path class="st20" d="M2120.6,877.8c0,1.5-1.2,2.7-2.7,2.7s-2.7-1.2-2.7-2.7c0-1.5,1.2-2.7,2.7-2.7S2120.6,876.3,2120.6,877.8z"/>
	</g>
</g>
<g transform="matrix(.0918 .00459 -.00105 -.10222 179.79 601.41)">
	<path class="st17" d="M2518.2,670.3c-2.8-0.1-5.3,2.3-5.4,5c-0.3,2.7,1.8,5.3,4.5,5.8c1.5,0.3,3-0.2,4.3-0.9
		c3.7-1.6,8.2-1.4,11.8,0.5c2.5,1.2,5.7,0.2,7-2.2c1.4-2.3,0.7-5.5-1.5-7c-1.7-1.3-4.2-1.4-6-0.4c-3.9,1.9-8.7,1.8-12.5-0.2
		C2519.8,670.5,2519,670.3,2518.2,670.3z M2518.2,673c1.5,0,2.7,1.2,2.7,2.7c0,1.5-1.2,2.7-2.7,2.7c-1.5,0-2.7-1.2-2.7-2.7
		C2515.5,674.2,2516.7,673,2518.2,673z M2535.7,673.1c1.5,0,2.7,1.2,2.7,2.7c0,1.5-1.2,2.7-2.7,2.7s-2.7-1.2-2.7-2.7
		S2534.1,673.1,2535.7,673.1z"/>
</g>
<g transform="matrix(.0918 .00459 -.00105 -.10222 184.58 607.81)">
	<path class="st18" d="M2484.2,730.6c-2.8-0.1-5.3,2.3-5.4,5c-0.3,2.7,1.8,5.3,4.5,5.8c1.5,0.3,3-0.2,4.3-0.9
		c3.7-1.6,8.2-1.4,11.8,0.5c2.5,1.2,5.7,0.2,7-2.2c1.4-2.3,0.7-5.5-1.5-7.1c-1.7-1.3-4.2-1.4-6-0.4c-3.9,1.9-8.7,1.8-12.5-0.2
		C2485.7,730.8,2484.9,730.6,2484.2,730.6L2484.2,730.6z"/>
	<g transform="matrix(.4863 0 0 .4863 308.47 34.488)">
		<path class="st19" d="M4515.4,1442.7c0,3.1-2.5,5.6-5.6,5.6s-5.6-2.5-5.6-5.6s2.5-5.6,5.6-5.6S4515.4,1439.6,4515.4,1442.7z"/>
	</g>
	<g>
		<path class="st20" d="M2486.9,736.1c0,1.5-1.2,2.7-2.7,2.7s-2.7-1.2-2.7-2.7c0-1.5,1.2-2.7,2.7-2.7
			C2485.7,733.4,2486.9,734.6,2486.9,736.1z"/>
	</g>
</g>
<path class="st59" d="M425.3,552.1c0,0-1.4,0.3-2.3,0.2c-3.3-0.1-3,4,0.4,3.6c1.5-0.2,2.6-0.3,2.6-0.3c0.3-0.6,0.5-0.7,1.2-0.9
	c2.5-0.4,8.2-1.5,10.9-2c0.7-0.1,1.2-1.1,1-1.7c-0.2-0.6-1-0.8-1.6-0.7c-3.3,0.8-8.6,1.7-11.2,2.1
	C425.5,552.6,425.7,552.2,425.3,552.1L425.3,552.1z"/>
<g transform="matrix(.68846 -.64907 -.64907 -.68846 813.95 1758.8)">
	<path class="st60" d="M588.8,1202.7h2.3c0.3,0,0.5-0.2,0.5-0.5v-2.1c0-0.3-0.2-0.5-0.5-0.5h-2.3c-0.3,0-0.5,0.2-0.5,0.5v2.1
		C588.4,1202.5,588.6,1202.7,588.8,1202.7"/>
	<path class="st60" d="M580.5,1202.8h2.3c0.3,0,0.5-0.2,0.5-0.5v-2.1c0-0.3-0.2-0.5-0.5-0.5h-2.3c-0.3,0-0.5,0.2-0.5,0.5v2.1
		C580,1202.6,580.2,1202.8,580.5,1202.8"/>
	<path class="st61" d="M580.3,1201.2c0,1.4,1.4,1.1,2.8,1.1s1.4,0.6,2.8,0.6c1.1,0,1.6-0.6,2.8-0.6c1.4,0,2.7,0.3,2.7-1.1
		s-1.3-1.1-2.7-1.1c-1.2,0-1.6-0.5-2.8-0.6c-0.8,0-1.4,0.6-2.8,0.6C581.8,1200.1,580.3,1199.8,580.3,1201.2z"/>
	<path class="st62" d="M582.1,1201.2c0-0.4-0.3-0.6-0.6-0.6c-0.3,0-0.6,0.3-0.6,0.6c0,0.4,0.3,0.6,0.6,0.6
		C581.8,1201.8,582.1,1201.5,582.1,1201.2z"/>
	<path class="st62" d="M589.5,1201.3c0-0.4,0.3-0.6,0.6-0.6c0.3,0,0.6,0.3,0.6,0.6s-0.3,0.6-0.6,0.6
		C589.8,1201.9,589.5,1201.6,589.5,1201.3z"/>
	<path class="st63" d="M586.6,1201.2c0-0.4-0.3-0.7-0.7-0.7s-0.7,0.3-0.7,0.7s0.3,0.7,0.7,0.7S586.6,1201.6,586.6,1201.2z"/>
</g>
<g class="st64">
	<path class="st65" d="M402.9,473.6c0,0,3.4,2.2,5.3,2.7c2.4,0.6,4.9,0.2,7.3,0.2c4.6,0,11.1-1.1,13.8-0.4c0.6,0.2-0.7-1.1-1.2-1.3
		c-2.3-1-4.9,0.2-7.4,0.3c-2.8,0.2-5.6,0.9-8.4,0.7C409,475.6,402.9,473.6,402.9,473.6L402.9,473.6z"/>
</g>
<g>
	<polygon class="st65" points="395.4,502.3 393.5,505.5 379.8,536.4 380.1,537.5 393.9,507.3 395.8,502.9 	"/>
</g>
<g>
	<polygon class="st65" points="464.4,488.3 454.7,497.8 448.9,506.3 445.7,513 442.4,524.1 439.5,536.9 437.5,541.7 434.1,546.4 
		434.8,547.1 438.2,542.1 440.3,536.8 443.1,524.3 446.3,513 449.5,506.6 455.2,498.2 464.8,488.7 	"/>
</g>
<g class="st66">
	<path class="st49" d="M473.8,489.5c-0.2,0.2,0.1,0.7-0.2,0.8c-0.3,0.1-0.7-0.2-0.9-0.4c-0.2-0.4-0.3-1,0-1.2
		c0.7-0.5,1.1-0.9,1.7-1.2c0.4-0.3,1.2,0,1.2,0l7.9,14.6c0,0-6.8-11.2-8.1-13C475.1,488.5,474.2,489.1,473.8,489.5L473.8,489.5z"/>
</g>
<g>
	<polygon class="st53" points="483.3,501.2 482.5,502.6 498.9,532.4 499,530.6 	"/>
</g>
<path class="st67" d="M496.3,527.2l-1.4-1.1l-1.5,0.8l1.7,2.2L496.3,527.2z"/>
<path class="st68" d="M496.9,528.4c0,0.7-0.6,1.2-1.2,1.2s-1.2-0.6-1.2-1.2s0.6-1.2,1.2-1.2S496.9,527.7,496.9,528.4z"/>
<rect x="352.8" y="596.9" class="st69" width="191.6" height="43.1"/>
<text transform="matrix(1 0 0 1 352.8286 629.4052)" class="st70 st71">Re-Cycle</text>
<rect x="305.9" y="324.2" class="st69" width="337.1" height="67.4"/>
<text transform="matrix(1 0 0 1 305.8892 377.4178)" class="st2 st72 st73">About us</text>
<rect x="354.9" y="751.7" class="st69" width="250.2" height="83.4"/>
<text transform="matrix(1 0 0 1 354.8853 804.9686)" class="st2 st72 st73">Tours</text>
<rect x="315.9" y="886.4" class="st69" width="327.1" height="76.7"/>
<text transform="matrix(1 0 0 1 315.8951 939.6014)" class="st2 st72 st73">Contact</text>
<rect x="347.8" y="155.4" class="st69" width="257.3" height="61.3"/>
<text transform="matrix(1 0 0 1 347.7583 208.6913)" class="st2 st72 st73">Home</text>
<rect x="350.2" y="68" class="st69" width="186.4" height="34.9"/>
<text transform="matrix(1 0 0 1 350.1631 93.8051)" class="st72 st74">Navigation</text>
<rect x="970.6" y="124.3" class="st75" width="721.4" height="893.6"/>
<rect x="1248.4" y="182.7" class="st69" width="158.8" height="93.2"/>
<text transform="matrix(1 0 0 1 1270.4452 207.7188)" class="st72 st76">Header</text>
<g>
	<g>
		<path d="M1087.7,354.2c1.9,0,1.9-3,0-3C1085.8,351.2,1085.8,354.2,1087.7,354.2L1087.7,354.2z"/>
	</g>
</g>
<g>
	<g>
		<path d="M1090.2,355c25-25.5,65.1-0.9,94.1,0.9c7.7,0.5,15.6-0.3,22.8-3.3c7.8-3.2,14.1-8.9,21.6-12.5c17.9-8.8,37,1,51.9,11.2
			c13.5,9.3,26.6,19.3,43.2,22.3c14.7,2.7,29.7,0.3,43.9-3.6c15.7-4.4,30.8-10.6,46.3-15.7c16.4-5.3,32.9-8.5,50.2-7.9
			c36.4,1.2,75.4,14.6,109.9-2.8c1.7-0.9,0.2-3.5-1.5-2.6c-32,16.1-68.7,4.7-102.4,2.6c-16.5-1-32.4,0.6-48.4,5.2
			c-16,4.6-31.4,11-47.3,16c-15.6,4.9-32.1,8.7-48.5,6.2c-17.9-2.8-31.5-14-46.1-23.8c-12.7-8.5-28.2-16.1-43.9-12.9
			c-8.1,1.7-14.7,6.7-21.6,11c-8.2,5.2-16.9,7.8-26.7,7.7c-31.2-0.3-72.6-27.7-99.7-0.2C1086.8,354.3,1088.9,356.4,1090.2,355
			L1090.2,355z"/>
	</g>
</g>
<g>
	<g>
		<path d="M1188.4,439.1c19.2-7.5,41.3-15.2,60.4-3.2c7.3,4.6,13.9,10.1,22.7,11.2c8.2,1.1,16.3-1.5,23.7-4.7
			c8.3-3.5,16.3-8,25-10.5c10.3-3,20.9-2.2,31.3-0.1c18.9,3.8,37.1,10.9,56.7,8.3c22.1-2.9,43.1-14.8,65.8-11.6
			c1.9,0.3,2.7-2.6,0.8-2.9c-19.5-2.7-37.6,5.1-56.2,9.5c-10.6,2.5-21.2,3.4-32,1.7c-9.9-1.6-19.6-4.5-29.4-6.8
			c-9.1-2.1-18.5-3.7-27.8-2.9c-8.9,0.8-17.1,4.2-25.2,7.9c-8.7,4-17.8,8.9-27.7,9.3c-10.9,0.5-18.3-6.2-27-11.5
			c-19.6-11.9-42.3-4.4-62,3.3C1185.8,436.9,1186.6,439.8,1188.4,439.1L1188.4,439.1z"/>
	</g>
</g>
<g>
	<g>
		<path d="M1013.5,561.3c-0.5-6.4,4.8-11,10.7-12.5c6.4-1.6,13,0.9,19,3.2c11.1,4.3,21.7,7.2,33.8,5.5c5.5-0.8,10.9-2.4,15.9-4.8
			c5.7-2.7,10.8-7.4,17.5-6.4c9.8,1.5,16.9,10,27.1,10.4c1.9,0.1,1.9-2.9,0-3c-11.1-0.4-19.3-11.6-30.7-10.5
			c-6,0.6-10.8,4.9-16.1,7.3c-6.9,3.1-14.6,4.7-22.2,4.6c-7.5-0.1-14.4-2-21.3-4.7c-6-2.4-12.3-5.1-18.9-5.1
			c-8.7,0.1-18.6,6.4-17.8,16C1010.7,563.2,1013.7,563.2,1013.5,561.3L1013.5,561.3z"/>
	</g>
</g>
<g>
	<g>
		<path d="M1012.2,604c6.8-10.4,19.2-16.1,31.5-14.9c11.9,1.2,20.4,11.2,32.2,12.6c20.8,2.5,42.4-18.4,62.4-8
			c1.7,0.9,3.2-1.7,1.5-2.6c-22.5-11.7-44.4,13.1-67.3,6.9c-7-1.9-12.6-6.8-19.2-9.5c-5.2-2.1-10.9-2.9-16.4-2.3
			c-11.1,1.1-21.2,7-27.3,16.4C1008.6,604.1,1011.2,605.6,1012.2,604L1012.2,604z"/>
	</g>
</g>
<g>
	<g>
		<path d="M1004.3,642.8c11.6-5.4,23.5-10.9,36.3-12.8c13.3-2,25,2,37.2,6.8c10.1,4,20.2,7.2,31.2,5.8c11.5-1.4,22.1-6.7,32.4-11.8
			c1.7-0.9,0.2-3.4-1.5-2.6c-11.4,5.6-23.4,11.6-36.3,11.8c-12.2,0.1-23.2-5.7-34.4-9.7c-10.5-3.7-21-4.8-32-2.7
			c-12,2.3-23.3,7.5-34.3,12.7C1001,641,1002.6,643.6,1004.3,642.8L1004.3,642.8z"/>
	</g>
</g>
<g>
	<g>
		<path d="M1019.5,677c10.5-5.3,22.5-7.1,34.1-5c10.3,1.9,19,8.6,29.3,10.3c9.7,1.6,18.7-4.4,28.1-6c11.9-2,24-1.1,36-0.2
			c1.9,0.1,1.9-2.9,0-3c-11.3-0.9-22.8-1.7-34.1-0.1c-5.9,0.8-11.4,2.5-16.9,4.5c-6.3,2.4-11.9,2.5-18.3,0.2
			c-9.9-3.6-18.4-8.6-29.2-9.4c-10.5-0.8-20.9,1.4-30.3,6.1C1016.3,675.3,1017.8,677.9,1019.5,677L1019.5,677z"/>
	</g>
</g>
<g>
	<g>
		<path d="M1021.4,716.7c7.8-6.9,19-9.1,28.9-5.7c5.6,1.9,9.4,6.3,14.6,8.8c3.8,1.9,8.1,2.2,12.2,1.7c10.9-1.3,20.7-7.4,31.4-9.9
			c12.5-2.9,25.4-3,37.9-0.6c1.9,0.4,2.7-2.5,0.8-2.9c-11.6-2.2-23.4-2.4-35.1-0.3c-6.5,1.2-12.8,3.2-19,5.6
			c-6,2.3-12.2,5.1-18.7,5.3c-7.6,0.2-11.8-4.6-17.9-8.1c-3.7-2.2-7.8-3.5-12.1-3.9c-9.2-1.1-18.3,1.8-25.2,7.9
			C1017.8,715.9,1019.9,718,1021.4,716.7L1021.4,716.7z"/>
	</g>
</g>
<g>
	<g>
		<path d="M1008.4,752.6c10.7-5.7,23-7.9,34.9-6c5.8,0.9,11.3,2.7,16.5,5.4c4.8,2.5,9.4,5.5,14.6,7c10.9,3.3,20.8-2.3,30.7-6.2
			c12.5-4.9,26-6.2,39.3-3.8c1.9,0.3,2.7-2.6,0.8-2.9c-12.2-2.2-24.8-1.6-36.7,2.2c-5.9,1.9-11.5,4.9-17.4,6.9
			c-7.7,2.6-14.5,2.1-21.7-1.5c-10.1-5-19.1-9.8-30.6-10.6c-11.1-0.8-22.2,1.7-32,6.9C1005.2,750.9,1006.7,753.5,1008.4,752.6
			L1008.4,752.6z"/>
	</g>
</g>
<g>
	<g>
		<path d="M1013.8,795.5c4.2-11.3,17.2-14.9,28.1-13.4c12.5,1.8,23.5,8.8,35.3,12.9c10.3,3.6,20.3,4.1,30.8,0.9
			c11.1-3.4,21.5-9.1,33.3-9.3c1.9,0,1.9-3,0-3c-12.1,0.1-22.7,5.9-34.1,9.4c-15.2,4.6-28.2-0.1-42.2-6.3c-10.6-4.7-22.1-9.6-34-7.6
			c-8.9,1.5-16.9,6.9-20.1,15.5C1010.3,796.5,1013.2,797.3,1013.8,795.5L1013.8,795.5z"/>
	</g>
</g>
<g>
	<g>
		<path d="M1029.4,825.7c2.1-11.2,15.1-17.8,25.3-12.3c4.5,2.5,8.3,6,13,8.3c4.3,2.1,8.8,3.6,13.4,4.5c18.3,3.5,38-2.1,51-15.6
			c1.3-1.4-0.8-3.5-2.1-2.1c-15.7,16.2-42,20.6-62.1,10.1c-8.3-4.3-14.4-11.7-24.6-9.9c-8.3,1.5-15.3,7.9-16.9,16.3
			C1026.1,826.7,1029,827.6,1029.4,825.7L1029.4,825.7z"/>
	</g>
</g>
<g>
	<g>
		<path d="M1028.5,854.2c10.5-1.1,21.6-2.2,31.6,2c3.8,1.6,7.1,3.4,11.4,3.1c4.9-0.4,9.5-3,14.1-4.5c20.9-6.8,43.3-3.1,64.4,0.4
			c1.9,0.3,2.7-2.6,0.8-2.9c-20-3.3-40.9-6.8-60.9-1.9c-5,1.2-9.6,3.4-14.4,4.9c-6.5,2.1-10.8-0.9-16.7-2.9
			c-9.7-3.4-20.3-2.3-30.3-1.3C1026.6,851.4,1026.6,854.4,1028.5,854.2L1028.5,854.2z"/>
	</g>
</g>
<g>
	<g>
		<path d="M1031,900.1c3.6-11.2,13.3-20.2,25.1-22.1c2.6-0.4,5.1-0.2,6.4,2.6c0.4,1,0.3,2.2,0.6,3.2c0.5,1.7,1.3,3.3,2.4,4.7
			c2.7,3.2,6.7,5.1,10.8,5.7c5.1,0.7,10.2-0.6,15-2c6.8-2.1,13.4-4,20.5-4.8c13.4-1.5,27-0.4,40.5,0.8c1.9,0.2,1.9-2.8,0-3
			c-14.2-1.2-28.5-2.4-42.7-0.5c-7.2,1-13.8,3.1-20.8,5.1c-6.9,2-15.5,3.1-20.8-2.8c-3.1-3.4-1.5-9.6-6.3-11.6
			c-4-1.7-9.9,0.4-13.6,2c-9.6,4-16.9,12.2-20.1,22.1C1027.5,901.2,1030.4,902,1031,900.1L1031,900.1z"/>
	</g>
</g>
<g>
	<g>
		<path d="M1032.9,929.8c8.4-4.8,11.9-17.3,21.9-19.2c12.9-2.4,21.7,11.6,30.5,18.4c18.9,14.7,40.5-2.4,61.1,3.6
			c1.9,0.5,2.7-2.4,0.8-2.9c-10.9-3.2-21.8,0-32.6,1.8c-6.3,1.1-13,1.7-19.2-0.3c-6.4-2.1-11.1-6.9-15.8-11.5
			c-6.9-6.7-16.3-14.7-26.7-11.7c-9.9,2.8-12.9,14.4-21.4,19.3C1029.7,928.2,1031.2,930.8,1032.9,929.8L1032.9,929.8z"/>
	</g>
</g>
<rect x="1468.5" y="534.7" class="st69" width="235.4" height="36.3"/>
<text transform="matrix(1 0 0 1 1517.0107 559.7831)" class="st72 st76">Columns</text>
<rect x="1501.2" y="865.2" class="st77" width="170" height="112.5"/>
<rect x="1501.2" y="732.2" class="st77" width="170" height="112.5"/>
<rect x="1501.2" y="599.3" class="st77" width="170" height="112.5"/>
<rect x="1009.2" y="473.3" class="st69" width="139.7" height="55.5"/>
<text transform="matrix(1 0 0 1 1051.7495 498.3318)" class="st72 st76">List</text>
<rect x="1261.8" y="309.7" class="st69" width="122.5" height="44"/>
<text transform="matrix(1 0 0 1 1303.5914 334.7265)" class="st72 st76">h1</text>
<rect x="1272.9" y="387.2" class="st69" width="116.7" height="30.6"/>
<text transform="matrix(1 0 0 1 1319.5848 412.2239)" class="st72 st76">P</text>
<rect x="1214.5" y="800.2" class="st78" width="233.4" height="175.7"/>
<rect x="1221.2" y="744.4" class="st69" width="220.1" height="59.3"/>
<text transform="matrix(1 0 0 1 1227.957 769.4726)" class="st72 st76">Div-container</text>
<rect x="1196.2" y="870.8" class="st69" width="260" height="67"/>
<text transform="matrix(1 0 0 1 1226.23 895.8386)" class="st72 st76">Contact form</text>
<rect x="1072.1" y="221.9" class="st77" width="549.2" height="72.4"/>
<rect x="1280.5" y="240.9" class="st69" width="101.4" height="51.7"/>
<text transform="matrix(1 0 0 1 1292.3265 265.9811)" class="st72 st76">Logo</text>
<rect x="976.6" y="968.9" class="st69" width="168.4" height="47.8"/>
<text transform="matrix(1 0 0 1 1010.1732 993.9309)" class="st72 st76">Footer</text>
<rect x="1213.8" y="540.6" class="st77" width="235" height="136.7"/>
<rect x="1215.5" y="584" class="st69" width="231.5" height="78.5"/>
<text transform="matrix(1 0 0 1 1282.6191 609.0179)" class="st72 st76">Image</text>
<rect x="1174.4" y="72.2" class="st69" width="313.7" height="26.5"/>
<text transform="matrix(1 0 0 1 1237.9806 97.279)" class="st72 st76">Layout sites</text>
</svg>
