<?xml version="1.0" encoding="utf-8"?>
<!-- Generator: Adobe Illustrator 22.1.0, SVG Export Plug-In . SVG Version: 6.00 Build 0)  -->
<svg version="1.1" id="Layer_1" xmlns="http://www.w3.org/2000/svg" xmlns:xlink="http://www.w3.org/1999/xlink" x="0px" y="0px"
	 viewBox="0 0 1296 1728" style="enable-background:new 0 0 1296 1728;" xml:space="preserve">
<style type="text/css">
	.st0{fill:#BAE2C5;}
	.st1{fill:#1A1A1A;}
	.st2{fill:none;stroke:#999999;stroke-width:0.5;}
	.st3{fill:#999999;stroke:#B3B3B3;stroke-width:3.61;stroke-linecap:round;stroke-linejoin:round;stroke-miterlimit:10;}
	.st4{fill:#999999;stroke:#B3B3B3;}
	.st5{fill:#666666;stroke:#C5A372;stroke-width:2.151000e-02;}
	.st6{fill:none;stroke:#C5A372;stroke-width:2.9242;}
	.st7{fill:#1F1A17;stroke:#000000;stroke-width:7.620000e-02;}
	.st8{fill:#EDEEF0;stroke:#000000;stroke-width:7.620000e-02;}
	.st9{fill:none;stroke:#C5A372;stroke-width:5.2706;}
	.st10{fill:none;stroke:#4D4D4D;stroke-width:5.2706;}
	.st11{fill:none;stroke:#B3B3B3;}
	.st12{fill:#333333;stroke:#999999;stroke-width:2.8284;}
	.st13{fill:none;stroke:#999999;stroke-width:4;}
	.st14{stroke:#666666;}
	.st15{fill:#4D4D4D;stroke:#000000;stroke-width:0.1;stroke-linejoin:bevel;}
	.st16{fill:#666666;stroke:#000000;stroke-width:0.1;stroke-linejoin:bevel;}
	.st17{fill:#333333;stroke:#000000;stroke-width:0.2056;stroke-linejoin:bevel;}
	.st18{fill:#333333;stroke:#000000;stroke-width:0.2385;stroke-linejoin:bevel;}
	.st19{fill:#666666;stroke:#999999;}
	.st20{fill:none;stroke:#999999;}
	.st21{fill:#AC9D93;stroke:#916F6F;stroke-width:0.3516;}
	.st22{fill:#B3B3B3;stroke:#666666;stroke-width:0.7679;}
	.st23{fill:#333333;stroke:#000000;stroke-width:0.7679;}
	.st24{fill:#AC9D93;stroke:#000000;stroke-width:0.7679;}
	.st25{fill:#1A1A1A;stroke:#000000;stroke-width:0.8115;}
	.st26{fill:#333333;stroke:#000000;stroke-width:0.6909;}
	.st27{fill:#AC9D93;stroke:#000000;}
	.st28{fill:#272725;stroke:#000000;}
	.st29{fill:#CCCCCC;stroke:#4D4D4D;stroke-width:0.5;}
	.st30{fill:#AC9D93;stroke:#000000;stroke-width:1.0384;}
	.st31{fill:#AC9D93;stroke:#000000;stroke-width:0.5379;}
	.st32{fill:#AC9D93;stroke:#000000;stroke-width:0.5519;}
	.st33{fill:#AC9D93;stroke:#000000;stroke-width:0.54;}
	.st34{fill:none;stroke:#666666;stroke-width:2.6;}
	.st35{fill:#483737;stroke:#483737;stroke-width:0.7679;}
	.st36{fill:#B3B3B3;stroke:#666666;stroke-width:0.8659;}
	.st37{fill:#AC9D93;stroke:#000000;stroke-width:0.4033;}
	.st38{fill:#191B17;stroke:#000000;}
	.st39{fill:#F9F9F9;stroke:#CCCCCC;}
	.st40{fill:#B3B3B3;stroke:#999999;}
	.st41{fill:#212121;stroke:#000000;}
	.st42{fill:#1A1A1A;stroke:#333333;}
	.st43{fill:#4D4D4D;stroke:#000000;}
	.st44{fill:#E6E6E6;stroke:#666666;stroke-width:0.5041;}
	.st45{fill:#4D4D4D;stroke:#808080;}
	.st46{fill:#4D4D4D;stroke:#808080;stroke-width:0.5;}
	.st47{fill:#4D4D4D;}
	.st48{fill:#4D4D4D;stroke:#666666;stroke-width:0.8469;}
	.st49{fill:#333333;stroke:#333333;stroke-width:0.8469;}
	.st50{fill:#333333;stroke:#666666;stroke-width:0.8469;}
	.st51{fill:#333333;}
	.st52{fill:#333333;stroke:#4D4D4D;stroke-width:0.5;}
	.st53{fill:#333333;stroke:#000000;}
	.st54{fill:#CCCCCC;stroke:#999999;stroke-width:0.8;}
	.st55{fill:#808080;stroke:#E6E6E6;stroke-width:0.4359;}
	.st56{fill:#1A1A1C;stroke:#000000;}
	.st57{fill:#808080;stroke:#666666;}
	.st58{fill:#6C5353;stroke:#666666;stroke-width:0.48;}
	.st59{fill:#ECECEC;stroke:#666666;stroke-width:0.5668;}
	.st60{fill:#999999;}
	.st61{fill:#999999;stroke:#666666;stroke-width:0.6;}
	.st62{opacity:0.5926;enable-background:new    ;}
	.st63{fill:#666666;}
	.st64{opacity:0.9136;enable-background:new    ;}
	.st65{fill:#808080;stroke:#808080;}
	.st66{fill:#B3B3B3;}
	.st67{fill:none;}
	.st68{font-family:'SnellRoundhand-Bold';}
	.st69{font-size:142.4713px;}
</style>
<path class="st0" d="M1131.1,1166.4H164.4c-13.8,0-25-11.2-25-25V573.7c0-13.8,11.2-25,25-25h966.7c13.8,0,25,11.2,25,25v567.7
	C1156.1,1155.2,1144.9,1166.4,1131.1,1166.4z"/>
<g>
	<ellipse class="st1" cx="835.8" cy="972.7" rx="126.6" ry="9.7"/>
	<ellipse class="st2" cx="835.8" cy="972.7" rx="126.6" ry="9.7"/>
</g>
<g>
	<ellipse class="st1" cx="458.6" cy="972.7" rx="126.6" ry="9.7"/>
	<ellipse class="st2" cx="458.6" cy="972.7" rx="126.6" ry="9.7"/>
</g>
<g transform="matrix(3.5433 0 0 3.5433 -330.61 93.072)">
	<g transform="matrix(1.0435 0 0 1.0435 12.62 -6.5478)">
		<g transform="matrix(1.1775 0 0 1.1775 -237.26 74.08)">
			<g transform="matrix(.02527 0 0 .02527 189.24 -77.969)">
				<path class="st3" d="M11130.1,8712.5l-503.3-1193.6"/>
			</g>
			<g transform="matrix(.02527 0 0 .02527 189.24 -77.969)">
				<path class="st3" d="M11356.1,8610.6l-697.4-1070.4"/>
			</g>
			<g transform="matrix(.02527 0 0 .02527 189.24 -77.969)">
				<path class="st3" d="M11581.1,8449.3l-804.6-1046.5"/>
			</g>
			<g transform="matrix(.02527 0 0 .02527 189.24 -77.969)">
				<path class="st3" d="M10606.4,7487.9l-961.4-856"/>
			</g>
			<g transform="matrix(.02527 0 0 .02527 189.24 -77.969)">
				<path class="st3" d="M10048.2,6286.3l716,1098.8"/>
			</g>
			<g transform="matrix(.02527 0 0 .02527 189.24 -77.969)">
				<path class="st3" d="M10776.5,7402.8L10298,6178.2"/>
			</g>
			<g transform="matrix(.02527 0 0 .02527 189.24 -77.969)">
				<path class="st3" d="M10543.5,6125.9l75.3,1266.3"/>
			</g>
			<g transform="matrix(.02527 0 0 .02527 189.24 -77.969)">
				<path class="st3" d="M10805.8,6122.4l-190.5,1275.1"/>
			</g>
			<g transform="matrix(.02527 0 0 .02527 189.24 -77.969)">
				<path class="st3" d="M11063.6,6169.4l-273.8,1276"/>
			</g>
			<g transform="matrix(.02527 0 0 .02527 189.24 -77.969)">
				<path class="st3" d="M11310.9,6266.8L10788.1,7472"/>
			</g>
			<g transform="matrix(.02527 0 0 .02527 189.24 -77.969)">
				<path class="st3" d="M11520,6401.5l-826.7,953.5"/>
			</g>
			<g transform="matrix(.02527 0 0 .02527 189.24 -77.969)">
				<path class="st3" d="M11710.5,6585l-1055.4,778.9"/>
			</g>
			<g transform="matrix(.02527 0 0 .02527 189.24 -77.969)">
				<path class="st3" d="M11868.2,6814.5l-1104.1,701.8"/>
			</g>
			<g transform="matrix(.02527 0 0 .02527 189.24 -77.969)">
				<path class="st3" d="M11963.9,7035.1l-1212.2,492.7"/>
			</g>
			<g transform="matrix(.02527 0 0 .02527 189.24 -77.969)">
				<path class="st3" d="M12020.7,7293l-1275.1,77.1"/>
			</g>
			<g transform="matrix(.02527 0 0 .02527 189.24 -77.969)">
				<path class="st3" d="M12026.9,7550.8l-1260.1-163"/>
			</g>
			<g transform="matrix(.02527 0 0 .02527 189.24 -77.969)">
				<path class="st3" d="M11979.9,7814l-1263.6-269.4"/>
			</g>
			<g transform="matrix(.02527 0 0 .02527 189.24 -77.969)">
				<path class="st3" d="M11883.3,8059.5l-1166.1-514.8"/>
			</g>
			<g transform="matrix(.02527 0 0 .02527 189.24 -77.969)">
				<path class="st3" d="M11745.1,8274.8l-958.8-850.7"/>
			</g>
			<g transform="matrix(.02527 0 0 .02527 189.24 -77.969)">
				<path class="st3" d="M9507.6,6846.4L10695,7355"/>
			</g>
			<g transform="matrix(.02527 0 0 .02527 189.24 -77.969)">
				<path class="st3" d="M9410.2,7099.8l1257.4,259.6"/>
			</g>
			<g transform="matrix(.02527 0 0 .02527 189.24 -77.969)">
				<path class="st3" d="M9365,7377.1l1280.4,156"/>
			</g>
			<g transform="matrix(.02527 0 0 .02527 189.24 -77.969)">
				<path class="st3" d="M9374.7,7625.3l1322.1-78.9"/>
			</g>
			<g transform="matrix(.02527 0 0 .02527 189.24 -77.969)">
				<path class="st3" d="M9434.1,7880.5l1197.1-501.5"/>
			</g>
			<g transform="matrix(.02527 0 0 .02527 189.24 -77.969)">
				<path class="st3" d="M9543.1,8120.6l1057.1-684.1"/>
			</g>
			<g transform="matrix(.02527 0 0 .02527 189.24 -77.969)">
				<path class="st3" d="M9700.8,8338.6l1009.3-793.1"/>
			</g>
			<g transform="matrix(.02527 0 0 .02527 189.24 -77.969)">
				<path class="st3" d="M9878.9,8504.3l862.2-969.4"/>
			</g>
			<g transform="matrix(.02527 0 0 .02527 189.24 -77.969)">
				<path class="st3" d="M10599.3,7464.9L10112,8649.6"/>
			</g>
			<g transform="matrix(.02527 0 0 .02527 189.24 -77.969)">
				<path class="st3" d="M10610,7495.9l-258.7,1243.2"/>
			</g>
			<g transform="matrix(.02527 0 0 .02527 189.24 -77.969)">
				<path class="st3" d="M10783.6,7486.1l-165.7,1296.4"/>
			</g>
			<g transform="matrix(.02527 0 0 .02527 189.24 -77.969)">
				<path class="st3" d="M10848.3,8776.3l-58.5-1314.1"/>
			</g>
			<g transform="matrix(.02527 0 0 .02527 189.24 -77.969)">
				<path class="st3" d="M10599.3,7459.6l-771.8-1019.9"/>
			</g>
			<path class="st4" d="M457.1,110.3c0-1.3,1.1-2.4,2.4-2.4c1.3,0,2.4,1.1,2.4,2.4c0,1.3-1.1,2.4-2.4,2.4
				C458.1,112.7,457.1,111.6,457.1,110.3 M459,110.3c0,0.3,0.2,0.5,0.5,0.5s0.5-0.2,0.5-0.5c0-0.3-0.2-0.5-0.5-0.5
				S459,110.1,459,110.3z"/>
		</g>
		<g>
			<g>
				<g transform="translate(-4.912 -58.816)">
					<path class="st5" d="M348.6,262.6c0-22-17.9-39.9-39.9-39.9c-22,0-39.9,17.9-39.9,39.9s17.9,39.9,39.9,39.9
						C330.7,302.6,348.6,284.7,348.6,262.6z M347.3,262.6c0-21.4-17.3-38.7-38.7-38.7c-21.4,0-38.7,17.3-38.7,38.7
						s17.3,38.7,38.7,38.7C330,301.3,347.3,284,347.3,262.6z"/>
					<path class="st6" d="M348.9,262.5c0,22.2-18,40.2-40.2,40.2s-40.2-18-40.2-40.2s18-40.2,40.2-40.2S348.9,240.4,348.9,262.5z"/>
				</g>
			</g>
		</g>
		<path class="st7" d="M306.3,204c0-1.4-1.1-2.5-2.5-2.5c-1.4,0-2.5,1.1-2.5,2.5c0,1.4,1.1,2.5,2.5,2.5
			C305.2,206.5,306.3,205.4,306.3,204"/>
		<path class="st8" d="M304.3,204c0-0.3-0.3-0.6-0.6-0.6c-0.3,0-0.6,0.3-0.6,0.6c0,0,0,0,0,0c0,0.3,0.3,0.6,0.6,0.6
			C304.1,204.5,304.3,204.3,304.3,204C304.3,204,304.3,204,304.3,204"/>
		<path class="st8" d="M302.1,202.5l0.1-0.3l0.3-0.3l0.6-0.3l0.4,0l0.2,0.1L302.1,202.5z"/>
		<path class="st8" d="M304.3,204c0-0.3-0.3-0.6-0.6-0.6c-0.3,0-0.6,0.3-0.6,0.6c0,0,0,0,0,0c0,0.3,0.3,0.6,0.6,0.6
			C304.1,204.5,304.3,204.3,304.3,204C304.3,204,304.3,204,304.3,204"/>
	</g>
	<g transform="matrix(.82329 0 0 .84123 -58.815 28.124)">
		<g transform="matrix(1.1775 0 0 1.1775 -237.26 74.08)">
			<g transform="matrix(.02527 0 0 .02527 189.24 -77.969)">
				<path class="st3" d="M12444,9255.9l-503.3-1193.6"/>
			</g>
			<g transform="matrix(.02527 0 0 .02527 189.24 -77.969)">
				<path class="st3" d="M12669.9,9154l-697.4-1070.4"/>
			</g>
			<g transform="matrix(.02527 0 0 .02527 189.24 -77.969)">
				<path class="st3" d="M12895,8992.7l-804.6-1046.5"/>
			</g>
			<g transform="matrix(.02527 0 0 .02527 189.24 -77.969)">
				<path class="st3" d="M11920.3,8031.3l-961.4-856"/>
			</g>
			<g transform="matrix(.02527 0 0 .02527 189.24 -77.969)">
				<path class="st3" d="M11362,6829.7l716,1098.8"/>
			</g>
			<g transform="matrix(.02527 0 0 .02527 189.24 -77.969)">
				<path class="st3" d="M12090.4,7946.2l-478.5-1224.6"/>
			</g>
			<g transform="matrix(.02527 0 0 .02527 189.24 -77.969)">
				<path class="st3" d="M11857.3,6669.3l75.3,1266.3"/>
			</g>
			<g transform="matrix(.02527 0 0 .02527 189.24 -77.969)">
				<path class="st3" d="M12119.6,6665.8l-190.5,1275.1"/>
			</g>
			<g transform="matrix(.02527 0 0 .02527 189.24 -77.969)">
				<path class="st3" d="M12377.5,6712.7l-273.8,1276"/>
			</g>
			<g transform="matrix(.02527 0 0 .02527 189.24 -77.969)">
				<path class="st3" d="M12624.7,6810.2l-522.8,1205.1"/>
			</g>
			<g transform="matrix(.02527 0 0 .02527 189.24 -77.969)">
				<path class="st3" d="M12833.8,6944.9l-826.7,953.5"/>
			</g>
			<g transform="matrix(.02527 0 0 .02527 189.24 -77.969)">
				<path class="st3" d="M13024.4,7128.3L11969,7907.2"/>
			</g>
			<g transform="matrix(.02527 0 0 .02527 189.24 -77.969)">
				<path class="st3" d="M13182.1,7357.8L12078,8059.6"/>
			</g>
			<g transform="matrix(.02527 0 0 .02527 189.24 -77.969)">
				<path class="st3" d="M13277.8,7578.5l-1212.2,492.7"/>
			</g>
			<g transform="matrix(.02527 0 0 .02527 189.24 -77.969)">
				<path class="st3" d="M13334.5,7836.3l-1275.1,77.1"/>
			</g>
			<g transform="matrix(.02527 0 0 .02527 189.24 -77.969)">
				<path class="st3" d="M13340.7,8094.2l-1260.1-163"/>
			</g>
			<g transform="matrix(.02527 0 0 .02527 189.24 -77.969)">
				<path class="st3" d="M13293.7,8357.4L12030.1,8088"/>
			</g>
			<g transform="matrix(.02527 0 0 .02527 189.24 -77.969)">
				<path class="st3" d="M13197.2,8602.8L12031,8088"/>
			</g>
			<g transform="matrix(.02527 0 0 .02527 189.24 -77.969)">
				<path class="st3" d="M13058.9,8818.2l-958.8-850.7"/>
			</g>
			<g transform="matrix(.02527 0 0 .02527 189.24 -77.969)">
				<path class="st3" d="M10821.5,7389.7l1187.4,508.6"/>
			</g>
			<g transform="matrix(.02527 0 0 .02527 189.24 -77.969)">
				<path class="st3" d="M10724,7643.2l1257.4,259.6"/>
			</g>
			<g transform="matrix(.02527 0 0 .02527 189.24 -77.969)">
				<path class="st3" d="M10678.8,7920.5l1280.4,156"/>
			</g>
			<g transform="matrix(.02527 0 0 .02527 189.24 -77.969)">
				<path class="st3" d="M10688.6,8168.6l1322.1-78.9"/>
			</g>
			<g transform="matrix(.02527 0 0 .02527 189.24 -77.969)">
				<path class="st3" d="M10747.9,8423.8l1197.1-501.5"/>
			</g>
			<g transform="matrix(.02527 0 0 .02527 189.24 -77.969)">
				<path class="st3" d="M10856.9,8664l1057.1-684.1"/>
			</g>
			<g transform="matrix(.02527 0 0 .02527 189.24 -77.969)">
				<path class="st3" d="M11014.6,8882l1009.3-793.1"/>
			</g>
			<g transform="matrix(.02527 0 0 .02527 189.24 -77.969)">
				<path class="st3" d="M11192.8,9047.7l862.2-969.4"/>
			</g>
			<g transform="matrix(.02527 0 0 .02527 189.24 -77.969)">
				<path class="st3" d="M11913.2,8008.2L11425.8,9193"/>
			</g>
			<g transform="matrix(.02527 0 0 .02527 189.24 -77.969)">
				<path class="st3" d="M11923.8,8039.3l-258.7,1243.2"/>
			</g>
			<g transform="matrix(.02527 0 0 .02527 189.24 -77.969)">
				<path class="st3" d="M12097.5,8029.5l-165.7,1296.4"/>
			</g>
			<g transform="matrix(.02527 0 0 .02527 189.24 -77.969)">
				<path class="st3" d="M12162.2,9319.7l-58.5-1314.1"/>
			</g>
			<g transform="matrix(.02527 0 0 .02527 189.24 -77.969)">
				<path class="st3" d="M11913.2,8002.9L11141.4,6983"/>
			</g>
			<path class="st4" d="M490.3,124c0-1.3,1.1-2.4,2.4-2.4c1.3,0,2.4,1.1,2.4,2.4c0,1.3-1.1,2.4-2.4,2.4
				C491.3,126.5,490.3,125.4,490.3,124 M492.2,124c0,0.3,0.2,0.5,0.5,0.5c0.3,0,0.5-0.2,0.5-0.5c0-0.3-0.2-0.5-0.5-0.5
				C492.4,123.6,492.2,123.8,492.2,124z"/>
		</g>
		<g>
			<g>
				<g>
					<path class="st9" d="M383.8,219.9c0,22.6-18.3,40.9-40.9,40.9c-22.6,0-40.9-18.3-40.9-40.9s18.3-40.9,40.9-40.9
						C365.5,179,383.8,197.3,383.8,219.9z"/>
					<path class="st10" d="M382.2,219.9c0,21.7-17.6,39.3-39.3,39.3c-21.7,0-39.3-17.6-39.3-39.3s17.6-39.3,39.3-39.3
						C364.6,180.6,382.2,198.2,382.2,219.9z"/>
				</g>
			</g>
		</g>
		<path class="st7" d="M345.4,220.1c0-1.4-1.1-2.5-2.5-2.5c-1.4,0-2.5,1.1-2.5,2.5s1.1,2.5,2.5,2.5
			C344.3,222.7,345.4,221.5,345.4,220.1"/>
		<path class="st8" d="M343.4,220.1c0-0.3-0.3-0.6-0.6-0.6c-0.3,0-0.6,0.3-0.6,0.6c0,0,0,0,0,0c0,0.3,0.3,0.6,0.6,0.6
			C343.2,220.7,343.4,220.5,343.4,220.1C343.4,220.1,343.4,220.1,343.4,220.1"/>
		<path class="st8" d="M341.2,218.7l0.1-0.3l0.3-0.3l0.6-0.3l0.4,0l0.2,0.1L341.2,218.7z"/>
		<path class="st8" d="M343.4,220.1c0-0.3-0.3-0.6-0.6-0.6c-0.3,0-0.6,0.3-0.6,0.6c0,0,0,0,0,0c0,0.3,0.3,0.6,0.6,0.6
			C343.2,220.7,343.4,220.5,343.4,220.1C343.4,220.1,343.4,220.1,343.4,220.1"/>
	</g>
</g>
<path class="st11" d="M676,809.7l153.5,8.5"/>
<g transform="matrix(.09601 0 0 .09601 39.798 444.27)">
	<path class="st12" d="M4387.5,4379c0-1.1-0.4-3.7-0.9-5.7c-3.8-14.5-19.5-21.7-33.8-15.4c-4,1.8-9.3,6.8-11.4,10.9
		c-1,1.9-2.1,3.4-2.4,3.2c-0.3-0.1-2.1-0.8-3.9-1.4c-2.5-0.9-3.2-1.4-2.9-2.1c0.2-0.5,0.8-3,1.3-5.5c3.1-14.9-8.4-28.3-24.2-28.3
		c-6,0-12.7,2.7-16.9,6.9l-1.9,1.9l-3.5-3c-1.9-1.6-3.5-3.1-3.5-3.2s0.9-1.6,2.1-3.2c3.7-5.2,4.5-7.8,4.5-14.8
		c0-5.7-0.2-6.6-1.8-9.8c-3.5-6.9-10.9-12.4-18.5-13.8c-4.3-0.8-10.8,0-14,1.7l-1.8,0.9l-2.2-4.5c-1.2-2.5-2.2-4.5-2-4.6
		s1.5-1,3-2.1c8.5-5.8,12.4-14.3,10.9-23.5c-2.1-12.3-12.2-21.1-24.4-21.1l-3.8,0l-0.4-2.9c-0.7-5-0.7-5,3.2-5.8
		c10.1-2.2,17.1-9.3,18.9-19.2c0.8-4.5-0.2-11-2.5-15.7c-2.8-5.8-9.3-11.2-14.7-12.4l-1.9-0.4l1.1-5c0.6-2.8,1.2-5.2,1.4-5.3
		s1.5,0,3,0.3c14.7,3.4,28.2-6.7,29.2-21.9c0.5-7.7-1.7-13.7-7.2-19.5l-2.8-2.9l3-4.5c1.6-2.5,3.1-4.5,3.2-4.5s1.4,0.9,3,1.9
		c12.3,8.3,28.2,3.8,35-9.9c2.7-5.4,3.1-11.9,1.2-18.2c-0.7-2.4-1.6-4.6-2-4.8c-1.2-0.7-0.6-1.5,3.6-4.4l4.2-2.9l1.3,1.8
		c5,6.9,11.1,10.8,18.1,11.3c7.7,0.6,14.5-2,19.9-7.8c4.8-5.1,6.5-9.2,6.7-16.5l0.1-5.9l4.3-1.1c2.3-0.6,4.6-1.1,5-1.1
		c0.4,0,1,1.3,1.4,2.9c3.9,15.5,20.2,22.7,34.7,15.5c6-3,11.5-10,12.7-16.1l0.4-2l5.1,0.7l5.1,0.7l0.1,6.3c0.1,9,2.4,14.3,8.4,19
		c10.8,8.5,27.8,6.6,35.2-4l1.9-2.7l4.5,2.5c2.5,1.4,4.6,2.6,4.7,2.7c0.1,0.1-0.7,2.2-1.9,4.7c-2,4.2-2.1,5-2.1,10.5
		c0,5.1,0.2,6.4,1.6,9.4c6,12.7,21.4,18.1,33.8,11.7l4.4-2.2l3.4,4.1l3.4,4.1l-3.6,3.5c-2.1,2.1-4.4,5-5.5,7.3
		c-1.7,3.4-1.8,4.4-1.8,10c0,5.8,0.2,6.6,2,10.3c5.3,10.8,17.1,16.3,28.6,13.4c1.3-0.3,1.6,0.1,3.2,5.1c1,3,1.5,5.6,1.2,5.9
		s-2.1,0.9-4,1.6c-14.9,4.8-20.5,22.7-11.4,36.6c3.3,5,11.4,10.2,15.8,10.2c1.8,0,2.1,0.9,1.6,6l-0.4,4.6l-2.9-0.3
		c-9.4-1.1-19.4,4.5-23.5,13.1c-5.7,12-1.4,26,9.9,32.8c1,0.6,1,0.9-0.7,3.8c-1,1.7-1.8,3.2-1.9,3.3c-0.1,0.1-1.8-0.4-3.8-1.2
		c-2.7-1.1-5-1.4-9-1.5c-5.7-0.1-8.9,1-14,4.5c-5.3,3.7-9.8,12.8-9.8,19.9c0,4.5,2.1,11,4.7,14.4c1.2,1.6,2.2,2.9,2.2,3.1
		s-1.4,1.4-3.2,2.9l-3.2,2.7l-3.1-2.9c-1.7-1.6-4.7-3.7-6.7-4.6c-3.1-1.5-4.4-1.7-9.5-1.7c-5.5,0-6.3,0.2-10.2,2.1
		c-8.3,4.1-13.6,11.9-14,20.7c-0.1,2.9,0.1,6.1,0.6,8l0.9,3.2l-4.7,1.8l-4.7,1.8l-1.7-3.7c-2.4-5.1-6.6-9.4-11.4-11.6
		c-3.4-1.6-4.6-1.8-9.9-1.8c-5.4,0-6.4,0.2-10.1,2c-7.9,3.7-12.8,10.1-14.4,18.6l-0.8,4.2h-9.1L4387.5,4379L4387.5,4379z"/>
	<g transform="matrix(.99908 .04282 -.04282 .99908 64.684 -26.354)">
		<path class="st13" d="M4664.9,4019.4l-5.4-14.1c-25.8,11-47.5-24.3-19.7-40.8"/>
		<path class="st13" d="M4638.2,3964.8l-10-11.3c-20.3,19.4-53-6-32.8-31.3"/>
		<path class="st13" d="M4594.1,3923.3l-13.4-6.9c-11.9,25.4-51.6,13.6-41.9-17.2"/>
		<path class="st13" d="M4538.2,3900.8l-15-1.4c-1.6,28-42.9,31.7-45.3-0.5"/>
		<path class="st13" d="M4478.3,3900.5l-14.5,4.2c8.7,26.7-28.4,45.2-42.4,16"/>
		<path class="st13" d="M4422.2,3922l-12,9.1c17.7,21.8-10.3,52.4-33.8,30.1"/>
		<path class="st13" d="M4377.2,3962.6l-7.9,12.8c24.4,13.9,9.3,52.5-20.6,40.3"/>
		<path class="st13" d="M4349.9,4016.4l-2.3,14.9c27.9,3.4,28.9,44.8-3.4,45.2"/>
		<path class="st13" d="M4345.7,4075.4l2.4,13.6c27.2-6.9,43.2,31.3,13.2,43.4"/>
		<path class="st13" d="M4363.1,4132.1l6.8,12c23.3-15.7,51.2,14.9,27,36.4"/>
		<path class="st13" d="M4398.5,4179.3l10.8,8.6c15.7-23.3,53.1-5.4,38.7,23.6"/>
		<path class="st13" d="M4447.7,4210l13.2,4.2c6.4-27.3,47.7-24,44.6,8.2"/>
		<path class="st13" d="M4505.4,4220.5l13.8-0.5c-3.2-27.9,36.9-38.6,44.7-7.2"/>
		<path class="st13" d="M4564.1,4210.6l12.6-5.6c-13.2-24.7,20-49.5,38.9-23.2"/>
		<path class="st13" d="M4614.4,4181.2l9.7-9.9c-21.5-18.1,0.2-53.4,27.5-36"/>
		<path class="st13" d="M4649.2,4136l5.9-12.5c-26.2-10.1-17.1-50.5,14.3-43"/>
		<path class="st13" d="M4667.7,4079.5l1-13.8c-28.1,0.2-34.5-40.7-2.5-45.2"/>
	</g>
</g>
<path class="st14" d="M335.9,792.2c58.7-125.8,273.2-100.3,262.2,83.8c-0.1,1.4-3.3,2.3-3.2,0.9c4.2-176.9-188.5-205.4-254.4-83.8
	C339.6,794.5,335.2,793.7,335.9,792.2L335.9,792.2z"/>
<g transform="matrix(-.09847 -.02679 -.02679 .09847 142.52 602.89)">
	<path class="st15" d="M-3688.2,1645c-8.4-0.2-16.1,6.9-16.6,15.3c-0.8,8.2,5.5,16.3,13.6,17.6c4.6,1,9.2-0.7,13.2-2.8
		c11.4-5,25.1-4.3,36,1.6c7.5,3.7,17.4,0.5,21.4-6.8c4.2-7,2.2-16.8-4.5-21.5c-5.2-4-12.7-4.3-18.3-1.1c-11.8,5.9-26.4,5.5-38-0.7
		C-3683.5,1645.5-3685.8,1645-3688.2,1645z M-3688.2,1653.3c4.6,0,8.3,3.7,8.3,8.3s-3.7,8.3-8.3,8.3s-8.3-3.7-8.3-8.3
		S-3692.7,1653.3-3688.2,1653.3z M-3635,1653.3c4.6,0,8.3,3.7,8.3,8.3s-3.7,8.3-8.3,8.3s-8.3-3.7-8.3-8.3
		S-3639.6,1653.3-3635,1653.3z"/>
</g>
<g transform="matrix(-.08362 -.05851 -.05851 .08362 138.78 610.75)">
	<path class="st16" d="M-3964.2,236.6c-8.4-0.2-16.1,6.9-16.6,15.3c-0.8,8.2,5.5,16.3,13.6,17.6c4.6,1,9.2-0.7,13.2-2.8
		c11.4-5,25.1-4.3,36,1.5c7.5,3.7,17.3,0.5,21.3-6.8c4.2-7,2.2-16.8-4.5-21.6c-5.2-4-12.7-4.3-18.3-1.1c-11.8,5.9-26.4,5.5-38-0.7
		C-3959.5,237.1-3961.9,236.6-3964.2,236.6L-3964.2,236.6z"/>
	<g transform="matrix(.4863 0 0 .4863 308.47 34.488)">
		<path class="st17" d="M-8659.8,449.8c0,9.4-7.6,17-17,17c-9.4,0-17-7.6-17-17s7.6-17,17-17
			C-8667.4,432.8-8659.8,440.4-8659.8,449.8z"/>
	</g>
	<g>
		<path class="st18" d="M-3955.9,253.2c0,4.6-3.7,8.3-8.3,8.3c-4.6,0-8.3-3.7-8.3-8.3c0-4.6,3.7-8.3,8.3-8.3
			C-3959.6,244.9-3955.9,248.7-3955.9,253.2z"/>
	</g>
</g>
<g transform="matrix(-.09611 -.03432 -.03432 .09611 154.68 610.51)">
	<path class="st15" d="M-3779.8,1325.7c-8.4-0.2-16.1,6.9-16.6,15.3c-0.8,8.2,5.5,16.3,13.6,17.6c4.6,1,9.2-0.7,13.2-2.8
		c11.4-5,25.1-4.3,36,1.6c7.5,3.7,17.4,0.5,21.4-6.8c4.2-7,2.2-16.8-4.5-21.5c-5.2-4-12.7-4.3-18.3-1.1c-11.8,5.9-26.4,5.5-38-0.7
		C-3775.1,1326.2-3777.4,1325.7-3779.8,1325.7z M-3779.8,1334.1c4.6,0,8.3,3.7,8.3,8.3s-3.7,8.3-8.3,8.3c-4.6,0-8.3-3.7-8.3-8.3
		S-3784.3,1334.1-3779.8,1334.1z M-3726.6,1334.1c4.6,0,8.3,3.7,8.3,8.3s-3.7,8.3-8.3,8.3s-8.3-3.7-8.3-8.3
		S-3731.2,1334.1-3726.6,1334.1z"/>
</g>
<g transform="matrix(-.09503 -.0372 -.0372 .09503 151.94 604.13)">
	<path class="st16" d="M-3812.8,1260.2c-8.4-0.2-16.1,6.9-16.6,15.3c-0.8,8.2,5.5,16.3,13.6,17.6c4.6,1,9.2-0.7,13.2-2.8
		c11.4-5,25.1-4.3,36,1.5c7.5,3.7,17.3,0.5,21.3-6.8c4.2-7,2.2-16.8-4.5-21.6c-5.2-4-12.7-4.3-18.3-1.1c-11.8,5.9-26.4,5.5-38-0.7
		C-3808.1,1260.7-3810.4,1260.2-3812.8,1260.2L-3812.8,1260.2z"/>
	<g transform="matrix(.4863 0 0 .4863 308.47 34.488)">
		<path class="st17" d="M-8348.3,2554.6c0,9.4-7.6,17-17,17s-17-7.6-17-17c0-9.4,7.6-17,17-17S-8348.3,2545.2-8348.3,2554.6z"/>
	</g>
	<g>
		<path class="st18" d="M-3804.5,1276.8c0,4.6-3.7,8.3-8.3,8.3c-4.6,0-8.3-3.7-8.3-8.3c0-4.6,3.7-8.3,8.3-8.3
			C-3808.2,1268.5-3804.5,1272.2-3804.5,1276.8z"/>
	</g>
</g>
<g transform="matrix(-.09611 -.03432 -.03432 .09611 185.37 620.97)">
	<path class="st15" d="M-3743.6,1326.3c-8.4-0.2-16.1,6.9-16.6,15.3c-0.8,8.2,5.5,16.3,13.6,17.6c4.6,1,9.2-0.7,13.2-2.8
		c11.4-5,25.1-4.3,36,1.6c7.5,3.7,17.4,0.5,21.4-6.8c4.2-7,2.2-16.8-4.5-21.5c-5.2-4-12.7-4.3-18.3-1.1c-11.8,5.9-26.4,5.5-38-0.7
		C-3738.9,1326.8-3741.2,1326.3-3743.6,1326.3z M-3743.6,1334.6c4.6,0,8.3,3.7,8.3,8.3s-3.7,8.3-8.3,8.3c-4.6,0-8.3-3.7-8.3-8.3
		S-3748.2,1334.6-3743.6,1334.6z M-3690.4,1334.6c4.6,0,8.3,3.7,8.3,8.3s-3.7,8.3-8.3,8.3s-8.3-3.7-8.3-8.3
		S-3695,1334.6-3690.4,1334.6z"/>
</g>
<g transform="matrix(-.09503 -.0372 -.0372 .09503 182.64 614.6)">
	<path class="st16" d="M-3776.6,1261.8c-8.4-0.2-16.1,6.9-16.6,15.3c-0.8,8.2,5.5,16.3,13.6,17.6c4.6,1,9.2-0.7,13.2-2.8
		c11.4-5,25.1-4.3,36,1.5c7.5,3.7,17.3,0.5,21.3-6.8c4.2-7,2.2-16.8-4.5-21.6c-5.2-4-12.7-4.3-18.3-1.1c-11.8,5.9-26.4,5.5-38-0.7
		C-3771.9,1262.3-3774.3,1261.8-3776.6,1261.8L-3776.6,1261.8z"/>
	<g transform="matrix(.4863 0 0 .4863 308.47 34.488)">
		<path class="st17" d="M-8274,2557.9c0,9.4-7.6,17-17,17c-9.4,0-17-7.6-17-17s7.6-17,17-17C-8281.6,2540.9-8274,2548.5-8274,2557.9
			z"/>
	</g>
	<g>
		<path class="st18" d="M-3768.3,1278.4c0,4.6-3.7,8.3-8.3,8.3c-4.6,0-8.3-3.7-8.3-8.3c0-4.6,3.7-8.3,8.3-8.3
			C-3772,1270.1-3768.3,1273.8-3768.3,1278.4z"/>
	</g>
</g>
<g transform="matrix(-.09611 -.03432 -.03432 .09611 196.85 625.31)">
	<path class="st15" d="M-3729.9,1326c-8.4-0.2-16.1,6.9-16.6,15.3c-0.8,8.2,5.5,16.3,13.6,17.6c4.6,1,9.2-0.7,13.2-2.8
		c11.4-5,25.1-4.3,36,1.6c7.5,3.7,17.4,0.5,21.4-6.8c4.2-7,2.2-16.8-4.5-21.5c-5.2-4-12.7-4.3-18.3-1.1c-11.8,5.9-26.4,5.5-38-0.7
		C-3725.2,1326.5-3727.5,1326-3729.9,1326z M-3729.9,1334.3c4.6,0,8.3,3.7,8.3,8.3c0,4.6-3.7,8.3-8.3,8.3c-4.6,0-8.3-3.7-8.3-8.3
		C-3738.2,1338-3734.5,1334.3-3729.9,1334.3z M-3676.7,1334.4c4.6,0,8.3,3.7,8.3,8.3c0,4.6-3.7,8.3-8.3,8.3s-8.3-3.7-8.3-8.3
		C-3685,1338.1-3681.3,1334.4-3676.7,1334.4z"/>
</g>
<g transform="matrix(-.09503 -.0372 -.0372 .09503 194.11 618.94)">
	<path class="st16" d="M-3762.9,1261.9c-8.4-0.2-16.1,6.9-16.6,15.3c-0.8,8.2,5.5,16.3,13.6,17.6c4.6,1,9.2-0.7,13.2-2.8
		c11.4-5,25.1-4.3,36,1.5c7.5,3.7,17.3,0.5,21.3-6.8c4.2-7,2.2-16.8-4.5-21.6c-5.2-4-12.7-4.3-18.3-1.1c-11.8,5.9-26.4,5.5-38-0.7
		C-3758.3,1262.5-3760.6,1261.9-3762.9,1261.9L-3762.9,1261.9z"/>
	<g transform="matrix(.4863 0 0 .4863 308.47 34.488)">
		<path class="st17" d="M-8245.8,2558.3c0,9.4-7.6,17-17,17c-9.4,0-17-7.6-17-17c0-9.4,7.6-17,17-17
			C-8253.5,2541.2-8245.8,2548.9-8245.8,2558.3z"/>
	</g>
	<g>
		<path class="st18" d="M-3754.6,1278.6c0,4.6-3.7,8.3-8.3,8.3c-4.6,0-8.3-3.7-8.3-8.3s3.7-8.3,8.3-8.3
			C-3758.3,1270.3-3754.6,1274-3754.6,1278.6z"/>
	</g>
</g>
<g transform="matrix(-.09658 -.03298 -.03298 .09658 209.24 629.37)">
	<path class="st15" d="M-3697.8,1382.7c-8.4-0.2-16.1,6.9-16.6,15.3c-0.8,8.2,5.5,16.3,13.6,17.6c4.6,1,9.2-0.7,13.2-2.8
		c11.4-5,25.1-4.3,36,1.6c7.5,3.7,17.4,0.5,21.4-6.8c4.2-7,2.2-16.8-4.5-21.5c-5.2-4-12.7-4.3-18.3-1.1c-11.8,5.9-26.4,5.5-38-0.7
		C-3693.1,1383.2-3695.4,1382.7-3697.8,1382.7z M-3697.8,1391c4.6,0,8.3,3.7,8.3,8.3c0,4.6-3.7,8.3-8.3,8.3s-8.3-3.7-8.3-8.3
		C-3706.1,1394.7-3702.4,1391-3697.8,1391z M-3644.6,1391c4.6,0,8.3,3.7,8.3,8.3s-3.7,8.3-8.3,8.3s-8.3-3.7-8.3-8.3
		S-3649.2,1391-3644.6,1391z"/>
</g>
<g transform="matrix(-.09554 -.03586 -.03586 .09554 206.42 623.04)">
	<path class="st16" d="M-3732.6,1320.1c-8.4-0.2-16.1,6.9-16.6,15.3c-0.8,8.2,5.5,16.3,13.6,17.6c4.6,1,9.2-0.7,13.2-2.8
		c11.4-5,25.1-4.3,36,1.5c7.5,3.7,17.3,0.5,21.3-6.8c4.2-7,2.2-16.8-4.5-21.6c-5.2-4-12.7-4.3-18.3-1.1c-11.8,5.9-26.4,5.5-38-0.7
		C-3727.9,1320.7-3730.3,1320.1-3732.6,1320.1L-3732.6,1320.1z"/>
	<g transform="matrix(.4863 0 0 .4863 308.47 34.488)">
		<path class="st17" d="M-8183.5,2677.9c0,9.4-7.6,17-17,17c-9.4,0-17-7.6-17-17s7.6-17,17-17
			C-8191.1,2660.9-8183.5,2668.5-8183.5,2677.9z"/>
	</g>
	<g>
		<path class="st18" d="M-3724.3,1336.8c0,4.6-3.7,8.3-8.3,8.3s-8.3-3.7-8.3-8.3s3.7-8.3,8.3-8.3S-3724.3,1332.2-3724.3,1336.8z"/>
	</g>
</g>
<g transform="matrix(-.09658 -.03298 -.03298 .09658 221.01 633.99)">
	<path class="st15" d="M-3683.7,1382c-8.4-0.2-16.1,6.9-16.6,15.3c-0.8,8.2,5.5,16.3,13.6,17.6c4.6,1,9.2-0.7,13.2-2.8
		c11.4-5,25.1-4.3,36,1.6c7.5,3.7,17.4,0.5,21.4-6.8c4.2-7,2.2-16.8-4.5-21.5c-5.2-4-12.7-4.3-18.3-1.1c-11.8,5.9-26.4,5.5-38-0.7
		C-3679,1382.5-3681.3,1382-3683.7,1382z M-3683.7,1390.3c4.6,0,8.3,3.7,8.3,8.3c0,4.6-3.7,8.3-8.3,8.3s-8.3-3.7-8.3-8.3
		C-3692,1394-3688.3,1390.3-3683.7,1390.3z M-3630.5,1390.4c4.6,0,8.3,3.7,8.3,8.3s-3.7,8.3-8.3,8.3s-8.3-3.7-8.3-8.3
		S-3635.1,1390.4-3630.5,1390.4z"/>
</g>
<g transform="matrix(-.09554 -.03586 -.03586 .09554 218.19 627.65)">
	<path class="st16" d="M-3718.5,1319.9c-8.4-0.2-16.1,6.9-16.6,15.3c-0.8,8.2,5.5,16.3,13.6,17.6c4.6,1,9.2-0.7,13.2-2.8
		c11.4-5,25.1-4.3,36,1.5c7.5,3.7,17.3,0.5,21.3-6.8c4.2-7,2.2-16.8-4.5-21.6c-5.2-4-12.7-4.3-18.3-1.1c-11.8,5.9-26.4,5.5-38-0.7
		C-3713.8,1320.5-3716.2,1319.9-3718.5,1319.9L-3718.5,1319.9z"/>
	<g transform="matrix(.4863 0 0 .4863 308.47 34.488)">
		<path class="st17" d="M-8154.5,2677.5c0,9.4-7.6,17-17,17c-9.4,0-17-7.6-17-17c0-9.4,7.6-17,17-17
			C-8162.1,2660.5-8154.5,2668.1-8154.5,2677.5z"/>
	</g>
	<g>
		<path class="st18" d="M-3710.2,1336.6c0,4.6-3.7,8.3-8.3,8.3c-4.6,0-8.3-3.7-8.3-8.3s3.7-8.3,8.3-8.3
			C-3713.9,1328.3-3710.2,1332-3710.2,1336.6z"/>
	</g>
</g>
<g transform="matrix(-.09658 -.03298 -.03298 .09658 232.41 638.57)">
	<path class="st15" d="M-3670,1381.3c-8.4-0.2-16.1,6.9-16.6,15.3c-0.8,8.2,5.5,16.3,13.6,17.6c4.6,1,9.2-0.7,13.2-2.8
		c11.4-5,25.1-4.3,36,1.6c7.5,3.7,17.4,0.5,21.4-6.8c4.2-7,2.2-16.8-4.5-21.5c-5.2-4-12.7-4.3-18.3-1.1c-11.8,5.9-26.4,5.5-38-0.7
		C-3665.3,1381.8-3667.7,1381.3-3670,1381.3z M-3670,1389.6c4.6,0,8.3,3.7,8.3,8.3c0,4.6-3.7,8.3-8.3,8.3c-4.6,0-8.3-3.7-8.3-8.3
		C-3678.3,1393.3-3674.6,1389.6-3670,1389.6z M-3616.8,1389.6c4.6,0,8.3,3.7,8.3,8.3c0,4.6-3.7,8.3-8.3,8.3s-8.3-3.7-8.3-8.3
		C-3625.1,1393.3-3621.4,1389.6-3616.8,1389.6z"/>
</g>
<g transform="matrix(-.09554 -.03586 -.03586 .09554 229.59 632.23)">
	<path class="st16" d="M-3704.8,1319.6c-8.4-0.2-16.1,6.9-16.6,15.3c-0.8,8.2,5.5,16.3,13.6,17.6c4.6,1,9.2-0.7,13.2-2.8
		c11.4-5,25.1-4.3,36,1.5c7.5,3.7,17.3,0.5,21.3-6.8c4.2-7,2.2-16.8-4.5-21.6c-5.2-4-12.7-4.3-18.3-1.1c-11.8,5.9-26.4,5.5-38-0.7
		C-3700.1,1320.1-3702.5,1319.6-3704.8,1319.6L-3704.8,1319.6z"/>
	<g transform="matrix(.4863 0 0 .4863 308.47 34.488)">
		<path class="st17" d="M-8126.3,2676.9c0,9.4-7.6,17-17,17c-9.4,0-17-7.6-17-17s7.6-17,17-17
			C-8133.9,2659.8-8126.3,2667.5-8126.3,2676.9z"/>
	</g>
	<g>
		<path class="st18" d="M-3696.5,1336.3c0,4.6-3.7,8.3-8.3,8.3c-4.6,0-8.3-3.7-8.3-8.3s3.7-8.3,8.3-8.3
			C-3700.2,1327.9-3696.5,1331.7-3696.5,1336.3z"/>
	</g>
</g>
<g transform="matrix(-.09658 -.03298 -.03298 .09658 243.95 642.75)">
	<path class="st15" d="M-3656.3,1381c-8.4-0.2-16.1,6.9-16.6,15.3c-0.8,8.2,5.5,16.3,13.6,17.6c4.6,1,9.2-0.7,13.2-2.8
		c11.4-5,25.1-4.3,36,1.6c7.5,3.7,17.4,0.5,21.4-6.8c4.2-7,2.2-16.8-4.5-21.5c-5.2-4-12.7-4.3-18.3-1.1c-11.8,5.9-26.4,5.5-38-0.7
		C-3651.6,1381.5-3654,1381-3656.3,1381z M-3656.3,1389.3c4.6,0,8.3,3.7,8.3,8.3s-3.7,8.3-8.3,8.3s-8.3-3.7-8.3-8.3
		S-3660.9,1389.3-3656.3,1389.3z M-3603.1,1389.4c4.6,0,8.3,3.7,8.3,8.3s-3.7,8.3-8.3,8.3s-8.3-3.7-8.3-8.3
		S-3607.7,1389.4-3603.1,1389.4z"/>
</g>
<g transform="matrix(-.09554 -.03586 -.03586 .09554 241.12 636.41)">
	<path class="st16" d="M-3691.1,1319.8c-8.4-0.2-16.1,6.9-16.6,15.3c-0.8,8.2,5.5,16.3,13.6,17.6c4.6,1,9.2-0.7,13.2-2.8
		c11.4-5,25.1-4.3,36,1.5c7.5,3.7,17.3,0.5,21.3-6.8c4.2-7,2.2-16.8-4.5-21.6c-5.2-4-12.7-4.3-18.3-1.1c-11.8,5.9-26.4,5.5-38-0.7
		C-3686.4,1320.3-3688.8,1319.8-3691.1,1319.8L-3691.1,1319.8z"/>
	<g transform="matrix(.4863 0 0 .4863 308.47 34.488)">
		<path class="st17" d="M-8098.2,2677.2c0,9.4-7.6,17-17,17c-9.4,0-17-7.6-17-17s7.6-17,17-17
			C-8105.8,2660.2-8098.2,2667.8-8098.2,2677.2z"/>
	</g>
	<g>
		<path class="st18" d="M-3682.8,1336.4c0,4.6-3.7,8.3-8.3,8.3c-4.6,0-8.3-3.7-8.3-8.3s3.7-8.3,8.3-8.3
			C-3686.5,1328.1-3682.8,1331.8-3682.8,1336.4z"/>
	</g>
</g>
<g transform="matrix(.1012 .01315 .01315 -.1012 168.02 597.13)">
	<path class="st15" d="M4089-1990.4c-8.4-0.2-16.1,6.9-16.6,15.3c-0.8,8.2,5.5,16.3,13.6,17.6c4.6,1,9.2-0.7,13.2-2.8
		c11.4-5,25.1-4.3,36,1.6c7.5,3.7,17.4,0.5,21.4-6.8c4.2-7,2.2-16.8-4.5-21.5c-5.2-4-12.7-4.3-18.3-1.1c-11.8,5.9-26.4,5.5-38-0.7
		C4093.7-1989.9,4091.3-1990.4,4089-1990.4z M4089-1982.1c4.6,0,8.3,3.7,8.3,8.3s-3.7,8.3-8.3,8.3s-8.3-3.7-8.3-8.3
		S4084.4-1982.1,4089-1982.1z M4142.2-1982.1c4.6,0,8.3,3.7,8.3,8.3s-3.7,8.3-8.3,8.3s-8.3-3.7-8.3-8.3S4137.6-1982.1,4142.2-1982.1
		z"/>
</g>
<g transform="matrix(.1012 .01315 .01315 -.1012 172.45 603.92)">
	<path class="st16" d="M4090.7-1930c-8.4-0.2-16.1,6.9-16.6,15.3c-0.8,8.2,5.5,16.3,13.6,17.6c4.6,1,9.2-0.7,13.2-2.8
		c11.4-5,25.1-4.3,36,1.5c7.5,3.7,17.3,0.5,21.3-6.8c4.2-7,2.2-16.8-4.5-21.6c-5.2-4-12.7-4.3-18.3-1.1c-11.8,5.9-26.4,5.5-38-0.7
		C4095.4-1929.5,4093.1-1930,4090.7-1930L4090.7-1930z"/>
	<g transform="matrix(.4863 0 0 .4863 308.47 34.488)">
		<path class="st17" d="M7904-4005.5c0,9.4-7.6,17-17,17c-9.4,0-17-7.6-17-17s7.6-17,17-17C7896.3-4022.5,7904-4014.9,7904-4005.5z"
			/>
	</g>
	<g>
		<path class="st18" d="M4099-1913.4c0,4.6-3.7,8.3-8.3,8.3s-8.3-3.7-8.3-8.3s3.7-8.3,8.3-8.3S4099-1918,4099-1913.4z"/>
	</g>
</g>
<g transform="matrix(.1012 .01315 .01315 -.1012 155.13 595.92)">
	<path class="st15" d="M4103.4-1989.9c-8.4-0.2-16.1,6.9-16.6,15.3c-0.8,8.2,5.5,16.3,13.6,17.6c4.6,1,9.2-0.7,13.2-2.8
		c11.4-5,25.1-4.3,36,1.6c7.5,3.7,17.4,0.5,21.4-6.8c4.2-7,2.2-16.8-4.5-21.5c-5.2-4-12.7-4.3-18.3-1.1c-11.8,5.9-26.4,5.5-38-0.7
		C4108.1-1989.4,4105.8-1989.9,4103.4-1989.9z M4103.4-1981.6c4.6,0,8.3,3.7,8.3,8.3c0,4.6-3.7,8.3-8.3,8.3c-4.6,0-8.3-3.7-8.3-8.3
		C4095.1-1977.9,4098.8-1981.6,4103.4-1981.6z M4156.6-1981.6c4.6,0,8.3,3.7,8.3,8.3c0,4.6-3.7,8.3-8.3,8.3s-8.3-3.7-8.3-8.3
		C4148.3-1977.9,4152-1981.6,4156.6-1981.6z"/>
</g>
<g transform="matrix(.1012 .01315 .01315 -.1012 159.55 602.71)">
	<path class="st16" d="M4105.2-1929.5c-8.4-0.2-16.1,6.9-16.6,15.3c-0.8,8.2,5.5,16.3,13.6,17.6c4.6,1,9.2-0.7,13.2-2.8
		c11.4-5,25.1-4.3,36,1.5c7.5,3.7,17.3,0.5,21.3-6.8c4.2-7,2.2-16.8-4.5-21.6c-5.2-4-12.7-4.3-18.3-1.1c-11.8,5.9-26.4,5.5-38-0.7
		C4109.8-1929,4107.5-1929.5,4105.2-1929.5L4105.2-1929.5z"/>
	<g transform="matrix(.4863 0 0 .4863 308.47 34.488)">
		<path class="st17" d="M7933.7-4004.4c0,9.4-7.6,17-17,17c-9.4,0-17-7.6-17-17s7.6-17,17-17
			C7926.1-4021.4,7933.7-4013.8,7933.7-4004.4z"/>
	</g>
	<g>
		<path class="st18" d="M4113.5-1912.9c0,4.6-3.7,8.3-8.3,8.3s-8.3-3.7-8.3-8.3s3.7-8.3,8.3-8.3S4113.5-1917.4,4113.5-1912.9z"/>
	</g>
</g>
<g transform="matrix(.1012 .01315 .01315 -.1012 142.18 593.82)">
	<path class="st15" d="M4118.1-1990.4c-8.4-0.2-16.1,6.9-16.6,15.3c-0.8,8.2,5.5,16.3,13.6,17.6c4.6,1,9.2-0.7,13.2-2.8
		c11.4-5,25.1-4.3,36,1.6c7.5,3.7,17.4,0.5,21.4-6.8c4.2-7,2.2-16.8-4.5-21.5c-5.2-4-12.7-4.3-18.3-1.1c-11.8,5.9-26.4,5.5-38-0.7
		C4122.7-1989.9,4120.4-1990.4,4118.1-1990.4z M4118.1-1982.1c4.6,0,8.3,3.7,8.3,8.3s-3.7,8.3-8.3,8.3c-4.6,0-8.3-3.7-8.3-8.3
		S4113.5-1982.1,4118.1-1982.1z M4171.2-1982c4.6,0,8.3,3.7,8.3,8.3s-3.7,8.3-8.3,8.3s-8.3-3.7-8.3-8.3S4166.7-1982,4171.2-1982z"/>
</g>
<g transform="matrix(.1012 .01315 .01315 -.1012 146.61 600.61)">
	<path class="st16" d="M4119.8-1929.9c-8.4-0.2-16.1,6.9-16.6,15.3c-0.8,8.2,5.5,16.3,13.6,17.6c4.6,1,9.2-0.7,13.2-2.8
		c11.4-5,25.1-4.3,36,1.5c7.5,3.7,17.3,0.5,21.3-6.8c4.2-7,2.2-16.8-4.5-21.6c-5.2-4-12.7-4.3-18.3-1.1c-11.8,5.9-26.4,5.5-38-0.7
		C4124.5-1929.4,4122.1-1929.9,4119.8-1929.9L4119.8-1929.9z"/>
	<g transform="matrix(.4863 0 0 .4863 308.47 34.488)">
		<path class="st17" d="M7963.7-4005.4c0,9.4-7.6,17-17,17c-9.4,0-17-7.6-17-17s7.6-17,17-17
			C7956.1-4022.4,7963.7-4014.8,7963.7-4005.4z"/>
	</g>
	<g>
		<path class="st18" d="M4128.1-1913.3c0,4.6-3.7,8.3-8.3,8.3c-4.6,0-8.3-3.7-8.3-8.3s3.7-8.3,8.3-8.3
			C4124.4-1921.6,4128.1-1917.9,4128.1-1913.3z"/>
	</g>
</g>
<g transform="matrix(.09897 .02489 .02489 -.09897 82.352 578.73)">
	<path class="st15" d="M4405.2-1534.2c-8.4-0.2-16.1,6.9-16.6,15.3c-0.8,8.2,5.5,16.3,13.6,17.6c4.6,1,9.2-0.7,13.2-2.8
		c11.4-5,25.1-4.3,36,1.6c7.5,3.7,17.4,0.5,21.4-6.8c4.2-7,2.2-16.8-4.5-21.5c-5.2-4-12.7-4.3-18.3-1.1c-11.8,5.9-26.4,5.5-38-0.7
		C4409.9-1533.7,4407.5-1534.2,4405.2-1534.2z M4405.2-1525.9c4.6,0,8.3,3.7,8.3,8.3c0,4.6-3.7,8.3-8.3,8.3c-4.6,0-8.3-3.7-8.3-8.3
		C4396.9-1522.2,4400.6-1525.9,4405.2-1525.9z M4458.3-1525.9c4.6,0,8.3,3.7,8.3,8.3s-3.7,8.3-8.3,8.3s-8.3-3.7-8.3-8.3
		S4453.8-1525.9,4458.3-1525.9z"/>
</g>
<g transform="matrix(.09897 .02489 .02489 -.09897 85.951 585.98)">
	<path class="st16" d="M4406.9-1473.8c-8.4-0.2-16.1,6.9-16.6,15.3c-0.8,8.2,5.5,16.3,13.6,17.6c4.6,1,9.2-0.7,13.2-2.8
		c11.4-5,25.1-4.3,36,1.5c7.5,3.7,17.3,0.5,21.3-6.8c4.2-7,2.2-16.8-4.5-21.6c-5.2-4-12.7-4.3-18.3-1.1c-11.8,5.9-26.4,5.5-38-0.7
		C4411.6-1473.3,4409.3-1473.8,4406.9-1473.8L4406.9-1473.8z"/>
	<g transform="matrix(.4863 0 0 .4863 308.47 34.488)">
		<path class="st17" d="M8554.2-3067.3c0,9.4-7.6,17-17,17s-17-7.6-17-17s7.6-17,17-17S8554.2-3076.7,8554.2-3067.3z"/>
	</g>
	<g>
		<path class="st18" d="M4415.2-1457.2c0,4.6-3.7,8.3-8.3,8.3s-8.3-3.7-8.3-8.3s3.7-8.3,8.3-8.3S4415.2-1461.7,4415.2-1457.2z"/>
	</g>
</g>
<g transform="matrix(.1012 .01315 .01315 -.1012 70.872 581.92)">
	<path class="st15" d="M4198.7-1993.3c-8.4-0.2-16.1,6.9-16.6,15.3c-0.8,8.2,5.5,16.3,13.6,17.6c4.6,1,9.2-0.7,13.2-2.8
		c11.4-5,25.1-4.3,36,1.6c7.5,3.7,17.4,0.5,21.4-6.8c4.2-7,2.2-16.8-4.5-21.5c-5.2-4-12.7-4.3-18.3-1.1c-11.8,5.9-26.4,5.5-38-0.7
		C4203.4-1992.8,4201-1993.3,4198.7-1993.3z M4198.7-1985c4.6,0,8.3,3.7,8.3,8.3c0,4.6-3.7,8.3-8.3,8.3c-4.6,0-8.3-3.7-8.3-8.3
		C4190.4-1981.3,4194.1-1985,4198.7-1985z M4251.8-1984.9c4.6,0,8.3,3.7,8.3,8.3c0,4.6-3.7,8.3-8.3,8.3s-8.3-3.7-8.3-8.3
		C4243.6-1981.2,4247.3-1984.9,4251.8-1984.9z"/>
</g>
<g transform="matrix(.1012 .01315 .01315 -.1012 75.295 588.71)">
	<path class="st16" d="M4200.4-1932.9c-8.4-0.2-16.1,6.9-16.6,15.3c-0.8,8.2,5.5,16.3,13.6,17.6c4.6,1,9.2-0.7,13.2-2.8
		c11.4-5,25.1-4.3,36,1.5c7.5,3.7,17.3,0.5,21.3-6.8c4.2-7,2.2-16.8-4.5-21.6c-5.2-4-12.7-4.3-18.3-1.1c-11.8,5.9-26.4,5.5-38-0.7
		C4205.1-1932.3,4202.8-1932.9,4200.4-1932.9L4200.4-1932.9z"/>
	<g transform="matrix(.4863 0 0 .4863 308.47 34.488)">
		<path class="st17" d="M8129.5-4011.3c0,9.4-7.6,17-17,17c-9.4,0-17-7.6-17-17s7.6-17,17-17
			C8121.9-4028.4,8129.5-4020.8,8129.5-4011.3z"/>
	</g>
	<g>
		<path class="st18" d="M4208.7-1916.2c0,4.6-3.7,8.3-8.3,8.3c-4.6,0-8.3-3.7-8.3-8.3c0-4.6,3.7-8.3,8.3-8.3
			C4205-1924.5,4208.7-1920.8,4208.7-1916.2z"/>
	</g>
</g>
<g transform="matrix(.10202 -.00267 -.00267 -.10202 59.94 586.16)">
	<path class="st15" d="M3840.6-2561c-8.4-0.2-16.1,6.9-16.6,15.3c-0.8,8.2,5.5,16.3,13.6,17.6c4.6,1,9.2-0.7,13.2-2.8
		c11.4-5,25.1-4.3,36,1.6c7.5,3.7,17.4,0.5,21.4-6.8c4.2-7,2.2-16.8-4.5-21.5c-5.2-4-12.7-4.3-18.3-1.1c-11.8,5.9-26.4,5.5-38-0.7
		C3845.2-2560.5,3842.9-2561,3840.6-2561z M3840.6-2552.7c4.6,0,8.3,3.7,8.3,8.3s-3.7,8.3-8.3,8.3c-4.6,0-8.3-3.7-8.3-8.3
		S3836-2552.7,3840.6-2552.7z M3893.7-2552.7c4.6,0,8.3,3.7,8.3,8.3s-3.7,8.3-8.3,8.3s-8.3-3.7-8.3-8.3S3889.2-2552.7,3893.7-2552.7
		z"/>
</g>
<g transform="matrix(.09472 .03798 .03798 -.09472 60.545 574.86)">
	<path class="st16" d="M4619.8-913.5c-8.4-0.2-16.1,6.9-16.6,15.3c-0.8,8.2,5.5,16.3,13.6,17.6c4.6,1,9.2-0.7,13.2-2.8
		c11.4-5,25.1-4.3,36,1.5c7.5,3.7,17.3,0.5,21.3-6.8c4.2-7,2.2-16.8-4.5-21.6c-5.2-4-12.7-4.3-18.3-1.1c-11.8,5.9-26.4,5.5-38-0.7
		C4624.5-913,4622.1-913.5,4619.8-913.5L4619.8-913.5z"/>
	<g transform="matrix(.4863 0 0 .4863 308.47 34.488)">
		<path class="st17" d="M8991.9-1915.2c0,9.4-7.6,17-17,17c-9.4,0-17-7.6-17-17s7.6-17,17-17
			C8984.3-1932.2,8991.9-1924.6,8991.9-1915.2z"/>
	</g>
	<g>
		<path class="st18" d="M4628.1-896.9c0,4.6-3.7,8.3-8.3,8.3c-4.6,0-8.3-3.7-8.3-8.3s3.7-8.3,8.3-8.3
			C4624.4-905.2,4628.1-901.5,4628.1-896.9z"/>
	</g>
</g>
<g transform="matrix(.07507 -.06913 -.06913 -.07507 68.235 614.34)">
	<path class="st15" d="M1240.2-4179.5c-8.4-0.2-16.1,6.9-16.6,15.3c-0.8,8.2,5.5,16.3,13.6,17.6c4.6,1,9.2-0.7,13.2-2.8
		c11.4-5,25.1-4.3,36,1.6c7.5,3.7,17.4,0.5,21.4-6.8c4.2-7,2.2-16.8-4.5-21.5c-5.2-4-12.7-4.3-18.3-1.1c-11.8,5.9-26.4,5.5-38-0.7
		C1244.9-4179,1242.6-4179.5,1240.2-4179.5z M1240.2-4171.2c4.6,0,8.3,3.7,8.3,8.3c0,4.6-3.7,8.3-8.3,8.3s-8.3-3.7-8.3-8.3
		C1231.9-4167.4,1235.6-4171.2,1240.2-4171.2z M1293.4-4171.1c4.6,0,8.3,3.7,8.3,8.3c0,4.6-3.7,8.3-8.3,8.3c-4.6,0-8.3-3.7-8.3-8.3
		C1285.1-4167.4,1288.8-4171.1,1293.4-4171.1z"/>
</g>
<g transform="matrix(.09742 -.0304 -.0304 -.09742 60.33 604.19)">
	<path class="st16" d="M2995.3-3342.9c-8.4-0.2-16.1,6.9-16.6,15.3c-0.8,8.2,5.5,16.3,13.6,17.6c4.6,1,9.2-0.7,13.2-2.8
		c11.4-5,25.1-4.3,36,1.5c7.5,3.7,17.3,0.5,21.3-6.8c4.2-7,2.2-16.8-4.5-21.6c-5.2-4-12.7-4.3-18.3-1.1c-11.8,5.9-26.4,5.5-38-0.7
		C3000-3342.3,2997.7-3342.9,2995.3-3342.9L2995.3-3342.9z"/>
	<g transform="matrix(.4863 0 0 .4863 308.47 34.488)">
		<path class="st17" d="M5651.4-6910.8c0,9.4-7.6,17-17,17c-9.4,0-17-7.6-17-17c0-9.4,7.6-17,17-17
			C5643.8-6927.8,5651.4-6920.2,5651.4-6910.8z"/>
	</g>
	<g>
		<path class="st18" d="M3003.6-3326.2c0,4.6-3.7,8.3-8.3,8.3s-8.3-3.7-8.3-8.3c0-4.6,3.7-8.3,8.3-8.3S3003.6-3330.8,3003.6-3326.2z
			"/>
	</g>
</g>
<g transform="matrix(-.00419 -.10197 -.10197 .00419 100.75 628.42)">
	<path class="st15" d="M-2324.8-3320.1c-8.4-0.2-16.1,6.9-16.6,15.3c-0.8,8.2,5.5,16.3,13.6,17.6c4.6,1,9.2-0.7,13.2-2.8
		c11.4-5,25.1-4.3,36,1.6c7.5,3.7,17.4,0.5,21.4-6.8c4.2-7,2.2-16.8-4.5-21.5c-5.2-4-12.7-4.3-18.3-1.1c-11.8,5.9-26.4,5.5-38-0.7
		C-2320.1-3319.6-2322.4-3320.1-2324.8-3320.1z M-2324.8-3311.8c4.6,0,8.3,3.7,8.3,8.3s-3.7,8.3-8.3,8.3c-4.6,0-8.3-3.7-8.3-8.3
		S-2329.4-3311.8-2324.8-3311.8z M-2271.6-3311.8c4.6,0,8.3,3.7,8.3,8.3c0,4.6-3.7,8.3-8.3,8.3s-8.3-3.7-8.3-8.3
		C-2279.9-3308.1-2276.2-3311.8-2271.6-3311.8z"/>
</g>
<g transform="matrix(.0398 -.09397 -.09397 -.0398 87.901 627.89)">
	<path class="st16" d="M-595.1-4090.4c-8.4-0.2-16.1,6.9-16.6,15.3c-0.8,8.2,5.5,16.3,13.6,17.6c4.6,1,9.2-0.7,13.2-2.8
		c11.4-5,25.1-4.3,36,1.5c7.5,3.7,17.3,0.5,21.3-6.8c4.2-7,2.2-16.8-4.5-21.6c-5.2-4-12.7-4.3-18.3-1.1c-11.8,5.9-26.4,5.5-38-0.7
		C-590.4-4089.8-592.8-4090.4-595.1-4090.4L-595.1-4090.4z"/>
	<g transform="matrix(.4863 0 0 .4863 308.47 34.488)">
		<path class="st17" d="M-1731.7-8447.9c0,9.4-7.6,17-17,17s-17-7.6-17-17c0-9.4,7.6-17,17-17S-1731.7-8457.3-1731.7-8447.9z"/>
	</g>
	<g>
		<path class="st18" d="M-586.8-4073.7c0,4.6-3.7,8.3-8.3,8.3c-4.6,0-8.3-3.7-8.3-8.3c0-4.6,3.7-8.3,8.3-8.3
			C-590.5-4082-586.8-4078.3-586.8-4073.7z"/>
	</g>
</g>
<g transform="matrix(-.06382 -.07964 -.07964 .06382 125.03 622.51)">
	<path class="st15" d="M-3821.4-1051c-8.4-0.2-16.1,6.9-16.6,15.3c-0.8,8.2,5.5,16.3,13.6,17.6c4.6,1,9.2-0.7,13.2-2.8
		c11.4-5,25.1-4.3,36,1.6c7.5,3.7,17.4,0.5,21.4-6.8c4.2-7,2.2-16.8-4.5-21.5c-5.2-4-12.7-4.3-18.3-1.1c-11.8,5.9-26.4,5.5-38-0.7
		C-3816.7-1050.5-3819.1-1051-3821.4-1051z M-3821.4-1042.7c4.6,0,8.3,3.7,8.3,8.3c0,4.6-3.7,8.3-8.3,8.3c-4.6,0-8.3-3.7-8.3-8.3
		C-3829.7-1039-3826-1042.7-3821.4-1042.7z M-3768.2-1042.6c4.6,0,8.3,3.7,8.3,8.3s-3.7,8.3-8.3,8.3s-8.3-3.7-8.3-8.3
		C-3776.5-1038.9-3772.8-1042.6-3768.2-1042.6z"/>
</g>
<g transform="matrix(-.00729 -.10179 -.10179 .00729 108.3 633.67)">
	<path class="st16" d="M-2413.7-3176.2c-8.4-0.2-16.1,6.9-16.6,15.3c-0.8,8.2,5.5,16.3,13.6,17.6c4.6,1,9.2-0.7,13.2-2.8
		c11.4-5,25.1-4.3,36,1.5c7.5,3.7,17.3,0.5,21.3-6.8c4.2-7,2.2-16.8-4.5-21.6c-5.2-4-12.7-4.3-18.3-1.1c-11.8,5.9-26.4,5.5-38-0.7
		C-2409-3175.6-2411.3-3176.2-2413.7-3176.2L-2413.7-3176.2z"/>
	<g transform="matrix(.4863 0 0 .4863 308.47 34.488)">
		<path class="st17" d="M-5471.3-6568c0,9.4-7.6,17-17,17c-9.4,0-17-7.6-17-17c0-9.4,7.6-17,17-17
			C-5478.9-6585-5471.3-6577.4-5471.3-6568z"/>
	</g>
	<g>
		<path class="st18" d="M-2405.4-3159.5c0,4.6-3.7,8.3-8.3,8.3s-8.3-3.7-8.3-8.3c0-4.6,3.7-8.3,8.3-8.3
			S-2405.4-3164.1-2405.4-3159.5z"/>
	</g>
</g>
<g transform="matrix(-.09752 -.03006 -.03006 .09752 166.38 612.3)">
	<path class="st15" d="M-3709,1507.6c-8.4-0.2-16.1,6.9-16.6,15.3c-0.8,8.2,5.5,16.3,13.6,17.6c4.6,1,9.2-0.7,13.2-2.8
		c11.4-5,25.1-4.3,36,1.6c7.5,3.7,17.4,0.5,21.4-6.8c4.2-7,2.2-16.8-4.5-21.5c-5.2-4-12.7-4.3-18.3-1.1c-11.8,5.9-26.4,5.5-38-0.7
		C-3704.3,1508.1-3706.7,1507.6-3709,1507.6z M-3709,1515.9c4.6,0,8.3,3.7,8.3,8.3c0,4.6-3.7,8.3-8.3,8.3s-8.3-3.7-8.3-8.3
		C-3717.3,1519.6-3713.6,1515.9-3709,1515.9z M-3655.8,1515.9c4.6,0,8.3,3.7,8.3,8.3c0,4.6-3.7,8.3-8.3,8.3s-8.3-3.7-8.3-8.3
		C-3664.1,1519.6-3660.4,1515.9-3655.8,1515.9z"/>
</g>
<g transform="matrix(-.09752 -.03006 -.03006 .09752 163.17 604.86)">
	<path class="st16" d="M-3707.3,1568c-8.4-0.2-16.1,6.9-16.6,15.3c-0.8,8.2,5.5,16.3,13.6,17.6c4.6,1,9.2-0.7,13.2-2.8
		c11.4-5,25.1-4.3,36,1.5c7.5,3.7,17.3,0.5,21.3-6.8c4.2-7,2.2-16.8-4.5-21.6c-5.2-4-12.7-4.3-18.3-1.1c-11.8,5.9-26.4,5.5-38-0.7
		C-3702.6,1568.5-3704.9,1568-3707.3,1568L-3707.3,1568z"/>
	<g transform="matrix(.4863 0 0 .4863 308.47 34.488)">
		<path class="st17" d="M-8131.4,3187.7c0,9.4-7.6,17-17,17c-9.4,0-17-7.6-17-17s7.6-17,17-17
			C-8139,3170.6-8131.4,3178.3-8131.4,3187.7z"/>
	</g>
	<g>
		<path class="st18" d="M-3699,1584.6c0,4.6-3.7,8.3-8.3,8.3c-4.6,0-8.3-3.7-8.3-8.3s3.7-8.3,8.3-8.3
			C-3702.7,1576.3-3699,1580.1-3699,1584.6z"/>
	</g>
</g>
<g transform="matrix(.11293 .03873 .03211 -.09689 75.4 617.03)">
	<path class="st16" d="M3910.5-1090.5c-8.4-0.2-16.1,6.9-16.6,15.3c-0.8,8.2,5.5,16.3,13.6,17.6c4.6,1,9.2-0.7,13.2-2.8
		c11.4-5,25.1-4.3,36,1.5c7.5,3.7,17.3,0.5,21.3-6.8c4.2-7,2.2-16.8-4.5-21.6c-5.2-4-12.7-4.3-18.3-1.1c-11.8,5.9-26.4,5.5-38-0.7
		C3915.2-1090,3912.8-1090.5,3910.5-1090.5L3910.5-1090.5z"/>
	<g transform="matrix(.4863 0 0 .4863 308.47 34.488)">
		<path class="st17" d="M7533.4-2279.2c0,9.4-7.6,17-17,17c-9.4,0-17-7.6-17-17s7.6-17,17-17
			C7525.7-2296.2,7533.4-2288.6,7533.4-2279.2z"/>
	</g>
	<g>
		<path class="st18" d="M3918.8-1073.9c0,4.6-3.7,8.3-8.3,8.3c-4.6,0-8.3-3.7-8.3-8.3c0-4.6,3.7-8.3,8.3-8.3
			C3915.1-1082.2,3918.8-1078.5,3918.8-1073.9z"/>
	</g>
</g>
<g transform="matrix(.1012 .01315 .01315 -.1012 129.21 592.05)">
	<path class="st15" d="M4132.7-1990.5c-8.4-0.2-16.1,6.9-16.6,15.3c-0.8,8.2,5.5,16.3,13.6,17.6c4.6,1,9.2-0.7,13.2-2.8
		c11.4-5,25.1-4.3,36,1.6c7.5,3.7,17.4,0.5,21.4-6.8c4.2-7,2.2-16.8-4.5-21.5c-5.2-4-12.7-4.3-18.3-1.1c-11.8,5.9-26.4,5.5-38-0.7
		C4137.3-1990,4135-1990.5,4132.7-1990.5z M4132.7-1982.2c4.6,0,8.3,3.7,8.3,8.3c0,4.6-3.7,8.3-8.3,8.3c-4.6,0-8.3-3.7-8.3-8.3
		C4124.4-1978.4,4128.1-1982.2,4132.7-1982.2z M4185.8-1982.1c4.6,0,8.3,3.7,8.3,8.3c0,4.6-3.7,8.3-8.3,8.3s-8.3-3.7-8.3-8.3
		C4177.6-1978.4,4181.3-1982.1,4185.8-1982.1z"/>
</g>
<g transform="matrix(.1012 .01315 .01315 -.1012 133.63 598.84)">
	<path class="st16" d="M4134.4-1930c-8.4-0.2-16.1,6.9-16.6,15.3c-0.8,8.2,5.5,16.3,13.6,17.6c4.6,1,9.2-0.7,13.2-2.8
		c11.4-5,25.1-4.3,36,1.5c7.5,3.7,17.3,0.5,21.3-6.8c4.2-7,2.2-16.8-4.5-21.6c-5.2-4-12.7-4.3-18.3-1.1c-11.8,5.9-26.4,5.5-38-0.7
		C4139.1-1929.5,4136.7-1930,4134.4-1930L4134.4-1930z"/>
	<g transform="matrix(.4863 0 0 .4863 308.47 34.488)">
		<path class="st17" d="M7993.8-4005.5c0,9.4-7.6,17-17,17c-9.4,0-17-7.6-17-17c0-9.4,7.6-17,17-17
			C7986.2-4022.6,7993.8-4015,7993.8-4005.5z"/>
	</g>
	<g>
		<path class="st18" d="M4142.7-1913.4c0,4.6-3.7,8.3-8.3,8.3c-4.6,0-8.3-3.7-8.3-8.3s3.7-8.3,8.3-8.3
			C4139-1921.7,4142.7-1918,4142.7-1913.4z"/>
	</g>
</g>
<g transform="matrix(.1012 .01315 .01315 -.1012 117.01 590.63)">
	<path class="st15" d="M4146.4-1990.3c-8.4-0.2-16.1,6.9-16.6,15.3c-0.8,8.2,5.5,16.3,13.6,17.6c4.6,1,9.2-0.7,13.2-2.8
		c11.4-5,25.1-4.3,36,1.6c7.5,3.7,17.4,0.5,21.4-6.8c4.2-7,2.2-16.8-4.5-21.5c-5.2-4-12.7-4.3-18.3-1.1c-11.8,5.9-26.4,5.5-38-0.7
		C4151-1989.8,4148.7-1990.3,4146.4-1990.3z M4146.4-1982c4.6,0,8.3,3.7,8.3,8.3s-3.7,8.3-8.3,8.3s-8.3-3.7-8.3-8.3
		S4141.8-1982,4146.4-1982z M4199.5-1981.9c4.6,0,8.3,3.7,8.3,8.3s-3.7,8.3-8.3,8.3s-8.3-3.7-8.3-8.3S4195-1981.9,4199.5-1981.9z"/>
</g>
<g transform="matrix(.1012 .01315 .01315 -.1012 121.44 597.42)">
	<path class="st16" d="M4148.1-1929.9c-8.4-0.2-16.1,6.9-16.6,15.3c-0.8,8.2,5.5,16.3,13.6,17.6c4.6,1,9.2-0.7,13.2-2.8
		c11.4-5,25.1-4.3,36,1.5c7.5,3.7,17.3,0.5,21.3-6.8c4.2-7,2.2-16.8-4.5-21.6c-5.2-4-12.7-4.3-18.3-1.1c-11.8,5.9-26.4,5.5-38-0.7
		C4152.8-1929.3,4150.4-1929.9,4148.1-1929.9L4148.1-1929.9z"/>
	<g transform="matrix(.4863 0 0 .4863 308.47 34.488)">
		<path class="st17" d="M8022-4005.2c0,9.4-7.6,17-17,17c-9.4,0-17-7.6-17-17c0-9.4,7.6-17,17-17
			C8014.3-4022.2,8022-4014.6,8022-4005.2z"/>
	</g>
	<g>
		<path class="st18" d="M4156.4-1913.2c0,4.6-3.7,8.3-8.3,8.3s-8.3-3.7-8.3-8.3s3.7-8.3,8.3-8.3S4156.4-1917.8,4156.4-1913.2z"/>
	</g>
</g>
<g transform="matrix(.1012 .01315 .01315 -.1012 104.95 589.13)">
	<path class="st15" d="M4159.9-1990.2c-8.4-0.2-16.1,6.9-16.6,15.3c-0.8,8.2,5.5,16.3,13.6,17.6c4.6,1,9.2-0.7,13.2-2.8
		c11.4-5,25.1-4.3,36,1.6c7.5,3.7,17.4,0.5,21.4-6.8c4.2-7,2.2-16.8-4.5-21.5c-5.2-4-12.7-4.3-18.3-1.1c-11.8,5.9-26.4,5.5-38-0.7
		C4164.6-1989.7,4162.3-1990.2,4159.9-1990.2z M4159.9-1981.9c4.6,0,8.3,3.7,8.3,8.3s-3.7,8.3-8.3,8.3c-4.6,0-8.3-3.7-8.3-8.3
		S4155.3-1981.9,4159.9-1981.9z M4213.1-1981.9c4.6,0,8.3,3.7,8.3,8.3s-3.7,8.3-8.3,8.3s-8.3-3.7-8.3-8.3
		S4208.5-1981.9,4213.1-1981.9z"/>
</g>
<g transform="matrix(.1012 .01315 .01315 -.1012 109.38 595.92)">
	<path class="st16" d="M4161.7-1929.8c-8.4-0.2-16.1,6.9-16.6,15.3c-0.8,8.2,5.5,16.3,13.6,17.6c4.6,1,9.2-0.7,13.2-2.8
		c11.4-5,25.1-4.3,36,1.5c7.5,3.7,17.3,0.5,21.3-6.8c4.2-7,2.2-16.8-4.5-21.6c-5.2-4-12.7-4.3-18.3-1.1c-11.8,5.9-26.4,5.5-38-0.7
		C4166.3-1929.3,4164-1929.8,4161.7-1929.8L4161.7-1929.8z"/>
	<g transform="matrix(.4863 0 0 .4863 308.47 34.488)">
		<path class="st17" d="M8049.9-4005c0,9.4-7.6,17-17,17c-9.4,0-17-7.6-17-17s7.6-17,17-17C8042.2-4022.1,8049.9-4014.4,8049.9-4005
			z"/>
	</g>
	<g>
		<path class="st18" d="M4170-1913.2c0,4.6-3.7,8.3-8.3,8.3c-4.6,0-8.3-3.7-8.3-8.3s3.7-8.3,8.3-8.3
			C4166.2-1921.5,4170-1917.7,4170-1913.2z"/>
	</g>
</g>
<g transform="matrix(.13906 .03735 .02764 -.09825 76.487 582.7)">
	<path class="st16" d="M3263.1-1409.3c-8.4-0.2-16.1,6.9-16.6,15.3c-0.8,8.2,5.5,16.3,13.6,17.6c4.6,1,9.2-0.7,13.2-2.8
		c11.4-5,25.1-4.3,36,1.5c7.5,3.7,17.3,0.5,21.3-6.8c4.2-7,2.2-16.8-4.5-21.6c-5.2-4-12.7-4.3-18.3-1.1c-11.8,5.9-26.4,5.5-38-0.7
		C3267.8-1408.7,3265.5-1409.3,3263.1-1409.3L3263.1-1409.3z"/>
	<g transform="matrix(.4863 0 0 .4863 308.47 34.488)">
		<path class="st17" d="M6202.2-2934.6c0,9.4-7.6,17-17,17s-17-7.6-17-17c0-9.4,7.6-17,17-17S6202.2-2944,6202.2-2934.6z"/>
	</g>
	<g>
		<path class="st18" d="M3271.5-1392.6c0,4.6-3.7,8.3-8.3,8.3c-4.6,0-8.3-3.7-8.3-8.3c0-4.6,3.7-8.3,8.3-8.3
			C3267.7-1400.9,3271.5-1397.2,3271.5-1392.6z"/>
	</g>
</g>
<path class="st19" d="M382,742.6l80.6,98.9"/>
<path class="st20" d="M684.2,866.3l148.4-39.2"/>
<g transform="matrix(1.9836 0 0 1.9836 1589.4 -1640.5)">
	<g transform="matrix(.99506 .09932 -.09932 .99506 92.445 60.87)">
		<path class="st4" d="M-447,1111.7l13-5.4l1.4,1.7l-13.6,7L-447,1111.7z"/>
		<path class="st21" d="M-445.8,1115.1l-1.1-3.2c0,0-13.2,1.6-13.7,3s-0.9,4.2,2.1,4.1C-455.4,1118.9-446.1,1115.4-445.8,1115.1
			L-445.8,1115.1z"/>
	</g>
	<path class="st22" d="M-435.9,1138.3c0,0-9.2-21.1-10.5-21.1c-1.3,0-2.9,1.6-3.2,2.2c-0.2,0.6,10,20.3,10.9,21.1
		S-435.6,1138.4-435.9,1138.3z"/>
	<path class="st23" d="M-434.2,1164.7c0,0-21.8,18.7-44.3,23.4s-31.1,4.4-34.8,3.9c-3.2-1.3-5.3-1.5-5.3-1.5l1.1-4.9
		c0,0,2.7,2.6,6.3,3.3c3.6,0.7,27.6-1.4,45.5-8.5c18-7.1,31-20.1,31-20.1l1.8,3.9L-434.2,1164.7z"/>
	<path class="st24" d="M-517.2,1181.5l-0.6,9.5l-3.7-0.5l0.2-8.9C-518.6,1181.2-519,1181.8-517.2,1181.5L-517.2,1181.5z"/>
	<path class="st23" d="M-521.4,1185.5c0,0-9.6-2.6-14.8,6c-5.2,8.6-28.4,61.5-28.4,61.5c-4.2,0.8-5.5-1.8-4.8-2.5
		c6.3-7.7,23.6-52,24.1-52.9s4.8-8.9,9.5-11.9s12.8-4.4,14.5-4.2C-519.6,1181.7-522.9,1182.7-521.4,1185.5L-521.4,1185.5z"/>
	<path class="st25" d="M-429.5,1170.7c0,0-17.8,15-22.2,22.1c-4.5,7.1-12.4,23.4-14.8,34.9c-4,21.6-8.5,42.8-31.1,44.3
		c-13.9-0.4-49.1-7.7-50.3-7.7s-16.4-3.8-16.4-3.8c-0.2-1,0.9-2.7,1.1-4.3c0.2-1.1,3.6,1.3,5.6,1.3s18.1,3.1,20.8,3.3
		s28.2,6.2,38.4,5.2c8.1-0.8,20.1-3.6,24.4-20.2c7.2-35,13.4-55.5,39.9-76.8c0.2-3.3,1.5-4.3,1.5-4.3L-429.5,1170.7z"/>
	<path class="st26" d="M-554.8,1243.9c0,0,14.4,1.9,29.2,3.8c7.4,1,14.9,1.9,20.6,2.6c2.9,0.4,5.4,0.7,7.2,0.9
		c1.8,0.2,3.1,0.4,3.3,0.4l0.1,0l0.1,0c7.5,2.5,12.3,7.6,13.9,13.5c1.6,5.8,0.7,12.4-1.3,16.4c-1.7,3.4-5.1,6-8.3,7.6
		c-3.2,1.6-12.8,1.6-12.8,1.6s1-1.4,2.4-2.4c6.5-0.2,13-3,16-8.1c1.9-3.3,3-8.9,1.6-13.9c-1.4-5-5.3-9.7-12.2-12l0,0
		c-0.5,0-1.5-0.1-3.2-0.3c-1.8-0.2-4.3-0.5-7.2-0.9c-5.8-0.7-13.3-1.7-20.6-2.6c-14.8-1.9-35.1-4.8-35.1-4.8l0.9-2.2L-554.8,1243.9z
		"/>
	<path class="st23" d="M-423.7,1174.8c0,0-17.9,15.5-20.9,19.6s-15.5,20.6-14.9,42.3c0.6,21.7,2.2,32.4,19.6,57.7
		c1,1.4-0.3,3.3-1,3.6c-0.7,0.3-1.4-0.3-2.2-3.3c-14-20.5-18.6-29.7-18.7-58.4c-0.1-20.9,11.6-39.4,14.9-43.5
		c3.3-4.1,14.5-14.2,18.2-17.5c1.5-1.3,2.3-2.1,3.7-2.6C-424.3,1172.5-423.4,1174.6-423.7,1174.8L-423.7,1174.8z"/>
	<path class="st27" d="M-381.4,1241.9c0,1,0.9,1.8,2,1.8c1.1,0,2-0.8,2-1.8c0-1-0.9-1.8-2-1.8
		C-380.5,1240.1-381.4,1240.9-381.4,1241.9z"/>
	<path class="st28" d="M-539.7,1162.8c0,0,12.4,0.3,18.8,0.3c1.9,0,4.1,2.2,4,4.1c-0.5,9.5-1.9,38.9-1.9,38.9l-2.4-0.2
		c0,0,0.8-26.7,1.1-38.6c0-0.9-1-1.9-1.9-1.9c-6.3-0.2-18-0.5-18-0.5L-539.7,1162.8z"/>
	<g transform="matrix(-.76103 -.10238 -.10238 .76103 -451.93 -107.74)">
		<path class="st29" d="M-134.5,1640.7c-3.2-1.5-6.1-2.5-9.6-2.6c-0.2,0-0.5,0.3-0.7,0.4c-0.2,0.1,2.7,0.7,5.6,1.6
			c4.9,1.6,4.5,2,4.5,2s1.9,1.8,1.9,1.4C-132.8,1643-133.3,1641.3-134.5,1640.7L-134.5,1640.7z"/>
		<path class="st30" d="M-141.9,1633.7l0.1,16.5l5.6,0.1l-0.1-16.4L-141.9,1633.7z"/>
		<path class="st31" d="M-144.8,1638.7l0.2,1.4l11.5-0.8l-0.5-1.5L-144.8,1638.7L-144.8,1638.7z"/>
		<path class="st32" d="M-144.7,1642.8l0.2,1.5l11.4-0.9l-0.5-1.5L-144.7,1642.8L-144.7,1642.8z"/>
		<path class="st33" d="M-144.8,1646.6l0.2,1.4l11.4-0.9l-0.5-1.5L-144.8,1646.6L-144.8,1646.6z"/>
	</g>
	<path class="st34" d="M-541.5,1144.2c0,0,7.4,7.2,12.1,8.2c6.3,1.4,19-3.2,19-3.2l-1,2.2"/>
	<g transform="matrix(-.76103 -.10238 -.10238 .76103 -483.11 -112.88)">
		<path class="st29" d="M-139.2,1640.8c-3.2-1.5-6.1-2.5-9.6-2.6c-0.2,0-0.5,0.3-0.7,0.4c-0.2,0.1,2.7,0.7,5.6,1.6
			c4.9,1.6,4.5,2,4.5,2s1.9,1.8,1.9,1.4C-137.5,1643.1-138,1641.4-139.2,1640.8L-139.2,1640.8z"/>
		<path class="st30" d="M-146.6,1633.9l0.1,16.5l5.6,0.1l-0.1-16.4L-146.6,1633.9z"/>
		<path class="st31" d="M-149.5,1638.8l0.2,1.4l11.5-0.8l-0.5-1.5L-149.5,1638.8L-149.5,1638.8z"/>
		<path class="st32" d="M-149.3,1642.9l0.2,1.5l11.4-0.9l-0.5-1.5L-149.3,1642.9L-149.3,1642.9z"/>
		<path class="st33" d="M-149.5,1646.7l0.2,1.4l11.4-0.9l-0.5-1.5L-149.5,1646.7L-149.5,1646.7z"/>
	</g>
	<path class="st35" d="M-500,1148.3c0,0-3.8-1.1-5.6-0.4c-3.8,1.4-0.4,8.5-8.7,8.5c-4,0-8.8-5.5-8.8-5.5s-24.1-3.9-23.8-7
		c0.3-3.3,3.2-1.5,7.7-0.3c8.5,2.4,10.9,2.3,16.4,1.2c5.5-1,16.3-2.1,19.4-0.7C-500.5,1145.4-499,1148.6-500,1148.3L-500,1148.3z"/>
	<path class="st36" d="M-450.5,1120.9c-7.1,0.6-5.5-1-12.6-0.5l-4.2-2.2c0,0,9.7-3,20.8-1.5
		C-441.7,1120.2-444.1,1119.5-450.5,1120.9L-450.5,1120.9z"/>
	<path class="st37" d="M-461.9,1120.3l-1.2-3.7c0,0-15.1,1.8-15.7,3.4s-1,4.9,2.4,4.7C-472.9,1124.7-462.2,1120.7-461.9,1120.3
		L-461.9,1120.3z"/>
	<path class="st38" d="M-437.5,1152.4l3-1.5l9.7,19.9l-2.9,1.7l-0.7-1.5l-0.9-0.2l-5.3-10.7c0,0-0.2-2.2-0.4-2.9
		C-435.9,1155.8-436.6,1153.9-437.5,1152.4L-437.5,1152.4z"/>
	<path class="st39" d="M-444.6,1116.8c0,0,23.3,40.5,29.3,52.6c0.6,1.2,2.8,0.2,4.2-0.1c1.7-0.4,3.4-1,4.7-2
		c1.1-0.9,2.5-3.4,2.5-3.4s-6.3,3.4-9.5,2.7c-0.9-0.2-2.1-1.9-2.1-1.9l-6.9-12.5l-0.9-0.7l-13.5-24.3l-0.9-0.5l-5.9-10.3
		L-444.6,1116.8z"/>
	<path class="st40" d="M-435.4,1138l1.4-0.8c0,0-0.3-0.8-0.5-1.1c-0.2-0.3,2.2-1.6,2.4-1.4c0.5,0.7,1.1,1.7,1.5,2.6
		c0.2,0.4-2.2,1.8-2.4,1.4c-0.1-0.3-0.6-0.9-0.6-0.9l-1.4,0.9L-435.4,1138z"/>
	<path class="st41" d="M-437.9,1153.7l4.6-2.3l-4.5-7.2l-1.4-0.2l-0.8-2.1l1.3-1l-1-1.5l4.2-2l16.6,31.1l-4.7,3.1l-1-0.1l-4.5,3.4
		c0,0-0.4,0.2-0.3-0.3c0.6-0.7,1.3-1.4,1.3-1.4l-1.2-1.7l2.8-1.8l-6.9-13.5l-2.7,1.4L-437.9,1153.7z"/>
	<path class="st42" d="M-423.5,1171.7l0.6,1.2l38.6,66.8c0,0,1.9,1.5,1.6,2.7c-0.6,2.9,3.2,3.6,4.9,2.9c1.5-0.6,2.8-5.5-1-5.8
		c-1-0.1-1.2-1.9-1.2-1.9s-29.6-55.7-36.9-68.9c-0.4-0.7-2.3-0.2-2.3-0.2L-423.5,1171.7z"/>
	<path class="st43" d="M-547.4,1157.3l9.9,0.6l-0.2,1.4l-9.3-0.3L-547.4,1157.3z"/>
	<path class="st43" d="M-543.4,1159.2l0.5,3.4l32.2,0.6v-1.5l-30.3-0.5l-0.4-2.2L-543.4,1159.2z"/>
	<path class="st44" d="M-444.5,1116.9c-1.5-0.3-2.6,3.1-3.8,3.9c-1.8,1.3-2.8,1.6-5,2.6c-9.2,4.2-22.2,6.9-22.2,6.9l2.2,2.2
		c9.3-3.1,17.7-5.6,26.2-8.3l3.8-2.6C-443.2,1121.5-443.2,1117.1-444.5,1116.9L-444.5,1116.9z"/>
	<path class="st45" d="M-444.4,1117.1l1.5-0.8l0.5,1.1l-1.6,0.7L-444.4,1117.1z"/>
	<path class="st46" d="M-446.7,1122.7c0,0.4-0.3,0.7-0.7,0.7s-0.7-0.3-0.7-0.7s0.3-0.7,0.7-0.7S-446.7,1122.3-446.7,1122.7z"/>
</g>
<path class="st19" d="M367.2,754.2l95.3,90.4"/>
<g>
	<polygon class="st47" points="477.8,853.2 593.3,873.4 592.6,877.7 474.4,856.1 	"/>
</g>
<g transform="matrix(-1.1808 0 0 -1.1808 972.17 1236.3)">
	<path class="st48" d="M312.8,306.8c-3.2,0.4-9.5,0.3-12.9,5.3c-0.8,1.2-3.8-8.2-3.8-8.2c6.3,0.7,9.3-3.6,12.3-6
		C310.1,302.2,311.7,304.8,312.8,306.8L312.8,306.8z"/>
	<path class="st49" d="M312.8,306.8c-3.2,0.4-9.5,0.3-12.9,5.3c-0.8,1.2-3.8-8.2-3.8-8.2c6.3,0.7,9.3-3.6,12.3-6
		C310.1,302.2,311.7,304.8,312.8,306.8L312.8,306.8z"/>
	<path class="st49" d="M307.6,300.7c-1.9-2.5-5-8.1-11.1-8.5c-1.5-0.1,5.2-7.4,5.2-7.4c2.6,5.8,7.7,6.2,11.4,7.6
		C310.3,296.1,308.7,298.8,307.6,300.7L307.6,300.7z"/>
	<path class="st49" d="M310.3,293.2c1.2-3,4.5-8.4,1.8-13.9c-0.6-1.3,9,0.8,9,0.8c-3.7,5.1-1.5,9.8-0.9,13.7
		C315.6,293.2,312.5,293.2,310.3,293.2L310.3,293.2z"/>
	<path class="st49" d="M323.3,297.8c1.9,2.5,5,8.1,11.1,8.5c1.5,0.1-5.2,7.4-5.2,7.4c-2.6-5.8-7.7-6.2-11.4-7.6
		C320.7,302.4,322.2,299.7,323.3,297.8L323.3,297.8z"/>
	<path class="st49" d="M320.7,305.3c-1.2,3-4.5,8.4-1.8,13.9c0.6,1.3-9-0.8-9-0.8c3.7-5.1,1.5-9.8,0.9-13.7
		C315.3,305.3,318.4,305.3,320.7,305.3L320.7,305.3z"/>
	<path class="st50" d="M318.1,291.7c3.2-0.4,9.5-0.3,12.9-5.3c0.8-1.2,3.8,8.2,3.8,8.2c-6.3-0.7-9.3,3.6-12.3,6
		C320.8,296.3,319.2,293.7,318.1,291.7L318.1,291.7z"/>
	<path class="st51" d="M316.6,275.6c-0.1,0-0.2,0-0.2,0c-0.2,0.8-0.5,1.3-0.8,1.6c-0.6,0.5-1.3,0.6-1.3,0.6s-0.4,0.1-1-0.1
		c-0.5-0.2-1.1-0.6-1.3-1.8c0-0.1-1.1,0.1-1.1,0.2c0,1.1-0.4,1.8-0.7,2.1c-0.4,0.4-0.8,0.5-0.8,0.5s-0.4,0.2-1,0.1s-1.2-0.4-1.7-1.4
		c-0.1-0.1-1,0.3-1,0.4c0.3,1.1,0.1,1.8-0.2,2.2c-0.3,0.4-0.7,0.6-0.7,0.6s-0.4,0.3-0.9,0.3s-1.3-0.1-2-1c-0.1-0.1-0.9,0.6-0.9,0.6
		c0.5,1,0.5,1.7,0.3,2.2c-0.2,0.5-0.5,0.8-0.5,0.8c0,0-0.2,0.2-0.5,0.4c-0.5,0.3-1.3,0.5-2.5-0.4c-0.1-0.1-0.8,0.8-0.7,0.8
		c0.8,0.8,0.9,1.6,0.8,2.1s-0.3,0.9-0.3,0.9s-0.2,0.4-0.6,0.7c-0.4,0.3-1.2,0.5-2.2,0c-0.1-0.1-0.6,0.9-0.5,1
		c0.9,0.6,1.2,1.3,1.3,1.9c0.1,0.5-0.1,0.9-0.1,0.9s-0.1,0.4-0.5,0.8c-0.4,0.4-1,0.7-2.2,0.5c-0.1,0-0.4,1-0.3,1
		c1.1,0.4,1.5,1,1.7,1.5c0.2,0.5,0.1,0.9,0.1,0.9s0,0.5-0.2,0.9s-0.8,1-2,1c-0.1,0-0.1,0.3-0.1,0.6c0,0.3,0,0.5,0.1,0.5
		c1.1,0.2,1.7,0.7,2,1.1c0.3,0.4,0.3,0.9,0.3,0.9s0.1,0.4,0,1c-0.2,0.5-0.6,1.1-1.7,1.4c-0.1,0,0.1,1.1,0.2,1
		c1.1-0.1,1.8,0.3,2.2,0.6s0.5,0.8,0.5,0.8s0.2,0.4,0.2,0.9c0,0.5-0.3,1.2-1.4,1.8c-0.1,0.1,0.4,1,0.5,1c1.1-0.4,1.8-0.2,2.2,0.1
		s0.7,0.6,0.7,0.6s0.3,0.4,0.4,0.9c0.1,0.5,0,1.2-0.9,2c-0.1,0.1,0.6,0.9,0.7,0.9c1.1-0.7,2-0.5,2.5-0.3c0.3,0.2,0.6,0.3,0.6,0.3
		s0.4,0.2,0.6,0.7c0.2,0.5,0.3,1.2-0.4,2.2c-0.1,0.1,0.8,0.8,0.9,0.7c0.8-0.8,1.5-1,2-0.9c0.5,0,0.9,0.2,0.9,0.2s0.4,0.2,0.8,0.6
		s0.5,1.1,0.1,2.2c-0.1,0.1,1,0.6,1,0.5c0.6-1,1.3-1.3,1.8-1.4c0.5-0.1,0.9,0.1,0.9,0.1s0.5,0.1,0.9,0.4c0.4,0.3,0.8,1,0.6,2.2
		c0,0.2,1,0.3,1.1,0.2c0.4-1.1,0.9-1.5,1.4-1.7c0.5-0.2,0.9-0.2,0.9-0.2c0,0,0.7-0.1,1.3,0.4c0.4,0.3,0.7,0.8,0.8,1.8
		c0,0.2,1.1,0.1,1.1,0c0.1-1.1,0.6-1.7,1-2c0.4-0.3,0.8-0.4,0.8-0.4s0.4-0.2,1,0c0.5,0.1,1.2,0.5,1.5,1.6c0,0.1,1.1-0.2,1-0.3
		c-0.2-1.1,0.1-1.8,0.5-2.2s0.7-0.6,0.7-0.6s0.4-0.2,0.9-0.2c0.5,0,1.3,0.2,1.9,1.3c0.1,0.1,1-0.4,1-0.5c-0.4-1-0.3-1.8,0-2.2
		c0.2-0.5,0.6-0.7,0.6-0.7s0.3-0.3,0.9-0.5c0.5-0.1,1.2,0,2.1,0.8c0.1,0.1,0.9-0.7,0.8-0.7c-0.1-0.2-0.3-0.4-0.3-0.6
		c-0.4-0.8-0.3-1.4-0.2-1.8c0.1-0.4,0.3-0.7,0.3-0.7s0.3-0.4,0.7-0.6s1.2-0.3,2.2,0.3c0.1,0.1,0.7-0.8,0.6-0.9c-0.9-0.7-1-1.5-1-2
		c0-0.5,0.2-0.9,0.2-0.9s0.2-0.5,0.6-0.8s1.1-0.6,2.2-0.2c0.1,0,0.5-0.9,0.4-1c-1-0.5-1.4-1.2-1.5-1.7c-0.1-0.5,0-0.9,0-0.9
		s0-0.5,0.4-0.9c0.3-0.4,0.9-0.8,2.1-0.7c0.2,0,0.3-1.1,0.2-1.1c-1.1-0.3-1.6-0.8-1.8-1.3c-0.2-0.5-0.2-0.9-0.2-0.9s-0.1-0.5,0.2-1
		c0.2-0.5,0.7-1.1,1.9-1.2c0.2,0,0-1.1-0.1-1.1c-1.1,0-1.7-0.4-2.1-0.8s-0.4-0.8-0.4-0.8c0,0-0.2-0.4-0.1-1c0.1-0.5,0.5-1.2,1.6-1.6
		c0.1-0.1-0.3-1-0.4-1c-1.1,0.2-1.8,0-2.2-0.4c-0.4-0.3-0.6-0.7-0.6-0.7s-0.2-0.4-0.3-0.9c0-0.5,0.2-1.3,1.1-1.9
		c0.1-0.1-0.5-1-0.6-0.9c-1,0.5-1.8,0.4-2.2,0.2c-0.5-0.2-0.7-0.6-0.7-0.6s-0.3-0.2-0.4-0.6c-0.2-0.4-0.2-1,0.2-1.7
		c0.1-0.2,0.3-0.4,0.5-0.6c0.1-0.1-0.7-0.8-0.8-0.8c-0.9,0.7-1.6,0.8-2.2,0.7s-0.8-0.3-0.8-0.3s-0.4-0.2-0.7-0.7
		c-0.3-0.5-0.4-1.2,0.1-2.2c0.1-0.1-0.9-0.7-0.9-0.6c-0.7,0.9-1.4,1.1-1.9,1.2c-0.5,0-0.9-0.2-0.9-0.2s-0.5-0.1-0.8-0.5
		c-0.4-0.4-0.7-1.1-0.4-2.2c0-0.1-1-0.4-1-0.3c-0.5,1-1.1,1.4-1.6,1.6c-0.5,0.2-0.9,0.1-0.9,0.1s-0.4,0-0.9-0.3
		c-0.4-0.3-0.9-0.9-0.9-2.1C317.4,275.6,316.9,275.6,316.6,275.6L316.6,275.6z M315.6,280.3c10.5,0,19.1,8.6,19.1,19.1
		c0,10.5-8.5,19.1-19.1,19.1c-10.5,0-19.1-8.6-19.1-19.1C296.5,288.8,305,280.3,315.6,280.3z"/>
	<path class="st52" d="M324.1,299.3c0,4.8-3.9,8.7-8.7,8.7c-4.8,0-8.7-3.9-8.7-8.7s3.9-8.7,8.7-8.7
		C320.3,290.6,324.1,294.5,324.1,299.3z"/>
</g>
<path class="st53" d="M472.3,850.4l-1.1-4.5l-15.9-6.6l-1.2,3.2l11.2,4.6l0.8,3l-0.8,1.8l-2.6,1.7l-11-4l-1,3.3l4.4,2.8
	c6.1,3.4,4.9,2.2,9.2,4.1l5.9,0.4L472.3,850.4z"/>
<path class="st54" d="M466.4,849.2c0,2.6-2.1,4.8-4.7,4.8s-4.7-2.1-4.7-4.8c0-2.6,2.1-4.8,4.7-4.8S466.4,846.6,466.4,849.2z"/>
<path class="st55" d="M461.6,845.3l-3.3,2v3.9l3.3,2l3.3-2v-3.9L461.6,845.3z M461.6,846.9c1.3,0,2.3,1,2.3,2.3s-1,2.3-2.3,2.3
	s-2.3-1-2.3-2.3S460.4,846.9,461.6,846.9z"/>
<path class="st56" d="M749.8,663.1l5.4-2.2l-2.5-5.1l4.7-2.2l8.5,16.5l-4.7,2.2l-2.5-3.8l-4.1,2.8L749.8,663.1z"/>
<path class="st54" d="M841.2,824.1c0,2.6-2.1,4.8-4.7,4.8s-4.7-2.1-4.7-4.8c0-2.6,2.1-4.8,4.7-4.8
	C839.1,819.3,841.2,821.4,841.2,824.1z"/>
<path class="st55" d="M836.5,820.2l-3.3,2v3.9l3.3,2l3.3-2v-3.9L836.5,820.2z M836.5,821.8c1.3,0,2.3,1,2.3,2.3c0,1.3-1,2.3-2.3,2.3
	c-1.3,0-2.3-1-2.3-2.3C834.2,822.8,835.2,821.8,836.5,821.8z"/>
<g transform="matrix(-.09884 -.02541 -.02541 .09884 254.11 642.4)">
	<path class="st15" d="M-3534.3,1689.4c-8.4-0.2-16.1,6.9-16.6,15.3c-0.8,8.2,5.5,16.3,13.6,17.6c4.6,1,9.2-0.7,13.2-2.8
		c11.4-5,25.1-4.3,36,1.6c7.5,3.7,17.4,0.5,21.4-6.8c4.2-7,2.2-16.8-4.5-21.5c-5.2-4-12.7-4.3-18.3-1.1c-11.8,5.9-26.4,5.5-38-0.7
		C-3529.7,1689.9-3532,1689.4-3534.3,1689.4z M-3534.3,1697.7c4.6,0,8.3,3.7,8.3,8.3c0,4.6-3.7,8.3-8.3,8.3s-8.3-3.7-8.3-8.3
		C-3542.7,1701.4-3538.9,1697.7-3534.3,1697.7z M-3481.2,1697.7c4.6,0,8.3,3.7,8.3,8.3s-3.7,8.3-8.3,8.3c-4.6,0-8.3-3.7-8.3-8.3
		S-3485.8,1697.7-3481.2,1697.7z"/>
</g>
<g transform="matrix(-.09803 -.02837 -.02837 .09803 250.8 636.3)">
	<path class="st16" d="M-3578.3,1631.3c-8.4-0.2-16.1,6.9-16.6,15.3c-0.8,8.2,5.5,16.3,13.6,17.6c4.6,1,9.2-0.7,13.2-2.8
		c11.4-5,25.1-4.3,36,1.5c7.5,3.7,17.3,0.5,21.3-6.8c4.2-7,2.2-16.8-4.5-21.6c-5.2-4-12.7-4.3-18.3-1.1c-11.8,5.9-26.4,5.5-38-0.7
		C-3573.6,1631.8-3576,1631.3-3578.3,1631.3L-3578.3,1631.3z"/>
	<g transform="matrix(.4863 0 0 .4863 308.47 34.488)">
		<path class="st17" d="M-7866.2,3317.8c0,9.4-7.6,17-17,17c-9.4,0-17-7.6-17-17s7.6-17,17-17
			C-7873.8,3300.8-7866.2,3308.4-7866.2,3317.8z"/>
	</g>
	<g>
		<path class="st18" d="M-3570,1648c0,4.6-3.7,8.3-8.3,8.3c-4.6,0-8.3-3.7-8.3-8.3s3.7-8.3,8.3-8.3
			C-3573.7,1639.6-3570,1643.4-3570,1648z"/>
	</g>
</g>
<g transform="matrix(-.09884 -.02541 -.02541 .09884 265.95 645.72)">
	<path class="st15" d="M-3520.6,1689.1c-8.4-0.2-16.1,6.9-16.6,15.3c-0.8,8.2,5.5,16.3,13.6,17.6c4.6,1,9.2-0.7,13.2-2.8
		c11.4-5,25.1-4.3,36,1.6c7.5,3.7,17.4,0.5,21.4-6.8c4.2-7,2.2-16.8-4.5-21.5c-5.2-4-12.7-4.3-18.3-1.1c-11.8,5.9-26.4,5.5-38-0.7
		C-3515.9,1689.6-3518.3,1689.1-3520.6,1689.1z M-3520.6,1697.4c4.6,0,8.3,3.7,8.3,8.3s-3.7,8.3-8.3,8.3c-4.6,0-8.3-3.7-8.3-8.3
		S-3525.2,1697.4-3520.6,1697.4z M-3467.5,1697.4c4.6,0,8.3,3.7,8.3,8.3s-3.7,8.3-8.3,8.3s-8.3-3.7-8.3-8.3
		S-3472,1697.4-3467.5,1697.4z"/>
</g>
<g transform="matrix(-.09803 -.02837 -.02837 .09803 262.65 639.62)">
	<path class="st16" d="M-3564.6,1631.4c-8.4-0.2-16.1,6.9-16.6,15.3c-0.8,8.2,5.5,16.3,13.6,17.6c4.6,1,9.2-0.7,13.2-2.8
		c11.4-5,25.1-4.3,36,1.5c7.5,3.7,17.3,0.5,21.3-6.8c4.2-7,2.2-16.8-4.5-21.6c-5.2-4-12.7-4.3-18.3-1.1c-11.8,5.9-26.4,5.5-38-0.7
		C-3559.9,1632-3562.2,1631.4-3564.6,1631.4L-3564.6,1631.4z"/>
	<g transform="matrix(.4863 0 0 .4863 308.47 34.488)">
		<path class="st17" d="M-7837.9,3318.1c0,9.4-7.6,17-17,17c-9.4,0-17-7.6-17-17c0-9.4,7.6-17,17-17
			C-7845.6,3301-7837.9,3308.7-7837.9,3318.1z"/>
	</g>
	<g>
		<path class="st18" d="M-3556.3,1648.1c0,4.6-3.7,8.3-8.3,8.3c-4.6,0-8.3-3.7-8.3-8.3c0-4.6,3.7-8.3,8.3-8.3
			C-3560,1639.8-3556.3,1643.5-3556.3,1648.1z"/>
	</g>
</g>
<g transform="matrix(-.09884 -.02541 -.02541 .09884 277.94 649)">
	<path class="st15" d="M-3506.8,1688.9c-8.4-0.2-16.1,6.9-16.6,15.3c-0.8,8.2,5.5,16.3,13.6,17.6c4.6,1,9.2-0.7,13.2-2.8
		c11.4-5,25.1-4.3,36,1.6c7.5,3.7,17.4,0.5,21.4-6.8c4.2-7,2.2-16.8-4.5-21.5c-5.2-4-12.7-4.3-18.3-1.1c-11.8,5.9-26.4,5.5-38-0.7
		C-3502.1,1689.4-3504.4,1688.9-3506.8,1688.9z M-3506.8,1697.2c4.6,0,8.3,3.7,8.3,8.3c0,4.6-3.7,8.3-8.3,8.3
		c-4.6,0-8.3-3.7-8.3-8.3C-3515.1,1700.9-3511.3,1697.2-3506.8,1697.2z M-3453.6,1697.2c4.6,0,8.3,3.7,8.3,8.3s-3.7,8.3-8.3,8.3
		s-8.3-3.7-8.3-8.3S-3458.2,1697.2-3453.6,1697.2z"/>
</g>
<g transform="matrix(-.09803 -.02837 -.02837 .09803 274.64 642.9)">
	<path class="st16" d="M-3550.7,1631.6c-8.4-0.2-16.1,6.9-16.6,15.3c-0.8,8.2,5.5,16.3,13.6,17.6c4.6,1,9.2-0.7,13.2-2.8
		c11.4-5,25.1-4.3,36,1.5c7.5,3.7,17.3,0.5,21.3-6.8c4.2-7,2.2-16.8-4.5-21.6c-5.2-4-12.7-4.3-18.3-1.1c-11.8,5.9-26.4,5.5-38-0.7
		C-3546,1632.2-3548.4,1631.6-3550.7,1631.6L-3550.7,1631.6z"/>
	<g transform="matrix(.4863 0 0 .4863 308.47 34.488)">
		<path class="st17" d="M-7809.4,3318.5c0,9.4-7.6,17-17,17c-9.4,0-17-7.6-17-17s7.6-17,17-17
			C-7817,3301.5-7809.4,3309.1-7809.4,3318.5z"/>
	</g>
	<g>
		<path class="st18" d="M-3542.4,1648.3c0,4.6-3.7,8.3-8.3,8.3s-8.3-3.7-8.3-8.3s3.7-8.3,8.3-8.3S-3542.4,1643.7-3542.4,1648.3z"/>
	</g>
</g>
<g transform="matrix(-.09884 -.02541 -.02541 .09884 289.77 652.27)">
	<path class="st15" d="M-3493.1,1688.6c-8.4-0.2-16.1,6.9-16.6,15.3c-0.8,8.2,5.5,16.3,13.6,17.6c4.6,1,9.2-0.7,13.2-2.8
		c11.4-5,25.1-4.3,36,1.6c7.5,3.7,17.4,0.5,21.4-6.8c4.2-7,2.2-16.8-4.5-21.5c-5.2-4-12.7-4.3-18.3-1.1c-11.8,5.9-26.4,5.5-38-0.7
		C-3488.4,1689.1-3490.7,1688.6-3493.1,1688.6z M-3493.1,1696.9c4.6,0,8.3,3.7,8.3,8.3s-3.7,8.3-8.3,8.3c-4.6,0-8.3-3.7-8.3-8.3
		S-3497.7,1696.9-3493.1,1696.9z M-3439.9,1697c4.6,0,8.3,3.7,8.3,8.3s-3.7,8.3-8.3,8.3s-8.3-3.7-8.3-8.3S-3444.5,1697-3439.9,1697z
		"/>
</g>
<g transform="matrix(-.09803 -.02837 -.02837 .09803 286.46 646.17)">
	<path class="st16" d="M-3537,1631.8c-8.4-0.2-16.1,6.9-16.6,15.3c-0.8,8.2,5.5,16.3,13.6,17.6c4.6,1,9.2-0.7,13.2-2.8
		c11.4-5,25.1-4.3,36,1.5c7.5,3.7,17.3,0.5,21.3-6.8c4.2-7,2.2-16.8-4.5-21.6c-5.2-4-12.7-4.3-18.3-1.1c-11.8,5.9-26.4,5.5-38-0.7
		C-3532.3,1632.3-3534.7,1631.8-3537,1631.8L-3537,1631.8z"/>
	<g transform="matrix(.4863 0 0 .4863 308.47 34.488)">
		<path class="st17" d="M-7781.3,3318.8c0,9.4-7.6,17-17,17c-9.4,0-17-7.6-17-17s7.6-17,17-17
			C-7788.9,3301.8-7781.3,3309.4-7781.3,3318.8z"/>
	</g>
	<g>
		<path class="st18" d="M-3528.7,1648.4c0,4.6-3.7,8.3-8.3,8.3c-4.6,0-8.3-3.7-8.3-8.3s3.7-8.3,8.3-8.3
			C-3532.4,1640.1-3528.7,1643.8-3528.7,1648.4z"/>
	</g>
</g>
<g transform="matrix(-.10122 .01301 .01301 .10122 298.53 636.75)">
	<path class="st15" d="M-2619.8,3010.6c-8.4-0.2-16.1,6.9-16.6,15.3c-0.8,8.2,5.5,16.3,13.6,17.6c4.6,1,9.2-0.7,13.2-2.8
		c11.4-5,25.1-4.3,36,1.6c7.5,3.7,17.4,0.5,21.4-6.8c4.2-7,2.2-16.8-4.5-21.5c-5.2-4-12.7-4.3-18.3-1.1c-11.8,5.9-26.4,5.5-38-0.7
		C-2615.1,3011.1-2617.4,3010.6-2619.8,3010.6z M-2619.8,3018.9c4.6,0,8.3,3.7,8.3,8.3c0,4.6-3.7,8.3-8.3,8.3
		c-4.6,0-8.3-3.7-8.3-8.3C-2628.1,3022.6-2624.4,3018.9-2619.8,3018.9z M-2566.6,3019c4.6,0,8.3,3.7,8.3,8.3c0,4.6-3.7,8.3-8.3,8.3
		s-8.3-3.7-8.3-8.3C-2574.9,3022.7-2571.2,3019-2566.6,3019z"/>
</g>
<g transform="matrix(-.10203 -.00218 -.00218 .10203 295.76 637.06)">
	<path class="st16" d="M-3015.2,2591.8c-8.4-0.2-16.1,6.9-16.6,15.3c-0.8,8.2,5.5,16.3,13.6,17.6c4.6,1,9.2-0.7,13.2-2.8
		c11.4-5,25.1-4.3,36,1.5c7.5,3.7,17.3,0.5,21.3-6.8c4.2-7,2.2-16.8-4.5-21.6c-5.2-4-12.7-4.3-18.3-1.1c-11.8,5.9-26.4,5.5-38-0.7
		C-3010.5,2592.3-3012.8,2591.7-3015.2,2591.8L-3015.2,2591.8z"/>
	<g transform="matrix(.4863 0 0 .4863 308.47 34.488)">
		<path class="st17" d="M-6708.2,5292.8c0,9.4-7.6,17-17,17c-9.4,0-17-7.6-17-17c0-9.4,7.6-17,17-17
			C-6715.8,5275.8-6708.2,5283.4-6708.2,5292.8z"/>
	</g>
	<g>
		<path class="st18" d="M-3006.9,2608.4c0,4.6-3.7,8.3-8.3,8.3s-8.3-3.7-8.3-8.3c0-4.6,3.7-8.3,8.3-8.3
			S-3006.9,2603.8-3006.9,2608.4z"/>
	</g>
</g>
<g transform="matrix(-.09025 .04765 .04765 .09025 301.36 621.24)">
	<path class="st15" d="M-1401.2,3876c-8.4-0.2-16.1,6.9-16.6,15.3c-0.8,8.2,5.5,16.3,13.6,17.6c4.6,1,9.2-0.7,13.2-2.8
		c11.4-5,25.1-4.3,36,1.6c7.5,3.7,17.4,0.5,21.4-6.8c4.2-7,2.2-16.8-4.5-21.5c-5.2-4-12.7-4.3-18.3-1.1c-11.8,5.9-26.4,5.5-38-0.7
		C-1396.5,3876.5-1398.9,3876-1401.2,3876z M-1401.2,3884.3c4.6,0,8.3,3.7,8.3,8.3s-3.7,8.3-8.3,8.3s-8.3-3.7-8.3-8.3
		S-1405.8,3884.3-1401.2,3884.3z M-1348.1,3884.3c4.6,0,8.3,3.7,8.3,8.3s-3.7,8.3-8.3,8.3c-4.6,0-8.3-3.7-8.3-8.3
		S-1352.6,3884.3-1348.1,3884.3z"/>
</g>
<g transform="matrix(-.10013 .01974 .01974 .10013 303.03 627.2)">
	<path class="st16" d="M-2404.1,3264.5c-8.4-0.2-16.1,6.9-16.6,15.3c-0.8,8.2,5.5,16.3,13.6,17.6c4.6,1,9.2-0.7,13.2-2.8
		c11.4-5,25.1-4.3,36,1.5c7.5,3.7,17.3,0.5,21.3-6.8c4.2-7,2.2-16.8-4.5-21.6c-5.2-4-12.7-4.3-18.3-1.1c-11.8,5.9-26.4,5.5-38-0.7
		C-2399.4,3265-2401.7,3264.5-2404.1,3264.5L-2404.1,3264.5z"/>
	<g transform="matrix(.4863 0 0 .4863 308.47 34.488)">
		<path class="st17" d="M-5451.5,6676.2c0,9.4-7.6,17-17,17s-17-7.6-17-17c0-9.4,7.6-17,17-17S-5451.5,6666.8-5451.5,6676.2z"/>
	</g>
	<g>
		<path class="st18" d="M-2395.7,3281.1c0,4.6-3.7,8.3-8.3,8.3c-4.6,0-8.3-3.7-8.3-8.3c0-4.6,3.7-8.3,8.3-8.3
			C-2399.5,3272.8-2395.7,3276.5-2395.7,3281.1z"/>
	</g>
</g>
<g transform="matrix(-.06169 .08129 .08129 .06169 295.12 603.43)">
	<path class="st15" d="M367.6,4275.1c-8.4-0.2-16.1,6.9-16.6,15.3c-0.8,8.2,5.5,16.3,13.6,17.6c4.6,1,9.2-0.7,13.2-2.8
		c11.4-5,25.1-4.3,36,1.6c7.5,3.7,17.4,0.5,21.4-6.8c4.2-7,2.2-16.8-4.5-21.5c-5.2-4-12.7-4.3-18.3-1.1c-11.8,5.9-26.4,5.5-38-0.7
		C372.3,4275.6,370,4275.1,367.6,4275.1z M367.6,4283.4c4.6,0,8.3,3.7,8.3,8.3s-3.7,8.3-8.3,8.3c-4.6,0-8.3-3.7-8.3-8.3
		S363.1,4283.4,367.6,4283.4z M420.8,4283.4c4.6,0,8.3,3.7,8.3,8.3s-3.7,8.3-8.3,8.3c-4.6,0-8.3-3.7-8.3-8.3
		S416.2,4283.4,420.8,4283.4z"/>
</g>
<g transform="matrix(-.08243 .06016 .06016 .08243 299.15 608.13)">
	<path class="st16" d="M-824.3,4154.4c-8.4-0.2-16.1,6.9-16.6,15.3c-0.8,8.2,5.5,16.3,13.6,17.6c4.6,1,9.2-0.7,13.2-2.8
		c11.4-5,25.1-4.3,36,1.5c7.5,3.7,17.3,0.5,21.3-6.8c4.2-7,2.2-16.8-4.5-21.6c-5.2-4-12.7-4.3-18.3-1.1c-11.8,5.9-26.4,5.5-38-0.7
		C-819.6,4154.9-822,4154.4-824.3,4154.4L-824.3,4154.4z"/>
	<g transform="matrix(.4863 0 0 .4863 308.47 34.488)">
		<path class="st17" d="M-2203,8506.2c0,9.4-7.6,17-17,17s-17-7.6-17-17c0-9.4,7.6-17,17-17S-2203,8496.8-2203,8506.2z"/>
	</g>
	<g>
		<path class="st18" d="M-816,4171.1c0,4.6-3.7,8.3-8.3,8.3s-8.3-3.7-8.3-8.3s3.7-8.3,8.3-8.3S-816,4166.5-816,4171.1z"/>
	</g>
</g>
<g transform="matrix(-.0278 .09819 .09819 .0278 285.12 590.38)">
	<path class="st15" d="M1899.4,3991.3c-8.4-0.2-16.1,6.9-16.6,15.3c-0.8,8.2,5.5,16.3,13.6,17.6c4.6,1,9.2-0.7,13.2-2.8
		c11.4-5,25.1-4.3,36,1.6c7.5,3.7,17.4,0.5,21.4-6.8c4.2-7,2.2-16.8-4.5-21.5c-5.2-4-12.7-4.3-18.3-1.1c-11.8,5.9-26.4,5.5-38-0.7
		C1904.1,3991.8,1901.8,3991.3,1899.4,3991.3z M1899.4,3999.6c4.6,0,8.3,3.7,8.3,8.3c0,4.6-3.7,8.3-8.3,8.3s-8.3-3.7-8.3-8.3
		C1891.1,4003.3,1894.8,3999.6,1899.4,3999.6z M1952.6,3999.7c4.6,0,8.3,3.7,8.3,8.3c0,4.6-3.7,8.3-8.3,8.3s-8.3-3.7-8.3-8.3
		C1944.3,4003.4,1948,3999.7,1952.6,3999.7z"/>
</g>
<g transform="matrix(-.05482 .08608 .08608 .05482 290.58 593.29)">
	<path class="st16" d="M724.4,4322.2c-8.4-0.2-16.1,6.9-16.6,15.3c-0.8,8.2,5.5,16.3,13.6,17.6c4.6,1,9.2-0.7,13.2-2.8
		c11.4-5,25.1-4.3,36,1.5c7.5,3.7,17.3,0.5,21.3-6.8c4.2-7,2.2-16.8-4.5-21.6c-5.2-4-12.7-4.3-18.3-1.1c-11.8,5.9-26.4,5.5-38-0.7
		C729.1,4322.7,726.7,4322.2,724.4,4322.2L724.4,4322.2z"/>
	<g transform="matrix(.4863 0 0 .4863 308.47 34.488)">
		<path class="st17" d="M981.7,8851.2c0,9.4-7.6,17-17,17c-9.4,0-17-7.6-17-17c0-9.4,7.6-17,17-17
			C974,8834.2,981.7,8841.8,981.7,8851.2z"/>
	</g>
	<g>
		<path class="st18" d="M732.7,4338.8c0,4.6-3.7,8.3-8.3,8.3c-4.6,0-8.3-3.7-8.3-8.3s3.7-8.3,8.3-8.3
			C729,4330.5,732.7,4334.3,732.7,4338.8z"/>
	</g>
</g>
<g transform="matrix(.01719 .1006 .1006 -.01719 267.6 583.3)">
	<path class="st15" d="M3434.1,2957.4c-8.4-0.2-16.1,6.9-16.6,15.3c-0.8,8.2,5.5,16.3,13.6,17.6c4.6,1,9.2-0.7,13.2-2.8
		c11.4-5,25.1-4.3,36,1.6c7.5,3.7,17.4,0.5,21.4-6.8c4.2-7,2.2-16.8-4.5-21.5c-5.2-4-12.7-4.3-18.3-1.1c-11.8,5.9-26.4,5.5-38-0.7
		C3438.8,2957.9,3436.5,2957.4,3434.1,2957.4z M3434.1,2965.7c4.6,0,8.3,3.7,8.3,8.3s-3.7,8.3-8.3,8.3c-4.6,0-8.3-3.7-8.3-8.3
		S3429.5,2965.7,3434.1,2965.7z M3487.3,2965.7c4.6,0,8.3,3.7,8.3,8.3s-3.7,8.3-8.3,8.3s-8.3-3.7-8.3-8.3
		S3482.7,2965.7,3487.3,2965.7z"/>
</g>
<g transform="matrix(-.01242 .1013 .1013 .01242 273.78 583.57)">
	<path class="st16" d="M2491.1,3772.7c-8.4-0.2-16.1,6.9-16.6,15.3c-0.8,8.2,5.5,16.3,13.6,17.6c4.6,1,9.2-0.7,13.2-2.8
		c11.4-5,25.1-4.3,36,1.5c7.5,3.7,17.3,0.5,21.3-6.8c4.2-7,2.2-16.8-4.5-21.6c-5.2-4-12.7-4.3-18.3-1.1c-11.8,5.9-26.4,5.5-38-0.7
		C2495.8,3773.2,2493.4,3772.7,2491.1,3772.7L2491.1,3772.7z"/>
	<g transform="matrix(.4863 0 0 .4863 308.47 34.488)">
		<path class="st17" d="M4614.6,7721.1c0,9.4-7.6,17-17,17c-9.4,0-17-7.6-17-17c0-9.4,7.6-17,17-17
			C4607,7704.1,4614.6,7711.7,4614.6,7721.1z"/>
	</g>
	<g>
		<path class="st18" d="M2499.4,3789.3c0,4.6-3.7,8.3-8.3,8.3c-4.6,0-8.3-3.7-8.3-8.3c0-4.6,3.7-8.3,8.3-8.3
			C2495.7,3781,2499.4,3784.7,2499.4,3789.3z"/>
	</g>
</g>
<g transform="matrix(.05015 .08888 .08888 -.05015 252.31 580.57)">
	<path class="st15" d="M4228.8,1757.3c-8.4-0.2-16.1,6.9-16.6,15.3c-0.8,8.2,5.5,16.3,13.6,17.6c4.6,1,9.2-0.7,13.2-2.8
		c11.4-5,25.1-4.3,36,1.6c7.5,3.7,17.4,0.5,21.4-6.8c4.2-7,2.2-16.8-4.5-21.5c-5.2-4-12.7-4.3-18.3-1.1c-11.8,5.9-26.4,5.5-38-0.7
		C4233.5,1757.8,4231.2,1757.3,4228.8,1757.3z M4228.8,1765.6c4.6,0,8.3,3.7,8.3,8.3c0,4.6-3.7,8.3-8.3,8.3c-4.6,0-8.3-3.7-8.3-8.3
		C4220.5,1769.3,4224.2,1765.6,4228.8,1765.6z M4282,1765.6c4.6,0,8.3,3.7,8.3,8.3s-3.7,8.3-8.3,8.3s-8.3-3.7-8.3-8.3
		S4277.4,1765.6,4282,1765.6z"/>
</g>
<g transform="matrix(.02252 .09954 .09954 -.02252 258.23 578.74)">
	<path class="st16" d="M3596.8,2851.2c-8.4-0.2-16.1,6.9-16.6,15.3c-0.8,8.2,5.5,16.3,13.6,17.6c4.6,1,9.2-0.7,13.2-2.8
		c11.4-5,25.1-4.3,36,1.5c7.5,3.7,17.3,0.5,21.3-6.8c4.2-7,2.2-16.8-4.5-21.6c-5.2-4-12.7-4.3-18.3-1.1c-11.8,5.9-26.4,5.5-38-0.7
		C3601.5,2851.7,3599.2,2851.2,3596.8,2851.2L3596.8,2851.2z"/>
	<g transform="matrix(.4863 0 0 .4863 308.47 34.488)">
		<path class="st17" d="M6888.4,5826.3c0,9.4-7.6,17-17,17c-9.4,0-17-7.6-17-17c0-9.4,7.6-17,17-17
			C6880.8,5809.3,6888.4,5816.9,6888.4,5826.3z"/>
	</g>
	<g>
		<path class="st18" d="M3605.2,2867.8c0,4.6-3.7,8.3-8.3,8.3c-4.6,0-8.3-3.7-8.3-8.3c0-4.6,3.7-8.3,8.3-8.3
			C3601.4,2859.5,3605.2,2863.2,3605.2,2867.8z"/>
	</g>
</g>
<g transform="matrix(.08282 .05963 .05963 -.08282 234.22 587.41)">
	<path class="st15" d="M4577.5-10.6c-8.4-0.2-16.1,6.9-16.6,15.3c-0.8,8.2,5.5,16.3,13.6,17.6c4.6,1,9.2-0.7,13.2-2.8
		c11.4-5,25.1-4.3,36,1.6c7.5,3.7,17.4,0.5,21.4-6.8c4.2-7,2.2-16.8-4.5-21.5c-5.2-4-12.7-4.3-18.3-1.1c-11.8,5.9-26.4,5.5-38-0.7
		C4582.2-10.1,4579.8-10.6,4577.5-10.6z M4577.5-2.3c4.6,0,8.3,3.7,8.3,8.3s-3.7,8.3-8.3,8.3c-4.6,0-8.3-3.7-8.3-8.3
		S4572.9-2.3,4577.5-2.3z M4630.7-2.3c4.6,0,8.3,3.7,8.3,8.3s-3.7,8.3-8.3,8.3s-8.3-3.7-8.3-8.3S4626.1-2.3,4630.7-2.3z"/>
</g>
<g transform="matrix(.07033 .07395 .07395 -.07033 237.23 588.04)">
	<path class="st16" d="M4529.1,828.8c-8.4-0.2-16.1,6.9-16.6,15.3c-0.8,8.2,5.5,16.3,13.6,17.6c4.6,1,9.2-0.7,13.2-2.8
		c11.4-5,25.1-4.3,36,1.5c7.5,3.7,17.3,0.5,21.3-6.8c4.2-7,2.2-16.8-4.5-21.6c-5.2-4-12.7-4.3-18.3-1.1c-11.8,5.9-26.4,5.5-38-0.7
		C4533.8,829.3,4531.4,828.8,4529.1,828.8L4529.1,828.8z"/>
	<g transform="matrix(.4863 0 0 .4863 308.47 34.488)">
		<path class="st17" d="M8805.4,1667.6c0,9.4-7.6,17-17,17c-9.4,0-17-7.6-17-17c0-9.4,7.6-17,17-17
			C8797.7,1650.6,8805.4,1658.2,8805.4,1667.6z"/>
	</g>
	<g>
		<path class="st18" d="M4537.4,845.5c0,4.6-3.7,8.3-8.3,8.3s-8.3-3.7-8.3-8.3c0-4.6,3.7-8.3,8.3-8.3S4537.4,840.9,4537.4,845.5z"/>
	</g>
</g>
<g transform="matrix(.09928 .02362 .02362 -.09928 220.97 599.69)">
	<path class="st15" d="M4228.1-1599.2c-8.4-0.2-16.1,6.9-16.6,15.3c-0.8,8.2,5.5,16.3,13.6,17.6c4.6,1,9.2-0.7,13.2-2.8
		c11.4-5,25.1-4.3,36,1.6c7.5,3.7,17.4,0.5,21.4-6.8c4.2-7,2.2-16.8-4.5-21.5c-5.2-4-12.7-4.3-18.3-1.1c-11.8,5.9-26.4,5.5-38-0.7
		C4232.7-1598.7,4230.4-1599.2,4228.1-1599.2z M4228.1-1590.9c4.6,0,8.3,3.7,8.3,8.3c0,4.6-3.7,8.3-8.3,8.3c-4.6,0-8.3-3.7-8.3-8.3
		C4219.7-1587.2,4223.5-1590.9,4228.1-1590.9z M4281.2-1590.9c4.6,0,8.3,3.7,8.3,8.3c0,4.6-3.7,8.3-8.3,8.3s-8.3-3.7-8.3-8.3
		C4272.9-1587.2,4276.6-1590.9,4281.2-1590.9z"/>
</g>
<g transform="matrix(.09478 .03784 .03784 -.09478 223.62 600.42)">
	<path class="st16" d="M4438.4-960.8c-8.4-0.2-16.1,6.9-16.6,15.3c-0.8,8.2,5.5,16.3,13.6,17.6c4.6,1,9.2-0.7,13.2-2.8
		c11.4-5,25.1-4.3,36,1.5c7.5,3.7,17.3,0.5,21.3-6.8c4.2-7,2.2-16.8-4.5-21.6c-5.2-4-12.7-4.3-18.3-1.1c-11.8,5.9-26.4,5.5-38-0.7
		C4443.1-960.3,4440.8-960.8,4438.4-960.8L4438.4-960.8z"/>
	<g transform="matrix(.4863 0 0 .4863 308.47 34.488)">
		<path class="st17" d="M8619-2012.5c0,9.4-7.6,17-17,17s-17-7.6-17-17s7.6-17,17-17S8619-2021.9,8619-2012.5z"/>
	</g>
	<g>
		<path class="st18" d="M4446.7-944.2c0,4.6-3.7,8.3-8.3,8.3c-4.6,0-8.3-3.7-8.3-8.3s3.7-8.3,8.3-8.3
			C4443-952.5,4446.7-948.8,4446.7-944.2z"/>
	</g>
</g>
<g transform="matrix(.10068 .01669 .01669 -.10068 208.77 600.39)">
	<path class="st15" d="M4114.3-1861.4c-8.4-0.2-16.1,6.9-16.6,15.3c-0.8,8.2,5.5,16.3,13.6,17.6c4.6,1,9.2-0.7,13.2-2.8
		c11.4-5,25.1-4.3,36,1.6c7.5,3.7,17.4,0.5,21.4-6.8c4.2-7,2.2-16.8-4.5-21.5c-5.2-4-12.7-4.3-18.3-1.1c-11.8,5.9-26.4,5.5-38-0.7
		C4119-1860.9,4116.7-1861.4,4114.3-1861.4z M4114.3-1853.1c4.6,0,8.3,3.7,8.3,8.3c0,4.6-3.7,8.3-8.3,8.3c-4.6,0-8.3-3.7-8.3-8.3
		C4106-1849.4,4109.8-1853.1,4114.3-1853.1z M4167.5-1853.1c4.6,0,8.3,3.7,8.3,8.3s-3.7,8.3-8.3,8.3c-4.6,0-8.3-3.7-8.3-8.3
		S4162.9-1853.1,4167.5-1853.1z"/>
</g>
<g transform="matrix(.10068 .01669 .01669 -.10068 212.95 607.33)">
	<path class="st16" d="M4116.1-1801c-8.4-0.2-16.1,6.9-16.6,15.3c-0.8,8.2,5.5,16.3,13.6,17.6c4.6,1,9.2-0.7,13.2-2.8
		c11.4-5,25.1-4.3,36,1.5c7.5,3.7,17.3,0.5,21.3-6.8c4.2-7,2.2-16.8-4.5-21.6c-5.2-4-12.7-4.3-18.3-1.1c-11.8,5.9-26.4,5.5-38-0.7
		C4120.8-1800.5,4118.4-1801,4116.1-1801L4116.1-1801z"/>
	<g transform="matrix(.4863 0 0 .4863 308.47 34.488)">
		<path class="st17" d="M7956.1-3740.2c0,9.4-7.6,17-17,17c-9.4,0-17-7.6-17-17s7.6-17,17-17
			C7948.5-3757.2,7956.1-3749.6,7956.1-3740.2z"/>
	</g>
	<g>
		<path class="st18" d="M4124.4-1784.4c0,4.6-3.7,8.3-8.3,8.3s-8.3-3.7-8.3-8.3c0-4.6,3.7-8.3,8.3-8.3S4124.4-1789,4124.4-1784.4z"
			/>
	</g>
</g>
<g transform="matrix(.1012 .01315 .01315 -.1012 196.89 600.01)">
	<path class="st15" d="M4056.6-1991.4c-8.4-0.2-16.1,6.9-16.6,15.3c-0.8,8.2,5.5,16.3,13.6,17.6c4.6,1,9.2-0.7,13.2-2.8
		c11.4-5,25.1-4.3,36,1.6c7.5,3.7,17.4,0.5,21.4-6.8c4.2-7,2.2-16.8-4.5-21.5c-5.2-4-12.7-4.3-18.3-1.1c-11.8,5.9-26.4,5.5-38-0.7
		C4061.3-1990.9,4059-1991.4,4056.6-1991.4z M4056.6-1983.1c4.6,0,8.3,3.7,8.3,8.3c0,4.6-3.7,8.3-8.3,8.3c-4.6,0-8.3-3.7-8.3-8.3
		C4048.3-1979.4,4052-1983.1,4056.6-1983.1z M4109.8-1983c4.6,0,8.3,3.7,8.3,8.3c0,4.6-3.7,8.3-8.3,8.3s-8.3-3.7-8.3-8.3
		C4101.5-1979.3,4105.2-1983,4109.8-1983z"/>
</g>
<g transform="matrix(.1012 .01315 .01315 -.1012 201.32 606.8)">
	<path class="st16" d="M4058.3-1931c-8.4-0.2-16.1,6.9-16.6,15.3c-0.8,8.2,5.5,16.3,13.6,17.6c4.6,1,9.2-0.7,13.2-2.8
		c11.4-5,25.1-4.3,36,1.5c7.5,3.7,17.3,0.5,21.3-6.8c4.2-7,2.2-16.8-4.5-21.6c-5.2-4-12.7-4.3-18.3-1.1c-11.8,5.9-26.4,5.5-38-0.7
		C4063-1930.4,4060.7-1931,4058.3-1931L4058.3-1931z"/>
	<g transform="matrix(.4863 0 0 .4863 308.47 34.488)">
		<path class="st17" d="M7837.4-4007.4c0,9.4-7.6,17-17,17c-9.4,0-17-7.6-17-17s7.6-17,17-17
			C7829.8-4024.5,7837.4-4016.9,7837.4-4007.4z"/>
	</g>
	<g>
		<path class="st18" d="M4066.7-1914.3c0,4.6-3.7,8.3-8.3,8.3c-4.6,0-8.3-3.7-8.3-8.3c0-4.6,3.7-8.3,8.3-8.3
			C4062.9-1922.6,4066.7-1918.9,4066.7-1914.3z"/>
	</g>
</g>
<g transform="matrix(.1012 .01315 .01315 -.1012 184.74 598.44)">
	<path class="st15" d="M4070.3-1991.4c-8.4-0.2-16.1,6.9-16.6,15.3c-0.8,8.2,5.5,16.3,13.6,17.6c4.6,1,9.2-0.7,13.2-2.8
		c11.4-5,25.1-4.3,36,1.6c7.5,3.7,17.4,0.5,21.4-6.8c4.2-7,2.2-16.8-4.5-21.5c-5.2-4-12.7-4.3-18.3-1.1c-11.8,5.9-26.4,5.5-38-0.7
		C4075-1990.9,4072.6-1991.4,4070.3-1991.4z M4070.3-1983.1c4.6,0,8.3,3.7,8.3,8.3s-3.7,8.3-8.3,8.3c-4.6,0-8.3-3.7-8.3-8.3
		S4065.7-1983.1,4070.3-1983.1z M4123.5-1983c4.6,0,8.3,3.7,8.3,8.3s-3.7,8.3-8.3,8.3s-8.3-3.7-8.3-8.3S4118.9-1983,4123.5-1983z"/>
</g>
<g transform="matrix(.1012 .01315 .01315 -.1012 189.16 605.23)">
	<path class="st16" d="M4072-1930.9c-8.4-0.2-16.1,6.9-16.6,15.3c-0.8,8.2,5.5,16.3,13.6,17.6c4.6,1,9.2-0.7,13.2-2.8
		c11.4-5,25.1-4.3,36,1.5c7.5,3.7,17.3,0.5,21.3-6.8c4.2-7,2.2-16.8-4.5-21.6c-5.2-4-12.7-4.3-18.3-1.1c-11.8,5.9-26.4,5.5-38-0.7
		C4076.7-1930.4,4074.4-1930.9,4072-1930.9L4072-1930.9z"/>
	<g transform="matrix(.4863 0 0 .4863 308.47 34.488)">
		<path class="st17" d="M7865.6-4007.4c0,9.4-7.6,17-17,17c-9.4,0-17-7.6-17-17s7.6-17,17-17
			C7857.9-4024.5,7865.6-4016.8,7865.6-4007.4z"/>
	</g>
	<g>
		<path class="st18" d="M4080.3-1914.3c0,4.6-3.7,8.3-8.3,8.3s-8.3-3.7-8.3-8.3s3.7-8.3,8.3-8.3S4080.3-1918.9,4080.3-1914.3z"/>
	</g>
</g>
<g transform="matrix(.0918 .00459 -.00105 -.10222 179.79 601.41)">
	<path class="st15" d="M4132-2277c-8.4-0.2-16.1,6.9-16.6,15.3c-0.8,8.2,5.5,16.3,13.6,17.6c4.6,1,9.2-0.7,13.2-2.8
		c11.4-5,25.1-4.3,36,1.6c7.5,3.7,17.4,0.5,21.4-6.8c4.2-7,2.2-16.8-4.5-21.5c-5.2-4-12.7-4.3-18.3-1.1c-11.8,5.9-26.4,5.5-38-0.7
		C4136.7-2276.5,4134.4-2277,4132-2277z M4132-2268.7c4.6,0,8.3,3.7,8.3,8.3s-3.7,8.3-8.3,8.3c-4.6,0-8.3-3.7-8.3-8.3
		S4127.4-2268.7,4132-2268.7z M4185.2-2268.6c4.6,0,8.3,3.7,8.3,8.3c0,4.6-3.7,8.3-8.3,8.3s-8.3-3.7-8.3-8.3
		C4176.9-2264.9,4180.6-2268.6,4185.2-2268.6z"/>
</g>
<g transform="matrix(.0918 .00459 -.00105 -.10222 184.58 607.81)">
	<path class="st16" d="M4133.8-2216.6c-8.4-0.2-16.1,6.9-16.6,15.3c-0.8,8.2,5.5,16.3,13.6,17.6c4.6,1,9.2-0.7,13.2-2.8
		c11.4-5,25.1-4.3,36,1.5c7.5,3.7,17.3,0.5,21.3-6.8c4.2-7,2.2-16.8-4.5-21.6c-5.2-4-12.7-4.3-18.3-1.1c-11.8,5.9-26.4,5.5-38-0.7
		C4138.4-2216.1,4136.1-2216.6,4133.8-2216.6L4133.8-2216.6z"/>
	<g transform="matrix(.4863 0 0 .4863 308.47 34.488)">
		<path class="st17" d="M7992.5-4594.8c0,9.4-7.6,17-17,17c-9.4,0-17-7.6-17-17s7.6-17,17-17
			C7984.9-4611.8,7992.5-4604.2,7992.5-4594.8z"/>
	</g>
	<g>
		<path class="st18" d="M4142.1-2199.9c0,4.6-3.7,8.3-8.3,8.3c-4.6,0-8.3-3.7-8.3-8.3c0-4.6,3.7-8.3,8.3-8.3
			C4138.4-2208.3,4142.1-2204.5,4142.1-2199.9z"/>
	</g>
</g>
<path class="st57" d="M607.4,876.4c0,0-4.4,0.9-6.9,0.7c-10.1-0.4-9.1,12.3,1.3,11.1c4.5-0.5,7.8-0.9,7.8-0.9
	c0.8-1.8,1.6-2.2,3.7-2.6c7.7-1.3,24.9-4.5,33.3-6.1c2-0.4,3.6-3.4,3-5.3c-0.6-1.7-3.2-2.5-5-2.1c-10.1,2.5-26.1,5.1-34.2,6.4
	C607.9,878,608.5,876.9,607.4,876.4L607.4,876.4z"/>
<g transform="matrix(.68846 -.64907 -.64907 -.68846 813.95 1758.8)">
	<path class="st58" d="M520,806.9h7.1c0.8,0,1.4-0.6,1.4-1.4v-6.4c0-0.8-0.6-1.4-1.4-1.4H520c-0.8,0-1.4,0.6-1.4,1.4v6.4
		C518.6,806.3,519.2,806.9,520,806.9"/>
	<path class="st58" d="M494.6,807.1h7.1c0.8,0,1.4-0.6,1.4-1.4v-6.4c0-0.8-0.6-1.4-1.4-1.4h-7.1c-0.8,0-1.4,0.6-1.4,1.4v6.4
		C493.2,806.4,493.8,807.1,494.6,807.1"/>
	<path class="st59" d="M493.9,802.2c0,4.2,4.3,3.3,8.5,3.3c4.2,0,4.2,1.7,8.4,1.7c3.5,0,5-1.7,8.4-1.7c4.2,0,8.3,0.9,8.3-3.3
		c0-4.2-4.1-3.4-8.2-3.4c-3.8,0-5-1.6-8.4-1.7c-2.5,0-4.2,1.7-8.4,1.7C498.6,798.8,493.9,798,493.9,802.2z"/>
	<path class="st60" d="M499.6,802.2c0-1.1-0.9-1.9-1.9-1.9s-1.9,0.9-1.9,1.9c0,1.1,0.9,1.9,1.9,1.9S499.6,803.3,499.6,802.2z"/>
	<path class="st60" d="M522,802.5c0-1.1,0.9-1.9,1.9-1.9s1.9,0.9,1.9,1.9s-0.9,1.9-1.9,1.9S522,803.5,522,802.5z"/>
	<path class="st61" d="M513.1,802.2c0-1.2-1-2.1-2.1-2.1s-2.1,1-2.1,2.1s1,2.1,2.1,2.1S513.1,803.4,513.1,802.2z"/>
</g>
<g class="st62">
	<path class="st63" d="M539,637c0,0,10.3,6.8,16.2,8.3c7.2,1.9,14.9,0.7,22.4,0.7c14,0,33.8-3.5,42-1.1c1.8,0.5-2.1-3.4-3.8-4.1
		c-7-2.9-15.1,0.5-22.6,0.9c-8.6,0.5-17.2,2.7-25.7,2C557.7,642.9,539,637,539,637L539,637z"/>
</g>
<g>
	<polygon class="st63" points="516.2,724.5 510.5,734.2 468.4,828.5 469.4,831.8 511.6,739.9 517.3,726.3 	"/>
</g>
<g>
	<polygon class="st63" points="726.7,681.8 697.2,710.9 679.5,736.6 669.7,757.1 659.6,791 650.7,830.2 644.7,844.8 634.2,859 
		636.5,861.3 646.7,846.1 653.1,829.8 661.6,791.6 671.6,757.1 681.4,737.5 698.8,712 728.1,683.1 	"/>
</g>
<g class="st64">
	<path class="st47" d="M755.5,685.5c-0.6,0.6,0.2,2.2-0.6,2.5c-0.9,0.4-2.2-0.5-2.8-1.3c-0.7-1.1-1-3.1,0-3.8
		c2.2-1.5,3.4-2.7,5.3-3.8c1.3-0.8,3.7,0,3.7,0l24.1,44.5c0,0-20.8-34.1-24.8-39.7C759.5,682.5,756.7,684.3,755.5,685.5L755.5,685.5
		z"/>
</g>
<g>
	<polygon class="st51" points="784.4,721.1 782.1,725.3 832,816.4 832.3,811 	"/>
</g>
<path class="st65" d="M824.1,800.5l-4.4-3.5l-4.7,2.5l5.1,6.6L824.1,800.5z"/>
<path class="st66" d="M826,804c0,2.1-1.7,3.8-3.8,3.8c-2.1,0-3.8-1.7-3.8-3.8s1.7-3.8,3.8-3.8C824.3,800.2,826,801.9,826,804z"/>
<rect x="386.2" y="1013.2" class="st67" width="584.7" height="131.6"/>
<text transform="matrix(1 0 0 1 386.2334 1112.4062)" class="st68 st69">Re-Cycle</text>
</svg>
